<?xml version="1.0" encoding="UTF-8"?>
<svg version="1.1" xmlns="http://www.w3.org/2000/svg" width="512" height="512">
<path d="M0 0 C1.01790619 0.00215515 2.03581238 0.0043103 3.08456421 0.00653076 C17.69363523 0.05620146 32.02575853 0.30709809 46.375 3.3125 C47.34985352 3.51117676 48.32470703 3.70985352 49.32910156 3.91455078 C88.47564494 12.10330594 124.69815091 27.79453981 156.375 52.3125 C157.261875 52.98667969 158.14875 53.66085938 159.0625 54.35546875 C174.64607275 66.46770077 189.25647311 80.753451 201.375 96.3125 C202.52162109 97.71628906 202.52162109 97.71628906 203.69140625 99.1484375 C238.32002637 142.39252491 256.81365997 197.89189907 256.69067383 253.03979492 C256.6875221 255.97938487 256.71104926 258.9179558 256.73632812 261.85742188 C256.78098737 275.23056192 255.57551542 288.12666711 253.375 301.3125 C253.09281616 303.01805054 253.09281616 303.01805054 252.80493164 304.75805664 C245.77946967 343.86954746 228.79665906 381.05202178 204.375 412.3125 C203.61574219 413.28445313 202.85648437 414.25640625 202.07421875 415.2578125 C189.73986402 430.63741644 175.93895499 445.19015196 160.375 457.3125 C159.43914062 458.07691406 158.50328125 458.84132813 157.5390625 459.62890625 C125.58628299 485.2157721 86.41988322 501.72551276 46.375 509.3125 C45.56562988 509.47621094 44.75625977 509.63992188 43.92236328 509.80859375 C13.88110013 515.67977137 -20.7615176 514.58512909 -50.625 508.3125 C-52.14794678 507.99901611 -52.14794678 507.99901611 -53.70166016 507.67919922 C-90.84546555 499.78695344 -125.70945445 483.68345578 -155.625 460.3125 C-156.59695312 459.55324219 -157.56890625 458.79398437 -158.5703125 458.01171875 C-173.94991644 445.67736402 -188.50265196 431.87645499 -200.625 416.3125 C-201.77162109 414.90871094 -201.77162109 414.90871094 -202.94140625 413.4765625 C-228.5282721 381.52378299 -245.03801276 342.35738322 -252.625 302.3125 C-252.78871094 301.50312988 -252.95242187 300.69375977 -253.12109375 299.85986328 C-258.59069558 271.87335724 -258.46977511 238.21828161 -252.625 210.3125 C-252.42632324 209.33764648 -252.22764648 208.36279297 -252.02294922 207.35839844 C-243.85281954 168.30089461 -228.22714583 131.86349681 -203.625 100.3125 C-202.95210937 99.42820312 -202.27921875 98.54390625 -201.5859375 97.6328125 C-189.48489743 82.04587611 -175.18662021 67.42083932 -159.625 55.3125 C-158.18640625 54.14847656 -158.18640625 54.14847656 -156.71875 52.9609375 C-112.24221148 17.58187277 -56.46801745 -0.21501989 0 0 Z M-155.625 96.3125 C-156.12241699 96.78268555 -156.61983398 97.25287109 -157.13232422 97.73730469 C-165.13838763 105.33444934 -172.03249721 113.47194153 -178.625 122.3125 C-179.05022949 122.87163086 -179.47545898 123.43076172 -179.91357422 124.00683594 C-187.16970107 133.56450244 -193.10360829 143.66807576 -198.625 154.3125 C-199.01574707 155.06128418 -199.40649414 155.81006836 -199.80908203 156.58154297 C-215.67172991 187.3682599 -223.08020261 221.12664341 -223 255.625 C-222.99912384 256.54836151 -222.99824768 257.47172302 -222.99734497 258.42306519 C-222.81378459 317.25448491 -199.15704805 371.11475135 -158.625 413.3125 C-157.7690625 414.2096875 -156.913125 415.106875 -156.03125 416.03125 C-150.26417803 421.9443238 -144.1837581 427.29642238 -137.625 432.3125 C-136.98030762 432.8065332 -136.33561523 433.30056641 -135.67138672 433.80957031 C-124.83901324 442.03586549 -113.72845013 449.11374313 -101.625 455.3125 C-100.8820166 455.69889648 -100.1390332 456.08529297 -99.37353516 456.48339844 C-47.31468466 483.31692993 13.98450289 486.84888824 69.49414062 469.26123047 C102.96928428 458.23712808 132.08101384 439.60803934 157.375 415.3125 C158.72078125 414.02859375 158.72078125 414.02859375 160.09375 412.71875 C166.01226517 406.94637101 171.31283335 400.84514578 176.375 394.3125 C176.79894043 393.77028809 177.22288086 393.22807617 177.65966797 392.66943359 C208.01011115 353.60307944 223.86836364 305.74996348 223.75 256.4375 C223.74912384 255.5403125 223.74824768 254.643125 223.74734497 253.71875 C223.55922394 195.06143939 199.70451388 141.38198287 159.375 99.3125 C158.48039062 98.36503906 157.58578125 97.41757813 156.6640625 96.44140625 C149.75998731 89.30449568 142.30488392 83.24414885 134.375 77.3125 C133.81441895 76.88582031 133.25383789 76.45914063 132.67626953 76.01953125 C123.12016384 68.76526124 113.01727007 62.83277431 102.375 57.3125 C101.62621582 56.92175293 100.87743164 56.53100586 100.10595703 56.12841797 C16.70694409 13.15764006 -86.89826482 30.68228687 -155.625 96.3125 Z " fill="#000000" transform="translate(255.625,-0.3125)"/>
<path d="M0 0 C4.8846525 2.26787438 7.73212562 5.1153475 10 10 C11.00790566 17.48729917 10.468364 21.83712426 6 28 C4.43036861 29.73844588 2.81113719 31.43299193 1.15313721 33.08737183 C0.68011099 33.5621069 0.20708477 34.03684197 -0.28027558 34.52596295 C-1.85239582 36.10135405 -3.43151266 37.6695311 -5.01074219 39.23779297 C-6.14475251 40.37123865 -7.27832164 41.50512589 -8.41148376 42.63941956 C-11.47900155 45.70750982 -14.55263493 48.76940587 -17.62742138 51.83020926 C-20.843436 55.033699 -24.05376633 58.24287496 -27.26470947 61.45144653 C-33.34149481 67.52202228 -39.42335921 73.58748286 -45.50707459 79.65111268 C-52.43480992 86.55647283 -59.3568492 93.46753078 -66.27842093 100.37906814 C-80.51262793 114.59238492 -94.75395652 128.79854762 -109 143 C-107.45418292 146.68326522 -105.22486008 149.01702493 -102.40710449 151.81994629 C-101.93719825 152.29015025 -101.46729201 152.7603542 -100.98314619 153.24480677 C-99.40948024 154.81708524 -97.8287865 156.3821015 -96.24804688 157.94726562 C-95.11756267 159.07391102 -93.98753332 160.20101299 -92.85792542 161.32853699 C-90.42550904 163.75463252 -87.99002016 166.17758601 -85.55213928 168.59819031 C-81.69819573 172.42509882 -77.85188332 176.25961531 -74.00671387 180.09533691 C-65.84369991 188.23614616 -57.6722809 196.36849515 -49.5 204.5 C-40.67767523 213.27830528 -31.856788 222.05802533 -23.04562616 230.84753752 C-19.22211615 234.66107516 -15.39377987 238.46968072 -11.56169891 242.2746048 C-9.17993355 244.64146298 -6.80230861 247.01244699 -4.4257946 249.3845768 C-3.32218477 250.48443907 -2.21684565 251.58256927 -1.10966682 252.67883873 C0.40057273 254.17466273 1.90453437 255.6765316 3.40710449 257.18005371 C4.25071281 258.01922081 5.09432114 258.85838791 5.96349335 259.72298431 C10.33554462 264.61136968 10.43703505 268.68794951 10.3125 275.0859375 C9.74397844 280.38740101 7.22134216 282.83972495 3.5 286.375 C-1.55778486 288.72325726 -6.51685793 288.97097307 -12 288 C-16.40966547 285.36121348 -20.04418347 282.24275747 -23.64337158 278.6105957 C-24.44523742 277.81340984 -24.44523742 277.81340984 -25.26330256 277.00011921 C-27.0413057 275.23005057 -28.81212483 273.45297111 -30.58300781 271.67578125 C-31.86100607 270.4004948 -33.13942903 269.12563384 -34.41824341 267.85116577 C-37.8812768 264.39723411 -41.33797323 260.93702529 -44.79328251 257.4753685 C-48.4114996 253.85208217 -52.03460032 250.23368451 -55.65692139 246.61450195 C-61.73647233 240.53858702 -67.81179967 234.4584728 -73.88476562 228.37597656 C-80.90769802 221.34215055 -87.9378196 214.3155717 -94.97169995 207.29269505 C-101.01200479 201.26146178 -107.04840886 195.22634522 -113.08156085 189.18795681 C-116.68446083 185.58193769 -120.28870115 181.97728618 -123.89646149 178.37612915 C-127.28595763 174.99240426 -130.67053532 171.60383583 -134.05135727 168.21144485 C-135.29367133 166.96648347 -136.53769573 165.72322613 -137.783535 164.48179245 C-139.48187393 162.78890715 -141.17395036 161.09000047 -142.86456299 159.3894043 C-143.36046787 158.89796086 -143.85637274 158.40651743 -144.36730504 157.90018177 C-148.79710996 153.41938935 -150.29496192 150.4159933 -150.375 144.125 C-150.40335938 143.11695313 -150.43171875 142.10890625 -150.4609375 141.0703125 C-149.53278952 134.88790305 -144.90742498 130.61445003 -140.6105957 126.35662842 C-139.81340984 125.55476258 -139.81340984 125.55476258 -139.00011921 124.73669744 C-137.23005057 122.9586943 -135.45297111 121.18787517 -133.67578125 119.41699219 C-132.4004948 118.13899393 -131.12563384 116.86057097 -129.85116577 115.58175659 C-126.39723411 112.1187232 -122.93702529 108.66202677 -119.4753685 105.20671749 C-115.85208217 101.5885004 -112.23368451 97.96539968 -108.61450195 94.34307861 C-102.53858702 88.26352767 -96.4584728 82.18820033 -90.37597656 76.11523438 C-83.34215055 69.09230198 -76.3155717 62.0621804 -69.29269505 55.02830005 C-63.26146178 48.98799521 -57.22634522 42.95159114 -51.18795681 36.91843915 C-47.58193769 33.31553917 -43.97728618 29.71129885 -40.37612915 26.10353851 C-36.99240426 22.71404237 -33.60383583 19.32946468 -30.21144485 15.94864273 C-28.96648347 14.70632867 -27.72322613 13.46230427 -26.48179245 12.216465 C-24.78890715 10.51812607 -23.09000047 8.82604964 -21.3894043 7.13543701 C-20.89796086 6.63953213 -20.40651743 6.14362726 -19.90018177 5.63269496 C-13.74586249 -0.45159355 -8.46103497 -0.90734959 0 0 Z " fill="#000000" transform="translate(310,112)"/>
</svg>
