<?xml version="1.0" encoding="UTF-8"?>
<svg version="1.1" xmlns="http://www.w3.org/2000/svg" width="512" height="512">
<path d="M0 0 C0.94488785 -0.00705963 1.8897757 -0.01411926 2.86329651 -0.02139282 C41.91562467 -0.247035 41.91562467 -0.247035 58.76953125 3.203125 C59.7661377 3.39648438 60.76274414 3.58984375 61.78955078 3.7890625 C100.40821693 11.41976708 136.53468579 27.14110236 167.76953125 51.203125 C168.58164062 51.82316406 169.39375 52.44320312 170.23046875 53.08203125 C187.29561497 66.40576529 203.65598021 82.02237644 216.49560547 99.48486328 C217.79203791 101.23348182 219.12241843 102.95141303 220.4609375 104.66796875 C228.32520366 114.8826848 234.71064045 125.84037758 240.76953125 137.203125 C241.43299561 138.44376709 241.43299561 138.44376709 242.10986328 139.70947266 C253.62657967 161.61261762 261.29758965 185.90372389 265.76953125 210.203125 C265.9303418 211.00379395 266.09115234 211.80446289 266.25683594 212.62939453 C271.74897535 240.70724953 271.50349817 274.19290435 265.76953125 302.203125 C265.57617188 303.19973145 265.3828125 304.19633789 265.18359375 305.22314453 C257.06481252 346.31194555 239.6953801 383.40611994 213.76953125 416.203125 C212.95742188 417.24082031 212.1453125 418.27851563 211.30859375 419.34765625 C198.63941514 434.91435994 184.08154161 449.48099025 167.76953125 461.203125 C166.59964669 462.0668777 165.43038875 462.93147969 164.26171875 463.796875 C143.63570695 478.94020242 121.02655998 491.0223415 96.76953125 499.203125 C95.5470166 499.61618896 95.5470166 499.61618896 94.29980469 500.03759766 C84.52895448 503.27568006 74.64734388 505.80797973 64.58203125 507.953125 C63.65737061 508.15188232 62.73270996 508.35063965 61.7800293 508.55541992 C45.57341948 511.84811527 29.63916105 512.57842778 13.14453125 512.515625 C11.61717346 512.51239227 11.61717346 512.51239227 10.05895996 512.50909424 C-4.56294299 512.45939896 -18.86180807 512.15373742 -33.23046875 509.203125 C-34.24302734 509.00444824 -35.25558594 508.80577148 -36.29882812 508.60107422 C-77.39146924 500.38377705 -114.32683292 482.94295303 -147.23046875 457.203125 C-147.76961914 456.78401855 -148.30876953 456.36491211 -148.86425781 455.93310547 C-165.1043318 443.17008625 -180.17509218 427.97886011 -192.23046875 411.203125 C-193.09422145 410.03324044 -193.95882344 408.8639825 -194.82421875 407.6953125 C-209.96754617 387.0693007 -222.04968525 364.46015373 -230.23046875 340.203125 C-230.64353271 338.98061035 -230.64353271 338.98061035 -231.06494141 337.73339844 C-234.30302381 327.96254823 -236.83532348 318.08093763 -238.98046875 308.015625 C-239.17922607 307.09096436 -239.3779834 306.16630371 -239.58276367 305.21362305 C-242.87545902 289.00701323 -243.60577153 273.0727548 -243.54296875 256.578125 C-243.5408136 255.55988647 -243.53865845 254.54164795 -243.53643799 253.49255371 C-243.48673484 238.8683366 -243.17254863 224.57507862 -240.23046875 210.203125 C-239.94042969 208.70821533 -239.94042969 208.70821533 -239.64453125 207.18310547 C-230.21384757 159.45482289 -208.24432101 115.15908049 -174.23046875 80.203125 C-173.53791992 79.48479492 -172.84537109 78.76646484 -172.13183594 78.02636719 C-162.39274534 67.95866957 -152.64325716 58.35375276 -141.23046875 50.203125 C-140.61139648 49.75565918 -139.99232422 49.30819336 -139.35449219 48.84716797 C-99.20200514 19.97811463 -49.94969891 0.24934766 0 0 Z M-117.23046875 84.203125 C-118.23980469 84.98300781 -119.24914062 85.76289062 -120.2890625 86.56640625 C-127.23301727 92.11172048 -133.76220255 98.11643997 -140.23046875 104.203125 C-140.88917969 104.81929688 -141.54789063 105.43546875 -142.2265625 106.0703125 C-178.54147775 141.12720528 -201.59901758 195.27657821 -202.56640625 245.50390625 C-202.6070769 248.84140335 -202.61331175 252.17791443 -202.60546875 255.515625 C-202.60492493 256.3906366 -202.6043811 257.26564819 -202.6038208 258.16717529 C-202.4723899 304.36881588 -187.70220822 349.53168979 -159.23046875 386.203125 C-158.45058594 387.21246094 -157.67070312 388.22179687 -156.8671875 389.26171875 C-151.32187327 396.20567352 -145.31715378 402.7348588 -139.23046875 409.203125 C-138.61429688 409.86183594 -137.998125 410.52054687 -137.36328125 411.19921875 C-100.40034833 449.48857271 -44.51695771 470.7992088 8.0703125 472.19921875 C68.60851358 472.78821593 122.07718136 449.31794058 165.76953125 408.203125 C166.42824219 407.58695312 167.08695312 406.97078125 167.765625 406.3359375 C204.08054025 371.27904472 227.13808008 317.12967179 228.10546875 266.90234375 C228.1461394 263.56484665 228.15237425 260.22833557 228.14453125 256.890625 C228.14398743 256.0156134 228.1434436 255.14060181 228.1428833 254.23907471 C228.0114524 208.03743412 213.24127072 162.87456021 184.76953125 126.203125 C183.98964844 125.19378906 183.20976562 124.18445313 182.40625 123.14453125 C176.86093577 116.20057648 170.85621628 109.6713912 164.76953125 103.203125 C164.15335937 102.54441406 163.5371875 101.88570312 162.90234375 101.20703125 C125.78561145 62.7583588 69.74760745 41.41659748 17.01953125 40.234375 C-31.12807912 39.73873783 -79.0213262 54.53750799 -117.23046875 84.203125 Z " fill="#000000" transform="translate(243.23046875,-0.203125)"/>
<path d="M0 0 C3.99284026 1.60532401 6.67304347 4.39908928 9.644104 7.40359497 C10.48227523 8.23920293 10.48227523 8.23920293 11.33737922 9.09169185 C13.20919798 10.96021544 15.07377721 12.83579931 16.93847656 14.71142578 C18.27852143 16.05203476 19.61900678 17.39220357 20.9598999 18.73196411 C24.60040279 22.37189247 28.23470023 26.01796057 31.86793232 29.66514444 C35.6653614 33.47506409 39.4684435 37.27933216 43.27093506 41.084198 C50.47134033 48.29082296 57.66663157 55.50253165 64.86010909 62.71607101 C73.04957417 70.92787986 81.24470944 79.13401996 89.44033098 87.33968377 C106.29988039 104.22014625 123.15228013 121.10773149 140 138 C138.39467599 141.99284026 135.60091072 144.67304347 132.59640503 147.644104 C132.03933306 148.20288482 131.48226109 148.76166564 130.90830815 149.33737922 C129.03978456 151.20919798 127.16420069 153.07377721 125.28857422 154.93847656 C123.94796524 156.27852143 122.60779643 157.61900678 121.26803589 158.9598999 C117.62810753 162.60040279 113.98203943 166.23470023 110.33485556 169.86793232 C106.52493591 173.6653614 102.72066784 177.4684435 98.915802 181.27093506 C91.70917704 188.47134033 84.49746835 195.66663157 77.28392899 202.86010909 C69.07212014 211.04957417 60.86598004 219.24470944 52.66031623 227.44033098 C35.77985375 244.29988039 18.89226851 261.15228013 2 278 C-2.12390399 276.1068216 -4.93280604 273.32174632 -8.078125 270.1171875 C-8.64956238 269.54292023 -9.22099976 268.96865295 -9.80975342 268.37698364 C-11.62792945 266.5476419 -13.43901492 264.71145807 -15.25 262.875 C-16.48391329 261.63105226 -17.71828322 260.3875573 -18.953125 259.14453125 C-21.97406743 256.10157633 -24.98867092 253.05246746 -28 250 C-26.49191128 246.46668244 -24.4443918 244.19747834 -21.73532104 241.49481201 C-20.84067139 240.59741302 -19.94602173 239.70001404 -19.02426147 238.77542114 C-18.03042687 237.78866426 -17.03649666 236.80200366 -16.04248047 235.81542969 C-14.99743417 234.77094764 -13.95282829 233.72602478 -12.90863037 232.68069458 C-10.07445727 229.84594754 -7.23415901 227.01741025 -4.39272833 224.18994045 C-1.42362069 221.23333334 1.53982604 218.27106341 4.50387573 215.30938721 C10.11678277 209.70269692 15.7347687 204.10112448 21.35459316 198.50136876 C27.75265569 192.12565912 34.14504171 185.74427112 40.53695512 179.36239767 C53.68499314 166.23526608 66.84014971 153.11528931 80 140 C78.49191128 136.46668244 76.4443918 134.19747834 73.73532104 131.49481201 C72.84067139 130.59741302 71.94602173 129.70001404 71.02426147 128.77542114 C70.03042687 127.78866426 69.03649666 126.80200366 68.04248047 125.81542969 C66.99743417 124.77094764 65.95282829 123.72602478 64.90863037 122.68069458 C62.07445727 119.84594754 59.23415901 117.01741025 56.39272833 114.18994045 C53.42362069 111.23333334 50.46017396 108.27106341 47.49612427 105.30938721 C41.88321723 99.70269692 36.2652313 94.10112448 30.64540684 88.50136876 C24.24734431 82.12565912 17.85495829 75.74427112 11.46304488 69.36239767 C-1.68499314 56.23526608 -14.84014971 43.11528931 -28 30 C-26.1068216 25.87609601 -23.32174632 23.06719396 -20.1171875 19.921875 C-19.54292023 19.35043762 -18.96865295 18.77900024 -18.37698364 18.19024658 C-16.5476419 16.37207055 -14.71145807 14.56098508 -12.875 12.75 C-11.63105226 11.51608671 -10.3875573 10.28171678 -9.14453125 9.046875 C-6.10157633 6.02593257 -3.05246746 3.01132908 0 0 Z " fill="#000000" transform="translate(221,117)"/>
</svg>
