<?xml version="1.0" encoding="UTF-8"?>
<svg version="1.1" xmlns="http://www.w3.org/2000/svg" width="512" height="512">
<path d="M0 0 C0.99261841 0.00215515 1.98523682 0.0043103 3.00793457 0.00653076 C17.83440163 0.05816285 32.35262639 0.38658718 46.9375 3.3125 C48.42540039 3.61051514 48.42540039 3.61051514 49.94335938 3.91455078 C88.95886984 12.02758917 125.4449378 27.73610824 156.9375 52.3125 C157.83339844 52.99699219 158.72929687 53.68148437 159.65234375 54.38671875 C175.21167637 66.50480877 189.84851276 80.73459548 201.9375 96.3125 C202.700625 97.24707031 203.46375 98.18164062 204.25 99.14453125 C231.29371972 132.90584161 248.48470336 174.68706337 254.9375 217.3125 C255.11482666 218.43132568 255.29215332 219.55015137 255.47485352 220.70288086 C257.15626341 232.42485947 257.29484341 244.04748976 257.25 255.875 C257.24784485 256.89540375 257.2456897 257.9158075 257.24346924 258.96713257 C257.19383352 273.59460524 256.94669712 287.94513838 253.9375 302.3125 C253.63948486 303.77478027 253.63948486 303.77478027 253.33544922 305.26660156 C243.21482806 353.6484774 221.2983123 397.63678269 186.9375 433.3125 C186.30537598 433.97185547 185.67325195 434.63121094 185.02197266 435.31054688 C175.87752521 444.79880305 166.58015991 453.5387044 155.9375 461.3125 C154.78644983 462.17056152 153.63540823 463.02863451 152.484375 463.88671875 C144.29474019 469.92427396 135.79211724 475.30707302 126.9375 480.3125 C126.23028809 480.7146875 125.52307617 481.116875 124.79443359 481.53125 C101.65904164 494.5566741 76.48787591 503.30551461 50.5 508.625 C49.78110596 508.77235596 49.06221191 508.91971191 48.3215332 509.0715332 C33.64589502 511.86090125 19.12081162 512.66142619 4.21020508 512.62817383 C1.27061513 512.6250221 -1.6679558 512.64854926 -4.60742188 512.67382812 C-17.98056192 512.71848737 -30.87666711 511.51301542 -44.0625 509.3125 C-45.76805054 509.03031616 -45.76805054 509.03031616 -47.50805664 508.74243164 C-90.77552759 500.97044532 -131.82543216 480.98345309 -165.0625 452.3125 C-165.80757813 451.67828125 -166.55265625 451.0440625 -167.3203125 450.390625 C-180.82529833 438.57948485 -193.49668743 425.82889772 -204.0625 411.3125 C-204.91899066 410.16255169 -205.77576433 409.01281411 -206.6328125 407.86328125 C-212.67284209 399.67315742 -218.05617614 391.16870382 -223.0625 382.3125 C-223.4646875 381.60528809 -223.866875 380.89807617 -224.28125 380.16943359 C-237.3066741 357.03404164 -246.05551461 331.86287591 -251.375 305.875 C-251.52235596 305.15610596 -251.66971191 304.43721191 -251.8215332 303.6965332 C-254.79539088 288.05024391 -255.43550362 272.57681954 -255.375 256.6875 C-255.37284485 255.66959381 -255.3706897 254.65168762 -255.36846924 253.60293579 C-255.31879854 238.99386477 -255.06790191 224.66174147 -252.0625 210.3125 C-251.86382324 209.33764648 -251.66514648 208.36279297 -251.46044922 207.35839844 C-241.33982806 158.9765226 -219.4233123 114.98821731 -185.0625 79.3125 C-184.43037598 78.65314453 -183.79825195 77.99378906 -183.14697266 77.31445312 C-174.00252521 67.82619695 -164.70515991 59.0862956 -154.0625 51.3125 C-152.91144983 50.45443848 -151.76040823 49.59636549 -150.609375 48.73828125 C-142.41974019 42.70072604 -133.91711724 37.31792698 -125.0625 32.3125 C-124.35528809 31.9103125 -123.64807617 31.508125 -122.91943359 31.09375 C-99.78404164 18.0683259 -74.61287591 9.31948539 -48.625 4 C-47.90610596 3.85264404 -47.18721191 3.70528809 -46.4465332 3.5534668 C-30.98940107 0.61556182 -15.69740187 -0.06136669 0 0 Z M-173.0625 105.3125 C-177.03563241 109.76146339 -180.62774503 114.43948984 -184.0625 119.3125 C-184.54235352 119.99103027 -185.02220703 120.66956055 -185.51660156 121.36865234 C-221.98511643 173.45149286 -236.50742094 235.41614133 -225.55859375 298.20214844 C-218.96014738 333.11281747 -204.53395674 366.03214171 -183.0625 394.3125 C-182.39734375 395.19035156 -181.7321875 396.06820313 -181.046875 396.97265625 C-175.75814224 403.75556351 -169.98198911 410.08186318 -164.0625 416.3125 C-163.55557617 416.84810547 -163.04865234 417.38371094 -162.52636719 417.93554688 C-155.13486136 425.6913253 -147.3951674 432.62678664 -138.79785156 439.02148438 C-137.66728336 439.86257113 -136.54135704 440.70994514 -135.42089844 441.56445312 C-88.54755874 477.30714479 -27.98423504 491.88072382 30.17285156 484.79321289 C71.865698 479.1121072 111.19788495 462.8710027 143.9375 436.3125 C144.52934082 435.83490234 145.12118164 435.35730469 145.73095703 434.86523438 C159.02876364 424.03947939 171.58993436 412.01555806 181.9375 398.3125 C182.42428223 397.67505859 182.91106445 397.03761719 183.41259766 396.38085938 C191.147134 386.19975593 197.91214414 375.78928839 203.82177734 364.45019531 C204.88001145 362.42264656 205.96317306 360.41033402 207.05078125 358.3984375 C233.91898755 307.78428465 237.58166132 245.86523103 221.9375 191.3125 C207.38443939 144.23859424 178.55155461 100.04342034 137.9375 71.3125 C137.25751953 70.83119629 136.57753906 70.34989258 135.87695312 69.85400391 C54.65941131 12.99077887 -51.82600372 11.91826563 -173.0625 105.3125 Z " fill="#000000" transform="translate(255.0625,-0.31250000000000006)"/>
<path d="M0 0 C4.97655367 2.49979663 8.70455098 5.31526772 12.75 9.1875 C16.53759535 12.76100611 20.3675637 16.18155096 24.4375 19.4375 C29.21621628 23.28110057 33.69157687 27.36960164 38.16381836 31.55834961 C41.51099327 34.67553945 44.93005023 37.63573798 48.5 40.5 C53.26108478 44.31994011 57.71273025 48.38938819 62.1640625 52.55859375 C65.51116869 55.67568554 68.93014141 58.63581113 72.5 61.5 C77.25815978 65.31759331 81.7088082 69.38294893 86.15527344 73.55200195 C89.58068938 76.7446078 93.09149464 79.75967378 96.75 82.6875 C111.42396107 94.47830743 111.42396107 94.47830743 112.34375 100.1015625 C112.64384921 104.94816477 112.47009787 108.16248235 109.25 111.9375 C107.86423093 113.32326907 106.44303509 114.67396775 105 116 C104.0925 116.86625 103.185 117.7325 102.25 118.625 C96.66252467 123.89902934 90.83489063 128.80546207 84.84765625 133.62109375 C81.04561367 136.7972857 77.45096248 140.17270822 73.83618164 143.55834961 C69.64670474 147.4599667 65.27827064 151.07324797 60.8125 154.65625 C57.60150195 157.33208171 54.54970863 160.14358276 51.5 163 C46.76133536 167.43832674 41.87880674 171.5914225 36.8125 175.65625 C33.60149423 178.33208814 30.54979875 181.14366866 27.5 184 C22.63833105 188.5510743 17.64386201 192.85550422 12.4453125 197.0234375 C10.24728767 198.80011572 8.11832969 200.62984283 6 202.5 C1.65200629 206.1233281 -1.44273645 206.38325955 -7 206 C-11.10655915 204.18547386 -13.6323122 201.80521254 -16 198 C-17.22099308 193.97985952 -17.30762974 190.94211609 -16 186.9375 C-11.45703254 180.26501654 -5.26610061 175.53931652 0.9765625 170.51953125 C4.25933967 167.7838836 7.38360715 164.92144547 10.5 162 C15.23844531 157.56144748 20.12121317 153.40856153 25.1875 149.34375 C28.39849805 146.66791829 31.45029137 143.85641724 34.5 141 C39.23866464 136.56167326 44.12119326 132.4085775 49.1875 128.34375 C52.9722329 125.18980592 56.55076494 121.83662811 60.13549805 118.45898438 C64.56315297 114.31649143 69.20503587 110.58736242 74.05078125 106.9375 C74.69402344 106.298125 75.33726562 105.65875 76 105 C76 103.68 76 102.36 76 101 C73.94357537 98.95258161 71.94188549 97.17833402 69.6875 95.375 C68.39199111 94.30488247 67.09773423 93.23324756 65.8046875 92.16015625 C65.15854492 91.62793457 64.51240234 91.09571289 63.84667969 90.54736328 C61.25891814 88.37903532 58.78968958 86.10659296 56.3125 83.8125 C52.83863691 80.62263156 49.30089975 77.57951106 45.625 74.625 C40.8285929 70.75781137 36.3295854 66.65019284 31.83642578 62.44189453 C28.48918215 59.32460664 25.07004094 56.36433518 21.5 53.5 C16.74344751 49.68369626 12.29444113 45.61963358 7.84912109 41.45239258 C4.38004712 38.21958788 0.8227968 35.16093387 -2.875 32.1875 C-15.89191074 21.67895746 -15.89191074 21.67895746 -17 16 C-17 9.84728273 -15.67603966 6.8763352 -11.5703125 2.34765625 C-8.12678153 -0.60761286 -4.31143345 -0.35928612 0 0 Z " fill="#000000" transform="translate(221,153)"/>
</svg>
