<?xml version="1.0" standalone="no"?>
<!DOCTYPE svg PUBLIC "-//W3C//DTD SVG 20010904//EN"
 "http://www.w3.org/TR/2001/REC-SVG-20010904/DTD/svg10.dtd">
<svg version="1.0" xmlns="http://www.w3.org/2000/svg"
 width="1749.000000pt" height="1834.000000pt" viewBox="0 0 1749.000000 1834.000000"
 preserveAspectRatio="xMidYMid meet">

<g transform="translate(0.000000,1834.000000) scale(0.100000,-0.100000)"
fill="#000000" stroke="none">
<path d="M10885 17710 c-224 -45 -410 -225 -487 -470 -19 -63 -23 -95 -22
-205 0 -113 4 -141 27 -210 15 -44 43 -108 63 -142 48 -80 150 -182 187 -185
15 -1 27 -6 27 -11 0 -5 -8 -6 -17 -3 -15 5 -15 4 1 -9 11 -8 26 -15 34 -15 9
0 12 -6 8 -17 -4 -13 -1 -12 13 5 22 25 109 278 105 305 -2 14 6 17 52 17 46
0 54 -3 54 -19 0 -19 -28 -49 -39 -42 -3 2 -9 -11 -12 -30 -3 -19 -16 -70 -28
-113 -28 -105 -28 -106 13 -106 23 0 36 -5 40 -17 3 -10 9 -23 12 -30 3 -6 -5
-13 -18 -16 -13 -2 15 -5 62 -6 161 -2 295 54 417 176 150 151 226 390 193
608 -41 273 -223 479 -465 530 -76 16 -156 18 -220 5z m297 -142 c32 -7 58
-16 58 -21 0 -14 32 -36 51 -37 8 0 26 11 39 25 l24 25 29 -27 c46 -45 97
-128 130 -216 30 -79 32 -88 32 -237 0 -129 -3 -160 -17 -187 -21 -37 -33 -42
-118 -45 -156 -5 -282 21 -319 66 -9 11 -18 13 -30 6 -54 -28 -117 -41 -241
-46 l-135 -6 -31 29 c-72 67 -71 304 1 461 54 117 92 147 206 161 39 5 78 16
87 24 42 36 132 46 234 25z m-4 -765 c-21 -2 -57 -2 -80 0 -24 2 -7 4 37 4 44
0 63 -2 43 -4z m185 -57 c5 -8 9 -8 15 1 8 12 77 21 88 11 13 -13 -78 -150
-140 -211 -54 -53 -158 -117 -192 -117 -9 0 -54 44 -54 54 0 2 36 25 79 51
l80 48 -5 39 c-3 22 -1 38 6 38 5 0 10 -12 11 -27 0 -16 3 -23 5 -17 3 6 1 42
-4 80 l-8 69 56 -4 c30 -1 58 -8 63 -15z m-180 7 c-23 -2 -64 -2 -90 0 -26 2
-7 3 42 3 50 0 71 -1 48 -3z m-403 -13 c-37 -12 -92 -12 -85 0 3 6 30 10 58 9
41 -1 47 -3 27 -9z m-170 -82 c0 -101 -16 -95 -26 10 -6 63 -5 72 10 72 13 0
16 -13 16 -82z m58 75 c-10 -2 -26 -2 -35 0 -10 3 -2 5 17 5 19 0 27 -2 18 -5z"/>
<path d="M4185 17476 c-175 -40 -314 -154 -400 -329 -99 -201 -101 -426 -5
-622 41 -84 134 -200 152 -189 6 4 8 2 5 -3 -7 -11 87 -78 108 -78 5 0 21 -24
35 -53 27 -55 34 -62 520 -455 377 -305 350 -278 351 -336 l1 -46 9 37 c8 37
-2 86 -20 98 -9 5 -121 96 -565 458 -324 264 -308 240 -272 431 14 75 23 146
19 159 -5 22 -3 23 43 20 38 -2 50 -7 52 -21 2 -12 -4 -20 -16 -24 -17 -4 -21
-17 -27 -101 -4 -54 -14 -117 -22 -141 -14 -42 -14 -45 8 -75 14 -19 16 -26 6
-17 -9 7 -17 10 -17 5 1 -5 46 -45 102 -89 55 -44 130 -105 167 -135 37 -30
106 -86 152 -123 46 -37 91 -73 99 -80 8 -7 51 -41 95 -77 130 -105 209 -173
221 -188 9 -13 12 -12 16 6 5 17 -26 46 -183 173 -104 84 -196 154 -205 155
-10 2 -20 6 -23 11 -3 5 -54 46 -113 92 -59 46 -105 87 -103 92 3 4 -38 43
-91 85 -81 65 -94 79 -78 85 18 7 18 8 -2 8 -17 1 -44 35 -44 55 0 2 28 6 63
8 84 7 167 33 219 68 64 44 88 37 88 -25 0 -26 -39 -54 -118 -86 -42 -17 -43
-19 -12 -13 74 13 163 66 241 144 90 90 138 171 175 298 24 85 26 105 22 225
-5 147 -27 229 -90 334 -41 69 -131 162 -190 197 -108 63 -258 88 -373 62z
m343 -151 c26 -14 55 -31 64 -38 14 -9 22 -9 39 1 19 12 25 10 51 -15 35 -33
101 -166 119 -243 16 -65 17 -283 2 -320 -9 -22 -17 -25 -69 -27 -33 -1 -93
-7 -135 -12 -82 -10 -129 -4 -178 25 -26 15 -36 16 -63 7 -74 -27 -210 -46
-291 -41 -65 4 -72 6 -98 37 -33 40 -45 120 -36 245 9 122 46 217 119 307 22
26 72 48 129 54 30 4 63 11 74 16 31 15 104 27 168 28 44 1 69 -5 105 -24z
m-81 -775 c-31 -4 -72 -4 -90 0 -22 6 -5 8 58 8 85 -1 87 -1 32 -8z m264 -53
c-46 -80 -56 -86 -69 -37 -8 32 -7 40 4 40 8 0 14 5 14 10 0 6 13 10 29 10 21
0 32 6 36 21 4 11 9 18 12 15 3 -2 -9 -29 -26 -59z m-616 43 c-3 -5 -41 -10
-83 -10 -53 0 -72 3 -62 10 20 13 153 13 145 0z m-165 -82 c0 -100 -15 -94
-28 10 -8 66 -7 72 10 72 16 0 18 -9 18 -82z m627 36 c-3 -3 -12 -4 -19 -1 -8
3 -5 6 6 6 11 1 17 -2 13 -5z m-27 -66 c0 -25 -3 -29 -10 -18 -13 20 -13 50 0
50 6 0 10 -15 10 -32z m-250 -320 c49 -39 88 -73 86 -76 -3 -2 -42 26 -88 63
-98 80 -104 85 -95 85 4 0 48 -32 97 -72z"/>
<path d="M4168 16548 c17 -8 26 -8 34 0 9 9 4 12 -22 11 -33 0 -34 -1 -12 -11z"/>
<path d="M4120 16235 c0 -5 5 -17 10 -25 5 -8 10 -10 10 -5 0 6 -5 17 -10 25
-5 8 -10 11 -10 5z"/>
<path d="M4313 16203 c9 -2 25 -2 35 0 9 3 1 5 -18 5 -19 0 -27 -2 -17 -5z"/>
<path d="M10154 16084 c-18 -14 -18 -15 4 -4 12 6 22 13 22 15 0 8 -5 6 -26
-11z"/>
<path d="M10074 15964 c-18 -14 -18 -14 6 -3 31 14 36 19 24 19 -6 0 -19 -7
-30 -16z"/>
<path d="M10013 15930 c-34 -20 -47 -38 -15 -21 23 13 58 40 52 41 -3 0 -20
-9 -37 -20z"/>
<path d="M9915 15870 c-27 -17 -46 -30 -41 -30 11 0 96 49 96 55 0 7 0 7 -55
-25z"/>
<path d="M9634 15764 c-18 -14 -18 -15 4 -4 12 6 22 13 22 15 0 8 -5 6 -26
-11z"/>
<path d="M6997 15736 c-12 -12 -87 -17 -388 -25 -341 -10 -375 -9 -386 6 -19
24 -160 14 -182 -14 -9 -12 -34 -26 -56 -33 -72 -23 -133 -59 -201 -120 -38
-33 -72 -60 -76 -60 -19 0 -99 -127 -118 -187 -21 -69 -27 -153 -10 -153 6 0
10 -19 10 -41 0 -32 9 -53 35 -90 19 -27 35 -54 35 -59 0 -6 24 -10 53 -11
103 -2 322 3 329 8 5 2 8 -5 8 -17 0 -18 3 -19 20 -10 11 6 20 8 20 5 0 -4 6
0 14 7 11 12 147 16 732 27 396 6 744 12 775 13 38 1 64 -5 83 -17 l27 -18 -7
-101 c-4 -56 -7 -120 -7 -143 1 -24 -2 -43 -7 -43 -4 0 -6 -29 -4 -65 2 -37
-1 -65 -6 -65 -6 0 -10 -6 -10 -13 0 -8 -10 -23 -23 -35 -22 -21 -33 -22 -378
-28 -194 -4 -376 -6 -404 -5 -27 1 -185 -2 -350 -8 -369 -13 -759 -20 -1363
-26 -254 -3 -466 -6 -470 -6 -21 -3 -51 16 -55 34 -3 12 -4 54 -2 92 2 39 7
129 10 202 5 135 11 167 26 157 5 -3 9 2 9 10 0 11 10 17 33 18 17 1 48 2 67
3 19 2 108 4 197 6 l162 4 7 27 c3 16 12 28 19 28 8 0 19 8 24 18 15 25 13 9
-4 -32 -8 -20 -12 -36 -7 -36 4 0 13 14 19 30 11 30 15 31 90 34 11 1 25 4 29
9 14 14 25 7 19 -13 -5 -15 -2 -20 13 -20 27 0 34 35 11 56 -16 14 -26 15 -80
5 -34 -6 -66 -8 -70 -5 -5 3 -6 24 -3 48 6 41 4 44 -36 79 -23 20 -62 45 -86
56 -38 18 -45 26 -50 61 -6 37 -9 41 -45 46 -23 4 -40 13 -42 23 -4 13 -5 13
-6 -2 0 -10 -21 -47 -46 -81 l-45 -63 -137 -22 c-76 -12 -140 -25 -144 -29 -5
-6 -49 -208 -49 -227 0 -3 -46 -2 -102 1 -78 5 -114 12 -148 29 -25 12 -53 20
-62 16 -21 -8 -54 -50 -59 -76 -5 -23 -41 -35 -239 -75 -259 -53 -632 -90
-903 -90 l-107 0 -29 32 c-58 65 -161 29 -161 -56 0 -72 80 -118 137 -80 25
16 55 18 275 18 137 1 248 -2 248 -6 0 -5 -3 -8 -7 -8 -5 -1 -51 -7 -105 -14
-92 -12 -99 -15 -168 -66 -39 -29 -76 -64 -81 -77 -21 -55 -2 -139 38 -176 11
-9 45 -26 77 -37 l57 -19 -25 30 c-25 30 -33 49 -20 49 4 0 13 -8 20 -17 12
-17 13 -17 14 3 0 20 7 23 69 29 39 4 76 3 83 -1 7 -5 39 -7 70 -5 71 4 135
-7 141 -23 3 -6 -3 -12 -12 -13 -9 -1 -82 -11 -163 -22 -82 -12 -150 -21 -153
-21 -3 0 -5 -4 -5 -9 0 -17 27 -19 86 -6 32 8 122 21 198 30 77 9 143 18 148
21 15 9 388 64 436 64 56 0 124 20 119 34 -3 6 -8 10 -13 10 -5 -1 -28 -5 -50
-9 -37 -6 -44 -3 -63 21 -33 42 -28 54 24 54 37 0 47 -4 62 -26 14 -23 18 -24
23 -9 5 14 11 10 33 -22 23 -33 26 -46 23 -98 -3 -33 -5 -89 -5 -123 -1 -56
-4 -65 -22 -69 -29 -8 -39 -42 -39 -139 l0 -84 73 -37 72 -36 114 16 c62 9
115 18 118 20 2 3 6 50 10 107 6 93 8 102 28 110 29 11 35 36 35 140 l0 86 83
13 c284 45 430 60 440 45 3 -5 -1 -40 -9 -79 -19 -102 -17 -153 10 -210 22
-48 91 -122 149 -160 l27 -18 -77 -81 c-157 -163 -244 -345 -268 -556 -4 -36
-10 -69 -14 -75 -11 -15 4 -147 28 -258 24 -107 53 -193 96 -276 33 -66 32
-69 -41 -292 -50 -152 -57 -168 -83 -179 -34 -14 -42 -31 -75 -162 -17 -65
-23 -105 -17 -120 11 -31 -8 -86 -33 -94 -12 -4 -114 -7 -227 -6 l-206 0 5
-24 c2 -14 -1 -44 -8 -68 -16 -56 -14 -56 -302 -52 -192 3 -228 1 -228 -10 0
-8 6 -16 13 -19 33 -11 554 -35 709 -32 97 1 179 0 182 -3 10 -11 -210 -637
-374 -1060 -164 -422 -215 -588 -245 -788 -27 -180 -14 -330 40 -465 17 -44
24 -74 19 -92 l-6 -26 -398 2 c-372 2 -400 0 -436 -17 -21 -11 -46 -30 -56
-44 -23 -32 -168 -569 -167 -618 1 -33 2 -34 9 -12 8 24 8 24 9 -6 1 -39 51
-86 129 -122 29 -13 51 -29 49 -36 -2 -6 -46 -169 -98 -362 l-93 -352 -71 -7
c-303 -29 -637 -176 -904 -399 -187 -156 -398 -404 -536 -630 -132 -215 -264
-489 -251 -521 5 -15 16 -16 69 -12 34 3 82 10 107 16 25 6 104 10 177 11
l132 0 -52 -109 c-47 -97 -59 -114 -109 -153 -42 -32 -60 -54 -72 -88 -21 -59
-20 -69 6 -97 20 -22 21 -27 10 -66 -69 -245 -95 -346 -118 -450 -24 -112 -30
-125 -65 -162 -34 -35 -40 -49 -45 -101 -6 -58 -5 -62 21 -82 20 -16 26 -27
22 -44 -13 -49 -38 -342 -44 -511 l-6 -178 -29 -20 c-26 -19 -28 -26 -28 -82
0 -55 3 -64 31 -93 30 -31 31 -34 40 -170 10 -151 33 -345 54 -464 l13 -75
-29 -26 c-29 -25 -29 -26 -17 -85 10 -50 19 -65 55 -99 41 -37 46 -48 77 -165
19 -69 51 -170 71 -225 63 -172 61 -159 35 -208 -23 -43 -23 -44 -5 -90 13
-34 32 -58 75 -91 32 -25 65 -46 73 -46 8 0 31 -28 51 -62 20 -35 65 -103 100
-152 l64 -89 -21 -57 -20 -58 24 -30 c35 -43 145 -113 202 -128 28 -7 75 -16
106 -20 31 -3 69 -14 84 -23 27 -15 28 -19 22 -66 -4 -27 -9 -58 -11 -68 -5
-14 15 -27 98 -67 106 -50 274 -120 289 -120 5 0 9 11 9 24 0 40 12 86 23 86
6 0 7 -22 3 -59 l-7 -59 58 -22 c142 -53 475 -132 613 -145 237 -22 310 -28
435 -32 210 -7 522 22 733 67 52 12 52 12 52 50 0 41 14 61 24 34 3 -9 6 -27
6 -40 0 -13 3 -24 7 -24 16 0 168 44 280 82 l123 41 0 58 c0 38 5 61 14 66 7
4 16 15 19 23 4 11 7 10 12 -7 6 -18 15 -23 44 -23 96 1 260 60 330 120 23 19
23 22 11 85 l-12 66 59 62 c32 34 76 83 97 109 23 29 47 48 59 48 11 0 48 16
83 37 46 27 69 48 87 81 l25 45 -21 49 -20 48 60 118 c33 64 79 162 103 217
38 90 46 103 91 134 41 28 51 42 65 86 17 51 16 54 -5 83 -11 17 -21 37 -21
45 0 9 16 71 34 139 19 67 43 157 53 198 l18 75 100 -3 c165 -6 239 22 294
108 46 72 79 205 97 383 l6 67 82 -1 c44 0 563 -17 1151 -38 l1070 -37 505 63
c278 34 512 63 521 63 27 0 34 -49 11 -79 -16 -22 -17 -32 -8 -68 6 -24 26
-58 47 -80 27 -29 45 -65 73 -148 21 -60 54 -148 73 -194 36 -81 36 -84 21
-124 -21 -60 -3 -101 67 -150 29 -20 58 -37 63 -37 5 0 44 -43 87 -96 l78 -97
-13 -55 c-12 -56 -12 -56 16 -79 48 -39 165 -92 242 -110 71 -17 72 -18 72
-49 0 -29 5 -33 72 -63 39 -18 121 -49 182 -68 61 -20 120 -40 131 -44 190
-72 751 -143 880 -110 36 9 50 9 55 1 8 -12 112 -7 205 11 28 5 79 11 115 14
76 6 194 28 303 57 69 18 77 23 77 44 0 13 5 24 10 24 6 0 10 -7 10 -15 0 -8
3 -15 8 -15 25 0 200 54 267 82 l80 34 -3 65 -4 66 49 31 c29 19 63 32 82 32
43 0 144 52 174 91 23 30 24 34 11 82 l-13 50 38 56 c21 31 57 91 81 134 33
62 53 85 91 110 65 42 88 96 65 150 -14 35 -13 40 21 134 19 54 52 157 72 228
30 103 44 136 68 161 39 38 53 106 28 134 -15 17 -15 28 9 167 13 81 32 213
41 293 14 119 20 148 36 160 15 12 20 32 23 99 3 54 1 92 -7 105 -13 24 -26
176 -14 176 4 0 7 15 7 34 0 19 5 38 10 41 6 4 8 11 4 16 -3 5 -1 16 5 23 6 7
14 65 18 127 5 95 9 116 25 127 13 9 18 26 18 55 0 51 -7 63 -40 72 -16 4 -33
22 -47 51 -13 24 -23 46 -23 49 0 3 58 2 129 -1 149 -8 182 0 203 49 34 82 -9
464 -93 817 -136 573 -372 1038 -671 1316 l-65 61 18 22 c11 13 19 30 19 37 0
24 -37 48 -97 65 l-57 15 55 18 c29 10 64 27 77 39 23 21 29 51 12 62 -17 11
-11 23 15 29 24 6 24 7 19 104 -2 53 -9 250 -14 437 -11 356 -11 355 -57 355
-13 0 -23 4 -23 9 0 19 -32 41 -60 41 -16 0 -31 3 -33 8 -3 4 -8 77 -12 164
l-7 156 31 7 c22 5 31 13 36 36 9 40 -3 92 -20 85 -18 -7 -28 26 -20 64 4 16
1 74 -5 127 -13 108 -23 123 -78 123 l-34 0 26 30 c61 73 60 177 -3 271 -17
24 -28 45 -25 48 9 9 48 -36 66 -78 l20 -44 26 26 26 26 -19 41 c-10 22 -24
45 -32 51 -7 6 -13 19 -13 28 1 31 59 -47 74 -100 20 -65 20 -86 1 -138 l-14
-42 25 20 c14 11 25 22 24 25 0 4 6 19 15 36 8 16 15 41 15 56 0 42 -37 110
-78 144 -20 16 -33 32 -30 36 11 10 65 -34 90 -74 23 -37 23 -37 26 -11 2 15
-6 53 -17 85 -11 32 -18 60 -16 62 18 18 55 -85 55 -152 0 -40 -9 -86 -25
-136 -8 -24 -7 -24 18 -7 18 12 47 17 91 17 93 0 96 7 86 175 -5 72 -13 154
-19 184 -9 45 -8 58 4 78 19 28 40 29 83 3 64 -39 76 -117 31 -204 -19 -36
-19 -39 -3 -25 11 9 134 111 275 228 280 231 293 247 291 341 -1 64 -29 125
-78 172 -49 47 -108 68 -193 69 -121 2 -124 4 -137 84 -21 132 -27 135 -236
135 -84 0 -190 3 -235 7 -105 8 -108 21 -18 87 36 26 76 62 90 80 36 47 74
135 81 189 4 26 10 47 15 47 22 0 49 42 49 75 l0 35 -1027 0 c-1001 0 -1029
-1 -1060 -20 -50 -30 -66 -62 -61 -120 6 -61 29 -97 74 -116 19 -8 34 -20 34
-27 0 -26 49 -115 94 -170 l46 -57 -1159 -2 c-839 -2 -1163 -6 -1171 -14 -6
-6 -20 -47 -31 -90 -65 -260 -154 -454 -260 -569 l-42 -45 -159 0 c-229 0
-228 1 -358 -235 -262 -474 -298 -544 -339 -663 -41 -116 -43 -129 -39 -205 6
-96 44 -215 105 -326 l40 -72 84 -30 c51 -17 105 -29 137 -29 28 0 52 -3 52
-7 0 -15 -34 -98 -43 -104 -5 -4 -52 -10 -104 -14 -87 -6 -171 -22 -130 -24
22 -1 22 -21 -1 -21 -9 0 -86 -52 -170 -115 -84 -63 -160 -115 -170 -115 -13
0 -14 -2 -4 -9 13 -8 2 -107 -167 -1433 -10 -76 -20 -140 -22 -142 -4 -4 -356
588 -723 1216 -67 114 -125 206 -130 204 -5 -1 -11 -11 -12 -22 -14 -80 -32
-149 -40 -149 -6 0 -45 37 -88 83 -76 81 -77 83 -57 100 15 13 35 79 81 262
33 135 65 259 71 277 l10 32 52 -52 c28 -29 51 -54 51 -57 -1 -3 8 -13 18 -23
20 -19 20 -18 13 5 -8 24 -65 96 -109 137 -17 16 -26 35 -26 55 0 17 -9 46
-20 64 -25 40 -36 42 -15 2 17 -33 15 -65 -10 -155 -8 -27 -30 -117 -50 -200
-19 -82 -40 -166 -46 -185 -6 -20 -11 -49 -11 -65 0 -17 -2 -41 -5 -54 -4 -24
-4 -24 -23 6 -36 61 -164 132 -238 134 -28 0 -32 2 -17 8 16 6 14 9 -15 15
-79 16 -3193 40 -3423 27 l-99 -6 6 38 c4 21 13 57 22 80 8 23 30 101 49 172
18 72 38 143 44 159 6 16 14 45 17 64 17 106 28 112 189 107 157 -5 2405 -20
2490 -17 33 2 121 3 195 4 101 0 124 2 90 8 -25 5 -81 9 -125 9 -44 1 -86 5
-94 10 -12 8 -10 26 13 113 14 56 92 360 172 673 81 314 189 733 240 933 52
199 94 366 95 370 0 4 5 -4 11 -18 l11 -25 9 35 c12 42 54 100 72 100 23 0 29
-30 35 -155 5 -97 8 -116 17 -100 18 30 55 219 61 311 5 77 5 82 -18 97 -13
10 -31 17 -40 17 -9 0 -24 9 -34 20 -10 11 -24 20 -32 20 -16 0 -16 10 -3 44
l9 25 148 -6 c81 -3 149 -7 151 -9 3 -2 -124 -514 -198 -799 -16 -60 -72 -279
-124 -485 -53 -206 -125 -490 -161 -630 -100 -393 -129 -519 -121 -527 8 -8
306 -21 306 -13 0 3 -12 27 -26 55 l-26 50 110 430 c370 1450 362 1418 362
1494 0 48 -5 82 -16 99 -15 26 -13 33 54 187 l68 160 50 7 c27 4 87 11 134 15
l85 8 9 63 c5 34 6 65 3 68 -3 3 -23 10 -44 15 -44 10 -144 21 -125 13 6 -3 9
-10 6 -16 -4 -6 1 -6 13 1 25 13 33 6 33 -28 0 -41 -9 -48 -54 -42 -5 0 -3 8
4 16 7 9 10 18 6 22 -7 8 -36 -29 -30 -38 6 -11 -84 -18 -231 -19 -77 0 -149
-2 -160 -3 -16 -2 -21 5 -23 31 -2 18 2 40 9 48 21 25 -7 35 -89 32 -43 -2
-72 1 -72 7 1 35 33 123 51 138 19 16 20 17 3 17 -16 0 -16 2 -5 9 12 8 8 11
-15 16 -16 3 -43 9 -59 14 -17 4 -95 2 -175 -5 -187 -16 -552 -27 -525 -16 11
5 90 12 175 16 85 3 159 11 164 16 6 6 27 10 48 10 21 0 38 4 38 8 0 10 50 37
63 34 4 -1 7 3 7 8 0 6 13 10 29 10 17 0 33 5 36 10 3 6 17 10 31 10 13 0 32
8 42 18 11 11 40 22 67 25 34 5 55 15 73 34 16 18 39 29 65 33 l41 5 28 81
c15 45 37 119 49 165 12 46 25 89 29 94 4 6 18 40 31 78 13 37 29 67 35 67 16
0 48 131 34 140 -7 5 -7 22 1 59 8 40 8 55 0 60 -9 6 -8 34 4 109 8 56 15 129
15 161 0 56 19 155 41 211 5 14 11 44 14 68 4 44 31 129 47 146 4 6 8 18 8 27
0 9 6 22 14 28 8 7 24 32 35 57 l22 45 47 -5 c38 -5 42 -4 18 4 -16 5 -60 12
-97 16 -61 6 -66 8 -53 22 14 14 14 16 -3 25 -10 6 -36 12 -58 13 -70 5 -169
36 -205 64 -49 38 -99 62 -116 56 -8 -3 -14 -1 -14 4 0 6 -6 10 -14 10 -27 0
-27 19 0 75 25 54 56 80 79 67 6 -3 7 -2 3 3 -4 4 -1 13 7 19 15 11 51 142 59
207 3 29 8 35 31 37 15 2 38 1 50 -2 21 -5 24 -12 24 -61 0 -41 -4 -55 -15
-55 -17 0 -19 -20 -1 -20 6 -1 1 -7 -13 -15 -14 -8 -20 -14 -14 -15 12 0 15
-30 3 -30 -14 0 -20 -34 -7 -42 10 -6 10 -10 -2 -18 -11 -7 -7 -9 16 -6 25 2
33 -2 47 -26 16 -28 16 -28 -4 -17 -11 6 -22 9 -23 7 -1 -2 -12 -20 -24 -40
l-21 -38 54 0 c29 0 56 4 59 9 4 5 -12 7 -35 4 -33 -5 -41 -3 -37 8 7 21 155
27 191 7 20 -10 20 -11 -4 -30 -13 -11 -19 -17 -13 -14 8 4 10 -10 9 -43 l-3
-48 74 -6 c67 -6 75 -5 97 16 17 16 22 28 17 42 -5 13 -1 29 11 46 l19 26 -38
7 c-20 3 -65 6 -99 6 -34 0 -65 4 -68 10 -3 5 -3 25 0 43 l6 33 107 11 c128
14 234 41 350 87 48 19 88 33 90 32 4 -4 -52 -201 -75 -266 -9 -25 -24 -56
-32 -69 -8 -13 -16 -29 -17 -35 -1 -6 -14 -55 -28 -110 -15 -61 -23 -110 -19
-130 l6 -31 -29 34 c-16 19 -29 39 -29 45 0 6 -13 13 -30 17 -16 4 -40 11 -53
15 -21 6 -22 4 -17 -26 3 -18 1 -67 -5 -109 -6 -41 -13 -114 -15 -161 -7 -132
-25 -217 -124 -605 -199 -772 -190 -734 -176 -745 16 -13 9 -34 75 225 37 145
59 211 79 240 53 76 139 263 171 370 10 33 25 80 33 105 25 73 67 234 67 258
0 12 4 22 8 22 5 0 5 -24 1 -52 -84 -527 -129 -758 -194 -1002 -30 -109 -116
-384 -140 -448 -6 -15 -2 -18 23 -18 20 0 31 6 35 18 2 9 8 26 13 36 5 15 4
17 -6 11 -7 -4 -3 5 9 21 12 17 23 43 24 59 1 17 8 36 15 44 8 8 11 24 8 36
-4 14 0 28 10 35 8 7 13 19 10 27 -3 7 0 13 5 13 7 0 9 11 7 25 -3 15 -1 22 5
18 6 -4 8 2 5 15 -4 12 -2 20 3 16 5 -3 10 4 11 15 0 12 1 27 2 34 1 6 4 14 8
17 4 3 9 21 10 40 2 19 6 37 10 40 5 4 68 277 82 355 2 17 12 65 20 108 9 44
13 83 10 88 -3 6 0 16 6 24 7 8 10 28 8 44 -2 17 -1 28 2 26 10 -6 22 104 14
117 -4 7 -2 8 4 4 8 -5 12 1 12 16 0 54 112 689 132 753 13 39 38 94 55 124
18 30 33 59 33 64 0 35 173 206 252 249 69 37 199 80 293 97 101 18 342 24
455 12 174 -18 170 -16 236 -134 31 -56 58 -103 59 -104 1 -2 109 -14 240 -28
189 -20 240 -22 247 -12 4 6 21 51 38 98 28 76 39 94 107 163 l75 77 50 -10
c27 -6 77 -11 111 -11 52 -1 412 -38 527 -55 19 -3 109 -12 200 -21 91 -8 182
-18 203 -21 29 -4 37 -2 37 11 0 12 -7 14 -30 10 -27 -6 -31 -3 -46 32 -20 47
-10 65 36 71 45 4 61 -2 53 -22 -4 -12 -13 -15 -32 -11 -25 5 -25 5 -4 -6 25
-12 53 3 53 28 0 9 11 14 29 14 16 0 36 3 45 6 11 4 16 0 16 -14 0 -11 8 -30
18 -42 16 -19 19 -20 30 -7 11 12 10 15 -5 13 -14 -1 -18 6 -16 33 2 45 22 81
45 81 12 0 18 7 18 23 0 18 -2 19 -10 7 -8 -13 -11 -13 -26 2 -14 14 -15 20
-5 32 8 9 17 13 22 10 5 -3 6 2 3 11 -4 8 -27 27 -53 42 -25 14 -62 36 -81 48
-28 18 -56 25 -135 30 -55 4 -110 11 -123 16 -12 5 -87 11 -165 15 -78 3 -144
8 -146 10 -2 2 8 17 23 34 14 17 26 43 26 56 0 98 -130 139 -177 56 l-17 -29
-155 -5 c-86 -3 -192 -2 -235 1 l-79 6 -14 47 c-19 68 -62 86 -198 86 -63 0
-120 6 -154 16 -30 9 -72 16 -93 16 -21 0 -38 3 -38 7 0 4 10 37 22 74 19 59
20 77 12 155 -9 89 -9 89 -41 99 -18 5 -33 14 -33 20 0 5 11 37 25 70 13 33
18 51 9 40 -8 -10 -22 -43 -31 -72 -10 -33 -38 -79 -74 -124 -57 -70 -81 -124
-119 -271 -9 -32 -18 -48 -33 -52 -28 -7 -37 0 -37 30 0 17 -9 30 -30 42 -17
10 -28 23 -25 30 13 36 -64 125 -121 141 -36 10 -418 51 -473 51 -18 0 -21 -3
-13 -13 7 -9 61 -18 149 -26 166 -15 285 -30 291 -36 8 -8 -23 -6 -255 16
-121 12 -228 19 -236 16 -7 -3 -29 -46 -47 -96 -31 -86 -34 -91 -62 -91 -16 0
-41 6 -56 13 -15 8 -47 15 -72 16 -25 1 -53 4 -63 7 -19 6 -47 -11 -47 -29 0
-5 8 -3 18 6 23 21 39 22 22 2 -20 -24 -4 -30 26 -10 25 16 27 16 45 -4 15
-16 18 -29 13 -55 l-6 -35 -74 5 c-71 4 -74 3 -74 -18 0 -12 11 -34 25 -48 25
-26 25 -27 10 -71 -9 -24 -22 -65 -29 -91 -11 -44 -20 -53 -126 -134 l-115
-87 -3 29 c-1 16 1 96 5 177 5 81 4 158 0 169 -4 13 -1 50 8 89 41 183 -10
381 -136 522 -94 106 -216 165 -354 172 -44 3 -81 9 -83 15 -6 16 -158 13
-175 -4z m13 -381 c0 -23 -16 -17 -28 10 -11 24 -10 25 8 15 11 -6 20 -17 20
-25z m-1080 -25 c0 -18 -19 -11 -30 11 -11 19 -10 20 9 9 12 -6 21 -15 21 -20z
m-780 -234 c0 -3 -4 -8 -10 -11 -5 -3 -10 -1 -10 4 0 6 5 11 10 11 6 0 10 -2
10 -4z m164 -71 c-6 -16 -24 -21 -24 -7 0 11 11 22 21 22 5 0 6 -7 3 -15z
m2790 -55 c18 -36 7 -39 -22 -6 -14 17 -17 26 -9 30 7 2 13 5 14 5 1 1 8 -12
17 -29z m-24 -40 c0 -6 30 -14 140 -37 l25 -5 -25 -11 c-14 -5 -54 -23 -89
-39 -35 -15 -66 -26 -69 -24 -2 3 3 25 11 50 9 26 12 46 7 46 -5 0 -19 -31
-31 -70 -16 -50 -27 -70 -39 -70 -9 0 -19 3 -22 6 -5 4 18 82 46 161 5 12 46
6 46 -7z m1705 10 c-3 -5 -11 -10 -16 -10 -6 0 -7 5 -4 10 3 6 11 10 16 10 6
0 7 -4 4 -10z m-804 -49 c21 -17 22 -21 10 -47 -13 -28 -14 -28 -21 -7 -11 26
-46 39 -65 23 -12 -10 -15 -9 -15 3 0 49 47 64 91 28z m1367 -68 c-10 -2 -26
-2 -35 0 -10 3 -2 5 17 5 19 0 27 -2 18 -5z m-553 -19 c9 -9 37 -19 62 -22
l45 -5 -6 -36 c-4 -20 -8 -51 -10 -69 -2 -19 -6 -35 -8 -37 -2 -2 -40 1 -86 7
-79 10 -82 12 -83 37 -1 20 -2 22 -6 6 -6 -22 -31 -44 -50 -45 -8 0 -13 15
-13 40 0 33 4 42 23 50 17 7 18 9 5 9 -20 1 -21 5 -12 50 6 30 8 31 65 31 40
0 63 -5 74 -16z m-5571 -40 c10 -4 16 -18 16 -36 0 -27 -1 -28 -16 -14 -8 9
-31 16 -50 16 -32 0 -45 16 -27 33 8 9 56 9 77 1z m6649 -21 c-7 -2 -19 -2
-25 0 -7 3 -2 5 12 5 14 0 19 -2 13 -5z m160 -37 c23 -18 21 -26 -7 -26 -35 0
-56 10 -56 26 0 18 39 18 63 0z m-277 -10 c77 -7 149 -14 162 -14 42 -2 52 -5
52 -15 0 -6 3 -7 7 -4 3 4 11 3 17 -1 6 -5 30 -14 54 -22 40 -13 44 -12 67 10
29 28 30 25 9 -26 -10 -22 -20 -52 -23 -68 l-6 -29 -105 2 c-98 1 -479 36
-508 46 -9 3 -10 17 -6 47 13 84 17 88 83 88 32 0 121 -6 197 -14z m-1229 -22
l28 -25 -53 4 c-59 5 -67 9 -59 32 10 23 53 18 84 -11z m-5377 -18 c0 -38 -16
-57 -26 -32 -8 21 3 66 16 66 6 0 10 -15 10 -34z m-40 -26 c0 -31 -4 -40 -17
-41 -17 -1 -17 -2 0 -6 10 -3 17 -14 17 -27 0 -20 -7 -24 -46 -30 -25 -3 -50
-3 -55 0 -16 10 -10 44 9 45 16 1 16 2 0 6 -12 3 -18 14 -18 31 0 46 17 58 83
61 25 1 27 -2 27 -39z m4672 19 l118 -12 30 -60 c16 -33 30 -65 30 -70 0 -6
-20 -7 -52 -2 -144 21 -404 14 -553 -16 -27 -5 -71 -14 -96 -19 -26 -4 -68
-19 -95 -33 -27 -13 -61 -27 -76 -31 -15 -3 -42 -19 -60 -34 -18 -15 -49 -38
-68 -51 -19 -13 -48 -39 -63 -58 -16 -18 -32 -33 -37 -33 -4 0 1 28 12 63 21
62 21 62 157 164 160 120 202 144 296 172 141 42 208 45 457 20z m-4624 -82
c2 -19 -1 -27 -12 -27 -9 0 -16 3 -16 8 0 4 -3 18 -7 31 -5 19 -2 22 13 19 12
-2 20 -13 22 -31z m5569 6 c3 10 12 17 21 15 13 -2 19 -19 24 -70 3 -37 9 -71
12 -76 9 -16 -21 -34 -44 -27 -11 4 -29 23 -39 43 -23 45 -37 107 -23 98 5 -3
13 6 17 22 l7 27 11 -25 c8 -21 11 -22 14 -7z m-6569 -8 c-6 -14 -9 -27 -7
-29 2 -3 74 6 159 19 186 29 170 28 170 10 0 -19 -88 -62 -142 -71 -36 -6 -38
-9 -38 -43 l0 -37 -77 -12 c-43 -7 -79 -17 -81 -22 -2 -5 -12 -4 -23 3 -15 10
-19 23 -19 74 0 39 5 65 13 70 7 4 18 20 24 36 7 15 17 27 23 27 6 0 5 -9 -2
-25z m-82 -62 c-3 -17 -26 -32 -26 -16 0 8 20 33 26 33 1 0 1 -8 0 -17z m6813
1 c2 -2 -17 -4 -42 -4 -26 0 -47 4 -47 9 0 8 79 3 89 -5z m-3432 -90 c-3 -3
-12 -4 -19 -1 -8 3 -5 6 6 6 11 1 17 -2 13 -5z m-443 -25 c-21 -10 -49 -18
-61 -18 -15 -1 -23 -9 -28 -31 -4 -16 -7 -32 -7 -35 0 -2 -8 -28 -18 -56 -11
-29 -17 -56 -13 -62 3 -6 1 -7 -6 -3 -7 4 -18 -5 -29 -23 -23 -41 -45 -43 -23
-3 5 10 11 37 14 62 6 53 27 172 32 180 2 3 43 6 91 6 l87 0 -39 -17z m454
-19 c20 -13 32 -26 29 -34 -3 -8 1 -22 8 -33 20 -25 18 -32 -5 -26 -17 4 -20
1 -17 -18 2 -13 10 -26 18 -30 88 -42 103 -47 125 -39 16 6 26 5 34 -6 7 -7
25 -14 41 -14 15 0 35 -7 43 -16 10 -9 16 -11 16 -4 0 7 7 4 17 -5 19 -19 20
-104 1 -134 -10 -17 -12 -17 -30 -2 -10 9 -22 16 -26 17 -11 1 -39 12 -130 50
-101 42 -141 51 -152 34 -6 -10 -26 -5 -86 20 -66 28 -95 34 -175 38 l-96 4 8
32 c4 17 12 49 18 70 5 22 18 51 29 65 25 35 92 39 172 13 58 -20 58 -20 79
-1 12 11 21 24 21 29 0 16 22 12 58 -10z m-3390 -2 c-5 -13 -38 -20 -38 -8 0
8 17 18 33 19 5 1 7 -4 5 -11z m2268 -6 c6 -4 21 -25 32 -48 18 -36 78 -104
91 -104 3 0 12 -4 20 -9 11 -7 1 -35 -53 -145 -36 -75 -70 -136 -74 -136 -17
0 -118 83 -149 122 -50 62 -57 102 -37 211 9 50 21 98 26 105 11 13 125 17
144 4z m282 -220 c19 -24 15 -70 -7 -82 -11 -5 -41 -11 -68 -11 -26 -1 -40 -3
-30 -6 16 -4 15 -7 -7 -24 -31 -25 -39 -24 -26 2 7 11 9 23 6 26 -6 6 17 55
46 96 16 22 25 26 46 21 15 -4 33 -13 40 -22z m1527 8 c11 -5 14 -9 7 -9 -7
-1 -10 -5 -7 -11 11 -18 -22 -10 -40 10 -17 19 -17 20 1 19 10 0 28 -4 39 -9z
m-1370 -20 c-3 -5 3 -10 14 -10 24 0 27 -13 9 -28 -15 -12 -98 -27 -98 -17 0
3 7 19 15 35 11 21 23 30 41 30 14 0 22 -4 19 -10z m544 -154 c10 -12 8 -13
-9 -9 -25 7 -37 23 -17 23 8 0 20 -6 26 -14z m143 -24 c7 -7 17 -12 23 -12 5
0 3 5 -5 11 -12 8 -9 9 10 4 75 -20 238 -97 297 -141 78 -59 159 -333 139
-469 -7 -42 -10 -46 -32 -43 -22 3 -29 14 -55 93 -37 109 -83 197 -154 290
-57 75 -215 230 -243 240 -9 3 -28 14 -41 24 l-23 18 36 -2 c20 0 41 -6 48
-13z m-599 -84 c-2 -5 10 -8 26 -8 41 0 39 -13 -4 -29 -24 -8 -35 -19 -35 -32
0 -23 4 -24 30 -2 10 9 32 19 47 21 15 2 32 7 39 12 13 12 94 -18 94 -34 0 -7
10 -12 21 -13 25 -2 87 -43 117 -78 12 -14 26 -25 32 -25 17 0 31 -40 25 -74
-7 -33 -8 -34 -47 -28 -30 4 -39 2 -34 -6 4 -7 22 -12 41 -12 30 0 35 -4 45
-37 19 -58 26 -58 40 2 7 30 15 55 17 55 2 0 26 -22 54 -50 30 -30 44 -50 34
-50 -8 0 -15 -3 -15 -7 0 -14 30 -147 39 -178 9 -26 10 -23 8 24 -1 30 3 56 8
58 17 6 53 -80 75 -180 28 -125 28 -278 0 -426 -26 -138 -40 -175 -98 -266
-48 -74 -109 -137 -154 -161 -16 -8 -28 -19 -28 -25 0 -9 -87 -54 -120 -61 -8
-2 -23 -11 -35 -21 -11 -10 -30 -16 -42 -14 -13 2 -23 0 -23 -4 0 -5 -7 -6
-15 -3 -8 4 -15 1 -15 -5 0 -6 -8 -11 -17 -11 -15 0 -15 2 -4 9 10 6 1 9 -25
8 -21 0 -45 -7 -53 -15 -14 -13 -27 -13 -131 1 -14 2 -39 5 -57 5 -17 1 -38 9
-47 17 -8 8 -17 15 -21 15 -3 0 -15 9 -27 20 -12 11 -27 20 -32 20 -6 0 0 -9
13 -19 16 -12 20 -21 12 -25 -6 -4 -11 -2 -11 3 0 6 -11 11 -25 11 -13 0 -40
14 -58 30 -19 17 -39 30 -44 30 -5 0 -33 25 -62 55 -29 30 -57 52 -63 49 -5
-3 -4 3 3 14 7 12 16 19 19 17 4 -2 14 9 24 26 9 16 12 29 7 29 -6 0 -11 20
-11 46 0 43 -1 46 -22 40 -13 -4 -38 -8 -57 -11 -19 -2 -38 -9 -42 -17 -12
-18 -11 -55 1 -63 12 -7 13 -25 2 -25 -5 0 -19 25 -31 55 -13 30 -27 55 -32
55 -26 0 21 104 54 118 15 7 37 75 37 113 0 21 4 40 9 43 5 4 12 44 16 90 6
73 5 88 -11 110 -25 33 -44 33 -46 -1 -5 -76 -4 -92 3 -87 5 3 9 13 9 22 0 15
2 15 10 2 5 -8 10 -28 10 -43 0 -22 -4 -28 -17 -25 -11 2 -31 -10 -49 -29 -26
-29 -34 -32 -60 -24 -29 8 -29 8 -31 -35 -1 -34 3 -46 17 -54 15 -8 24 -5 39
12 12 12 23 19 27 16 7 -8 -38 -121 -51 -125 -13 -4 -45 49 -45 75 0 19 -35
41 -46 29 -8 -8 68 -178 82 -184 7 -2 12 -14 11 -25 -1 -18 -4 -17 -25 9 -50
61 -105 191 -123 293 -29 161 -30 174 -19 195 6 11 19 69 29 129 10 59 23 111
28 115 6 3 14 40 18 81 4 41 14 86 23 100 62 101 94 143 155 203 44 42 78 67
93 68 13 1 29 3 34 4 6 1 13 3 18 4 4 1 0 6 -8 11 -13 8 -12 10 3 10 9 0 17 3
17 8 0 11 49 31 101 40 25 5 53 13 63 19 20 11 296 12 289 1z m1032 -62 c5 0
23 -9 40 -18 84 -48 107 -58 117 -52 7 4 8 3 4 -4 -5 -8 6 -12 35 -12 30 0 47
-6 59 -20 18 -20 16 -29 -41 -251 -32 -127 -59 -232 -59 -235 0 -2 -7 -4 -15
-4 -12 0 -15 13 -15 58 -2 207 -49 356 -155 486 -25 31 -45 58 -45 62 0 3 15
2 33 -1 17 -4 36 -8 42 -9z m280 -56 c3 -5 1 -10 -4 -10 -6 0 -11 5 -11 10 0
6 2 10 4 10 3 0 8 -4 11 -10z m375 -72 c0 -10 -4 -18 -9 -18 -5 0 -21 -50 -36
-110 -15 -61 -30 -112 -34 -114 -11 -7 16 234 28 247 16 19 51 16 51 -5z
m-2400 -78 c0 -5 -5 -10 -11 -10 -5 0 -7 5 -4 10 3 6 8 10 11 10 2 0 4 -4 4
-10z m2404 -47 c-3 -16 -14 -54 -25 -86 -10 -31 -19 -68 -19 -82 0 -14 -7 -41
-15 -61 -8 -19 -19 -63 -26 -97 -11 -63 -28 -108 -29 -77 -1 27 105 430 113
430 4 0 5 -12 1 -27z m-591 -333 c3 -11 3 -20 1 -20 -2 0 -8 9 -14 20 -6 11
-7 20 -2 20 6 0 12 -9 15 -20z m-24 -88 c2 -37 -1 -43 -16 -40 -20 4 -29 52
-18 96 6 24 7 24 19 6 7 -10 14 -38 15 -62z m75 9 c-8 -54 -12 -61 -29 -61
-19 0 -22 86 -2 93 31 10 37 4 31 -32z m-30 -111 c24 0 19 -19 -6 -29 -40 -15
-65 11 -52 52 7 21 7 21 24 -1 10 -12 25 -22 34 -22z m436 10 c0 -11 -4 -20
-9 -20 -5 0 -7 9 -4 20 3 11 7 20 9 20 2 0 4 -9 4 -20z m-520 -404 c-97 -382
-86 -358 -183 -403 -26 -12 -63 -34 -82 -49 -26 -19 -52 -28 -107 -34 -110
-13 -248 -19 -248 -11 0 4 30 22 68 40 98 48 177 108 265 200 148 155 223 308
271 552 4 20 16 29 53 41 27 8 49 14 50 13 1 0 -38 -158 -87 -349z m657 182
c-3 -8 -6 -5 -6 6 -1 11 2 17 5 13 3 -3 4 -12 1 -19z m-2383 -356 l27 -39 -23
-112 c-17 -90 -19 -116 -10 -132 10 -16 9 -19 -5 -21 -10 -1 16 -4 57 -7 l75
-6 17 35 16 35 -5 -37 c-9 -59 4 -44 17 20 14 65 18 74 30 67 5 -3 0 -31 -11
-62 -23 -68 -23 -63 1 -63 14 0 22 11 31 43 16 60 16 59 62 30 23 -14 66 -38
97 -52 l55 -26 -38 -3 c-31 -3 -36 -6 -27 -17 8 -10 4 -18 -19 -34 -29 -21
-30 -21 -36 -1 -7 23 -53 28 -73 8 -15 -15 -16 -55 -1 -64 8 -4 4 -13 -12 -25
-21 -17 -38 -18 -144 -14 -74 3 -112 2 -100 -4 11 -4 24 -6 29 -3 4 2 11 1 15
-4 3 -5 15 -14 25 -20 36 -20 32 -36 -8 -29 -24 5 -36 3 -36 -4 0 -12 -32 -15
-43 -5 -4 4 -19 8 -34 9 -46 4 -113 25 -113 35 0 6 -16 10 -35 10 -33 0 -46
12 -26 24 5 4 14 37 21 74 15 94 28 116 70 122 29 4 35 10 42 40 39 157 72
270 78 270 4 0 19 -17 34 -38z m574 -461 c12 -11 22 -23 22 -28 0 -5 14 -22
30 -38 37 -35 38 -45 5 -45 -15 0 -25 -6 -25 -15 0 -13 -5 -13 -37 -1 -56 21
-110 27 -121 13 -5 -7 -13 -27 -17 -44 -8 -40 -26 -54 -19 -16 2 16 7 34 9 41
9 25 -66 35 -81 11 -3 -5 5 -23 17 -40 l22 -31 -29 6 c-16 3 -42 8 -59 11 -16
3 -43 9 -60 13 l-30 9 40 22 c22 12 60 34 85 47 25 14 61 38 80 52 70 54 128
66 168 33z m774 -162 c59 -30 37 -46 -36 -25 -41 12 -54 20 -50 31 8 21 38 19
86 -6z m-1077 -38 c-2 -4 15 -8 38 -9 54 -3 77 -10 71 -25 -2 -7 5 -18 16 -25
13 -8 20 -9 20 -1 0 7 14 8 43 4 43 -8 117 -34 117 -42 0 -2 -7 -17 -15 -33
-9 -17 -11 -30 -6 -30 10 0 45 -109 37 -117 -4 -5 -116 84 -195 154 -52 47
-90 57 -198 50 -101 -6 -105 -4 -81 48 13 29 52 34 63 8 6 -17 7 -17 20 1 8
10 13 22 10 25 -2 4 12 5 31 3 18 -2 32 -7 29 -11z m78 -165 c59 -36 186 -136
225 -178 21 -23 22 -29 13 -89 -23 -155 -44 -269 -63 -337 -11 -41 -24 -120
-29 -175 -6 -79 -34 -200 -123 -544 -64 -244 -116 -453 -116 -465 0 -13 7 -68
16 -123 l16 -100 -64 -240 -64 -240 -363 0 c-261 0 -365 3 -368 11 -2 7 90
371 206 810 115 440 262 999 326 1244 65 245 119 448 122 453 2 4 50 7 107 7
99 0 104 -1 159 -34z m1665 27 c-60 -2 -156 -2 -215 0 -60 1 -11 3 107 3 118
0 167 -2 108 -3z m-2119 -50 l22 -18 -38 -92 c-21 -51 -42 -93 -46 -93 -5 0
-5 26 -1 57 5 40 13 62 28 75 14 12 17 20 10 25 -6 5 -13 20 -16 36 -6 32 9
36 41 10z m1078 4 c4 -7 30 -17 57 -23 34 -6 54 -16 64 -33 l16 -23 -54 8
c-30 5 -97 8 -148 8 -104 -2 -111 10 -24 42 26 10 51 21 57 26 13 11 23 10 32
-5z m1013 -16 c0 -16 -101 -251 -110 -256 -5 -3 -20 10 -34 28 -25 33 -25 33
-10 92 38 149 28 134 87 138 28 2 55 4 60 5 4 1 7 -2 7 -7z m-1237 -30 c20 -8
23 -15 20 -43 -7 -60 -26 -149 -33 -153 -4 -2 -15 11 -25 29 -17 31 -17 41 -6
105 7 39 14 71 16 71 2 0 15 -4 28 -9z m615 -11 c26 -24 25 -19 11 -75 -9 -34
-15 -42 -28 -37 -14 5 -14 4 -2 -11 28 -35 2 -27 -64 17 -36 25 -73 46 -81 46
-9 0 -14 7 -12 16 2 11 28 25 73 40 39 12 73 23 76 23 3 1 15 -8 27 -19z
m-2003 -1095 c-157 -594 -291 -1099 -297 -1122 -5 -24 -14 -41 -18 -38 -18 11
-40 149 -40 250 0 234 55 443 242 919 118 300 218 575 315 864 43 128 79 227
81 220 1 -7 -126 -499 -283 -1093z m421 1068 c23 -14 23 -16 7 -28 -10 -7 -21
-11 -26 -8 -4 2 -24 -6 -44 -18 l-36 -23 7 25 c3 13 9 37 13 52 5 24 9 28 30
22 14 -3 36 -13 49 -22z m177 -35 c-3 -16 -9 -28 -14 -28 -5 0 -6 7 -4 15 3 8
7 22 10 31 8 26 14 12 8 -18z m-27 0 c-30 -107 -105 -413 -102 -416 2 -2 12
23 21 55 9 32 20 63 25 68 4 6 13 27 20 48 24 76 20 27 -5 -64 -32 -114 -53
-158 -66 -138 -5 8 -9 28 -9 46 0 17 -4 34 -9 37 -13 8 -17 -39 -10 -114 3
-36 6 -58 7 -49 2 16 32 49 32 35 0 -15 -137 -550 -240 -941 -62 -231 -138
-523 -171 -650 -32 -126 -62 -238 -67 -249 -7 -17 -20 -18 -142 -17 -74 1
-136 3 -138 5 -1 2 9 48 24 102 14 55 39 146 54 204 30 116 56 212 190 720 50
190 127 482 171 650 87 328 135 456 182 477 24 11 25 10 36 -31 5 -23 8 -52 4
-64 -7 -30 11 -28 31 3 19 28 21 39 5 29 -7 -4 -10 1 -7 11 1 10 9 20 17 23 8
3 11 0 7 -7 -4 -6 -3 -11 3 -11 5 0 12 -17 14 -37 2 -26 4 -19 5 23 2 56 15
103 42 144 5 8 14 34 20 57 11 42 32 73 52 73 6 0 8 -9 4 -22z m754 -152 c0
-3 -4 -8 -10 -11 -5 -3 -10 -1 -10 4 0 6 5 11 10 11 6 0 10 -2 10 -4z m671
-116 c15 0 10 -20 -7 -27 -9 -3 -20 0 -25 8 -13 21 -11 32 7 25 9 -3 20 -6 25
-6z m-75 -326 c-3 -9 -6 -20 -6 -25 0 -6 -4 -7 -10 -4 -16 10 -12 45 6 45 11
0 14 -5 10 -16z m-89 -236 c-3 -8 -6 -5 -6 6 -1 11 2 17 5 13 3 -3 4 -12 1
-19z m7480 -477 c43 -64 50 -166 16 -233 -19 -38 -30 -35 -25 6 5 42 -12 98
-38 121 -18 16 -18 16 -4 -32 16 -52 11 -109 -13 -156 -20 -40 -26 -28 -8 16
27 65 17 132 -32 209 -26 42 -27 48 -12 48 23 0 82 -56 110 -104 27 -49 29
-50 29 -21 0 45 -17 98 -45 139 -14 20 -25 39 -25 42 0 14 27 -6 47 -35z
m-347 -279 c33 -34 48 -92 31 -128 -6 -14 -11 -45 -11 -69 0 -24 -4 -47 -10
-50 -6 -4 -10 7 -10 27 0 58 -17 64 -23 9 -6 -49 -24 -97 -33 -88 -3 2 0 16 6
31 24 64 5 156 -46 223 l-27 36 22 19 c33 26 68 22 101 -10z m38 -603 c-12
-34 -28 -38 -28 -8 0 13 4 18 12 13 8 -5 9 -2 5 10 -9 22 2 43 13 26 4 -7 3
-26 -2 -41z m79 -21 c-3 -8 -6 -5 -6 6 -1 11 2 17 5 13 3 -3 4 -12 1 -19z
m-52 -96 c-3 -3 -11 0 -18 7 -9 10 -8 11 6 5 10 -3 15 -9 12 -12z m-7535 -52
c0 -5 -5 -10 -11 -10 -5 0 -7 5 -4 10 3 6 8 10 11 10 2 0 4 -4 4 -10z m5570
-294 c0 -34 3 -91 6 -125 7 -61 7 -61 -20 -61 -24 0 -26 3 -26 45 0 24 -10 70
-21 101 l-22 58 29 23 c46 37 54 31 54 -41z m-2034 -12 c8 -20 14 -38 12 -40
-8 -7 -200 -25 -206 -19 -3 3 4 26 16 50 l22 45 70 0 71 0 15 -36z m1461 4
l91 -22 26 -69 c14 -39 24 -72 22 -74 -2 -2 -128 6 -280 18 l-276 23 0 62 0
62 -37 10 c-29 8 9 10 162 11 174 1 212 -2 292 -21z m-909 -45 c-15 -2 -42 -2
-60 0 -18 2 -6 4 27 4 33 0 48 -2 33 -4z m-6933 -293 c-3 -5 -11 -10 -16 -10
-6 0 -7 5 -4 10 3 6 11 10 16 10 6 0 7 -4 4 -10z m3498 -27 c-13 -2 -33 -2
-45 0 -13 2 -3 4 22 4 25 0 35 -2 23 -4z m6384 -27 c1 -1 5 -119 9 -261 l7
-260 -229 3 c-126 2 -232 6 -235 10 -3 4 2 120 12 257 10 138 18 254 18 258 1
6 410 -1 418 -7z m-4221 -52 c-3 -8 -10 -13 -16 -9 -6 4 -5 13 3 26 13 21 23
8 13 -17z m-94 -48 c-26 -39 -45 -56 -66 -60 -34 -7 -44 0 -48 34 -3 22 2 25
40 30 23 4 55 16 70 28 43 33 44 26 4 -32z m-5248 4 c44 -42 30 -168 -59 -530
-30 -122 -55 -224 -55 -226 0 -2 9 -4 20 -4 12 0 25 10 31 23 9 21 9 21 4 -4
-4 -23 0 -27 43 -42 l47 -16 -55 6 c-30 3 -77 7 -105 9 -95 4 -185 17 -185 27
0 5 27 111 61 236 33 124 78 293 100 375 22 82 41 151 42 152 2 2 14 7 27 13
30 12 59 5 84 -19z m86 6 c0 -2 -11 -6 -25 -8 -14 -3 -25 -1 -25 3 0 5 11 9
25 9 14 0 25 -2 25 -4z m3114 -51 c43 -19 84 -35 93 -35 13 0 14 -8 9 -47 -4
-27 -11 -59 -16 -73 -5 -14 -63 -241 -129 -505 -148 -592 -201 -798 -206 -804
-2 -2 -33 9 -69 24 -36 15 -91 30 -123 34 -32 4 -57 11 -57 16 1 6 79 318 174
695 148 588 176 688 197 708 13 12 30 22 37 22 8 0 48 -16 90 -35z m5452 -31
c-3 -26 -6 -71 -6 -100 0 -30 -3 -54 -7 -54 -5 0 -21 35 -38 77 -23 59 -37 80
-62 96 -18 10 -33 21 -33 23 0 2 34 4 76 4 l77 0 -7 -46z m-7921 -98 c73 -22
378 -109 510 -146 17 -5 84 -24 150 -43 66 -20 146 -41 177 -48 31 -8 54 -16
49 -19 -4 -3 -27 -86 -50 -185 -24 -99 -44 -182 -46 -186 -2 -3 -29 -2 -60 2
-31 4 -376 13 -768 19 -392 7 -713 13 -714 14 -5 4 140 541 148 552 6 7 65 10
181 7 l173 -3 45 35 c53 41 70 41 205 1z m1985 -75 c0 -5 -10 -11 -22 -14 -22
-6 -22 -6 -4 8 23 17 26 18 26 6z m-200 -115 c0 -2 -7 -7 -16 -10 -8 -3 -12
-2 -9 4 6 10 25 14 25 6z m-150 -81 c-7 -8 -18 -15 -24 -15 -6 0 -2 7 8 15 25
19 32 19 16 0z m7654 -20 c0 -5 -22 -18 -48 -27 -41 -16 -47 -16 -52 -3 -13
33 4 46 53 43 27 -2 48 -7 47 -13z m-2000 -79 c3 -14 42 -57 86 -97 44 -40 80
-78 80 -84 0 -6 7 -20 15 -31 l14 -21 58 20 c52 17 65 18 117 7 61 -12 118
-37 169 -72 16 -11 26 -22 24 -24 -2 -3 -39 5 -82 17 -90 24 -146 22 -217 -9
-47 -21 -48 -23 -48 -64 0 -61 -19 -209 -30 -227 -5 -10 -8 38 -7 120 2 123 0
140 -21 185 -13 27 -35 58 -49 68 l-26 19 7 -39 c4 -21 11 -64 15 -94 5 -30
12 -73 16 -95 8 -39 7 -40 -12 -22 -23 20 -61 22 -98 5 -23 -10 -25 -16 -25
-83 0 -108 -26 -234 -71 -348 -47 -119 -54 -128 -73 -101 -36 49 -125 236
-141 295 -30 113 -14 126 24 19 27 -76 94 -212 118 -240 10 -11 44 50 69 125
24 68 28 96 27 187 0 58 -3 126 -7 151 -6 42 -5 47 18 62 14 9 43 19 66 22 22
3 40 11 40 17 0 6 -9 36 -20 66 -23 62 -60 227 -60 265 0 32 16 33 24 1z
m2076 -55 c0 -11 -5 -23 -11 -27 -16 -9 -30 18 -17 33 15 19 28 16 28 -6z
m-70 -24 c0 -31 -4 -35 -39 -45 -57 -18 -61 -16 -61 27 0 43 7 48 68 50 30 1
32 -1 32 -32z m-2740 -25 c0 -20 5 -53 11 -72 6 -19 15 -51 19 -70 4 -19 21
-71 37 -115 75 -204 180 -377 339 -557 22 -26 54 -72 70 -102 33 -63 60 -73
101 -34 17 16 23 18 23 7 0 -9 -13 -28 -30 -44 -26 -25 -29 -35 -32 -99 l-3
-71 -29 30 c-15 17 -37 48 -48 70 -12 22 -54 76 -95 120 -92 99 -187 239 -245
365 -25 52 -50 106 -56 120 -11 22 -11 18 -6 -25 20 -168 120 -417 247 -613
66 -102 63 -88 37 -242 -6 -36 -10 -106 -8 -155 2 -74 6 -90 19 -93 12 -2 25
13 43 50 28 59 34 47 11 -27 -8 -27 -13 -51 -10 -53 2 -2 15 14 29 36 50 80
129 122 228 122 44 0 26 -13 -52 -39 -99 -32 -128 -54 -157 -117 -18 -40 -34
-60 -58 -71 -41 -20 -59 -13 -81 28 -32 62 -29 138 12 389 5 31 -2 47 -57 130
-137 209 -264 539 -300 780 -10 72 -8 306 3 360 11 52 38 46 38 -8z m2740
-137 c0 -14 1 -28 3 -32 1 -4 -20 -12 -46 -19 -53 -13 -62 -8 -55 38 2 18 11
24 43 29 22 3 43 7 48 8 4 0 7 -10 7 -24z m70 5 c-6 -11 -15 -20 -20 -20 -6 0
-10 9 -10 20 0 13 7 20 20 20 18 0 19 -3 10 -20z m-1484 -57 c-10 -10 -19 5
-10 18 6 11 8 11 12 0 2 -7 1 -15 -2 -18z m1494 -97 c0 -8 -7 -16 -15 -20 -15
-5 -21 14 -8 27 11 12 23 8 23 -7z m-70 -21 c0 -19 -7 -26 -37 -34 -56 -16
-63 -14 -63 18 0 31 10 37 73 40 22 1 27 -3 27 -24z m-8655 -15 c3 -5 -1 -10
-10 -10 -9 0 -13 5 -10 10 3 6 8 10 10 10 2 0 7 -4 10 -10z m-537 -17 c-2 -9
-19 -22 -38 -28 -61 -21 -84 4 -27 29 45 20 69 20 65 -1z m292 -1 c0 -18 -70
-72 -93 -72 -14 0 -38 -7 -53 -15 -42 -22 -74 -20 -74 5 0 15 13 26 48 41 93
41 172 60 172 41z m158 -68 c15 -15 14 -18 -3 -30 -10 -8 -22 -14 -26 -14 -12
0 -17 38 -6 49 14 14 15 14 35 -5z m8742 -48 c0 -20 -7 -25 -44 -35 -59 -15
-58 -15 -54 17 3 23 9 28 43 33 22 3 43 7 48 8 4 0 7 -10 7 -23z m70 15 c0 -5
-7 -11 -14 -14 -10 -4 -13 -1 -9 9 6 15 23 19 23 5z m-10 -151 c-8 -5 -17 -7
-19 -4 -3 3 1 9 9 14 8 5 17 7 19 4 3 -3 -1 -9 -9 -14z m-50 -4 c0 -20 -10
-25 -64 -32 -42 -6 -44 -5 -39 14 5 21 23 28 76 31 17 1 27 -4 27 -13z m0
-135 c0 -10 -13 -15 -67 -26 -25 -5 -33 -3 -33 8 0 7 3 17 7 20 10 11 93 8 93
-2z m0 -120 c0 -11 -35 -21 -72 -21 -39 0 -35 18 5 23 60 7 67 7 67 -2z
m-2020 -79 c0 -29 -30 -135 -42 -149 -18 -22 -68 -55 -68 -45 0 5 9 20 21 33
29 33 39 63 39 114 0 31 5 47 18 54 25 15 32 13 32 -7z m1990 -42 c-36 -12
-62 -12 -55 0 3 6 23 10 43 9 33 -1 34 -2 12 -9z m-6933 -112 c-3 -8 -6 -5 -6
6 -1 11 2 17 5 13 3 -3 4 -12 1 -19z m5236 -46 c-8 -20 -18 -73 -20 -117 l-5
-80 42 -50 c23 -27 37 -51 32 -53 -20 -6 -113 49 -124 74 -9 19 -8 40 4 92 9
37 15 68 13 70 -7 7 -65 -150 -90 -243 -40 -148 -42 -150 -120 -163 -92 -15
-149 -46 -223 -119 l-63 -64 -30 22 c-32 23 -26 39 15 39 11 0 34 18 52 39 44
51 110 94 194 126 37 14 75 34 85 45 9 10 29 61 44 112 48 163 101 260 164
298 41 25 49 17 30 -28z m1465 -39 c-16 -15 -88 -9 -88 8 0 9 5 10 52 13 15 1
31 5 35 10 4 4 9 2 11 -4 3 -7 -2 -19 -10 -27z m467 0 c-3 -42 -28 -63 -77
-63 -19 0 -28 -5 -29 -17 -1 -10 -3 -29 -4 -41 -1 -13 2 -139 6 -280 9 -250 5
-292 -21 -266 -5 5 -13 131 -17 284 -7 253 -9 275 -26 278 -17 3 -18 -11 -11
-283 l7 -286 -49 3 -49 3 2 125 c5 404 2 448 -32 472 -5 4 0 8 12 8 16 0 22 7
25 28 3 26 6 27 66 30 61 3 62 3 62 -24 0 -22 3 -25 23 -20 12 3 27 6 34 6 6
0 11 9 10 20 -1 11 -5 20 -9 20 -4 0 -8 7 -8 15 0 8 7 15 15 15 8 0 15 -4 15
-10 0 -5 4 -10 10 -10 5 0 7 7 4 15 -5 11 1 15 18 15 22 0 25 -4 23 -37z
m-425 -4 c0 -5 -4 -9 -10 -9 -5 0 -10 7 -10 16 0 8 5 12 10 9 6 -3 10 -10 10
-16z m-7334 -265 c-3 -9 -6 -18 -6 -20 0 -2 -7 -4 -15 -4 -18 0 -19 12 -3 28
17 17 31 15 24 -4z m44 -15 c-7 -11 -14 -18 -17 -15 -8 8 5 36 17 36 7 0 7 -6
0 -21z m24 -46 c-8 -49 -23 -77 -24 -47 0 23 19 84 26 84 3 0 2 -17 -2 -37z
m407 -126 c-10 -9 -11 -8 -5 6 3 10 9 15 12 12 3 -3 0 -11 -7 -18z m7451 -838
c-3 -25 -25 -45 -30 -28 -2 5 -1 21 2 35 8 31 32 26 28 -7z m59 -16 c-12 -20
-14 -14 -5 12 4 9 9 14 11 11 3 -2 0 -13 -6 -23z m-1634 -89 c-3 -3 -12 -4
-19 -1 -8 3 -5 6 6 6 11 1 17 -2 13 -5z m-6772 -94 c10 -11 14 -20 10 -20 -5
0 0 -6 10 -14 19 -14 19 -15 1 -35 -11 -12 -23 -21 -28 -21 -13 0 -9 70 5 70
6 1 1 10 -12 20 -13 11 -19 20 -14 20 6 0 18 -9 28 -20z m8619 -31 c-6 -11
-24 -2 -24 11 0 5 7 7 15 4 8 -4 12 -10 9 -15z m-9089 -9 c-3 -5 -11 -10 -16
-10 -6 0 -7 5 -4 10 3 6 11 10 16 10 6 0 7 -4 4 -10z m455 -74 c0 -30 -32
-116 -43 -116 -5 0 -7 9 -4 21 3 12 2 32 -3 45 -8 21 -7 24 15 24 14 0 25 5
25 10 0 6 -12 8 -27 5 -26 -6 -26 -5 -10 8 9 8 17 25 17 38 1 23 1 23 15 5 8
-11 15 -29 15 -40z m-516 -8 c-7 -24 -20 -77 -29 -118 -26 -120 -34 -140 -52
-133 -14 5 -15 0 -10 -35 5 -27 0 -70 -13 -127 -26 -107 -29 -115 -45 -115
-13 0 -14 -24 -1 -52 11 -24 -16 -113 -34 -113 -19 0 -26 -45 -8 -57 10 -7 10
-11 1 -14 -7 -3 -15 -21 -19 -40 -4 -24 -12 -34 -25 -34 -21 0 -23 13 -13 96
6 44 9 51 25 47 25 -7 35 22 18 53 -12 23 -14 24 -21 7 -6 -12 -6 -8 -3 12 3
17 7 47 9 68 4 47 34 104 58 110 25 7 24 47 -1 54 -19 5 -21 28 -5 55 4 6 11
25 15 42 l8 31 -3 -33 c-1 -19 1 -29 6 -24 5 5 9 20 9 33 1 13 3 40 6 59 5 33
6 34 14 11 8 -19 12 -21 24 -11 8 7 15 28 15 47 0 28 -3 34 -16 29 -15 -6 -15
-4 -1 16 8 13 21 22 27 20 8 -2 10 3 7 13 -8 20 2 47 15 39 5 -3 8 0 7 7 -4
22 32 99 46 99 1 0 -4 -19 -11 -42z m8916 -96 c0 -5 -3 -12 -7 -16 -4 -4 -9
-19 -11 -34 -2 -15 -5 -29 -8 -31 -6 -7 -5 55 2 73 6 17 24 22 24 8z m9 -173
c-14 -8 -29 -3 -29 11 0 4 9 6 21 3 15 -4 17 -8 8 -14z m-3996 -26 c-7 -2 -21
-2 -30 0 -10 3 -4 5 12 5 17 0 24 -2 18 -5z m3187 -17 c0 -11 -19 -15 -25 -6
-3 5 1 10 9 10 9 0 16 -2 16 -4z m130 -34 c0 -5 -7 -9 -15 -9 -8 0 -12 4 -9 9
3 4 9 8 15 8 5 0 9 -4 9 -8z m109 -14 c8 2 11 0 7 -6 -3 -6 0 -13 6 -15 7 -3
1 -5 -14 -4 -15 1 -24 6 -21 11 4 5 -1 7 -10 3 -13 -5 -17 -1 -17 15 0 19 2
20 18 6 9 -9 23 -13 31 -10z m-2862 -4 c153 -8 292 -19 308 -23 l30 -8 -3 -94
c-5 -127 -6 -128 -84 -117 -35 4 -75 17 -89 28 -23 16 -55 21 -210 29 -257 15
-278 15 -328 -3 -65 -24 -63 -31 -45 152 l5 52 69 0 c38 0 194 -7 347 -16z
m902 -22 c11 -21 38 -56 60 -78 36 -37 39 -42 25 -56 -15 -14 -11 -17 35 -33
29 -9 51 -23 51 -31 0 -19 -42 -45 -76 -47 -25 -2 -30 3 -50 51 -12 29 -37 70
-56 90 -34 35 -68 90 -68 110 0 8 36 30 52 31 4 1 16 -16 27 -37z m2505 23
c-4 -8 -11 -15 -16 -15 -6 0 -5 6 2 15 7 8 14 15 16 15 2 0 1 -7 -2 -15z
m-7824 -44 c0 -24 -12 -37 -39 -46 -22 -7 -23 -5 -17 21 4 16 12 34 18 41 13
16 38 5 38 -16z m5549 15 c18 -22 29 -69 21 -91 -7 -18 -10 -16 -23 16 -33 74
-31 115 2 75z m-6812 -38 c-3 -8 -6 -5 -6 6 -1 11 2 17 5 13 3 -3 4 -12 1 -19z
m1333 15 c-1 -15 -30 -46 -37 -40 -3 4 2 16 12 27 19 21 25 24 25 13z m5036
-50 c-11 -11 -26 10 -26 35 l1 27 15 -28 c9 -16 13 -31 10 -34z m2716 0 c7 -9
7 -13 0 -13 -13 0 -22 25 -21 53 2 19 2 19 6 -3 3 -14 10 -31 15 -37z m-2792
-53 c8 -5 11 -10 5 -10 -5 0 -17 5 -25 10 -8 5 -10 10 -5 10 6 0 17 -5 25 -10z
m-4973 -35 c8 -9 13 -18 11 -21 -3 -2 -13 5 -23 16 -21 23 -11 27 12 5z m-81
-3 c18 -12 25 -42 9 -42 -13 0 -35 28 -35 44 0 8 13 7 26 -2z m7258 -1 c3 -4
-6 -6 -19 -3 -14 2 -25 6 -25 8 0 8 39 4 44 -5z m-8080 -11 c11 0 16 -3 13 -7
-9 -8 -87 -10 -87 -2 0 13 16 20 35 15 11 -3 29 -6 39 -6z m6031 -40 c4 -6 -7
-10 -27 -10 -25 0 -29 3 -18 10 19 13 37 13 45 0z m2242 -52 c-3 -8 -6 -5 -6
6 -1 11 2 17 5 13 3 -3 4 -12 1 -19z m118 -46 c-3 -3 -11 0 -18 7 -9 10 -8 11
6 5 10 -3 15 -9 12 -12z m-7377 -32 c7 -11 9 -20 4 -20 -4 0 -13 9 -20 20 -7
11 -9 20 -4 20 4 0 13 -9 20 -20z m5782 -59 c0 -14 -57 -39 -102 -46 -39 -6
-50 -13 -62 -36 -10 -20 -11 -29 -2 -33 6 -2 -4 -5 -22 -5 -36 -1 -96 21 -107
39 -5 7 18 37 61 78 l69 67 83 -29 c45 -16 82 -31 82 -35z m-6308 -28 l-3 -36
20 24 19 24 -5 -28 c-4 -20 -11 -27 -29 -27 -13 0 -24 5 -24 11 0 8 -4 9 -13
0 -32 -26 -36 19 -6 61 27 37 44 24 41 -29z m7711 42 c-3 -9 -8 -14 -10 -11
-3 3 -2 9 2 15 9 16 15 13 8 -4z m-7635 -59 c-8 -6 -13 -18 -10 -26 3 -11 2
-12 -8 -4 -9 9 -8 19 6 45 15 28 19 31 22 15 2 -11 -2 -24 -10 -30z m7622 24
c0 -5 -7 -10 -16 -10 -8 0 -12 5 -9 10 3 6 10 10 16 10 5 0 9 -4 9 -10z
m-8272 -20 c17 0 22 -3 15 -8 -17 -11 -84 -2 -77 10 3 5 13 7 21 4 8 -3 27 -6
41 -6z m8059 -52 c-3 -7 -5 -2 -5 12 0 14 2 19 5 13 2 -7 2 -19 0 -25z m-67
-28 c0 -11 -2 -20 -4 -20 -2 0 -6 9 -9 20 -3 11 -1 20 4 20 5 0 9 -9 9 -20z
m145 -10 c3 -5 1 -10 -4 -10 -6 0 -11 5 -11 10 0 6 2 10 4 10 3 0 8 -4 11 -10z
m-8509 -40 c8 0 14 -4 14 -10 0 -13 90 -99 111 -105 11 -4 19 -22 24 -51 3
-24 13 -60 20 -78 10 -23 11 -36 4 -43 -8 -8 -7 -13 2 -18 8 -6 10 -4 4 5 -5
8 -4 11 2 7 6 -4 16 -21 24 -39 18 -45 86 -116 133 -140 38 -19 70 -20 123 -3
18 6 23 2 29 -19 3 -14 10 -26 15 -26 22 0 6 -17 -31 -33 -49 -21 -77 -21
-122 -3 -21 9 -39 11 -48 6 -22 -13 15 -59 71 -88 73 -38 149 -16 221 63 37
41 85 59 73 27 -6 -17 25 -29 35 -12 5 8 9 9 14 1 4 -6 4 -15 1 -21 -3 -5 3
-10 14 -10 16 0 21 6 21 25 0 14 -7 28 -15 31 -12 5 -10 11 7 35 l22 29 23
-22 c13 -12 23 -28 23 -36 0 -12 3 -12 15 -2 15 12 83 22 97 14 19 -11 -116
-270 -168 -321 -7 -8 -19 -22 -26 -31 -7 -10 -32 -32 -54 -49 -123 -96 -251
-101 -375 -16 -52 36 -131 139 -174 228 -45 93 -90 219 -74 209 5 -3 12 2 15
11 5 12 9 13 21 3 11 -9 16 -9 24 3 20 32 0 61 -26 39 -11 -9 -15 -9 -15 -1 0
24 -29 10 -32 -16 -2 -17 -10 7 -20 62 -10 50 -21 106 -24 125 -7 32 -6 34 9
21 14 -11 17 -11 17 0 0 8 6 5 14 -7 8 -10 18 -16 22 -12 4 4 13 0 20 -10 11
-14 15 -15 23 -3 7 11 10 9 16 -8 5 -18 9 -20 21 -10 8 6 14 20 14 31 0 15 -5
19 -20 15 -12 -3 -20 0 -20 8 0 7 -7 18 -15 25 -12 10 -15 9 -15 -6 0 -17 -1
-17 -13 1 -8 10 -19 15 -25 11 -6 -3 -16 2 -21 11 -10 17 -12 17 -24 1 -12
-16 -14 -13 -15 20 0 20 -3 78 -6 127 -3 50 -3 82 0 73 3 -10 12 -18 20 -18z
m1054 20 c0 -5 -6 -10 -12 -10 -9 0 -8 -4 2 -10 17 -11 10 -13 -14 -4 -12 5
-13 9 -3 20 14 16 27 18 27 4z m-67 -35 c-4 -17 -52 -17 -75 0 -22 15 -21 16
27 13 28 -2 49 -7 48 -13z m7540 -50 c4 -8 3 -16 -1 -19 -4 -3 -9 4 -9 15 -2
23 3 25 10 4z m-49 -20 c9 -14 14 -25 12 -25 -8 0 -36 31 -36 41 0 15 7 10 24
-16z m217 -13 c-7 -2 -18 1 -23 6 -8 8 -4 9 13 5 13 -4 18 -8 10 -11z m-8254
-48 c-3 -3 -12 -4 -19 -1 -8 3 -5 6 6 6 11 1 17 -2 13 -5z m-185 -34 c-2 -20
-1 -22 7 -10 10 13 12 12 10 -6 0 -3 9 -14 20 -23 11 -10 18 -21 14 -25 -3 -3
-1 -6 7 -6 9 0 11 -9 6 -30 -5 -28 -4 -30 18 -24 25 6 46 -17 46 -51 0 -14 -6
-13 -40 6 -22 13 -48 32 -58 43 -9 11 -12 16 -5 13 6 -4 15 -2 19 5 4 7 4 10
-1 6 -16 -15 -48 15 -71 68 -13 30 -24 57 -24 60 0 3 12 4 28 2 22 -2 26 -7
24 -28z m928 0 c15 0 -2 -40 -23 -55 -30 -21 -43 -4 -27 35 8 20 18 29 27 26
8 -4 18 -6 23 -6z m79 -41 c11 -19 11 -21 -3 -16 -12 5 -15 1 -13 -16 2 -12 2
-16 0 -9 -3 6 -11 12 -19 12 -17 0 -17 5 -2 30 16 25 20 25 37 -1z m-816 4
c-7 -2 -19 -2 -25 0 -7 3 -2 5 12 5 14 0 19 -2 13 -5z m824 -55 c-3 -8 -6 -5
-6 6 -1 11 2 17 5 13 3 -3 4 -12 1 -19z m-92 -79 c10 -31 -12 -49 -31 -25 -8
11 -14 26 -14 33 0 21 38 15 45 -8z m64 12 c8 -5 9 -11 3 -15 -5 -3 -15 1 -22
9 -14 16 -3 20 19 6z"/>
<path d="M9748 14713 c7 -3 16 -2 19 1 4 3 -2 6 -13 5 -11 0 -14 -3 -6 -6z"/>
<path d="M9798 14703 c12 -2 30 -2 40 0 9 3 -1 5 -23 4 -22 0 -30 -2 -17 -4z"/>
<path d="M10528 14633 c6 -2 18 -2 25 0 6 3 1 5 -13 5 -14 0 -19 -2 -12 -5z"/>
<path d="M5799 13855 c-1 -3 -2 -11 -3 -17 0 -7 -21 -16 -46 -19 l-45 -6 58
-1 c34 -1 56 2 52 7 -3 5 -1 12 5 16 15 9 12 25 -5 25 -8 0 -16 -2 -16 -5z"/>
<path d="M6006 13775 c4 -8 2 -15 -3 -15 -5 0 -18 -7 -29 -15 -17 -13 -16 -14
14 -5 19 5 40 14 48 21 9 7 14 8 14 1 0 -6 -6 -13 -12 -16 -10 -5 -10 -7 -1
-12 20 -9 27 -6 29 13 4 24 -14 43 -42 43 -17 0 -22 -4 -18 -15z"/>
<path d="M5713 13738 c4 -14 26 -15 101 -5 76 10 67 17 -23 17 -62 0 -82 -3
-78 -12z"/>
<path d="M5958 13713 c7 -3 16 -2 19 1 4 3 -2 6 -13 5 -11 0 -14 -3 -6 -6z"/>
<path d="M5598 13693 c7 -3 16 -2 19 1 4 3 -2 6 -13 5 -11 0 -14 -3 -6 -6z"/>
<path d="M6075 13690 c-4 -6 -3 -16 3 -22 6 -6 12 -6 17 2 4 6 3 16 -3 22 -6
6 -12 6 -17 -2z"/>
<path d="M5783 13470 c-18 -16 -33 -32 -33 -34 0 -5 71 2 76 7 1 1 5 14 9 30
10 36 -10 35 -52 -3z"/>
<path d="M5898 13429 c30 -54 38 -59 47 -30 8 26 -11 55 -46 68 l-28 11 27
-49z"/>
<path d="M6050 13475 c0 -3 12 -10 26 -15 29 -11 54 -3 33 11 -15 9 -59 12
-59 4z"/>
<path d="M5107 13433 c5 -16 8 -49 8 -74 0 -33 4 -45 13 -42 7 3 13 -4 14 -18
2 -43 3 -48 11 -55 4 -4 7 -18 7 -31 0 -43 18 -65 49 -58 20 4 32 0 46 -15 23
-25 52 -26 60 -1 8 26 -19 141 -46 193 -36 70 -103 128 -149 128 -17 0 -19 -4
-13 -27z"/>
<path d="M5976 13432 c-2 -4 -1 -14 5 -22 7 -12 9 -10 9 8 0 23 -5 28 -14 14z"/>
<path d="M5585 13398 c-22 -13 -54 -49 -55 -61 0 -19 77 7 105 35 17 17 25 28
18 24 -6 -3 -14 -2 -18 4 -8 13 -25 12 -50 -2z"/>
<path d="M6158 13360 c-7 -11 -20 -20 -29 -20 -10 0 -22 -13 -28 -32 -10 -28
-9 -35 6 -45 22 -17 33 -16 33 1 0 27 18 27 49 0 17 -14 43 -29 58 -33 18 -5
26 -13 23 -22 -2 -8 -4 -33 -3 -56 1 -24 -2 -43 -6 -43 -5 0 -9 -6 -8 -12 0
-7 -1 -22 -2 -33 -1 -16 -3 -17 -10 -6 -8 12 -12 10 -22 -11 -11 -26 -34 -38
-75 -38 -13 0 -24 -8 -27 -19 -7 -27 0 -31 48 -31 22 0 45 -4 51 -10 6 -6 21
-2 44 13 18 12 45 29 59 38 33 20 37 50 15 97 -12 25 -18 63 -18 118 -1 66 -5
86 -20 103 -17 19 -21 20 -28 6 -13 -23 -23 -18 -37 18 -16 39 -54 48 -73 17z"/>
<path d="M6452 13240 c0 -14 2 -19 5 -12 2 6 2 18 0 25 -3 6 -5 1 -5 -13z"/>
<path d="M5850 13206 c0 -18 6 -19 35 -6 11 5 15 9 8 9 -6 1 -18 4 -27 7 -11
4 -16 1 -16 -10z"/>
<path d="M6461 13073 c-1 -104 1 -113 17 -113 16 0 18 7 15 48 -2 26 -8 63
-13 82 -5 19 -11 49 -13 65 -2 17 -5 -21 -6 -82z"/>
<path d="M6190 13123 c0 -12 5 -25 10 -28 13 -8 13 15 0 35 -8 12 -10 11 -10
-7z"/>
<path d="M6135 13030 c-3 -5 -2 -10 4 -10 5 0 13 5 16 10 3 6 2 10 -4 10 -5 0
-13 -4 -16 -10z"/>
<path d="M5030 13023 c0 -5 9 -28 20 -51 11 -22 20 -49 20 -58 0 -10 3 -14 7
-11 3 4 16 -1 27 -10 21 -18 21 -18 3 3 -9 11 -25 45 -35 74 -10 30 -24 56
-30 58 -7 2 -12 0 -12 -5z"/>
<path d="M6347 12960 c3 -11 9 -20 14 -20 11 0 11 3 3 24 -9 23 -23 20 -17 -4z"/>
<path d="M5880 12950 c0 -5 11 -10 25 -10 14 0 25 5 25 10 0 6 -11 10 -25 10
-14 0 -25 -4 -25 -10z"/>
<path d="M6407 12743 c-4 -3 -7 -11 -7 -17 0 -6 5 -5 12 2 6 6 9 14 7 17 -3 3
-9 2 -12 -2z"/>
<path d="M5526 12671 c-7 -10 43 -46 51 -37 7 7 -26 46 -38 46 -4 0 -10 -4
-13 -9z"/>
<path d="M5805 12570 c3 -5 8 -10 11 -10 2 0 4 5 4 10 0 6 -5 10 -11 10 -5 0
-7 -4 -4 -10z"/>
<path d="M5425 12400 c3 -5 11 -10 16 -10 6 0 7 5 4 10 -3 6 -11 10 -16 10 -6
0 -7 -4 -4 -10z"/>
<path d="M5540 12356 c0 -2 8 -10 18 -17 15 -13 16 -12 3 4 -13 16 -21 21 -21
13z"/>
<path d="M5510 12333 c0 -14 39 -43 57 -43 7 0 10 7 7 15 -4 8 -14 15 -23 15
-9 0 -22 5 -29 12 -9 9 -12 9 -12 1z"/>
<path d="M5758 12323 c7 -3 16 -2 19 1 4 3 -2 6 -13 5 -11 0 -14 -3 -6 -6z"/>
<path d="M5770 12260 c20 -13 53 -13 45 0 -3 6 -18 10 -33 10 -21 0 -24 -2
-12 -10z"/>
<path d="M5905 12256 c11 -8 29 -15 40 -15 16 0 17 1 5 8 -8 5 -26 12 -40 16
-24 7 -24 7 -5 -9z"/>
<path d="M5795 11910 c-3 -5 1 -10 10 -10 9 0 13 5 10 10 -3 6 -8 10 -10 10
-2 0 -7 -4 -10 -10z"/>
<path d="M5428 11853 c6 -2 18 -2 25 0 6 3 1 5 -13 5 -14 0 -19 -2 -12 -5z"/>
<path d="M5665 11710 c-3 -5 -1 -10 4 -10 6 0 11 5 11 10 0 6 -2 10 -4 10 -3
0 -8 -4 -11 -10z"/>
<path d="M4915 10855 c-21 -88 -40 -166 -42 -172 -3 -7 -1 -13 3 -13 11 0 88
313 82 332 -3 7 -22 -59 -43 -147z"/>
<path d="M4951 10854 c0 -11 3 -14 6 -6 3 7 2 16 -1 19 -3 4 -6 -2 -5 -13z"/>
<path d="M4896 10654 c-21 -79 -37 -147 -34 -149 2 -2 21 61 43 140 21 80 36
147 34 150 -3 2 -22 -61 -43 -141z"/>
<path d="M4851 10474 c0 -11 3 -14 6 -6 3 7 2 16 -1 19 -3 4 -6 -2 -5 -13z"/>
<path d="M4811 10324 c0 -11 3 -14 6 -6 3 7 2 16 -1 19 -3 4 -6 -2 -5 -13z"/>
<path d="M13443 9894 c-8 -4 -4 -19 13 -51 13 -25 24 -55 24 -65 0 -26 21 -18
38 13 29 56 -21 125 -75 103z"/>
<path d="M4920 4529 c0 -5 5 -7 10 -4 6 3 10 8 10 11 0 2 -4 4 -10 4 -5 0 -10
-5 -10 -11z"/>
<path d="M4891 4438 c-5 -15 -4 -26 2 -30 17 -10 27 0 27 28 0 30 -18 31 -29
2z"/>
<path d="M11850 4031 c0 -6 9 -9 19 -8 11 0 17 5 15 9 -7 11 -34 10 -34 -1z"/>
<path d="M4996 3529 c4 -8 0 -9 -15 -4 -19 6 -21 2 -21 -29 0 -43 14 -47 28
-8 10 25 10 26 11 4 1 -14 6 -22 14 -20 17 6 21 49 5 59 -19 12 -30 11 -22 -2z"/>
<path d="M5647 3393 c-13 -12 -7 -51 8 -57 10 -3 17 3 21 19 8 34 -10 58 -29
38z"/>
<path d="M5070 3369 c0 -18 -3 -20 -12 -11 -19 19 -28 14 -28 -18 0 -20 5 -30
15 -30 8 0 15 5 15 11 0 5 4 8 8 5 14 -8 30 8 33 34 3 17 -1 26 -13 28 -13 2
-18 -3 -18 -19z"/>
<path d="M4997 3344 c-4 -4 -7 -15 -7 -25 0 -12 -6 -16 -20 -12 -16 4 -20 0
-20 -21 0 -16 5 -26 15 -26 8 0 15 6 15 13 0 8 10 13 23 13 18 -1 21 4 19 24
-4 29 -15 43 -25 34z"/>
<path d="M5547 3311 c-2 -10 -1 -25 4 -32 8 -11 12 -11 24 4 15 21 10 47 -10
47 -7 0 -15 -9 -18 -19z"/>
<path d="M5657 3313 c-10 -9 -9 -51 2 -57 10 -7 33 42 26 55 -7 11 -19 12 -28
2z"/>
<path d="M5462 3286 c2 -15 8 -26 13 -26 15 0 12 43 -3 48 -10 3 -13 -4 -10
-22z"/>
<path d="M5163 3284 c-7 -18 0 -45 12 -45 5 0 13 13 16 29 4 21 2 29 -9 29 -7
0 -16 -6 -19 -13z"/>
<path d="M5257 3226 c1 -16 5 -31 7 -34 11 -10 26 11 26 36 0 20 -5 28 -18 28
-15 0 -18 -7 -15 -30z"/>
<path d="M5124 3236 c-8 -22 3 -49 18 -44 17 6 17 50 1 55 -7 3 -16 -2 -19
-11z"/>
<path d="M5363 3215 c4 -27 2 -35 -12 -40 -13 -4 -17 -13 -13 -30 6 -36 29
-31 35 8 4 17 9 47 13 65 5 26 3 32 -11 32 -14 0 -17 -6 -12 -35z"/>
<path d="M5550 3215 c0 -33 2 -36 15 -25 18 15 16 51 -2 58 -9 2 -13 -8 -13
-33z"/>
<path d="M5454 3215 c-8 -20 3 -48 16 -40 13 8 13 55 0 55 -6 0 -13 -7 -16
-15z"/>
<path d="M4980 3210 c0 -5 5 -10 11 -10 5 0 7 5 4 10 -3 6 -8 10 -11 10 -2 0
-4 -4 -4 -10z"/>
<path d="M5087 3193 c-3 -5 0 -19 5 -33 l9 -25 14 25 c7 14 11 28 9 32 -7 10
-31 10 -37 1z"/>
<path d="M5231 3177 c-13 -17 -4 -50 13 -44 15 5 20 37 9 48 -6 6 -14 4 -22
-4z"/>
<path d="M5055 3157 c-15 -38 9 -66 29 -35 8 14 7 21 -6 35 -16 15 -18 15 -23
0z"/>
<path d="M5546 3154 c-10 -26 -7 -44 8 -44 8 0 17 9 21 20 11 34 -16 57 -29
24z"/>
<path d="M5440 3125 c0 -25 4 -35 13 -33 18 7 20 43 2 58 -13 11 -15 8 -15
-25z"/>
<path d="M5206 3123 c-12 -12 -6 -53 8 -53 18 0 27 47 10 54 -6 2 -15 2 -18
-1z"/>
<path d="M5327 3104 c-10 -11 -8 -52 3 -59 13 -8 25 44 13 56 -5 5 -12 6 -16
3z"/>
<path d="M5431 3061 c-14 -9 -11 -57 4 -54 13 2 25 38 16 51 -4 6 -12 7 -20 3z"/>
<path d="M5165 3050 c-3 -5 -1 -19 6 -31 9 -17 13 -19 20 -8 14 22 11 49 -5
49 -8 0 -18 -4 -21 -10z"/>
<path d="M5292 3008 c2 -12 11 -24 21 -26 14 -3 18 1 15 20 -2 12 -11 24 -21
26 -14 3 -18 -1 -15 -20z"/>
<path d="M9604 15674 c-18 -14 -18 -15 4 -4 12 6 22 13 22 15 0 8 -5 6 -26
-11z"/>
<path d="M9520 15629 c-25 -16 -47 -34 -48 -39 -4 -11 96 48 104 62 9 15 -11
7 -56 -23z"/>
<path d="M9389 15603 c-13 -16 -12 -17 4 -4 16 13 21 21 13 21 -2 0 -10 -8
-17 -17z"/>
<path d="M8358 15323 c7 -3 16 -2 19 1 4 3 -2 6 -13 5 -11 0 -14 -3 -6 -6z"/>
<path d="M5385 14979 c-4 -17 -5 -33 -2 -35 9 -10 214 -17 220 -8 3 5 -31 9
-76 9 l-82 0 -14 33 c-18 40 -37 41 -46 1z"/>
<path d="M5305 14949 c-4 -5 10 -9 29 -9 20 0 36 4 36 8 0 12 -58 13 -65 1z"/>
<path d="M7519 14946 c-2 -2 -164 -6 -359 -10 -195 -3 -392 -9 -437 -12 -60
-5 -83 -4 -83 5 0 14 -27 15 -32 1 -2 -7 -150 -11 -426 -13 -232 -1 -422 -6
-422 -10 0 -5 -48 -8 -107 -6 -105 2 -490 -6 -766 -16 -99 -4 -136 -2 -132 6
4 6 -7 3 -24 -5 -56 -29 -60 -44 -62 -242 -2 -99 0 -184 3 -190 6 -8 326 -9
548 -1 52 2 280 7 505 11 226 3 475 9 555 12 80 3 312 5 515 6 204 0 373 2
376 4 3 2 104 5 224 7 157 2 220 7 223 15 2 7 10 12 17 12 18 0 23 46 30 237
5 144 4 154 -15 173 -15 15 -33 20 -73 20 -30 0 -56 -2 -58 -4z m121 -52 c17
-17 -7 -346 -26 -360 -15 -12 -235 -18 -989 -29 -187 -3 -524 -10 -750 -15
-607 -14 -1151 -21 -1169 -14 -14 5 -16 27 -15 143 0 129 8 216 19 212 3 -1
21 4 40 12 28 12 135 16 535 21 535 7 729 11 976 21 144 5 157 4 164 -12 6
-17 7 -17 19 -1 12 16 35 18 207 19 107 0 322 4 479 8 342 10 497 8 510 -5z"/>
<path d="M7390 14851 c-45 -6 -45 -6 -45 -46 l0 -40 73 -3 c54 -2 76 1 87 12
19 19 20 76 1 76 -7 0 -26 2 -42 4 -16 2 -49 1 -74 -3z"/>
<path d="M5090 14820 c0 -5 5 -10 11 -10 5 0 7 5 4 10 -3 6 -8 10 -11 10 -2 0
-4 -4 -4 -10z"/>
<path d="M5034 14786 c-10 -41 -1 -61 29 -64 22 -3 29 2 37 24 12 31 2 47 -37
58 -18 6 -24 2 -29 -18z"/>
<path d="M4702 14745 c0 -16 2 -22 5 -12 2 9 2 23 0 30 -3 6 -5 -1 -5 -18z"/>
<path d="M6008 14923 c7 -3 16 -2 19 1 4 3 -2 6 -13 5 -11 0 -14 -3 -6 -6z"/>
<path d="M6943 14463 c9 -2 23 -2 30 0 6 3 -1 5 -18 5 -16 0 -22 -2 -12 -5z"/>
<path d="M6073 14443 c15 -2 37 -2 50 0 12 2 0 4 -28 4 -27 0 -38 -2 -22 -4z"/>
<path d="M11063 14417 c-24 -6 -43 -16 -43 -23 0 -10 10 -9 48 3 54 18 56 19
45 25 -4 2 -27 0 -50 -5z"/>
<path d="M7088 14033 c7 -3 16 -2 19 1 4 3 -2 6 -13 5 -11 0 -14 -3 -6 -6z"/>
<path d="M7143 14033 c15 -2 39 -2 55 0 15 2 2 4 -28 4 -30 0 -43 -2 -27 -4z"/>
<path d="M7377 13740 c8 -29 25 -37 21 -9 -1 12 -8 24 -15 26 -7 3 -9 -3 -6
-17z"/>
<path d="M7197 12002 c-8 -31 -18 -78 -22 -103 l-7 -46 -59 39 c-62 42 -92 46
-97 13 -2 -14 7 -26 27 -38 16 -9 33 -27 36 -38 6 -17 14 -20 58 -17 l51 3 23
90 c12 50 23 102 23 117 0 49 -17 38 -33 -20z"/>
<path d="M3872 11759 c-32 -29 -26 -79 9 -79 15 0 17 5 13 30 -4 17 -1 36 5
44 19 23 -4 27 -27 5z"/>
<path d="M4356 11724 c-4 -14 -5 -29 -2 -31 3 -3 8 7 12 21 3 15 4 29 1 32 -2
3 -8 -7 -11 -22z"/>
<path d="M13930 10261 c-13 -25 9 -233 24 -228 6 2 25 25 41 52 39 64 42 131
6 169 -29 31 -56 33 -71 7z"/>
<path d="M13615 9850 c-10 -11 -20 -39 -22 -62 -3 -23 -9 -50 -14 -61 -17 -31
-3 -30 24 3 35 41 62 140 39 140 -5 0 -17 -9 -27 -20z"/>
<path d="M6728 9123 c6 -2 18 -2 25 0 6 3 1 5 -13 5 -14 0 -19 -2 -12 -5z"/>
<path d="M6778 9124 c6 -3 10 -10 6 -15 -3 -5 14 -10 38 -10 24 -1 75 -3 113
-4 l70 -3 -40 15 c-37 14 -215 30 -187 17z"/>
<path d="M7011 9086 c10 -9 69 -36 69 -32 0 6 -55 36 -66 36 -4 0 -5 -2 -3 -4z"/>
<path d="M7090 9046 c0 -2 8 -10 18 -17 15 -13 16 -12 3 4 -13 16 -21 21 -21
13z"/>
</g>
</svg>
