<?xml version="1.0" standalone="no"?>
<!DOCTYPE svg PUBLIC "-//W3C//DTD SVG 20010904//EN"
 "http://www.w3.org/TR/2001/REC-SVG-20010904/DTD/svg10.dtd">
<svg version="1.0" xmlns="http://www.w3.org/2000/svg"
 width="1749.000000pt" height="1834.000000pt" viewBox="0 0 1749.000000 1834.000000"
 preserveAspectRatio="xMidYMid meet">

<g transform="translate(0.000000,1834.000000) scale(0.100000,-0.100000)"
fill="#000000" stroke="none">
<path d="M10885 17710 c-342 -69 -574 -444 -501 -810 34 -169 143 -335 277
-420 27 -18 46 -37 43 -44 -3 -6 4 -1 15 12 23 26 115 298 106 312 -4 6 15 10
45 10 36 0 52 -4 56 -15 8 -19 -13 -45 -30 -39 -9 4 -15 -10 -20 -45 -4 -28
-13 -67 -20 -88 -7 -21 -17 -57 -21 -81 -7 -42 -6 -42 23 -42 21 0 35 -8 46
-25 21 -31 20 -33 -6 -38 -13 -2 15 -5 62 -6 49 0 111 6 144 14 230 60 415
275 462 534 44 248 -41 501 -219 650 -121 102 -310 151 -462 121z m310 -150
c26 -11 60 -29 75 -40 l28 -20 27 32 28 33 45 -50 c56 -63 116 -184 138 -282
21 -96 16 -292 -9 -339 -19 -37 -40 -44 -139 -44 -69 -1 -90 1 -198 15 -25 3
-59 17 -78 32 -34 26 -35 26 -81 10 -25 -9 -59 -19 -76 -21 -197 -30 -285 -22
-318 28 -8 11 -19 45 -26 74 -29 139 5 330 80 438 39 57 77 81 143 89 28 4 78
17 111 30 76 30 89 32 152 34 32 1 69 -7 98 -19z m198 -811 l67 -11 -32 -59
c-62 -112 -167 -207 -265 -240 -32 -10 -37 -9 -64 16 l-28 28 72 43 c40 23 79
49 86 58 8 9 13 48 14 99 l2 85 40 -4 c22 -2 70 -9 108 -15z m-210 4 c-23 -2
-64 -2 -90 0 -26 2 -7 3 42 3 50 0 71 -1 48 -3z m-418 -14 c-22 -4 -62 -7 -90
-7 l-50 1 40 7 c22 4 63 7 90 7 l50 1 -40 -9z m-153 -80 c-4 -96 -21 -95 -24
1 -2 36 -7 68 -13 72 -5 4 1 8 15 8 25 0 25 0 22 -81z"/>
<path d="M11252 16640 c0 -19 2 -27 5 -17 2 9 2 25 0 35 -3 9 -5 1 -5 -18z"/>
<path d="M4185 17476 c-177 -41 -314 -154 -401 -331 -98 -200 -100 -427 -4
-623 50 -101 134 -193 222 -245 51 -30 66 -45 81 -80 15 -37 62 -79 354 -317
566 -461 513 -413 514 -468 l1 -47 9 35 c10 44 -5 93 -35 113 -12 9 -200 160
-417 337 -327 267 -397 328 -413 362 -18 41 -18 43 8 183 15 77 24 148 21 158
-6 15 -1 17 41 16 35 0 43 -3 29 -8 -11 -5 -27 -6 -35 -4 -10 3 -9 0 3 -7 9
-6 27 -8 38 -5 16 5 20 3 17 -6 -3 -8 -11 -14 -19 -14 -9 0 -15 -13 -17 -35
-6 -87 -24 -203 -34 -226 -10 -21 -8 -29 11 -55 21 -29 21 -29 2 -17 -12 7
-25 24 -30 38 -5 14 -10 18 -10 9 -1 -8 5 -22 12 -31 6 -9 197 -166 422 -348
226 -183 417 -341 426 -352 16 -21 16 -21 21 0 5 17 -27 47 -184 174 -104 84
-193 153 -199 153 -16 0 -259 196 -254 205 3 5 -14 23 -37 41 -24 19 -37 26
-29 16 7 -9 9 -17 3 -17 -13 0 -33 25 -26 32 3 3 -16 23 -41 44 -41 33 -44 39
-28 45 16 7 15 8 -5 8 -15 1 -26 10 -32 27 -14 35 -15 34 31 34 68 0 174 29
232 64 80 49 84 49 91 14 3 -17 6 -36 6 -43 0 -16 -53 -50 -118 -76 -42 -17
-43 -19 -12 -13 74 13 163 66 241 144 152 151 217 340 197 576 -20 243 -180
460 -385 524 -86 26 -194 33 -268 16z m378 -169 c50 -33 56 -34 71 -19 14 15
18 14 45 -12 39 -37 84 -124 112 -216 20 -62 24 -96 23 -200 0 -71 -5 -137
-12 -152 -11 -26 -15 -27 -57 -22 -26 3 -61 0 -79 -6 -19 -6 -72 -11 -118 -12
-72 -1 -91 2 -121 21 -36 22 -75 21 -104 -2 -7 -5 -13 -7 -13 -4 0 2 -33 -2
-72 -9 -100 -19 -217 -18 -246 2 -45 31 -56 70 -56 199 -1 163 9 207 71 317
39 68 96 106 172 114 28 3 79 14 113 25 45 13 85 18 140 16 69 -3 83 -7 131
-40z m-75 -752 c-7 -8 -148 -8 -155 -1 -4 3 31 6 77 6 46 0 81 -2 78 -5z
m-393 -15 c-3 -5 -42 -10 -86 -10 l-79 0 0 -70 c0 -40 -4 -70 -10 -70 -5 0
-10 8 -11 18 0 9 -4 43 -8 74 l-7 57 36 4 c79 8 171 7 165 -3z m624 -28 c-10
-28 -71 -107 -67 -87 0 6 -4 23 -11 39 -14 34 -8 43 33 50 16 3 34 10 40 16
15 15 16 13 5 -18z m-174 -11 c3 -5 1 -12 -5 -16 -5 -3 -10 1 -10 9 0 18 6 21
15 7z m-15 -71 c0 -16 -4 -30 -8 -30 -4 0 -9 14 -10 30 -1 17 2 30 8 30 5 0
10 -13 10 -30z m-295 -286 c22 -19 31 -30 20 -25 -29 15 -82 61 -70 61 6 0 28
-16 50 -36z m125 -101 c0 -7 -39 17 -46 28 -3 6 5 3 20 -6 14 -10 26 -19 26
-22z"/>
<path d="M10669 16403 c-13 -16 -12 -17 4 -4 9 7 17 15 17 17 0 8 -8 3 -21
-13z"/>
<path d="M10828 16403 c7 -3 16 -2 19 1 4 3 -2 6 -13 5 -11 0 -14 -3 -6 -6z"/>
<path d="M10414 16244 c-18 -14 -18 -15 4 -4 12 6 22 13 22 15 0 8 -5 6 -26
-11z"/>
<path d="M4313 16203 c9 -2 25 -2 35 0 9 3 1 5 -18 5 -19 0 -27 -2 -17 -5z"/>
<path d="M10154 16084 c-18 -14 -18 -15 4 -4 12 6 22 13 22 15 0 8 -5 6 -26
-11z"/>
<path d="M10074 15964 c-18 -14 -18 -15 4 -4 12 6 22 13 22 15 0 8 -5 6 -26
-11z"/>
<path d="M10024 15934 c-18 -14 -18 -15 4 -4 12 6 22 13 22 15 0 8 -5 6 -26
-11z"/>
<path d="M9894 15924 c-18 -14 -18 -15 4 -4 12 6 22 13 22 15 0 8 -5 6 -26
-11z"/>
<path d="M9927 15876 c-48 -29 -61 -43 -22 -23 31 16 74 46 65 46 -3 0 -22
-10 -43 -23z"/>
<path d="M9844 15824 c-18 -14 -18 -15 4 -4 12 6 22 13 22 15 0 8 -5 6 -26
-11z"/>
<path d="M9634 15764 c-18 -14 -18 -15 4 -4 12 6 22 13 22 15 0 8 -5 6 -26
-11z"/>
<path d="M6997 15736 c-12 -12 -87 -17 -388 -25 -342 -10 -375 -9 -386 6 -18
24 -160 12 -182 -15 -9 -11 -34 -25 -56 -32 -72 -23 -133 -59 -201 -120 -38
-33 -72 -60 -76 -60 -19 0 -99 -127 -118 -187 -21 -70 -27 -149 -10 -155 6 -2
11 -21 12 -43 0 -28 11 -54 34 -88 19 -26 34 -52 34 -58 0 -11 562 -7 890 6
58 2 258 7 445 10 187 3 414 8 505 11 l165 6 29 -27 c28 -26 28 -29 23 -98 -4
-40 -9 -133 -13 -207 -7 -141 -20 -182 -62 -194 -25 -7 -404 -16 -1347 -31
-181 -3 -395 -7 -475 -10 -80 -3 -350 -8 -600 -11 -250 -4 -477 -7 -504 -8
-73 -2 -89 15 -87 90 7 236 19 384 31 399 24 30 53 33 256 36 110 2 204 4 211
7 6 2 14 14 17 28 4 13 13 24 21 24 8 0 19 8 24 18 15 25 13 10 -4 -31 -8 -19
-20 -37 -27 -40 -7 -3 -8 -6 -3 -6 16 -1 30 12 42 42 12 27 18 29 90 31 11 1
25 4 29 9 15 15 24 6 18 -17 -5 -21 -3 -24 14 -19 30 7 36 34 13 56 -17 18
-25 19 -81 8 -35 -6 -67 -8 -71 -5 -5 3 -6 24 -3 48 6 41 4 44 -37 80 -24 20
-63 46 -86 56 -38 16 -43 23 -49 59 -6 38 -9 42 -45 47 -23 4 -40 13 -42 23
-4 13 -5 13 -6 -2 0 -10 -21 -47 -46 -81 l-45 -63 -137 -22 c-76 -12 -140 -25
-144 -29 -4 -4 -16 -56 -28 -117 -12 -60 -23 -111 -25 -112 -2 -2 -53 0 -115
5 -75 6 -117 14 -128 24 -37 32 -61 31 -92 -3 -17 -18 -31 -42 -33 -53 -4 -24
-35 -34 -238 -76 -257 -53 -630 -90 -897 -90 l-113 0 -29 32 c-58 65 -161 29
-161 -56 0 -71 80 -118 137 -81 24 16 56 18 279 19 139 1 249 -3 245 -7 -4 -4
-53 -14 -108 -21 -99 -12 -103 -14 -173 -66 -39 -29 -76 -64 -81 -77 -21 -56
-3 -139 38 -175 11 -10 45 -27 77 -38 l57 -19 -25 30 c-25 30 -33 49 -20 49 4
0 13 -8 21 -17 13 -17 14 -16 8 3 -5 20 0 22 72 33 56 8 78 8 83 0 5 -7 45
-12 103 -12 93 -2 124 -10 99 -26 -7 -4 -83 -17 -169 -29 -86 -13 -159 -25
-161 -27 -3 -2 6 -9 20 -14 16 -6 41 -5 74 4 27 7 113 20 190 29 78 9 154 20
170 25 41 14 371 61 424 61 25 0 64 6 87 13 38 11 40 14 27 32 -8 10 -14 28
-14 39 0 16 8 10 30 -24 26 -40 29 -51 26 -105 -3 -33 -5 -89 -5 -123 -1 -56
-4 -65 -22 -69 -29 -8 -39 -42 -39 -139 l0 -84 73 -36 72 -37 113 15 c62 9
115 18 118 20 2 3 7 52 12 109 6 96 9 104 28 107 27 4 34 35 34 146 l0 82 83
13 c207 33 268 41 348 47 47 4 89 3 92 -2 3 -5 -1 -40 -9 -79 -18 -96 -17
-153 5 -202 23 -49 85 -119 141 -158 l40 -28 -80 -83 c-44 -46 -96 -109 -116
-141 -79 -122 -133 -273 -149 -418 -4 -33 -11 -64 -14 -70 -11 -15 4 -147 28
-258 24 -107 53 -193 96 -276 33 -66 32 -70 -41 -293 -50 -150 -58 -167 -84
-178 -33 -14 -41 -31 -74 -163 -18 -70 -23 -104 -16 -121 12 -32 -8 -84 -35
-93 -11 -3 -111 -6 -222 -5 l-203 0 0 -24 c0 -14 -5 -45 -11 -69 -9 -36 -16
-45 -38 -49 -14 -3 -131 -4 -259 -3 -206 3 -232 1 -230 -12 3 -13 43 -19 248
-33 135 -9 336 -16 447 -15 111 1 204 0 207 -3 11 -11 -226 -680 -384 -1085
-258 -661 -305 -956 -196 -1226 18 -43 25 -73 20 -92 l-6 -29 -396 3 c-378 3
-399 2 -436 -16 -22 -11 -48 -31 -58 -45 -23 -32 -168 -571 -167 -619 1 -25 3
-29 6 -13 3 13 18 31 34 40 16 10 29 25 29 35 0 9 4 17 9 17 5 0 7 8 4 19 -3
10 0 22 6 25 5 4 8 13 5 21 -3 7 1 24 9 37 9 13 18 39 21 59 3 20 10 49 16 65
6 16 11 29 10 29 -4 0 13 64 31 121 11 33 22 70 24 82 3 12 7 31 10 43 10 48
18 58 50 69 21 7 71 9 132 6 86 -5 2477 -21 2528 -18 11 1 81 2 155 3 159 0
149 13 -13 18 -62 1 -116 6 -121 11 -7 7 495 1997 523 2073 7 19 8 19 15 -4 7
-23 8 -23 18 11 12 42 54 100 72 100 23 0 29 -30 36 -155 5 -110 7 -117 19
-90 20 48 50 202 57 296 7 82 6 87 -17 102 -13 10 -31 17 -40 17 -9 0 -24 9
-34 20 -10 11 -25 20 -33 20 -10 0 -12 7 -7 28 3 15 9 30 13 34 10 10 302 -3
302 -13 0 -5 -78 -316 -174 -691 -310 -1215 -436 -1714 -436 -1730 0 -13 16
-17 83 -22 108 -7 289 -13 255 -9 -20 3 -32 16 -53 56 l-27 52 236 926 c201
789 236 937 236 999 0 47 -5 81 -16 98 -15 26 -13 33 51 182 37 85 70 159 74
163 4 4 64 12 132 18 68 6 127 14 130 17 4 4 10 35 14 69 l7 62 -39 10 c-65
19 -147 26 -139 13 4 -7 18 -12 32 -12 20 0 24 -5 24 -27 0 -33 -10 -48 -30
-48 -18 0 -22 9 -13 30 11 30 -5 26 -23 -4 -20 -34 -16 -33 -159 -36 -49 -1
-128 -3 -175 -5 l-85 -5 -3 34 c-2 20 3 40 13 51 15 16 14 18 -7 24 -13 3 -53
6 -90 6 -38 0 -68 2 -68 5 0 3 7 34 16 69 11 46 22 67 37 74 18 9 19 11 5 11
-12 1 -15 6 -11 17 5 14 0 16 -30 12 -24 -2 -37 0 -37 8 0 12 -5 12 -235 -6
-198 -15 -491 -24 -482 -14 4 4 72 12 150 16 78 4 156 10 172 12 82 12 115 19
115 26 0 10 52 34 68 31 6 -1 12 3 12 9 0 5 11 10 24 10 13 0 26 4 28 9 2 6
19 13 38 16 19 3 40 13 47 21 8 11 29 16 62 17 28 1 51 4 51 8 0 3 11 18 25
33 17 19 34 26 59 26 43 0 50 13 102 200 20 69 42 139 49 155 7 17 21 54 31
83 10 28 24 52 30 52 16 0 48 131 34 140 -7 5 -7 22 1 59 8 40 8 55 0 60 -9 6
-8 34 4 109 8 56 15 130 15 164 0 55 27 189 43 215 3 5 8 33 12 62 3 30 12 65
19 80 7 14 19 44 26 66 7 22 26 57 42 78 16 20 27 37 23 37 -3 0 -1 9 6 21 9
18 17 20 57 15 38 -4 41 -3 18 4 -16 5 -60 12 -98 16 -55 5 -66 9 -57 20 16
20 3 32 -44 39 -95 14 -180 39 -205 60 -37 31 -106 66 -145 74 -26 6 -31 11
-29 30 6 38 46 106 65 109 46 9 76 78 102 235 6 35 8 37 41 37 19 0 44 -5 55
-10 21 -12 26 -40 7 -40 -10 0 -10 -2 -1 -8 7 -5 9 -13 3 -21 -4 -8 -6 -20 -3
-28 3 -7 -2 -13 -12 -13 -9 0 -13 -5 -10 -10 4 -6 1 -17 -5 -25 -7 -8 -9 -24
-5 -36 5 -16 4 -19 -5 -14 -10 6 -12 1 -7 -23 4 -20 2 -32 -6 -36 -7 -3 2 -3
19 -1 26 4 33 0 43 -21 10 -23 9 -25 -8 -19 -14 4 -21 -2 -31 -25 -7 -16 -16
-30 -21 -30 -5 0 -9 -4 -9 -10 0 -5 13 -10 29 -10 16 0 32 -6 34 -12 4 -10 6
-10 6 0 1 6 10 12 20 12 11 0 22 4 25 9 3 5 -15 6 -40 3 -37 -4 -46 -2 -42 9
3 10 20 13 57 12 32 -1 49 2 45 8 -6 10 42 5 90 -8 12 -3 16 -1 12 6 -4 6 -4
26 -1 44 l6 33 107 11 c128 14 234 41 350 87 48 19 88 33 90 32 4 -4 -52 -200
-75 -266 -9 -25 -25 -57 -35 -72 -11 -16 -17 -28 -14 -28 3 0 -2 -23 -10 -52
-32 -105 -42 -162 -36 -195 l4 -28 -30 35 c-17 19 -31 40 -32 45 0 6 -20 15
-45 21 -46 11 -61 2 -49 -30 3 -8 0 -49 -6 -92 -6 -43 -13 -117 -15 -164 -8
-138 -27 -228 -173 -795 -103 -401 -136 -544 -128 -554 14 -18 16 -13 76 224
37 145 59 211 79 240 43 63 171 335 171 364 0 6 11 43 24 83 35 110 76 261 76
285 0 12 5 25 10 28 7 4 9 -2 6 -17 -3 -12 -22 -126 -42 -253 -66 -425 -138
-744 -239 -1054 -32 -96 -59 -181 -62 -188 -4 -9 4 -13 24 -13 28 0 31 5 57
79 15 44 25 84 22 90 -3 5 -2 11 4 13 14 5 61 169 54 192 -4 15 -3 17 4 8 11
-17 25 38 16 65 -4 13 -3 14 3 5 12 -15 48 132 37 149 -4 8 -3 9 4 5 7 -4 12
-1 12 6 0 7 3 24 7 37 5 19 3 22 -8 16 -8 -5 -6 1 5 13 13 15 17 29 12 49 -5
22 -4 25 4 13 9 -12 11 -9 7 13 -2 15 -1 27 3 27 10 0 31 126 23 146 -4 11 -2
15 4 11 13 -8 67 313 58 345 -4 14 -3 18 2 11 5 -7 20 63 36 170 42 274 95
556 115 612 10 28 29 70 44 95 14 25 32 57 39 71 47 89 161 201 259 255 61 34
194 77 285 93 101 18 342 24 455 12 174 -18 170 -16 236 -134 31 -56 58 -103
59 -104 3 -5 478 -53 482 -49 3 2 20 46 39 96 24 65 46 106 74 136 43 47 48
57 26 48 -22 -9 -52 12 -69 48 -20 44 -32 102 -19 94 5 -3 13 4 16 17 6 21 7
21 17 4 10 -17 12 -17 23 -1 21 28 33 8 39 -67 3 -40 10 -76 15 -81 6 -6 20 4
36 23 27 32 28 32 77 21 28 -7 78 -12 112 -12 52 -1 412 -38 527 -55 19 -3
109 -12 200 -21 91 -8 182 -18 203 -21 30 -4 37 -2 37 12 0 13 -6 15 -30 10
-28 -6 -32 -4 -46 30 -8 21 -13 43 -10 50 5 14 94 31 104 19 4 -4 1 -9 -6 -11
-6 -3 -9 -9 -6 -15 5 -7 -3 -9 -22 -4 -22 6 -26 5 -17 -5 17 -17 63 -3 63 20
0 15 9 20 45 23 37 2 45 0 45 -13 0 -9 8 -27 18 -39 16 -19 19 -20 30 -7 11
12 10 15 -5 13 -14 -1 -18 6 -16 33 2 45 22 81 45 81 10 0 18 6 18 14 0 9 -7
12 -19 9 -11 -3 -21 2 -25 12 -7 20 0 35 19 35 27 0 3 30 -44 57 -25 14 -62
36 -81 48 -27 18 -56 25 -134 30 -54 4 -112 11 -130 16 -17 5 -92 12 -166 15
-74 3 -137 7 -139 9 -2 2 8 18 23 35 14 17 26 43 26 56 0 98 -130 139 -177 56
l-17 -29 -150 -5 c-83 -3 -189 -3 -235 1 l-84 6 -14 46 c-20 70 -59 87 -194
87 -67 0 -123 5 -158 16 -30 9 -72 16 -93 16 -21 0 -38 4 -38 8 0 4 10 36 21
71 19 56 21 73 13 155 l-9 91 -32 10 c-18 5 -33 14 -33 20 0 5 11 37 25 70 13
33 18 51 9 40 -8 -10 -22 -43 -31 -72 -10 -33 -38 -79 -74 -124 -57 -70 -81
-124 -119 -271 -7 -27 -19 -49 -26 -49 -8 -1 -20 -2 -26 -3 -7 -1 -15 12 -18
29 -3 20 -14 34 -33 43 -19 9 -26 19 -22 31 8 25 -48 107 -87 127 -23 12 -101
25 -253 40 -192 21 -368 30 -295 17 14 -3 27 -8 30 -12 3 -4 93 -16 200 -26
107 -10 206 -21 220 -26 l25 -7 -25 -1 c-13 -1 -122 9 -242 20 -119 12 -223
19 -231 16 -8 -3 -29 -47 -47 -97 l-33 -92 -50 6 c-28 3 -53 9 -56 13 -3 5
-22 9 -41 11 -19 1 -49 5 -66 7 -22 4 -36 0 -49 -15 -10 -11 -13 -20 -8 -20 6
0 16 7 23 15 7 8 17 15 22 15 6 0 5 -7 -2 -15 -19 -23 -5 -30 29 -15 42 17 65
-5 56 -54 l-7 -35 -74 5 c-71 4 -74 3 -74 -18 0 -12 11 -34 25 -48 25 -26 25
-27 10 -71 -9 -24 -22 -65 -29 -91 -11 -44 -20 -53 -126 -134 -135 -101 -124
-112 -113 109 5 81 5 160 0 175 -4 16 -1 54 8 94 64 287 -94 577 -369 675 -23
8 -77 16 -121 18 -44 3 -81 9 -83 15 -6 16 -158 13 -175 -4z m13 -381 c0 -23
-16 -17 -28 10 -11 24 -10 25 8 15 11 -6 20 -17 20 -25z m-1096 -1 c9 -3 16
-12 16 -20 0 -20 -13 -17 -28 6 -13 22 -12 23 12 14z m-600 -329 c-6 -16 -24
-21 -24 -7 0 11 11 22 21 22 5 0 6 -7 3 -15z m2799 -85 c-2 -2 -15 8 -28 22
-16 18 -20 28 -12 31 12 4 48 -43 40 -53z m-33 -10 c0 -6 30 -14 140 -37 l25
-5 -25 -11 c-14 -5 -54 -23 -89 -39 -35 -15 -66 -26 -69 -24 -2 3 3 25 11 50
9 26 12 46 7 46 -5 0 -19 -31 -30 -70 -16 -53 -25 -70 -39 -70 -10 0 -20 3
-23 6 -5 4 18 82 46 161 5 12 46 6 46 -7z m1700 6 c0 -3 -4 -8 -10 -11 -5 -3
-10 -1 -10 4 0 6 5 11 10 11 6 0 10 -2 10 -4z m-799 -45 c21 -17 22 -21 10
-47 -13 -28 -14 -28 -21 -7 -11 26 -46 39 -65 23 -12 -10 -15 -9 -15 3 0 49
47 64 91 28z m1367 -68 c-10 -2 -26 -2 -35 0 -10 3 -2 5 17 5 19 0 27 -2 18
-5z m-541 -23 c21 -11 51 -20 67 -20 28 0 28 -1 22 -37 -4 -21 -8 -53 -10 -71
-2 -19 -6 -35 -8 -37 -2 -2 -40 1 -86 7 -79 10 -82 12 -83 37 -1 20 -2 22 -6
6 -6 -22 -31 -44 -50 -45 -8 0 -13 15 -13 40 0 33 4 42 23 50 17 7 18 9 5 9
-20 1 -21 5 -12 50 6 30 8 31 60 31 35 0 67 -7 91 -20z m-5580 -38 c11 -7 16
-26 14 -50 -1 -10 -5 -10 -17 2 -8 9 -31 16 -50 16 -32 0 -45 16 -27 33 9 9
65 9 80 -1z m6660 -18 c-3 -3 -12 -4 -19 -1 -8 3 -5 6 6 6 11 1 17 -2 13 -5z
m144 -34 c28 -15 23 -30 -9 -30 -27 0 -52 15 -52 32 0 11 38 10 61 -2z m-280
-14 c79 -8 153 -14 164 -14 11 1 55 -12 97 -28 l77 -28 25 23 c28 26 33 22 14
-12 -6 -12 -16 -42 -23 -66 l-11 -44 -104 2 c-106 2 -496 38 -512 47 -9 6 -1
74 13 112 7 19 16 22 62 22 30 0 119 -6 198 -14z m-1224 -22 l28 -25 -53 4
c-59 5 -67 9 -59 32 10 23 53 18 84 -11z m-5377 -18 c0 -38 -16 -57 -26 -32
-8 21 3 66 16 66 6 0 10 -15 10 -34z m-40 -26 c0 -31 -4 -40 -17 -41 -17 -1
-17 -2 0 -6 10 -3 17 -14 17 -27 0 -20 -7 -24 -46 -30 -53 -7 -64 -3 -64 25 0
13 7 19 23 20 l22 2 -22 4 c-17 3 -23 11 -23 31 0 46 18 60 78 61 31 1 32 0
32 -39z m4672 19 l118 -12 30 -60 c16 -33 30 -65 30 -70 0 -6 -20 -7 -52 -2
-86 13 -337 15 -423 4 -211 -26 -375 -76 -455 -138 -19 -15 -51 -37 -70 -49
-19 -11 -48 -37 -63 -57 -15 -19 -32 -35 -37 -35 -4 0 1 28 12 63 l21 62 136
102 c162 120 202 144 296 172 141 42 208 45 457 20z m-4628 -65 c10 -27 7 -44
-9 -44 -8 0 -15 3 -15 8 0 4 -3 17 -6 30 -7 26 20 32 30 6z m-999 -24 c-9 -16
-12 -30 -8 -30 5 0 79 11 166 25 87 14 161 25 163 25 2 0 4 -7 4 -15 0 -19
-88 -62 -142 -71 -36 -6 -38 -9 -38 -43 l0 -37 -77 -12 c-43 -7 -79 -17 -81
-22 -2 -5 -12 -4 -23 3 -15 10 -19 23 -19 74 0 39 5 65 13 70 7 4 18 20 24 36
7 15 17 27 23 27 6 0 4 -12 -5 -30z m-79 -57 c-3 -17 -26 -32 -26 -16 0 8 20
33 26 33 1 0 1 -8 0 -17z m6813 1 c10 -9 -65 -3 -78 5 -10 6 1 8 30 4 24 -3
46 -7 48 -9z m-5739 -70 c12 -19 21 -37 19 -38 -2 -2 -23 -7 -45 -11 -37 -6
-44 -4 -63 21 -27 34 -27 52 2 57 55 11 65 7 87 -29z m2307 -20 c-3 -3 -12 -4
-19 -1 -8 3 -5 6 6 6 11 1 17 -2 13 -5z m-450 -26 c-22 -10 -46 -17 -53 -14
-13 5 -21 -12 -54 -117 -11 -38 -30 -78 -40 -90 -11 -11 -26 -33 -32 -49 -14
-30 -19 -33 -80 -44 -43 -7 -45 -4 -21 37 16 27 53 41 53 19 0 -5 9 -10 21
-10 12 0 19 5 16 13 -2 6 1 19 8 27 7 8 16 40 20 70 6 58 25 161 30 171 2 3
42 5 88 5 l85 0 -41 -18z m465 -19 c16 -12 27 -27 24 -34 -2 -7 2 -21 9 -32
20 -25 18 -32 -5 -26 -16 4 -20 1 -17 -16 3 -21 27 -53 27 -37 0 5 12 1 26 -9
15 -9 50 -21 78 -25 95 -16 156 -33 150 -41 -3 -5 2 -9 10 -9 13 0 16 -12 16
-53 0 -79 -7 -81 -119 -40 -237 87 -226 83 -229 68 -5 -20 -6 -20 -92 17 -63
27 -91 32 -173 36 -86 4 -97 6 -92 21 4 9 13 41 21 71 21 83 41 104 101 108
32 2 69 -4 103 -17 56 -21 84 -15 96 21 7 24 29 23 66 -3z m-3392 1 c0 -13
-28 -25 -38 -16 -3 4 0 11 8 16 20 13 30 12 30 0z m2266 -8 c6 -4 23 -30 38
-59 17 -30 46 -64 73 -83 24 -18 43 -35 41 -39 -38 -84 -130 -261 -136 -261
-5 0 -33 18 -63 40 -62 47 -117 112 -125 149 -3 14 -8 32 -10 40 -6 19 26 193
38 209 11 13 125 17 144 4z m282 -220 c19 -24 15 -70 -7 -82 -11 -5 -45 -10
-76 -10 l-56 0 33 59 c31 56 35 59 63 54 16 -3 36 -13 43 -21z m1517 10 c16
-11 17 -32 2 -32 -8 0 -22 9 -32 20 -17 19 -17 20 1 20 10 0 24 -4 29 -8z
m-1630 -132 c-10 -11 -21 -20 -26 -20 -4 0 -5 9 -2 20 3 12 14 20 26 20 19 0
20 -1 2 -20z m809 -36 c9 -3 16 -10 16 -14 0 -10 -38 -1 -46 11 -6 10 7 12 30
3z m175 -28 c74 -17 174 -62 268 -122 56 -35 94 -97 134 -213 24 -69 43 -221
34 -278 -6 -40 -9 -44 -31 -41 -21 3 -29 15 -57 98 -41 118 -90 208 -167 303
-71 87 -189 200 -241 230 -21 12 -39 26 -39 31 0 8 41 5 99 -8z m-625 -88 c-3
-5 9 -8 25 -8 41 0 39 -13 -4 -29 -24 -8 -35 -19 -35 -32 0 -23 9 -24 24 -3 6
8 27 17 46 20 19 3 41 11 48 16 8 7 16 7 25 1 6 -6 25 -13 40 -17 40 -9 29
-32 -13 -28 -29 3 -32 2 -22 -11 11 -13 8 -16 -18 -22 -16 -4 -30 -10 -30 -15
0 -5 14 -4 31 2 25 9 32 7 43 -7 17 -23 35 -12 32 20 -2 13 2 26 8 28 20 8 69
-18 111 -58 22 -20 47 -41 56 -46 21 -11 34 -58 20 -72 -8 -8 -11 -7 -11 1 0
7 -5 12 -12 12 -6 0 -4 -7 5 -18 10 -10 17 -25 17 -34 0 -8 8 -37 17 -64 l17
-49 9 35 c4 19 11 47 14 63 3 15 8 27 10 27 3 0 28 -22 55 -50 30 -31 43 -50
34 -50 -19 0 -19 1 -1 -86 22 -104 34 -132 32 -70 -1 28 3 50 9 53 12 4 64
-103 64 -133 0 -11 7 -44 15 -74 34 -124 10 -420 -46 -562 -20 -50 -92 -161
-129 -198 -67 -67 -161 -133 -204 -144 -17 -4 -41 -15 -55 -25 -14 -10 -39
-21 -56 -24 -16 -4 -41 -10 -54 -13 -15 -4 -22 -3 -18 2 3 6 -9 10 -28 10 -19
0 -32 -3 -29 -7 9 -15 -96 -21 -126 -8 -6 2 -33 5 -77 7 -17 1 -38 9 -47 17
-8 8 -19 15 -25 15 -6 0 -11 4 -11 8 0 4 -13 16 -30 25 -16 10 -30 25 -30 33
0 8 -8 14 -18 14 -10 0 -23 5 -30 12 -7 7 -12 8 -12 2 0 -6 25 -28 55 -48 30
-21 52 -43 49 -48 -4 -6 -10 -6 -17 1 -6 6 -19 11 -29 11 -9 0 -33 14 -51 30
-19 17 -39 30 -44 30 -6 0 -36 27 -67 61 l-58 61 34 29 c25 22 30 30 20 37 -9
6 -13 24 -10 48 3 39 3 39 -32 36 -73 -6 -90 -13 -96 -39 -4 -14 -2 -34 5 -44
13 -22 14 -29 3 -29 -4 0 -14 17 -21 38 -8 20 -22 49 -32 64 -11 14 -19 31
-19 38 0 12 50 83 63 88 14 7 38 75 39 112 0 19 4 40 9 45 4 6 10 46 14 90 6
72 5 83 -13 105 -26 32 -37 21 -47 -44 -6 -45 -5 -49 9 -37 13 11 17 11 22 -3
9 -23 -4 -49 -21 -42 -9 3 -25 -8 -42 -28 -22 -29 -31 -33 -57 -29 -30 5 -31
4 -34 -40 -2 -39 1 -45 20 -51 16 -4 28 1 39 16 9 11 19 17 22 12 7 -12 -35
-116 -48 -121 -6 -2 -19 14 -29 34 -10 21 -22 45 -26 53 -4 8 -14 16 -23 18
-13 3 -14 -2 -8 -25 15 -51 63 -148 77 -156 8 -4 14 -18 14 -30 -1 -21 -2 -20
-26 8 -35 42 -67 107 -97 195 -38 115 -65 289 -47 300 5 3 17 56 28 119 11 62
24 116 29 120 6 3 14 39 18 80 7 67 13 84 63 164 31 50 64 92 74 95 10 2 18 8
18 13 0 17 93 99 113 99 11 0 26 8 34 18 10 11 12 12 8 2 -4 -9 1 -6 12 5 28
29 53 41 114 54 30 6 60 15 67 19 16 10 292 10 286 0z m1027 -64 c30 -9 61
-22 69 -29 28 -25 105 -55 141 -55 27 0 41 -6 51 -22 14 -21 10 -42 -43 -251
-33 -125 -59 -230 -59 -233 0 -2 -7 -4 -15 -4 -12 0 -15 14 -15 63 -2 205 -49
351 -155 481 -61 76 -61 76 26 50z m-846 -44 c3 -5 1 -10 -4 -10 -6 0 -11 5
-11 10 0 6 2 10 4 10 3 0 8 -4 11 -10z m1504 -76 c2 -2 -1 -9 -7 -16 -6 -7
-22 -60 -37 -118 -14 -58 -30 -108 -34 -113 -8 -8 14 220 24 246 5 12 13 16
29 11 11 -4 23 -8 25 -10z m-2399 -84 c0 -5 -5 -10 -11 -10 -5 0 -7 5 -4 10 3
6 8 10 11 10 2 0 4 -4 4 -10z m2407 -37 c-3 -10 -15 -56 -27 -103 -12 -47 -30
-114 -41 -150 -11 -36 -20 -74 -20 -85 -1 -25 -27 -95 -28 -75 -2 27 104 430
112 430 5 0 6 -8 4 -17z m-594 -345 c6 -22 5 -22 -8 -4 -17 22 -20 40 -6 32 5
-3 11 -16 14 -28z m-25 -82 c-4 -55 -32 -57 -36 -2 -5 53 4 72 24 55 10 -8 14
-26 12 -53z m75 6 c-7 -54 -11 -62 -28 -62 -11 0 -15 11 -15 43 0 49 1 52 29
54 17 1 19 -3 14 -35z m-53 -102 c6 -11 16 -17 25 -14 8 4 15 1 15 -5 0 -14
-40 -30 -57 -24 -15 6 -26 39 -18 53 10 16 23 12 35 -10z m457 -12 c-3 -7 -5
-2 -5 12 0 14 2 19 5 13 2 -7 2 -19 0 -25z m-517 -392 c-63 -249 -94 -352
-107 -362 -10 -8 -45 -28 -78 -44 -33 -17 -78 -41 -99 -54 -31 -19 -59 -26
-125 -30 -47 -4 -114 -8 -148 -11 -35 -2 -63 -1 -63 3 0 4 30 23 68 41 97 48
177 108 262 197 151 158 226 310 274 555 4 20 16 29 53 41 27 8 49 14 50 13 1
0 -38 -158 -87 -349z m530 304 c0 -5 -2 -10 -4 -10 -3 0 -8 5 -11 10 -3 6 -1
10 4 10 6 0 11 -4 11 -10z m-2256 -479 l27 -38 -24 -119 c-22 -109 -23 -120
-8 -131 14 -11 14 -13 -4 -14 -11 -2 14 -5 55 -8 l75 -6 17 35 16 35 -4 -40
-4 -40 14 40 c8 22 15 49 15 61 1 24 10 36 22 29 4 -3 -1 -31 -12 -62 -23 -68
-23 -63 1 -63 14 0 22 11 31 43 16 60 16 59 62 30 23 -14 66 -38 97 -52 l55
-26 -44 -3 c-38 -3 -41 -5 -26 -16 16 -12 15 -14 -13 -35 -30 -21 -31 -21 -37
-1 -7 23 -53 28 -73 8 -15 -15 -16 -50 -1 -65 7 -7 2 -15 -16 -27 -23 -15 -42
-16 -143 -10 -64 3 -114 4 -111 1 3 -4 14 -8 25 -10 31 -5 98 -43 87 -50 -5
-3 -23 -3 -39 2 -21 5 -32 4 -40 -7 -7 -10 -17 -13 -30 -7 -10 4 -30 9 -44 10
-45 5 -110 26 -110 35 0 6 -19 10 -42 10 -38 0 -40 1 -25 18 8 9 17 35 20 57
2 22 7 47 10 55 3 8 11 32 17 52 10 33 15 37 47 40 l36 3 40 153 c22 83 43
152 47 152 4 0 19 -17 34 -39z m581 -471 c74 -76 83 -89 66 -95 -9 -2 -20 -4
-26 -4 -5 0 -12 -7 -15 -15 -5 -14 -8 -14 -34 -1 -15 8 -50 15 -77 15 l-49 0
-11 -45 c-6 -25 -14 -45 -18 -45 -4 0 -5 20 -4 45 l3 45 -35 0 c-44 0 -51 -13
-25 -50 12 -17 17 -30 11 -30 -15 0 -154 30 -159 34 -2 2 43 32 100 66 57 34
118 72 136 85 45 32 103 30 137 -5z m767 -151 c27 -14 37 -24 30 -31 -15 -15
-106 13 -110 35 -5 24 29 22 80 -4z m-1036 -42 c32 -7 60 -22 74 -37 13 -16
23 -21 26 -13 4 8 14 9 32 3 15 -5 45 -14 67 -20 61 -16 68 -22 55 -55 -8 -20
-8 -36 -1 -50 16 -34 33 -96 28 -102 -5 -4 -65 43 -177 139 -67 57 -112 71
-217 66 -51 -3 -93 -2 -93 2 0 4 5 21 11 38 8 25 16 31 32 28 12 -3 26 -5 31
-5 4 -1 5 -9 2 -18 -4 -11 3 -7 19 10 29 30 38 31 111 14z m491 -59 c-3 -8 -6
-5 -6 6 -1 11 2 17 5 13 3 -3 4 -12 1 -19z m-454 -102 c59 -36 186 -136 225
-178 21 -23 22 -29 13 -89 -23 -155 -44 -269 -63 -337 -11 -41 -24 -120 -29
-175 -6 -79 -34 -200 -124 -544 -63 -243 -115 -452 -115 -465 0 -13 7 -68 16
-123 l16 -100 -64 -240 -64 -240 -362 1 c-200 1 -366 4 -369 8 -5 5 642 2489
654 2509 2 4 50 7 107 7 99 0 104 -1 159 -34z m1605 27 c-49 -2 -127 -2 -175
0 -49 1 -9 3 87 3 96 0 136 -2 88 -3z m125 0 c-7 -2 -19 -2 -25 0 -7 3 -2 5
12 5 14 0 19 -2 13 -5z m54 1 c-3 -3 -12 -4 -19 -1 -8 3 -5 6 6 6 11 1 17 -2
13 -5z m-1100 -20 c-3 -3 -12 -4 -19 -1 -8 3 -5 6 6 6 11 1 17 -2 13 -5z
m-1138 -32 l22 -17 -36 -88 c-46 -108 -59 -119 -49 -41 5 41 13 63 28 76 14
12 17 20 10 25 -6 5 -13 20 -16 36 -6 32 9 36 41 9z m1078 2 c3 -10 13 -14 25
-11 27 7 85 -19 99 -44 11 -21 10 -21 -43 -13 -29 5 -96 8 -148 7 -95 -1 -95
-1 -72 18 13 10 41 23 63 29 21 6 41 15 44 20 9 15 25 12 32 -6z m1013 -13 c0
-16 -101 -251 -110 -256 -5 -3 -20 10 -34 28 -25 33 -25 33 -10 92 38 149 28
134 87 138 28 2 55 4 60 5 4 1 7 -2 7 -7z m-1237 -30 c20 -8 23 -15 20 -43 -7
-64 -26 -149 -34 -154 -4 -2 -16 10 -25 27 -15 31 -15 64 2 152 6 31 5 30 37
18z m615 -7 c12 -8 22 -26 22 -38 0 -33 -25 -88 -35 -79 -4 5 -5 -2 -2 -14 3
-13 4 -23 2 -23 -1 0 -33 20 -69 45 -37 25 -74 45 -83 45 -8 0 -13 7 -11 17 2
11 27 25 73 40 85 27 76 26 103 7z m-2003 -1099 c-157 -594 -291 -1099 -297
-1122 -5 -24 -14 -41 -18 -38 -19 12 -40 149 -40 257 0 247 46 409 313 1098
86 221 237 648 298 839 72 224 0 -66 -256 -1034z m420 1069 c22 -14 23 -16 7
-33 -9 -9 -20 -13 -23 -8 -3 4 -23 -2 -44 -14 l-38 -23 7 25 c3 13 9 37 13 52
5 24 9 28 30 22 14 -3 36 -13 48 -21z m181 -20 c-3 -9 -6 -22 -6 -31 0 -9 -6
-13 -15 -9 -16 6 -13 16 -75 -228 -22 -88 -38 -161 -36 -163 2 -3 11 20 20 50
9 30 23 67 31 83 8 16 15 37 15 46 0 9 5 20 10 23 13 8 14 15 -15 -93 -30
-112 -53 -161 -66 -141 -5 8 -9 28 -9 46 0 17 -4 34 -9 37 -13 9 -17 -32 -10
-109 3 -38 7 -63 7 -54 2 16 32 49 32 35 0 -15 -127 -512 -235 -921 -64 -242
-143 -543 -176 -670 -32 -126 -63 -238 -67 -249 -7 -17 -20 -18 -142 -17 -74
1 -136 3 -137 5 -2 2 114 448 258 992 275 1044 303 1135 362 1161 24 11 25 10
36 -31 5 -23 8 -52 4 -64 -7 -30 11 -28 31 3 19 28 21 39 5 29 -7 -4 -10 1 -7
11 1 10 9 20 17 23 8 3 11 0 7 -7 -4 -6 -3 -11 3 -11 5 0 12 -17 14 -37 2 -26
4 -19 5 23 2 56 15 103 42 144 5 8 14 34 20 57 15 61 53 94 63 56 4 -14 5 -12
6 5 0 12 6 22 12 22 6 0 8 -7 5 -16z m1416 -166 c-7 -7 -12 -8 -12 -2 0 14 12
26 19 19 2 -3 -1 -11 -7 -17z m-692 -2 c0 -3 -4 -8 -10 -11 -5 -3 -10 -1 -10
4 0 6 5 11 10 11 6 0 10 -2 10 -4z m671 -116 c15 0 10 -20 -7 -27 -9 -3 -20 0
-25 8 -13 21 -11 32 7 25 9 -3 20 -6 25 -6z m-75 -326 c-3 -9 -6 -20 -6 -25 0
-6 -4 -7 -10 -4 -16 10 -12 45 6 45 11 0 14 -5 10 -16z m-89 -236 c-3 -8 -6
-5 -6 6 -1 11 2 17 5 13 3 -3 4 -12 1 -19z m-337 -1528 c0 -5 -5 -10 -11 -10
-5 0 -7 5 -4 10 3 6 8 10 11 10 2 0 4 -4 4 -10z"/>
<path d="M9748 14713 c7 -3 16 -2 19 1 4 3 -2 6 -13 5 -11 0 -14 -3 -6 -6z"/>
<path d="M9798 14703 c12 -2 30 -2 40 0 9 3 -1 5 -23 4 -22 0 -30 -2 -17 -4z"/>
<path d="M10528 14633 c7 -3 16 -2 19 1 4 3 -2 6 -13 5 -11 0 -14 -3 -6 -6z"/>
<path d="M10968 14603 c7 -3 16 -2 19 1 4 3 -2 6 -13 5 -11 0 -14 -3 -6 -6z"/>
<path d="M5799 13855 c-1 -3 -2 -11 -3 -17 0 -7 -21 -16 -46 -19 l-45 -6 58
-1 c34 -1 56 2 52 7 -3 5 -1 12 5 16 15 9 12 25 -5 25 -8 0 -16 -2 -16 -5z"/>
<path d="M5713 13737 c3 -8 22 -11 62 -8 98 5 109 19 17 20 -63 1 -83 -2 -79
-12z"/>
<path d="M5615 13704 l-30 -13 30 6 c32 6 41 11 34 17 -2 2 -17 -2 -34 -10z"/>
<path d="M5958 13713 c7 -3 16 -2 19 1 4 3 -2 6 -13 5 -11 0 -14 -3 -6 -6z"/>
<path d="M6075 13690 c-4 -6 -3 -16 3 -22 6 -6 12 -6 17 2 4 6 3 16 -3 22 -6
6 -12 6 -17 -2z"/>
<path d="M6184 13572 c9 -14 58 -22 53 -8 -2 6 -16 12 -31 14 -16 2 -26 -1
-22 -6z"/>
<path d="M5782 13469 c-19 -17 -32 -33 -29 -35 7 -7 77 7 77 15 0 3 3 16 6 29
9 31 -14 28 -54 -9z"/>
<path d="M5898 13430 c15 -27 30 -50 33 -50 3 0 10 10 16 22 11 25 -10 52 -52
68 l-25 9 28 -49z"/>
<path d="M6054 13471 c8 -12 55 -20 61 -11 3 4 -2 11 -11 14 -24 9 -56 7 -50
-3z"/>
<path d="M5106 13433 c4 -16 8 -49 8 -76 1 -32 5 -46 13 -43 8 3 16 -15 23
-52 19 -104 21 -107 68 -110 28 -2 42 -8 42 -18 0 -22 47 -18 55 5 9 29 -22
147 -53 204 -30 56 -103 117 -140 117 -22 0 -23 -3 -16 -27z"/>
<path d="M5981 13424 c0 -11 3 -14 6 -6 3 7 2 16 -1 19 -3 4 -6 -2 -5 -13z"/>
<path d="M5585 13398 c-22 -13 -54 -49 -55 -61 0 -19 77 7 105 35 17 17 25 28
18 24 -6 -3 -14 -2 -18 4 -8 13 -25 12 -50 -2z"/>
<path d="M6157 13373 c-4 -3 -7 -17 -7 -30 0 -12 -3 -22 -7 -22 -24 4 -39 -4
-49 -25 -10 -21 -8 -25 13 -35 31 -14 33 -14 33 4 0 23 29 18 62 -10 16 -14
37 -25 47 -25 14 0 17 -11 18 -60 1 -33 -2 -62 -7 -65 -6 -4 -10 -15 -10 -26
0 -10 -6 -19 -13 -19 -7 0 -17 -10 -22 -22 -7 -16 -20 -24 -42 -26 -19 -2 -33
1 -33 7 0 6 5 11 12 11 6 0 9 2 6 5 -12 12 -36 -7 -31 -26 3 -12 -1 -21 -12
-25 -26 -10 2 -24 51 -24 22 0 45 -5 52 -12 8 -8 20 -4 49 18 21 16 47 34 58
39 29 15 34 75 6 82 -21 5 -30 23 -12 23 5 0 11 7 15 15 3 8 0 14 -7 12 -9 -1
-11 19 -10 75 2 70 0 81 -22 105 -13 16 -25 22 -25 16 0 -25 -28 -13 -40 17
-9 23 -19 30 -40 30 -14 0 -30 -3 -33 -7z"/>
<path d="M6452 13220 c0 -14 2 -19 5 -12 2 6 2 18 0 25 -3 6 -5 1 -5 -13z"/>
<path d="M5850 13206 c0 -9 6 -16 13 -16 16 0 46 20 30 20 -6 0 -18 3 -27 6
-11 4 -16 1 -16 -10z"/>
<path d="M6190 13116 c0 -22 3 -27 11 -19 8 8 8 16 0 30 -9 16 -10 14 -11 -11z"/>
<path d="M6461 13054 c-1 -70 2 -93 13 -97 8 -3 16 -3 19 0 7 7 -3 114 -13
138 -5 11 -11 27 -13 35 -3 8 -6 -26 -6 -76z"/>
<path d="M5030 13022 c0 -9 18 -51 43 -101 7 -14 19 -27 27 -29 13 -5 13 -3 1
12 -8 9 -22 40 -31 68 -9 29 -22 54 -28 56 -7 2 -12 -1 -12 -6z"/>
<path d="M6347 12960 c3 -11 9 -17 14 -15 10 7 1 35 -11 35 -5 0 -6 -9 -3 -20z"/>
<path d="M5880 12950 c0 -5 11 -10 25 -10 14 0 25 5 25 10 0 6 -11 10 -25 10
-14 0 -25 -4 -25 -10z"/>
<path d="M6406 12744 c-4 -9 -4 -19 -1 -22 2 -3 7 3 11 12 4 9 4 19 1 22 -2 3
-7 -3 -11 -12z"/>
<path d="M5526 12671 c-7 -10 43 -46 51 -37 7 7 -26 46 -38 46 -4 0 -10 -4
-13 -9z"/>
<path d="M5805 12570 c3 -5 8 -10 11 -10 2 0 4 5 4 10 0 6 -5 10 -11 10 -5 0
-7 -4 -4 -10z"/>
<path d="M5535 12360 c3 -5 8 -10 11 -10 2 0 4 5 4 10 0 6 -5 10 -11 10 -5 0
-7 -4 -4 -10z"/>
<path d="M5770 12260 c20 -13 53 -13 45 0 -3 6 -18 10 -33 10 -21 0 -24 -2
-12 -10z"/>
<path d="M5908 12252 c9 -10 25 -16 36 -14 17 5 16 6 -5 18 -36 20 -52 17 -31
-4z"/>
<path d="M4916 10860 c-20 -85 -39 -163 -42 -172 -3 -10 -2 -18 3 -18 11 0 87
313 81 331 -3 8 -21 -56 -42 -141z"/>
<path d="M4961 10894 c0 -11 3 -14 6 -6 3 7 2 16 -1 19 -3 4 -6 -2 -5 -13z"/>
<path d="M4951 10854 c0 -11 3 -14 6 -6 3 7 2 16 -1 19 -3 4 -6 -2 -5 -13z"/>
<path d="M4941 10814 c0 -11 3 -14 6 -6 3 7 2 16 -1 19 -3 4 -6 -2 -5 -13z"/>
<path d="M4930 10787 c0 -4 -16 -65 -36 -138 -19 -72 -34 -135 -32 -140 2 -6
20 54 41 131 21 78 36 145 33 148 -3 3 -6 2 -6 -1z"/>
<path d="M4851 10474 c0 -11 3 -14 6 -6 3 7 2 16 -1 19 -3 4 -6 -2 -5 -13z"/>
<path d="M9504 15684 c-18 -14 -18 -15 4 -4 12 6 22 13 22 15 0 8 -5 6 -26
-11z"/>
<path d="M9585 15668 c-27 -17 -67 -42 -88 -55 -22 -14 -37 -27 -34 -30 5 -4
177 105 177 113 0 6 -3 5 -55 -28z"/>
<path d="M9394 15608 l-19 -23 23 19 c21 18 27 26 19 26 -2 0 -12 -10 -23 -22z"/>
<path d="M7958 15093 c7 -3 16 -2 19 1 4 3 -2 6 -13 5 -11 0 -14 -3 -6 -6z"/>
<path d="M5385 14981 c-6 -27 -9 -29 -40 -25 -19 2 -37 0 -40 -6 -4 -7 47 -9
147 -8 92 1 120 3 70 5 -82 4 -83 4 -94 33 -13 38 -35 38 -43 1z"/>
<path d="M7599 14946 c-2 -2 -182 -7 -399 -10 -217 -4 -424 -9 -460 -11 -36
-2 -252 -7 -480 -10 -228 -4 -460 -8 -515 -10 -55 -2 -269 -6 -475 -10 -510
-8 -551 -10 -572 -35 -17 -21 -24 -83 -31 -268 -6 -152 -20 -144 243 -142 118
1 280 3 360 5 329 8 916 19 1535 30 676 11 809 16 827 32 12 11 18 39 22 111
18 298 19 270 -8 297 -24 24 -37 30 -47 21z m43 -216 c-3 -149 -6 -177 -20
-192 -15 -14 -63 -17 -422 -22 -223 -4 -457 -8 -520 -11 -63 -3 -290 -7 -505
-10 -214 -3 -446 -7 -515 -10 -69 -3 -311 -7 -537 -11 -382 -6 -413 -5 -419
11 -5 13 -9 14 -15 3 -10 -16 -10 40 0 203 9 158 7 156 176 163 72 3 281 8
465 11 490 7 828 14 970 20 69 3 323 8 565 11 242 4 441 8 443 9 2 2 79 2 170
2 l167 -2 -3 -175z"/>
<path d="M7353 14842 c-6 -4 -14 -19 -18 -34 -9 -35 18 -50 88 -47 80 3 122
40 85 77 -13 13 -135 16 -155 4z"/>
<path d="M5040 14786 c-20 -26 -8 -61 23 -64 21 -3 29 2 36 20 17 45 -29 79
-59 44z"/>
<path d="M11058 14417 c-21 -6 -38 -16 -38 -23 0 -9 12 -8 50 4 27 8 47 19 44
24 -6 9 -6 9 -56 -5z"/>
<path d="M7260 14060 c-9 -12 -22 -19 -32 -16 -10 2 -21 0 -24 -5 -3 -5 6 -9
19 -9 21 0 23 -4 21 -44 l-2 -43 66 -6 c37 -3 69 -2 72 3 3 4 15 11 28 15 18
5 23 13 21 34 -2 14 5 38 14 51 17 25 17 25 -10 31 -16 4 -57 7 -93 8 -55 1
-68 -2 -80 -19z"/>
<path d="M7168 14063 c7 -3 16 -2 19 1 4 3 -2 6 -13 5 -11 0 -14 -3 -6 -6z"/>
<path d="M7108 14033 c7 -3 16 -2 19 1 4 3 -2 6 -13 5 -11 0 -14 -3 -6 -6z"/>
<path d="M7148 14033 c6 -2 18 -2 25 0 6 3 1 5 -13 5 -14 0 -19 -2 -12 -5z"/>
<path d="M7561 13794 c0 -11 3 -14 6 -6 3 7 2 16 -1 19 -3 4 -6 -2 -5 -13z"/>
<path d="M7377 13740 c8 -29 25 -37 21 -9 -1 12 -8 24 -15 26 -7 3 -9 -3 -6
-17z"/>
<path d="M7210 12046 c0 -8 -7 -35 -15 -59 -16 -48 -23 -81 -24 -115 l-1 -23
-32 24 c-59 45 -111 68 -120 54 -15 -24 -7 -42 27 -65 19 -12 35 -29 35 -38 0
-12 10 -14 52 -12 l52 3 23 90 c25 98 28 140 13 150 -5 3 -10 -1 -10 -9z"/>
<path d="M3876 11765 c-10 -8 -19 -28 -19 -47 -2 -27 2 -34 21 -36 20 -3 22 0
17 21 -4 14 -2 34 4 45 14 26 2 35 -23 17z"/>
<path d="M4355 11741 c3 -5 1 -12 -4 -16 -6 -3 -8 -12 -5 -20 4 -8 10 -12 15
-9 13 7 11 54 -2 54 -5 0 -8 -4 -4 -9z"/>
<path d="M11833 11600 c-50 -30 -66 -62 -61 -120 6 -61 29 -97 74 -116 19 -8
34 -20 34 -27 0 -26 49 -115 94 -170 l46 -57 -1159 -2 c-839 -2 -1163 -6
-1171 -14 -6 -6 -20 -47 -31 -90 -65 -260 -154 -454 -260 -569 l-42 -45 -159
0 c-174 0 -204 -7 -249 -56 -25 -27 -115 -187 -321 -564 -51 -94 -101 -204
-127 -278 -41 -116 -43 -129 -39 -205 6 -96 40 -205 103 -320 l42 -78 84 -30
c51 -17 105 -29 137 -29 28 0 52 -3 52 -7 0 -15 -34 -98 -43 -104 -5 -4 -52
-10 -104 -14 -87 -6 -171 -22 -130 -24 23 -1 22 -21 -1 -21 -10 0 -87 -52
-170 -115 -84 -63 -160 -115 -170 -115 -13 0 -14 -2 -4 -9 11 -6 -1 -124 -63
-612 -41 -332 -84 -668 -95 -746 -11 -79 -20 -158 -20 -177 0 -19 -4 -37 -8
-40 -4 -2 -197 317 -427 709 -231 393 -423 714 -427 715 -4 0 -14 -35 -23 -77
-22 -104 -23 -105 -37 -96 -7 4 -47 43 -88 86 -63 67 -72 80 -58 88 21 12 25
26 97 309 33 129 62 243 66 252 7 18 19 8 109 -92 29 -33 36 -37 31 -19 -9 28
-49 81 -99 128 -25 24 -36 44 -36 63 0 38 -21 76 -61 113 l-33 30 31 -37 c55
-64 61 -19 -75 -569 -10 -43 -15 -85 -11 -96 4 -11 4 -26 -1 -33 -6 -9 -18 -1
-45 29 -48 53 -140 96 -235 110 -41 6 -88 13 -105 15 -16 3 4 3 45 1 50 -2 66
0 47 5 -58 17 -2596 45 -3162 35 -401 -8 -414 -10 -415 -73 0 -31 40 -66 118
-103 35 -17 62 -36 59 -42 -2 -7 -46 -170 -97 -363 l-94 -351 -95 -11 c-269
-32 -549 -148 -796 -329 -125 -92 -363 -333 -471 -478 -49 -66 -124 -178 -168
-250 -97 -162 -228 -429 -230 -469 l-1 -31 60 1 c33 0 84 6 114 12 29 7 111
12 182 12 l128 0 -52 -109 c-47 -97 -59 -114 -109 -153 -42 -32 -60 -54 -72
-88 -21 -58 -20 -73 4 -95 26 -23 25 -30 -9 -144 -32 -104 -92 -340 -111 -436
-9 -47 -20 -68 -51 -100 -33 -34 -39 -49 -45 -99 -7 -56 -6 -61 19 -80 l25
-21 -13 -115 c-18 -154 -35 -401 -35 -510 0 -87 -1 -89 -30 -110 -28 -20 -30
-26 -30 -83 0 -55 3 -64 31 -93 29 -30 30 -35 40 -165 10 -153 34 -357 54
-468 l14 -76 -29 -26 -30 -25 12 -60 c10 -50 19 -65 55 -99 41 -37 46 -48 77
-165 19 -69 51 -170 71 -225 63 -172 61 -159 35 -208 -23 -43 -23 -44 -5 -90
13 -34 32 -58 75 -91 32 -25 65 -46 73 -46 7 0 33 -33 57 -73 24 -39 69 -107
101 -151 l57 -78 -20 -58 -21 -58 28 -34 c61 -73 227 -148 328 -148 16 0 42
-8 58 -17 28 -16 29 -21 24 -63 -3 -25 -8 -55 -11 -67 -4 -19 6 -28 66 -58 74
-37 307 -135 321 -135 5 0 9 11 9 24 0 40 12 86 23 86 6 0 7 -22 3 -59 l-7
-59 58 -22 c142 -53 475 -132 613 -145 237 -22 310 -28 435 -32 210 -7 522 22
733 67 52 12 52 12 52 50 0 41 14 61 24 34 3 -9 6 -27 6 -40 0 -13 3 -24 7
-24 16 0 168 44 280 82 l123 41 0 58 c0 43 4 60 16 67 9 5 15 13 14 18 -1 5 3
10 9 12 6 2 11 -6 11 -17 0 -18 6 -21 38 -21 97 1 261 60 331 120 23 19 23 22
11 85 l-12 66 59 62 c32 34 76 83 97 109 23 29 47 48 59 48 40 0 142 70 170
116 l26 43 -20 50 -21 49 80 163 c44 90 88 186 98 213 14 37 31 59 71 90 43
33 56 51 70 93 16 52 16 52 -9 85 -25 32 -25 34 -10 83 8 28 34 122 56 210
l41 160 100 -3 c165 -6 235 20 293 107 46 70 80 202 98 384 l6 67 77 -1 c42 0
560 -17 1151 -38 l1075 -37 510 63 c281 34 515 63 521 63 22 0 26 -52 6 -79
-16 -23 -17 -31 -7 -72 8 -30 25 -58 47 -80 28 -27 44 -58 73 -144 20 -60 53
-148 72 -194 36 -81 36 -84 21 -124 -21 -60 -3 -101 67 -150 29 -20 58 -37 63
-37 5 0 44 -43 87 -96 l78 -97 -13 -55 c-12 -56 -12 -56 16 -79 48 -39 165
-92 242 -110 71 -17 72 -18 72 -49 0 -29 5 -33 72 -63 39 -18 121 -49 182 -68
61 -20 120 -40 131 -44 66 -25 329 -80 475 -99 148 -18 353 -24 405 -11 36 9
50 9 55 1 8 -12 112 -7 205 11 28 5 79 11 115 14 76 6 194 28 303 57 69 18 77
23 77 44 0 13 5 24 10 24 6 0 10 -7 10 -15 0 -8 3 -15 8 -15 23 0 203 55 269
83 l78 33 -3 65 -4 66 50 31 c28 19 62 32 81 32 43 0 144 52 174 91 23 30 24
34 11 81 l-13 49 53 82 c30 45 65 106 80 135 19 37 40 61 76 85 66 42 89 96
66 150 -14 35 -13 40 21 134 19 54 52 157 72 228 30 103 44 136 68 161 39 38
53 106 28 134 -15 17 -15 28 9 167 13 81 32 213 41 293 14 119 20 148 36 160
15 12 20 32 23 99 3 54 1 92 -7 105 -11 21 -27 176 -17 176 5 0 37 128 40 160
1 8 4 55 7 103 3 70 9 93 24 108 12 12 19 33 19 57 0 46 -8 59 -40 67 -25 6
-76 86 -63 99 3 3 61 3 129 -1 142 -7 175 1 196 50 34 82 -9 464 -93 817 -136
573 -372 1038 -671 1316 l-65 61 18 22 c11 13 19 30 19 37 0 24 -37 48 -97 65
l-57 15 55 18 c29 10 64 27 77 39 23 21 29 51 12 62 -17 11 -11 23 15 29 24 6
24 7 19 104 -2 53 -9 250 -14 437 -11 356 -11 355 -57 355 -14 0 -23 6 -23 15
0 18 -31 35 -64 35 -14 0 -27 3 -29 8 -3 4 -8 77 -12 164 l-7 156 31 7 c34 7
47 43 36 96 -8 34 -28 34 -33 1 -2 -12 -8 -22 -13 -22 -6 0 -7 5 -4 10 23 37
5 308 -22 336 -8 8 -31 14 -51 14 l-36 0 26 28 c63 66 62 178 -1 273 -17 24
-28 45 -25 48 8 9 44 -33 65 -76 l22 -45 25 26 26 26 -22 42 c-12 24 -29 53
-38 66 -13 17 -14 22 -3 22 31 0 90 -125 89 -189 -1 -14 -7 -43 -14 -63 l-13
-37 25 20 c27 21 52 77 52 118 0 39 -38 108 -78 141 -20 16 -33 32 -30 36 10
10 56 -26 88 -69 l30 -41 0 30 c-1 16 -9 54 -20 84 -10 30 -17 56 -15 58 10
11 26 -15 41 -65 17 -60 14 -164 -6 -219 -10 -27 -10 -27 14 -10 17 11 47 16
90 16 93 0 96 7 86 175 -5 72 -13 153 -19 181 -5 28 -7 61 -4 73 13 52 102 27
136 -39 22 -42 18 -93 -12 -151 -27 -51 -45 -65 271 199 277 231 290 247 290
340 0 95 -71 195 -161 227 -24 8 -73 16 -110 16 -121 2 -124 4 -137 84 -21
132 -26 135 -242 135 -87 0 -193 3 -235 6 -98 9 -100 23 -12 88 36 26 76 62
90 80 36 47 74 135 81 189 4 26 10 47 15 47 22 0 49 42 49 75 l0 35 -1027 0
c-1001 0 -1029 -1 -1060 -20z m2024 -1409 c12 -18 27 -56 34 -86 10 -47 9 -61
-7 -111 -19 -59 -46 -87 -37 -40 8 40 -5 88 -32 121 l-24 30 15 -50 c16 -54
11 -111 -13 -158 -20 -40 -26 -28 -8 16 27 64 12 154 -35 214 -23 30 -25 43
-6 43 22 0 96 -78 117 -123 l19 -42 0 35 c0 50 -16 102 -45 144 -14 20 -25 39
-25 42 0 14 27 -6 47 -35z m-347 -279 c33 -34 48 -92 31 -128 -6 -14 -11 -45
-11 -69 0 -24 -4 -47 -10 -50 -6 -4 -10 7 -10 27 0 58 -17 64 -23 9 -6 -49
-24 -97 -33 -88 -3 2 0 16 6 31 24 64 5 156 -46 223 l-27 36 22 19 c33 26 68
22 101 -10z m38 -603 c-11 -31 -28 -39 -28 -14 0 8 5 15 11 15 5 0 7 5 4 10
-4 6 -4 18 0 28 11 30 24 -8 13 -39z m-1938 -463 c0 -34 3 -91 6 -125 l7 -61
-29 0 c-28 0 -29 2 -26 41 3 25 -4 63 -18 102 l-22 61 28 23 c46 37 54 31 54
-41z m-2032 -13 c6 -20 10 -38 9 -40 -7 -6 -200 -24 -205 -18 -3 3 4 26 16 50
l22 45 73 0 74 0 11 -37z m1459 5 l91 -22 26 -69 c14 -39 24 -72 22 -74 -2 -2
-128 6 -280 18 l-276 23 0 62 0 62 -37 10 c-29 8 9 10 162 11 174 1 212 -2
292 -21z m-909 -45 c-15 -2 -42 -2 -60 0 -18 2 -6 4 27 4 33 0 48 -2 33 -4z
m2949 -347 c1 -1 5 -119 9 -261 l7 -260 -229 3 c-126 2 -232 6 -235 10 -3 4 2
120 12 257 10 138 18 254 18 258 1 6 410 -1 418 -7z m-4221 -52 c-3 -8 -10
-13 -16 -9 -6 4 -5 13 3 26 13 21 23 8 13 -17z m-90 -38 c-19 -25 -36 -50 -37
-55 -2 -6 -18 -13 -36 -17 -25 -5 -33 -2 -43 16 -17 32 -6 50 33 50 20 0 48
10 68 24 50 35 53 31 15 -18z m-5275 14 c19 0 49 -66 49 -106 0 -65 -26 -201
-85 -443 -30 -122 -55 -225 -55 -227 0 -15 39 0 49 19 11 22 11 22 6 -4 -4
-23 0 -27 43 -42 l47 -16 -55 6 c-30 3 -77 7 -105 9 -95 4 -185 17 -185 27 0
15 189 719 200 745 11 24 47 44 68 36 8 -2 18 -4 23 -4z m103 -9 c3 -5 -5 -11
-19 -13 -28 -6 -35 8 -7 15 9 3 18 5 19 6 1 0 4 -3 7 -8z m3143 -63 c47 -19
83 -39 83 -47 0 -16 -350 -1404 -356 -1410 -2 -2 -32 9 -68 24 -36 15 -91 30
-123 34 -51 5 -58 9 -55 26 5 25 317 1261 338 1332 15 56 46 87 79 79 11 -2
57 -19 102 -38z m5429 -24 c-3 -26 -6 -71 -6 -100 0 -30 -3 -54 -7 -54 -5 0
-21 35 -38 77 -23 59 -37 80 -62 96 -18 10 -33 21 -33 23 0 2 34 4 76 4 l77 0
-7 -46z m-7531 -209 c264 -76 482 -140 484 -142 5 -3 -2 -37 -51 -242 l-32
-134 -75 6 c-42 4 -389 12 -771 18 -382 6 -696 12 -697 13 -5 5 140 542 150
554 7 9 49 11 181 7 l171 -6 45 35 c36 28 52 35 80 32 19 -2 251 -65 515 -141z
m8900 -175 c7 -12 -53 -40 -85 -40 -19 0 -28 28 -13 43 10 11 91 8 98 -3z
m112 -26 c-3 -3 -12 -4 -19 -1 -8 3 -5 6 6 6 11 1 17 -2 13 -5z m-7890 -20
c-3 -3 -12 -4 -19 -1 -8 3 -5 6 6 6 11 1 17 -2 13 -5z m5860 -130 c46 -44 83
-85 83 -90 0 -5 7 -19 15 -30 l14 -21 57 19 c43 14 70 18 106 13 53 -8 177
-65 199 -92 16 -19 12 -18 -96 12 -71 20 -131 16 -197 -13 -47 -21 -48 -23
-48 -64 0 -61 -19 -209 -30 -227 -5 -10 -8 38 -7 120 2 123 0 140 -21 185 -13
27 -35 58 -49 68 l-26 19 7 -39 c4 -21 11 -64 15 -94 5 -30 12 -73 16 -95 8
-39 7 -40 -12 -22 -23 20 -61 22 -98 5 -23 -10 -25 -16 -25 -83 0 -108 -26
-234 -71 -348 -22 -56 -44 -105 -48 -110 -12 -12 -35 21 -94 133 -31 59 -63
136 -72 176 -20 82 -17 133 4 69 36 -110 96 -238 139 -295 9 -12 41 45 67 122
25 71 29 98 28 190 0 58 -3 126 -7 151 -6 42 -5 47 19 63 14 9 45 19 69 21
l43 5 -29 90 c-33 102 -58 216 -57 256 0 25 1 26 12 7 6 -11 49 -56 94 -101z
m1993 36 c0 -10 -9 -24 -20 -30 -16 -8 -19 -8 -15 5 3 8 7 22 10 30 6 22 25
18 25 -5z m-70 -24 c0 -31 -3 -34 -44 -45 -25 -6 -47 -11 -50 -11 -3 0 -6 18
-6 39 0 43 7 48 68 50 30 1 32 -1 32 -33z m-2740 -22 c0 -81 86 -334 157 -464
65 -117 138 -223 217 -315 43 -50 90 -114 104 -142 30 -60 58 -69 99 -31 17
16 23 18 23 7 0 -9 -13 -28 -30 -44 -26 -25 -29 -35 -32 -99 l-3 -71 -29 30
c-15 17 -39 50 -51 75 -13 25 -55 77 -93 117 -110 115 -235 313 -288 457 -43
118 -17 -53 33 -209 32 -102 138 -320 198 -409 62 -91 65 -101 48 -161 -19
-68 -30 -310 -14 -319 17 -11 38 10 60 58 23 50 27 28 6 -39 -8 -27 -13 -51
-10 -53 2 -2 15 14 28 35 52 83 128 123 229 123 44 0 26 -13 -52 -39 -99 -32
-128 -54 -157 -117 -18 -40 -34 -60 -58 -71 -41 -20 -59 -13 -82 29 -24 43
-23 186 1 320 l17 98 -67 107 c-114 182 -179 330 -248 569 -48 167 -60 261
-52 412 7 143 9 162 20 180 12 20 26 3 26 -34z m2742 -134 c0 -11 1 -25 2 -32
1 -6 -21 -17 -47 -24 -53 -13 -62 -8 -55 38 2 18 11 24 43 29 22 3 43 7 48 8
4 0 8 -8 9 -19z m69 1 c-17 -30 -39 -34 -33 -5 3 15 11 24 24 24 15 0 17 -3 9
-19z m-1485 -58 c-10 -10 -19 5 -10 18 6 11 8 11 12 0 2 -7 1 -15 -2 -18z
m1494 -98 c0 -8 -2 -15 -4 -15 -2 0 -12 -3 -21 -7 -15 -5 -16 -3 -6 15 13 25
31 29 31 7z m-70 -20 c0 -19 -7 -26 -37 -34 -56 -16 -63 -14 -63 18 0 31 10
37 73 40 22 1 27 -3 27 -24z m-8655 -15 c3 -5 -1 -10 -10 -10 -9 0 -13 5 -10
10 3 6 8 10 10 10 2 0 7 -4 10 -10z m-535 -15 c0 -17 -39 -35 -76 -35 -28 0
-32 18 -6 26 9 3 24 9 32 14 24 14 50 11 50 -5z m290 -1 c0 -18 -72 -74 -93
-74 -14 0 -38 -7 -53 -15 -42 -22 -74 -20 -74 5 0 15 13 26 48 41 90 40 172
60 172 43z m158 -70 c15 -15 14 -18 -3 -30 -10 -8 -22 -14 -26 -14 -12 0 -17
38 -6 49 14 14 15 14 35 -5z m8745 -45 c6 -21 -8 -30 -71 -44 -32 -7 -33 -6
-30 22 3 24 8 29 43 34 22 3 43 7 46 8 4 0 9 -8 12 -20z m67 12 c0 -5 -7 -11
-15 -15 -9 -3 -15 0 -15 9 0 8 7 15 15 15 8 0 15 -4 15 -9z m-4 -146 c-11 -8
-22 -12 -25 -9 -6 6 19 24 34 24 6 -1 1 -7 -9 -15z m-58 -12 c-5 -25 -86 -42
-98 -22 -14 22 11 35 73 38 22 1 28 -3 25 -16z m2 -132 c0 -10 -13 -15 -67
-26 -25 -5 -33 -3 -33 8 0 7 3 17 7 20 10 11 93 8 93 -2z m0 -120 c0 -11 -35
-21 -72 -21 -39 0 -35 18 5 23 60 7 67 7 67 -2z m-2020 -79 c0 -29 -30 -135
-42 -149 -18 -22 -68 -55 -68 -45 0 5 11 22 25 38 27 31 40 79 32 119 -3 18 2
30 17 40 27 20 36 19 36 -3z m1990 -42 c-36 -12 -62 -12 -55 0 3 6 23 10 43 9
33 -1 34 -2 12 -9z m-1697 -158 c-8 -20 -18 -73 -20 -117 l-5 -80 42 -50 c23
-27 37 -51 31 -53 -15 -5 -112 49 -125 70 -9 15 -1 79 20 156 2 9 -9 -10 -25
-43 -16 -33 -44 -112 -61 -175 -46 -165 -46 -165 -125 -178 -92 -15 -150 -46
-223 -119 l-64 -63 -30 21 c-31 23 -25 39 16 39 11 0 34 18 52 39 44 51 110
94 194 126 37 14 75 34 85 45 9 10 29 61 44 112 48 163 101 260 164 298 41 25
49 17 30 -28z m1466 -38 c-13 -15 -64 -11 -83 7 -10 9 -7 10 46 13 15 1 31 5
35 10 13 13 15 -14 2 -30z m466 -4 c0 -35 -4 -41 -29 -50 -16 -5 -39 -10 -51
-10 -32 0 -33 -17 -24 -278 12 -339 12 -334 -8 -330 -15 3 -19 19 -24 113 -4
61 -7 181 -8 267 -1 165 -4 188 -28 188 -12 0 -13 -41 -7 -286 l7 -285 -49 3
-49 3 2 125 c5 391 1 448 -32 472 -5 4 0 8 12 8 16 0 22 7 25 28 3 26 6 27 66
30 61 3 62 2 62 -23 0 -28 6 -30 44 -15 25 9 37 40 16 40 -5 0 -10 7 -10 15 0
8 7 15 15 15 8 0 15 -4 15 -10 0 -5 4 -10 10 -10 5 0 7 7 4 15 -5 11 1 15 18
15 21 0 24 -4 23 -40z m-425 -1 c0 -5 -4 -9 -10 -9 -5 0 -10 7 -10 16 0 8 5
12 10 9 6 -3 10 -10 10 -16z m-7330 -253 c0 -16 -14 -36 -26 -36 -16 0 -16 2
-8 24 5 14 34 24 34 12z m38 -26 c-7 -10 -14 -18 -15 -16 -6 6 9 36 18 36 5 0
4 -9 -3 -20z m22 -70 c-16 -61 -25 -41 -9 22 7 29 15 45 17 36 2 -9 -2 -35 -8
-58z m7864 -948 c-8 -29 -34 -37 -34 -11 0 11 5 30 11 41 10 18 13 19 20 6 4
-8 6 -24 3 -36z m-2661 21 c-7 -2 -21 -2 -30 0 -10 3 -4 5 12 5 17 0 24 -2 18
-5z m2718 -30 c-12 -20 -14 -14 -5 12 4 9 9 14 11 11 3 -2 0 -13 -6 -23z
m-1628 -90 c-7 -2 -19 -2 -25 0 -7 3 -2 5 12 5 14 0 19 -2 13 -5z m-6757 -118
c15 -23 15 -26 -8 -54 -14 -16 -30 -55 -38 -90 -7 -33 -16 -61 -21 -61 -4 0
-10 -8 -12 -17 -3 -10 -3 -1 -2 21 2 21 -1 50 -6 64 -7 18 -5 31 6 48 8 13 15
30 15 38 0 7 7 16 15 20 18 7 20 47 3 65 -11 11 -9 11 10 2 12 -6 29 -23 38
-36z m8601 -11 c-9 -9 -28 6 -21 18 4 6 10 6 17 -1 6 -6 8 -13 4 -17z m-9088
3 c-2 -1 -13 -9 -24 -17 -19 -14 -19 -14 -6 3 7 9 18 17 24 17 6 0 8 -1 6 -3z
m-85 -167 c-40 -169 -43 -180 -58 -174 -20 8 -29 -27 -12 -44 12 -12 10 -28
-15 -119 -17 -64 -35 -110 -46 -118 -16 -12 -16 -17 -5 -35 17 -28 -3 -117
-30 -131 -20 -11 -24 -45 -6 -51 8 -3 7 -11 -5 -28 -9 -14 -17 -32 -17 -42 0
-11 -8 -18 -20 -18 -16 0 -20 6 -19 33 1 43 16 146 18 125 1 -22 27 -24 35 -3
8 22 -4 47 -20 41 -8 -3 -14 1 -14 10 0 41 44 231 77 333 30 91 38 109 45 91
10 -28 33 -21 33 11 0 16 -5 24 -17 23 -16 -2 -15 2 4 40 37 75 90 167 94 164
1 -2 -8 -51 -22 -108z m8922 -52 c-13 -37 -15 -39 -16 -15 0 29 18 73 27 64 2
-3 -2 -25 -11 -49z m21 -144 c-9 -9 -27 6 -27 22 0 13 2 13 16 -1 9 -9 14 -18
11 -21z m-3991 -23 c-3 -5 -15 -7 -26 -4 -28 7 -25 13 6 13 14 0 23 -4 20 -9z
m544 -67 c173 -9 326 -21 339 -26 22 -8 23 -12 17 -61 -3 -28 -6 -72 -6 -97 0
-25 -4 -50 -8 -56 -10 -17 -127 1 -167 26 -26 16 -62 21 -206 30 -253 15 -289
14 -326 -5 -18 -9 -42 -14 -52 -10 -16 5 -18 11 -11 33 5 15 11 60 13 101 5
80 13 91 61 85 17 -2 173 -11 346 -20z m920 -24 c11 -21 39 -57 62 -79 23 -23
40 -42 37 -44 -2 -2 -12 -8 -22 -14 -14 -7 -8 -12 38 -27 67 -21 70 -41 11
-70 -49 -24 -64 -15 -85 46 -9 25 -33 64 -53 86 -36 40 -68 92 -68 110 0 8 36
30 52 31 4 1 17 -17 28 -39z m2504 25 c-4 -8 -11 -15 -16 -15 -6 0 -5 6 2 15
7 8 14 15 16 15 2 0 1 -7 -2 -15z m-7826 -41 c3 -25 -8 -40 -37 -49 -22 -7
-23 -5 -17 21 14 53 48 71 54 28z m5551 12 c18 -22 29 -69 21 -91 -7 -18 -10
-16 -23 16 -33 74 -31 115 2 75z m2275 -74 c4 -7 3 -12 -2 -12 -13 0 -22 26
-21 58 1 26 1 26 8 -4 4 -17 11 -36 15 -42z m-7754 51 c-1 -15 -30 -46 -37
-40 -3 4 2 16 12 27 19 21 25 24 25 13z m5036 -50 c-11 -11 -26 10 -26 35 l1
27 15 -28 c9 -16 13 -31 10 -34z m-146 -19 c0 -2 -9 0 -20 6 -11 6 -20 13 -20
16 0 2 9 0 20 -6 11 -6 20 -13 20 -16z m80 -46 c0 -4 -16 2 -35 13 -19 12 -35
23 -35 25 0 2 16 -4 35 -13 19 -9 35 -20 35 -25z m-4980 -23 c20 -24 6 -28
-15 -5 -10 11 -13 20 -8 20 6 0 16 -7 23 -15z m-76 -6 c-2 -4 0 -10 6 -14 15
-9 12 -25 -5 -25 -8 0 -19 9 -25 19 -14 27 -13 30 9 28 11 0 18 -4 15 -8z
m-845 -5 c44 -9 31 -20 -18 -16 -23 2 -38 8 -35 13 6 11 12 11 53 3z m6046
-44 c4 -6 -7 -10 -27 -10 -25 0 -29 3 -18 10 19 13 37 13 45 0z m-1388 -66
c-3 -3 -12 -4 -19 -1 -8 3 -5 6 6 6 11 1 17 -2 13 -5z m-3619 -72 c7 -22 -13
-12 -33 16 l-19 27 24 -16 c13 -9 26 -21 28 -27z m5772 -51 c0 -14 -57 -39
-102 -46 -39 -6 -50 -13 -62 -36 -10 -20 -11 -29 -2 -33 24 -10 -49 -5 -85 5
-60 19 -58 35 18 108 l68 66 83 -29 c45 -16 82 -31 82 -35z m-6325 29 c-3 -5
-1 -10 5 -10 7 0 9 -7 6 -16 -4 -9 -2 -13 5 -8 12 7 4 -30 -13 -56 -6 -11 -8
-6 -4 15 l6 30 -15 -27 c-19 -33 -35 -36 -35 -7 0 20 36 89 46 89 3 0 2 -4 -1
-10z m90 -69 c-19 -38 -28 -41 -14 -5 13 35 20 46 26 41 2 -3 -3 -19 -12 -36z
m-640 -1 c13 0 16 -3 8 -11 -13 -13 -85 -1 -77 13 4 5 16 7 28 4 11 -3 30 -6
41 -6z m595 -10 c0 -11 -7 -20 -15 -20 -13 0 -14 4 -5 20 6 11 13 20 15 20 3
0 5 -9 5 -20z m-971 -106 c7 5 11 -1 11 -14 0 -11 7 -23 15 -26 8 -3 17 -14
20 -25 4 -10 10 -19 15 -19 5 0 20 -11 33 -24 13 -12 27 -25 33 -27 5 -2 17
-35 27 -73 50 -196 168 -317 277 -286 44 13 50 13 50 -2 0 -6 7 -19 16 -29 15
-17 14 -19 -17 -38 -40 -24 -98 -27 -138 -6 -53 27 -58 -21 -7 -60 84 -64 161
-54 244 31 55 57 92 70 92 33 0 -38 31 -11 81 71 7 12 14 9 39 -18 22 -23 35
-31 43 -24 7 5 30 9 52 8 48 -1 48 -8 -1 -114 -118 -256 -295 -396 -460 -362
-152 32 -290 202 -372 460 -27 84 -62 240 -62 275 0 17 32 14 47 -5 6 -8 15
-12 19 -8 4 4 13 0 21 -10 11 -13 16 -14 20 -4 4 10 8 9 17 -4 15 -20 36 -11
36 15 0 24 -11 33 -25 21 -9 -8 -14 -6 -19 6 -3 9 -13 14 -20 11 -8 -3 -17 1
-20 10 -4 8 -13 13 -21 9 -8 -3 -19 3 -24 12 -9 16 -11 16 -24 -2 -12 -17 -15
-10 -20 65 -10 118 -9 177 2 160 5 -7 14 -10 20 -7z m1041 -14 c13 -8 13 -10
-2 -10 -9 0 -20 5 -23 10 -8 13 5 13 25 0z m-56 -9 c9 -13 -20 -21 -54 -14
-48 9 -46 23 4 23 25 0 47 -4 50 -9z m-722 -164 c50 -64 58 -77 58 -100 0 -19
6 -26 22 -29 14 -2 27 -15 35 -36 13 -33 13 -33 -9 -27 -57 17 -146 125 -164
199 -6 26 -5 28 17 21 13 -4 32 -16 41 -28z m181 26 c-7 -2 -21 -2 -30 0 -10
3 -4 5 12 5 17 0 24 -2 18 -5z m732 -53 c0 -16 -9 -29 -25 -37 -31 -15 -37 -3
-20 38 15 36 45 36 45 -1z m75 -8 c0 -5 -9 -17 -20 -27 -23 -21 -26 -14 -8 15
13 20 28 27 28 12z m-76 -144 c8 -13 7 -21 -1 -29 -16 -16 -43 5 -43 33 0 24
28 21 44 -4z m66 7 c7 -8 8 -15 2 -15 -5 0 -15 7 -22 15 -7 8 -8 15 -2 15 5 0
15 -7 22 -15z"/>
<path d="M13443 9894 c-8 -4 -4 -19 13 -51 13 -25 24 -54 24 -64 0 -26 17 -24
36 6 36 54 -16 132 -73 109z"/>
<path d="M4877 4523 c-13 -13 -7 -53 8 -53 10 0 15 10 15 30 0 29 -9 38 -23
23z"/>
<path d="M4897 4453 c-4 -3 -7 -17 -7 -30 0 -33 24 -24 28 10 3 26 -7 35 -21
20z"/>
<path d="M11850 4030 c0 -5 9 -10 21 -10 11 0 17 5 14 10 -3 6 -13 10 -21 10
-8 0 -14 -4 -14 -10z"/>
<path d="M4960 3520 c0 -7 -8 -9 -19 -5 -11 3 -23 1 -26 -6 -6 -8 -9 -8 -15 1
-10 17 -30 3 -30 -20 0 -22 22 -39 28 -21 3 9 7 9 19 -1 12 -10 17 -9 25 6 8
15 12 16 19 5 11 -18 32 2 27 27 -3 19 -28 32 -28 14z"/>
<path d="M5000 3499 c0 -38 24 -35 28 4 2 19 -1 27 -12 27 -11 0 -16 -10 -16
-31z"/>
<path d="M5556 3413 c-12 -13 -6 -53 9 -53 9 0 15 9 15 24 0 26 -12 40 -24 29z"/>
<path d="M5644 3385 c-7 -18 2 -45 15 -45 12 0 24 37 16 50 -9 15 -25 12 -31
-5z"/>
<path d="M5074 3375 c-8 -20 3 -48 16 -40 13 8 13 55 0 55 -6 0 -13 -7 -16
-15z"/>
<path d="M5036 3363 c-12 -13 -6 -53 9 -53 9 0 15 9 15 24 0 26 -12 40 -24 29z"/>
<path d="M4994 3325 c-8 -20 3 -48 16 -40 13 8 13 55 0 55 -6 0 -13 -7 -16
-15z"/>
<path d="M5552 3305 c2 -14 8 -26 13 -26 6 0 11 12 13 26 2 18 -1 25 -13 25
-12 0 -15 -7 -13 -25z"/>
<path d="M4956 3313 c-12 -13 -6 -53 9 -53 9 0 15 9 15 24 0 26 -12 40 -24 29z"/>
<path d="M5657 3313 c-13 -13 -7 -53 8 -53 10 0 15 10 15 30 0 29 -9 38 -23
23z"/>
<path d="M5464 3295 c-8 -20 3 -48 16 -40 13 8 13 55 0 55 -6 0 -13 -7 -16
-15z"/>
<path d="M5166 3293 c-12 -13 -6 -53 9 -53 9 0 15 9 15 24 0 26 -12 40 -24 29z"/>
<path d="M5124 3235 c-7 -18 2 -45 15 -45 13 0 22 27 15 45 -4 8 -10 15 -15
15 -5 0 -12 -7 -15 -15z"/>
<path d="M5267 3244 c-4 -4 -7 -18 -7 -31 0 -28 23 -27 28 1 4 20 -11 40 -21
30z"/>
<path d="M5362 3225 c2 -14 8 -26 13 -26 6 0 11 12 13 26 2 18 -1 25 -13 25
-12 0 -15 -7 -13 -25z"/>
<path d="M5550 3220 c0 -21 4 -30 13 -27 6 2 12 14 12 27 0 13 -6 25 -12 28
-9 2 -13 -7 -13 -28z"/>
<path d="M5450 3200 c0 -21 4 -30 13 -27 6 2 12 14 12 27 0 13 -6 25 -12 28
-9 2 -13 -7 -13 -28z"/>
<path d="M5097 3204 c-4 -4 -7 -18 -7 -31 0 -28 23 -27 28 1 4 20 -11 40 -21
30z"/>
<path d="M5237 3184 c-4 -4 -7 -18 -7 -31 0 -28 23 -27 28 1 4 20 -11 40 -21
30z"/>
<path d="M5340 3149 c0 -38 24 -35 28 4 2 19 -1 27 -12 27 -11 0 -16 -10 -16
-31z"/>
<path d="M5054 3145 c-8 -20 3 -48 16 -40 13 8 13 55 0 55 -6 0 -13 -7 -16
-15z"/>
<path d="M5547 3154 c-15 -15 -7 -45 11 -42 9 2 17 12 17 22 0 20 -16 31 -28
20z"/>
<path d="M5437 3135 c-8 -20 3 -47 17 -42 6 2 11 14 11 27 0 27 -20 38 -28 15z"/>
<path d="M5206 3123 c-12 -13 -6 -53 9 -53 9 0 15 9 15 24 0 26 -12 40 -24 29z"/>
<path d="M5327 3104 c-4 -4 -7 -18 -7 -31 0 -28 23 -27 28 1 4 20 -11 40 -21
30z"/>
<path d="M5176 3063 c-12 -13 -6 -53 9 -53 9 0 15 9 15 24 0 26 -12 40 -24 29z"/>
<path d="M5424 3055 c-8 -19 2 -45 16 -45 5 0 10 14 10 30 0 31 -16 41 -26 15z"/>
<path d="M5293 3014 c-8 -21 13 -42 28 -27 13 13 5 43 -11 43 -6 0 -13 -7 -17
-16z"/>
<path d="M13931 10261 c-14 -25 8 -233 24 -228 5 2 24 25 40 52 39 64 42 131
6 169 -29 31 -56 33 -70 7z"/>
<path d="M13617 9852 c-10 -10 -17 -25 -17 -33 0 -8 -6 -39 -14 -69 l-14 -55
28 32 c16 18 34 49 39 70 20 70 11 92 -22 55z"/>
<path d="M6777 9114 c5 -14 17 -15 167 -19 l60 -2 -40 15 c-21 8 -74 16 -116
17 -63 3 -76 1 -71 -11z"/>
<path d="M7011 9086 c10 -9 69 -36 69 -32 0 6 -55 36 -66 36 -4 0 -5 -2 -3 -4z"/>
</g>
</svg>
