<?xml version="1.0" standalone="no"?>
<!DOCTYPE svg PUBLIC "-//W3C//DTD SVG 20010904//EN"
 "http://www.w3.org/TR/2001/REC-SVG-20010904/DTD/svg10.dtd">
<svg version="1.0" xmlns="http://www.w3.org/2000/svg"
 width="1749.000000pt" height="1840.000000pt" viewBox="0 0 1749.000000 1840.000000"
 preserveAspectRatio="xMidYMid meet">

<g transform="translate(0.000000,1840.000000) scale(0.100000,-0.100000)"
fill="#0000ff" stroke="none">
<path d="M12016 17554 c-310 -75 -527 -409 -485 -745 23 -183 115 -354 241
-447 84 -61 97 -67 113 -45 15 20 95 261 95 286 0 14 10 17 50 17 47 0 50 -2
50 -25 0 -23 -4 -26 -27 -24 -13 1 -69 -245 -58 -253 5 -4 20 -8 32 -8 14 0
24 -9 31 -29 6 -16 8 -32 5 -35 -12 -12 143 -5 192 8 169 45 316 170 399 341
55 111 70 183 71 325 0 135 -18 218 -72 325 -123 242 -386 370 -637 309z m376
-161 l71 -38 15 23 c20 31 38 28 78 -15 79 -84 154 -287 154 -413 -1 -120 -30
-238 -58 -232 -7 1 -12 -3 -12 -9 0 -9 -38 -10 -142 -5 -161 8 -219 19 -244
47 -18 20 -49 25 -59 10 -8 -14 -97 -30 -215 -40 -185 -14 -210 10 -217 204
-6 133 8 207 55 303 39 79 84 119 151 132 83 17 133 30 166 45 41 19 61 22
128 24 48 1 69 -5 129 -36z m-205 -749 c-3 -3 -12 -4 -19 -1 -8 3 -5 6 6 6 11
1 17 -2 13 -5z m296 -38 c16 -2 33 -9 37 -16 5 -9 21 -11 49 -7 23 3 41 3 41
1 0 -4 -29 -56 -56 -100 -57 -93 -164 -176 -254 -199 -20 -5 -31 0 -50 20
l-25 26 25 19 c14 11 29 20 34 20 4 0 30 16 57 36 42 30 49 41 49 69 0 19 5
37 11 41 7 4 9 24 6 56 l-6 50 27 -6 c15 -4 40 -8 55 -10z m-150 -3 c-23 -2
-64 -2 -90 0 -26 2 -7 3 42 3 50 0 71 -1 48 -3z m-386 -10 c-3 -5 -43 -9 -89
-10 -63 -1 -73 1 -43 7 54 10 137 12 132 3z m-179 -77 c1 -41 -2 -77 -7 -80
-15 -10 -20 6 -24 82 -4 62 -2 72 12 72 13 0 17 -14 19 -74z"/>
<path d="M5375 17334 c-153 -32 -264 -97 -353 -208 -103 -127 -156 -277 -155
-446 0 -184 56 -330 173 -454 38 -39 81 -78 97 -86 56 -29 84 -55 102 -95 12
-28 43 -61 92 -101 64 -52 292 -238 519 -423 36 -29 107 -87 157 -128 64 -52
96 -85 103 -107 10 -30 10 -30 5 9 -4 41 -10 48 -90 110 -35 27 -168 135 -270
220 -101 83 -452 368 -466 379 -55 40 -61 97 -29 261 12 61 22 120 22 133 0
19 5 22 42 21 39 -1 39 -2 11 -9 -25 -6 -27 -8 -12 -14 9 -5 24 -6 32 -2 8 3
15 1 15 -5 0 -6 -8 -13 -19 -16 -16 -4 -19 -18 -23 -106 -3 -63 -11 -117 -22
-141 -12 -28 -13 -42 -5 -52 6 -7 7 -19 3 -25 -4 -7 -3 -10 2 -6 12 7 38 -13
48 -38 5 -14 9 -16 15 -7 5 9 15 4 33 -17 15 -16 26 -31 25 -33 -1 -1 0 -2 2
-1 2 2 11 -6 18 -17 8 -11 18 -18 22 -16 4 3 13 1 21 -5 12 -7 12 -9 2 -9 -8
0 76 -73 185 -161 109 -89 243 -198 298 -243 55 -44 117 -97 137 -117 27 -26
39 -32 43 -22 3 8 5 16 5 18 0 8 -368 300 -395 314 -46 23 -266 202 -260 212
5 7 -34 34 -45 31 -3 -1 -5 2 -5 7 0 5 -26 31 -58 57 -54 46 -56 49 -35 56 21
5 21 6 2 7 -25 1 -44 19 -44 43 0 14 8 18 43 18 55 1 181 34 221 60 79 50 91
50 98 -4 4 -35 -19 -55 -107 -92 -43 -18 -50 -23 -25 -18 104 20 223 101 304
208 163 215 187 525 58 771 -51 97 -147 192 -243 238 -93 46 -216 67 -294 51z
m331 -174 c48 -28 60 -31 76 -21 28 17 55 -3 96 -72 60 -100 84 -187 89 -322
3 -84 0 -134 -9 -165 l-14 -45 -54 -1 c-30 -1 -89 -6 -130 -12 -77 -11 -107
-8 -193 22 -36 12 -53 13 -68 5 -32 -17 -126 -31 -233 -35 -145 -6 -168 15
-181 171 -11 137 19 270 85 367 48 70 76 88 162 104 40 7 100 20 133 28 92 23
172 15 241 -24z m-169 -717 c-20 -2 -52 -2 -70 0 -17 2 0 4 38 4 39 0 53 -2
32 -4z m103 -43 c0 -12 -97 -12 -125 0 -14 6 3 9 53 9 42 1 72 -3 72 -9z
m-395 -10 c-3 -5 -41 -10 -83 -10 l-77 0 0 -70 c0 -94 -19 -96 -23 -2 -2 47
-7 73 -15 74 -13 2 105 13 166 16 23 1 36 -2 32 -8z m628 -17 c-7 -19 -42 -85
-49 -92 -8 -9 -33 34 -34 57 0 16 6 22 23 22 12 0 31 7 41 15 25 19 27 19 19
-2z m-187 -109 c-3 -8 -10 -14 -16 -14 -11 0 -14 43 -3 54 10 10 26 -23 19
-40z"/>
<path d="M5473 16053 c9 -2 23 -2 30 0 6 3 -1 5 -18 5 -16 0 -22 -2 -12 -5z"/>
<path d="M11176 15785 c-11 -8 -15 -15 -9 -15 6 0 16 7 23 15 16 19 11 19 -14
0z"/>
<path d="M11058 15714 c-39 -21 -35 -28 5 -8 37 19 44 24 31 24 -5 -1 -21 -8
-36 -16z"/>
<path d="M8154 15586 c-16 -12 -99 -17 -395 -25 -329 -10 -375 -9 -385 4 -20
27 -173 15 -181 -14 -2 -9 -23 -22 -46 -29 -86 -27 -146 -64 -242 -150 -114
-101 -156 -168 -176 -284 -11 -60 -11 -70 5 -87 10 -11 16 -32 14 -53 -1 -25
8 -48 38 -91 l39 -58 454 6 c250 3 457 7 460 10 4 2 223 6 486 10 264 3 503 8
531 11 45 4 56 1 81 -20 20 -17 29 -33 28 -48 -2 -13 -6 -108 -10 -213 -7
-183 -8 -191 -32 -214 -19 -19 -36 -26 -76 -27 -194 -10 -844 -24 -1010 -24
-111 1 -303 -1 -427 -4 -124 -3 -362 -8 -530 -11 -168 -3 -351 -7 -407 -9 -71
-3 -101 0 -96 7 4 7 0 8 -13 2 -10 -4 -53 -9 -94 -10 -322 -10 -349 -10 -362
3 -14 14 -17 110 -9 322 4 109 16 160 41 175 6 4 117 9 248 12 130 2 243 6
250 8 6 3 12 13 12 23 0 30 26 45 76 45 24 0 44 4 44 9 0 4 7 8 15 8 12 0 13
-4 5 -19 -14 -27 -13 -30 9 -24 28 7 34 33 15 54 -21 24 -52 25 -50 3 0 -9 -5
-19 -13 -22 -10 -3 -12 0 -7 13 6 15 2 17 -29 12 -53 -9 -61 -3 -57 46 3 40 0
46 -38 81 -23 20 -61 46 -85 56 -38 16 -44 23 -50 59 -6 34 -11 42 -33 47 -15
3 -32 7 -38 9 -8 2 -97 -105 -108 -131 -1 -1 -61 -11 -135 -22 -74 -12 -140
-27 -146 -34 -7 -7 -20 -60 -30 -117 -10 -56 -24 -105 -29 -107 -6 -2 -59 0
-117 4 -83 7 -113 13 -136 30 -32 23 -73 20 -73 -4 0 -8 -6 -17 -14 -20 -8 -3
-17 -17 -20 -30 -8 -30 -21 -35 -167 -68 -274 -61 -544 -93 -880 -103 -216 -6
-217 -6 -224 16 -7 23 -53 51 -84 51 -12 0 -35 -13 -53 -29 -44 -39 -44 -93 1
-133 36 -32 59 -35 104 -11 27 14 70 16 279 17 135 1 244 -2 242 -6 -4 -6
-112 -26 -173 -30 -26 -2 -35 -8 -36 -23 -2 -11 -6 -28 -10 -39 -7 -16 -4 -18
21 -13 16 4 79 13 139 22 61 9 122 18 138 21 20 4 27 2 27 -10 0 -18 -66 -54
-130 -71 -42 -10 -45 -14 -48 -47 -3 -37 -3 -37 -60 -43 -31 -4 -69 -13 -83
-20 -40 -19 -59 1 -59 61 0 27 6 58 13 69 7 11 18 33 25 48 11 27 9 26 -48
-18 -33 -25 -65 -56 -71 -68 -19 -35 -13 -102 13 -148 21 -39 30 -45 113 -75
87 -31 93 -32 141 -19 28 7 102 18 165 25 63 6 141 18 174 25 83 20 395 65
447 65 54 0 126 22 121 36 -3 8 -15 8 -43 1 -49 -14 -85 3 -100 46 -5 16 -10
30 -10 31 0 1 20 2 44 3 32 1 48 -3 61 -17 9 -10 22 -17 28 -14 7 2 23 -15 36
-38 22 -38 24 -53 22 -148 -2 -126 -5 -136 -36 -144 -24 -6 -25 -10 -26 -84 0
-42 -3 -89 -5 -104 -4 -25 1 -30 68 -64 l73 -37 113 15 c62 9 116 19 119 22 4
3 9 50 12 104 6 93 7 97 34 110 26 13 27 16 29 103 1 49 2 97 2 107 1 13 16
20 71 29 154 26 284 44 369 50 l89 6 -7 -49 c-18 -132 -19 -194 -2 -239 18
-45 83 -121 145 -166 l33 -25 -69 -69 c-153 -154 -252 -359 -269 -559 -4 -41
-13 -78 -22 -88 -9 -11 -11 -18 -4 -18 7 0 11 -21 11 -57 -1 -110 59 -332 126
-462 l27 -54 -64 -198 c-54 -170 -66 -199 -85 -204 -13 -3 -29 -15 -37 -28
-23 -36 -58 -186 -60 -260 -3 -103 5 -100 -249 -99 l-215 0 -4 -58 c-2 -32 -9
-65 -16 -73 -10 -11 -56 -13 -262 -12 -228 2 -251 1 -248 -14 5 -23 237 -40
600 -44 159 -2 291 -6 294 -10 11 -11 -227 -698 -349 -1007 -100 -254 -121
-311 -169 -454 -27 -83 -47 -158 -45 -168 3 -10 2 -16 -3 -13 -4 2 -18 -44
-31 -103 -20 -88 -24 -135 -24 -272 0 -162 1 -166 33 -255 32 -86 39 -125 26
-147 -4 -6 -146 -9 -403 -7 l-396 4 -43 -25 c-24 -14 -50 -36 -57 -50 -17 -34
-156 -555 -157 -589 -1 -63 49 -117 149 -161 24 -10 43 -24 43 -30 0 -11 -141
-546 -176 -666 l-15 -52 -67 -7 c-173 -17 -350 -70 -527 -155 -267 -129 -502
-323 -720 -595 -136 -168 -310 -460 -411 -688 -40 -90 -45 -110 -33 -118 21
-13 80 -11 156 7 62 14 307 23 319 12 2 -3 -19 -53 -47 -111 -45 -95 -57 -112
-107 -151 -48 -36 -60 -53 -74 -96 -17 -53 -17 -53 8 -85 l25 -33 -36 -118
c-42 -137 -100 -369 -111 -440 -5 -39 -15 -56 -45 -84 -31 -29 -39 -46 -48
-94 -11 -58 -10 -61 15 -87 25 -26 26 -33 20 -85 -20 -176 -28 -278 -34 -451
-7 -192 -7 -192 -35 -220 -24 -26 -27 -37 -27 -94 0 -59 3 -68 29 -93 27 -25
29 -34 35 -129 10 -149 24 -274 47 -434 l21 -142 -28 -24 c-27 -24 -27 -24
-16 -83 10 -47 21 -67 56 -104 39 -41 47 -57 80 -174 21 -71 57 -185 82 -254
l45 -124 -26 -40 c-27 -40 -27 -41 -10 -82 21 -48 109 -135 145 -143 18 -3 34
-20 54 -56 16 -29 60 -96 98 -150 l70 -98 -21 -60 -20 -60 42 -42 c69 -67 140
-104 242 -123 50 -9 105 -23 124 -31 l33 -14 -7 -73 -6 -72 113 -51 c124 -56
221 -97 254 -107 20 -6 22 -2 29 49 6 51 16 67 29 47 3 -5 2 -32 -3 -60 l-8
-51 56 -20 c156 -58 469 -131 616 -145 33 -4 114 -12 180 -18 250 -25 604 -13
850 28 189 32 184 30 187 77 4 52 22 55 26 4 2 -20 7 -37 11 -37 17 0 289 80
344 101 l57 22 0 57 c0 42 4 59 15 64 8 3 15 12 15 21 0 22 18 19 25 -5 7 -24
30 -25 124 -9 70 13 186 64 235 104 l30 24 -13 66 -12 67 68 71 c38 40 81 89
97 109 19 26 36 38 53 38 40 0 142 72 169 119 l24 43 -21 48 -21 49 69 138
c39 76 83 171 99 212 25 63 37 79 81 113 44 33 56 50 70 94 17 54 16 54 -6 85
-17 22 -21 39 -17 58 4 14 28 109 54 210 l48 184 129 1 c115 1 136 4 177 24
95 47 146 165 175 399 l17 133 80 -1 c45 0 563 -17 1151 -38 l1070 -37 510 63
c281 34 518 63 528 63 22 0 24 -56 2 -80 -26 -29 -2 -114 41 -146 25 -20 39
-42 53 -88 26 -81 73 -207 105 -281 26 -58 27 -60 10 -97 -16 -36 -16 -40 1
-79 18 -39 102 -109 131 -109 6 0 31 -26 54 -57 24 -32 58 -74 76 -93 l34 -36
-12 -57 c-12 -55 -11 -58 12 -81 40 -39 151 -92 234 -112 72 -17 76 -19 76
-46 0 -18 8 -33 23 -42 38 -25 204 -87 390 -145 236 -74 729 -133 852 -102 35
9 50 9 61 1 14 -12 102 -7 199 10 28 5 79 12 115 15 102 9 180 23 343 66 30 8
37 14 37 34 0 14 5 25 10 25 6 0 10 -7 10 -15 0 -19 -4 -19 89 5 80 20 193 60
242 85 27 15 28 17 23 78 l-5 62 49 32 c30 21 61 33 82 33 44 0 151 55 176 91
18 25 19 35 11 82 -9 52 -9 54 35 122 24 39 61 100 81 136 28 50 49 73 85 96
37 23 51 39 62 72 12 37 11 46 -3 75 -15 33 -15 37 14 113 17 43 50 145 73
227 36 122 49 154 74 177 37 35 53 111 27 139 -14 16 -14 29 9 161 14 79 32
209 42 289 13 117 20 149 37 168 28 30 36 180 12 215 -20 29 -20 141 1 221 25
95 25 95 30 201 3 68 8 101 16 104 21 6 28 23 28 66 0 47 -7 60 -37 69 -24 8
-63 63 -63 90 0 15 12 16 124 10 173 -10 198 3 213 111 7 53 -11 232 -43 430
-67 410 -169 748 -320 1055 -116 238 -212 376 -378 548 -98 100 -99 102 -81
122 15 16 17 26 9 48 -7 22 -21 31 -73 48 -67 21 -69 27 -13 39 61 13 116 79
82 100 -17 11 -11 23 15 29 l25 6 -5 153 c-3 83 -10 279 -15 435 -5 155 -12
287 -15 292 -3 6 -18 10 -33 10 -19 0 -30 7 -37 23 -7 16 -20 23 -48 25 -21 2
-40 9 -42 15 -2 7 -6 80 -10 163 l-6 151 30 6 c35 7 47 37 36 93 -4 24 -11 34
-20 30 -18 -7 -26 18 -19 63 7 45 -14 221 -28 239 -6 6 -27 12 -47 12 -36 0
-36 0 -39 48 -4 60 -22 81 -22 27 -1 -22 -7 -53 -14 -70 -12 -27 -13 -24 -8
43 5 82 -12 144 -53 182 l-25 24 22 23 c56 60 150 -17 133 -111 -4 -23 -8 -62
-9 -88 -1 -37 1 -44 11 -36 18 14 33 74 33 128 0 46 -28 120 -57 152 -9 10
-13 21 -9 26 10 9 33 -21 58 -76 l19 -43 29 21 c29 21 30 22 15 58 -9 20 -25
50 -36 65 -11 16 -18 32 -14 35 8 8 38 -31 62 -78 18 -38 24 -139 10 -178 -8
-22 -7 -23 12 -12 46 24 67 141 35 190 -10 14 -33 42 -52 62 -20 21 -33 41
-29 45 9 8 85 -64 93 -89 3 -10 9 -16 14 -13 12 7 1 73 -20 117 -18 37 -12 60
8 35 33 -39 41 -223 12 -276 -12 -24 1 -28 20 -6 9 11 32 15 81 15 93 0 97 6
92 158 -2 64 -8 139 -13 165 -17 82 -13 116 14 128 51 23 126 -49 126 -121 0
-19 -9 -54 -20 -78 -23 -52 -24 -52 120 67 320 264 402 336 414 360 52 101 5
245 -100 307 -40 24 -63 29 -155 35 -59 4 -113 10 -118 14 -6 3 -11 23 -11 43
-1 65 -18 116 -47 139 -26 22 -37 23 -188 23 -229 0 -325 9 -324 29 0 9 35 43
77 76 63 49 84 73 114 130 21 39 40 92 44 118 4 31 13 51 25 58 26 13 51 66
44 89 -6 20 -24 20 -1027 20 -922 0 -1023 -2 -1054 -16 -48 -23 -64 -50 -64
-109 0 -62 15 -93 59 -122 23 -15 46 -46 67 -91 18 -37 51 -89 73 -114 23 -25
41 -49 41 -52 0 -3 -522 -7 -1159 -8 -638 -2 -1163 -6 -1167 -10 -4 -4 -22
-64 -40 -134 -61 -229 -134 -388 -234 -513 l-46 -56 -180 -5 c-176 -5 -182 -6
-215 -31 -36 -28 -63 -74 -302 -509 -106 -194 -143 -272 -177 -374 -39 -118
-42 -134 -36 -195 9 -86 45 -194 103 -306 l46 -90 91 -28 c50 -15 112 -28 138
-27 l48 0 -20 -52 c-11 -28 -24 -55 -31 -58 -6 -4 -50 -10 -97 -14 -48 -4
-103 -10 -122 -13 -34 -6 -34 -6 -10 -16 l25 -10 -25 -5 c-13 -2 -88 -53 -167
-113 -78 -60 -154 -111 -168 -115 -21 -5 -23 -8 -11 -18 12 -9 12 -24 0 -111
-8 -55 -39 -298 -69 -540 -87 -696 -115 -908 -121 -914 -9 -9 -3 -19 -439 722
-225 383 -413 697 -416 697 -4 0 -9 -15 -12 -32 -16 -91 -32 -138 -46 -137 -9
0 -47 37 -85 81 -63 72 -68 82 -53 93 19 13 23 45 6 45 -6 0 -21 13 -34 29
-14 15 -56 45 -95 65 -66 35 -86 41 -150 46 -23 1 -23 2 -5 9 17 7 14 9 -15
14 -80 15 -2857 39 -3266 29 -238 -6 -264 -9 -283 -26 -23 -21 -29 -13 -7 10
8 8 22 14 31 14 11 0 15 5 12 15 -4 8 -2 17 3 20 5 3 12 27 16 53 4 25 13 61
20 79 8 17 23 72 34 121 11 50 31 125 45 168 14 42 25 87 25 99 0 12 9 30 21
41 20 18 40 19 392 16 1709 -11 2581 -12 2567 -3 -8 6 -68 11 -132 11 -64 0
-119 4 -123 10 -3 5 13 80 36 167 22 87 74 286 114 443 186 732 327 1280 356
1387 17 64 25 80 35 72 9 -7 14 -4 19 13 10 34 56 98 70 98 22 0 36 -53 42
-158 4 -64 9 -98 15 -89 15 27 47 180 58 280 11 96 11 98 -12 117 -13 11 -30
20 -38 20 -8 0 -26 9 -40 20 -14 11 -31 20 -37 20 -16 0 -16 0 -2 38 l11 31
151 -6 c84 -3 153 -6 153 -7 1 0 -17 -77 -41 -171 -24 -93 -91 -357 -148 -585
-58 -228 -137 -539 -176 -690 -217 -854 -252 -993 -247 -997 7 -8 306 -16 306
-9 0 4 -11 27 -25 51 l-26 43 132 519 c72 285 181 712 241 948 116 457 122
490 84 562 -14 29 -13 34 49 179 35 82 68 155 72 162 5 8 52 16 133 23 69 6
128 14 132 17 4 4 10 35 14 69 l6 62 -43 12 c-58 15 -119 20 -119 8 0 -5 9 -9
19 -9 26 0 30 -9 20 -45 -6 -21 -15 -31 -29 -31 -11 0 -20 7 -20 16 0 11 -5 9
-18 -7 -16 -21 -25 -22 -182 -23 -91 0 -175 -3 -188 -7 -45 -11 -68 40 -37 84
20 28 6 33 -89 33 l-73 0 14 62 c8 34 21 67 30 73 23 17 0 58 -28 50 -12 -4
-27 -1 -37 8 -15 13 -37 14 -182 2 -208 -17 -537 -30 -529 -21 4 4 40 9 80 11
94 5 264 23 308 31 19 4 50 17 69 30 19 13 38 21 42 19 5 -3 11 -1 15 5 3 5
15 10 26 10 10 0 19 4 19 8 0 5 19 12 43 18 23 5 41 14 40 20 -1 7 22 14 57
18 40 5 64 13 72 25 18 25 51 41 85 41 28 0 30 4 65 118 21 64 42 137 49 162
6 25 17 56 24 70 7 14 21 48 30 75 10 28 25 57 35 65 23 19 42 102 34 144 -3
18 -1 50 4 70 8 28 7 38 -3 43 -10 6 -11 19 -4 57 5 27 16 120 24 205 13 141
29 218 48 237 4 4 7 25 7 46 0 44 53 193 80 223 10 11 24 34 32 50 13 28 17
30 63 28 44 -2 47 -1 20 7 -16 5 -63 13 -104 16 -51 5 -68 10 -57 16 37 21 16
35 -66 46 -107 15 -148 27 -189 57 -79 57 -126 75 -206 79 -64 3 -92 11 -157
41 -100 48 -180 70 -172 49 6 -16 -24 -20 -39 -5 -6 5 -45 21 -87 35 -56 19
-97 26 -152 26 -42 0 -76 2 -76 3 0 2 9 39 20 83 23 91 43 114 102 114 44 0
127 -18 144 -32 8 -6 23 3 44 24 30 30 34 31 58 17 14 -8 28 -21 32 -29 4 -8
14 -30 23 -48 l16 -32 -27 7 c-23 5 -25 4 -15 -9 9 -10 9 -18 2 -25 -7 -7 0
-12 25 -17 19 -4 41 -13 49 -20 7 -7 42 -18 77 -24 138 -23 148 -29 154 -92 2
-22 5 -43 8 -45 2 -2 16 22 31 53 22 47 35 61 62 71 27 10 37 20 44 49 32 121
41 162 41 180 0 39 48 47 95 15 11 -7 14 -13 7 -13 -9 0 -10 -5 -3 -18 12 -23
3 -63 -18 -79 -14 -11 -14 -12 -1 -13 12 -1 12 -3 -2 -14 -20 -15 -25 -31 -6
-20 6 4 2 -9 -10 -28 -19 -31 -20 -37 -6 -42 8 -3 12 -11 8 -18 -5 -7 -1 -10
12 -6 13 3 27 -5 42 -24 l24 -28 -24 9 c-24 9 -38 0 -51 -31 -3 -10 -11 -18
-17 -18 -5 0 -10 -4 -10 -10 0 -6 25 -9 58 -8 35 1 44 3 25 5 -18 2 -33 8 -33
13 0 14 31 21 48 11 12 -7 22 -5 34 6 11 10 24 13 35 8 21 -9 30 -11 61 -13
20 -2 21 -5 11 -23 -6 -12 -12 -43 -14 -69 l-3 -47 67 -6 c83 -7 124 12 126
58 1 17 7 40 13 51 10 20 8 22 -26 28 -20 3 -62 6 -92 6 -73 0 -84 8 -73 51
l9 34 110 12 c131 16 228 41 347 89 48 20 90 34 93 32 2 -3 -2 -24 -10 -49 -8
-24 -31 -97 -51 -162 -20 -64 -42 -123 -49 -130 -17 -16 -68 -211 -68 -257 l0
-35 -29 35 c-16 19 -29 37 -29 41 0 4 -12 9 -27 11 -16 3 -36 9 -45 13 -16 6
-18 0 -17 -66 1 -63 2 -69 10 -42 5 18 14 35 21 39 13 8 42 -27 30 -35 -5 -3
-21 -54 -37 -113 -15 -60 -30 -108 -32 -108 -2 0 -1 42 1 93 3 58 2 81 -3 62
-5 -16 -9 -57 -10 -90 -3 -119 -32 -270 -110 -572 -154 -596 -202 -795 -196
-810 3 -10 9 -12 14 -7 4 5 32 104 60 219 31 124 61 220 72 235 11 14 32 51
48 83 16 31 34 63 40 71 6 7 22 42 35 77 13 35 31 82 39 104 25 66 47 136 66
210 10 39 26 92 35 118 9 26 16 61 16 77 0 17 5 30 10 30 7 0 9 -13 6 -32 -3
-18 -17 -112 -32 -208 -68 -462 -170 -889 -288 -1219 -21 -57 -20 -61 8 -61
21 0 28 13 75 157 29 87 53 172 54 189 1 18 5 30 8 28 10 -6 19 39 13 66 -4
18 -3 21 4 11 8 -10 11 -6 17 17 3 18 4 36 0 42 -3 5 -2 10 3 10 10 0 34 98
27 110 -3 5 -1 10 4 12 11 4 63 257 55 270 -3 5 0 15 6 23 7 9 13 35 14 60 0
25 5 45 10 45 4 0 6 10 3 21 -3 12 -2 29 3 38 13 26 33 158 27 176 -4 9 -3 14
1 11 5 -3 21 75 36 172 46 298 94 554 114 612 23 66 85 180 126 235 38 48 158
165 170 165 5 0 30 13 55 28 50 31 180 74 276 91 100 18 351 24 465 12 172
-18 166 -14 233 -136 32 -58 59 -105 60 -105 1 0 108 -11 237 -25 129 -14 237
-22 240 -17 4 4 22 48 40 97 22 61 45 104 71 132 38 42 49 61 29 48 -17 -11
-61 24 -76 60 -18 44 -17 75 2 100 13 17 16 18 25 5 8 -11 12 -12 16 -2 7 18
33 15 33 -5 2 -43 10 -118 16 -136 6 -17 9 -17 39 13 33 32 34 32 85 21 28 -6
77 -11 108 -11 31 -1 156 -12 277 -26 121 -13 288 -31 370 -39 83 -8 182 -19
221 -25 74 -11 148 -4 109 11 -11 4 -31 5 -46 2 -20 -4 -28 1 -37 22 -7 14
-12 34 -12 43 0 28 80 56 94 33 4 -5 0 -12 -6 -14 -10 -4 -10 -6 0 -6 25 -2
27 -1 27 12 0 7 16 13 41 15 38 3 42 0 54 -28 16 -38 24 -44 39 -26 9 11 8 14
-6 12 -14 -1 -18 6 -16 29 4 47 23 85 44 85 11 0 19 6 19 14 0 8 -8 13 -17 12
-12 0 -19 7 -21 22 -2 15 2 22 12 22 28 0 17 19 -26 47 -24 15 -62 39 -85 54
-36 22 -58 28 -145 34 -56 4 -112 11 -125 16 -13 5 -88 11 -166 15 -78 3 -144
8 -146 10 -2 2 8 17 23 34 28 34 33 65 14 105 -12 27 -54 55 -83 55 -28 0 -71
-28 -82 -53 -11 -23 -14 -24 -165 -29 -84 -4 -191 -3 -237 0 l-84 7 -14 50
c-13 45 -19 52 -56 67 -29 12 -71 17 -137 17 -55 0 -120 6 -155 15 -32 9 -74
16 -92 16 -17 0 -34 4 -37 9 -3 5 3 35 15 67 15 46 19 80 18 151 l-3 92 -39
16 c-22 9 -40 15 -42 13 -1 -2 -27 -35 -58 -74 -57 -72 -87 -139 -117 -262 -9
-41 -18 -55 -37 -63 -32 -12 -46 -3 -40 28 4 20 -2 27 -28 40 -21 10 -31 21
-28 32 2 9 -10 38 -27 64 -45 72 -75 81 -335 106 -264 25 -261 25 -243 8 8 -9
80 -20 203 -31 207 -19 305 -40 145 -30 -52 3 -122 9 -155 14 -33 5 -101 12
-151 16 -108 8 -106 9 -145 -113 -22 -71 -24 -73 -55 -73 -18 0 -45 5 -61 11
-64 27 -143 20 -143 -12 0 -13 18 -11 32 4 13 14 61 11 53 -3 -3 -5 -1 -11 4
-14 5 -3 6 -20 2 -38 l-7 -33 -77 4 c-72 3 -77 2 -77 -17 0 -12 12 -34 28 -51
24 -27 29 -28 46 -15 17 12 22 12 35 0 9 -7 41 -19 71 -26 30 -7 66 -16 80
-20 l25 -8 -30 -7 c-16 -5 -59 -21 -93 -37 -75 -33 -76 -33 -69 -10 3 9 10 32
15 50 6 17 7 32 3 32 -3 0 -13 -21 -20 -47 -8 -27 -19 -58 -24 -70 -11 -24
-46 -32 -48 -10 -1 6 -4 1 -8 -13 -4 -16 -48 -56 -124 -114 -64 -49 -120 -87
-122 -84 -3 3 -1 81 3 174 5 96 6 179 1 192 -6 15 -4 44 6 82 19 74 19 197 0
279 -36 153 -164 316 -295 379 -68 32 -155 52 -226 52 -24 0 -46 5 -49 10 -10
16 -147 12 -171 -4z m3 -364 c7 -5 9 -13 4 -21 -7 -11 -11 -9 -20 8 -12 21 -6
27 16 13z m-1073 -43 c-4 -6 -11 -6 -20 2 -21 17 -17 31 6 19 11 -6 18 -15 14
-21z m-793 -235 c-5 -16 -10 -21 -10 -12 -1 18 10 51 15 45 2 -1 -1 -16 -5
-33z m41 -129 c-3 -17 -11 -25 -24 -25 -14 0 -18 5 -14 16 3 9 6 20 6 25 0 5
8 9 19 9 14 0 17 -6 13 -25z m2922 0 c14 -21 14 -24 1 -19 -8 4 -15 12 -15 19
0 7 -6 16 -12 18 -8 4 -9 6 -2 6 7 1 19 -10 28 -24z m1683 -31 c-3 -3 -12 -4
-19 -1 -8 3 -5 6 6 6 11 1 17 -2 13 -5z m-809 -40 c23 -16 30 -48 12 -59 -5
-3 -19 4 -31 16 -15 15 -28 19 -46 14 -13 -3 -23 -2 -20 2 2 4 7 16 10 26 8
21 45 22 75 1z m1380 -71 c-10 -2 -26 -2 -35 0 -10 3 -2 5 17 5 19 0 27 -2 18
-5z m-560 -17 c15 -8 45 -18 67 -22 37 -8 40 -11 36 -39 -1 -16 -6 -34 -9 -40
-3 -5 -6 -23 -6 -40 -1 -34 2 -33 -103 -21 -40 4 -73 13 -73 19 0 5 -9 2 -20
-8 -22 -20 -50 -14 -50 12 0 36 13 63 28 63 14 0 14 1 0 13 -12 9 -13 19 -6
45 8 31 11 32 59 32 28 0 63 -6 77 -14z m-5567 -46 c18 -10 26 -40 13 -53 -4
-3 -13 0 -21 8 -8 8 -30 15 -49 15 -32 0 -45 16 -27 33 10 11 62 8 84 -3z
m6807 -52 c19 -19 14 -28 -17 -28 -29 0 -57 21 -44 33 11 11 48 8 61 -5z
m-323 -8 c33 -5 96 -11 140 -14 44 -2 92 -9 105 -14 14 -6 51 -18 83 -28 58
-17 58 -17 73 5 24 34 36 14 15 -27 -10 -20 -21 -50 -25 -67 l-6 -30 -153 7
c-83 3 -217 13 -297 22 -80 9 -151 16 -159 16 -10 0 -12 12 -8 53 9 87 9 87
96 87 42 0 103 -4 136 -10z m-1187 -19 c29 -24 28 -31 -5 -31 -48 0 -73 11
-73 31 0 26 49 26 78 0z m-5370 -23 c-2 -20 -9 -34 -19 -36 -12 -2 -14 5 -11
33 6 47 35 50 30 3z m-48 -28 c0 -31 -4 -40 -17 -41 -14 0 -13 -2 5 -9 21 -9
30 -34 15 -43 -5 -3 -29 -8 -55 -11 -46 -7 -48 -6 -48 18 0 13 6 27 13 29 7 3
5 6 -5 6 -19 1 -22 19 -12 58 6 22 24 29 77 32 25 1 27 -2 27 -39z m4630 24
c85 -9 158 -19 162 -22 8 -8 68 -122 68 -129 0 -3 -24 -2 -52 2 -92 13 -350
15 -433 5 -121 -16 -265 -49 -310 -70 -22 -10 -58 -26 -79 -35 -53 -21 -120
-70 -176 -127 -62 -65 -73 -62 -48 12 20 59 23 63 146 157 70 53 147 109 172
124 83 51 238 92 365 98 17 0 100 -6 185 -15z m-4580 -84 c0 -20 -5 -30 -15
-30 -10 0 -15 10 -15 30 0 20 5 30 15 30 10 0 15 -10 15 -30z m-1084 -67 c-2
-9 -8 -19 -15 -21 -10 -3 -10 0 -2 17 14 25 20 27 17 4z m6759 7 c3 -5 2 -10
-4 -10 -5 0 -13 5 -16 10 -3 6 -2 10 4 10 5 0 13 -4 16 -10z m-3368 -96 c-3
-3 -12 -4 -19 -1 -8 3 -5 6 6 6 11 1 17 -2 13 -5z m-420 -11 c-2 -2 -28 -12
-57 -22 l-53 -19 -26 -83 c-28 -91 -65 -151 -88 -142 -12 5 -12 7 0 17 14 11
29 76 43 186 3 30 8 58 10 61 2 3 42 6 89 6 47 0 84 -2 82 -4z m-2975 -45 c-6
-6 -15 -7 -22 -3 -8 5 -6 11 7 20 20 15 32 0 15 -17z m2283 4 c6 -4 19 -26 30
-50 17 -40 50 -76 102 -112 l22 -15 -60 -120 c-76 -152 -78 -154 -121 -125
-55 38 -119 103 -139 142 -12 23 -19 57 -19 90 1 70 25 178 42 189 16 11 129
12 143 1z m-2038 -23 c7 -7 52 -12 107 -13 60 -1 100 -6 107 -13 16 -16 13
-17 -141 -38 -225 -31 -205 -31 -236 0 l-28 28 27 14 c15 7 53 18 85 22 31 5
59 9 63 10 3 0 10 -4 16 -10z m2299 -183 c24 -7 41 -73 24 -90 -6 -6 -39 -12
-75 -14 -70 -5 -76 0 -50 43 8 14 22 36 31 50 9 17 21 24 32 21 9 -2 27 -7 38
-10z m1536 -10 c-2 -5 2 -13 10 -17 9 -6 7 -9 -9 -9 -12 0 -27 9 -33 21 -10
18 -9 20 12 17 13 -2 21 -7 20 -12z m-1367 -16 c-3 -4 4 -10 15 -13 25 -6 26
-24 3 -31 -33 -9 -93 -16 -93 -10 0 15 36 64 49 67 20 4 33 -2 26 -13z m-255
-98 c0 -4 -9 -13 -19 -19 -17 -11 -20 -10 -18 7 1 19 37 30 37 12z m809 -58
c13 -12 -8 -10 -29 2 l-25 15 25 -7 c14 -3 27 -8 29 -10z m177 -25 c38 -11 73
-25 79 -30 5 -5 17 -9 26 -9 10 0 45 -16 78 -35 32 -19 63 -35 68 -35 21 0 82
-72 110 -130 46 -94 75 -263 65 -367 -4 -39 -6 -43 -32 -43 -26 0 -30 5 -45
58 -43 147 -132 298 -252 423 -47 49 -69 79 -61 82 8 4 7 6 -4 6 -10 1 -18 6
-18 11 0 6 -5 10 -10 10 -14 0 -109 63 -109 73 -1 12 34 8 105 -14z m-640 -82
c4 -4 18 -7 31 -7 32 0 29 -13 -7 -27 -22 -8 -30 -18 -30 -35 0 -16 3 -19 9
-10 4 8 11 13 14 13 4 0 28 9 54 20 44 19 48 19 82 3 20 -9 40 -23 44 -30 4
-8 15 -14 24 -14 20 0 113 -60 113 -74 0 -6 14 -19 30 -28 21 -12 30 -25 30
-43 0 -28 -9 -31 -30 -12 -12 10 -12 9 -3 -3 7 -9 22 -46 34 -83 22 -68 38
-86 40 -44 0 12 6 37 13 56 l12 33 47 -48 c34 -36 42 -50 31 -52 -8 -2 -14 -9
-11 -15 2 -7 10 -37 17 -67 7 -30 17 -68 21 -85 8 -28 8 -27 4 6 -4 25 -1 40
9 48 27 23 55 -53 97 -256 22 -108 -5 -352 -53 -488 -27 -75 -106 -194 -155
-234 -21 -17 -60 -49 -88 -71 -27 -22 -61 -43 -75 -47 -14 -3 -47 -17 -73 -31
-26 -13 -51 -22 -54 -18 -3 3 -11 2 -17 -3 -18 -14 -66 -22 -66 -11 0 14 -47
13 -52 -1 -5 -15 -118 -22 -118 -7 0 5 -7 8 -15 4 -20 -7 -117 12 -126 25 -3
6 -15 10 -25 8 -11 -1 -28 1 -39 5 -11 5 -32 12 -47 18 -15 5 -34 18 -44 29
-9 10 -23 19 -30 19 -6 0 -37 28 -68 61 -51 56 -61 79 -35 79 5 0 18 9 28 19
14 14 16 22 7 31 -6 6 -11 28 -11 48 0 31 -3 37 -20 34 -20 -3 -57 -8 -83 -11
-7 0 -17 -12 -24 -26 l-11 -24 -27 37 c-33 45 -29 66 21 127 37 45 59 97 58
140 0 11 4 38 10 60 17 65 13 147 -8 173 -11 12 -23 22 -27 22 -4 0 -4 -3 -1
-6 3 -4 1 -16 -5 -28 -7 -11 -12 -35 -13 -52 0 -24 4 -30 20 -30 14 1 20 -5
20 -19 0 -15 -6 -20 -25 -18 -19 1 -31 -8 -47 -31 -18 -27 -26 -32 -51 -28
-28 4 -30 2 -34 -38 -3 -34 0 -44 16 -52 16 -9 23 -6 38 12 27 33 32 19 13
-36 -32 -95 -43 -96 -80 -4 -12 31 -19 40 -31 40 -18 0 -18 -19 0 -56 8 -16
24 -49 35 -74 12 -25 27 -53 33 -62 21 -30 -1 -32 -24 -2 -24 30 -98 186 -98
206 0 6 -4 25 -9 42 -5 17 -17 70 -26 118 -12 68 -13 92 -5 109 7 12 21 69 31
127 11 58 23 108 28 111 4 3 12 37 16 76 9 86 14 99 69 183 58 88 172 197 216
205 18 4 43 18 55 31 13 14 40 29 61 34 22 5 65 15 98 23 60 15 280 19 292 6z
m1000 -52 c16 -8 36 -15 45 -15 8 0 36 -13 62 -30 26 -16 47 -27 47 -24 0 3
10 -2 22 -10 12 -9 42 -16 65 -16 73 0 73 -9 8 -272 -37 -145 -63 -232 -72
-235 -8 -3 -15 -4 -17 -2 -2 2 -6 58 -9 124 -9 180 -48 290 -150 417 -26 32
-45 63 -42 68 8 13 8 13 41 -5z m-1711 -215 c-3 -5 -11 -10 -16 -10 -6 0 -7 5
-4 10 3 6 11 10 16 10 6 0 7 -4 4 -10z m2386 -119 c-12 -22 -21 -57 -21 -78
-1 -39 -38 -134 -39 -100 -1 18 54 238 67 267 4 10 7 4 10 -17 2 -18 -5 -48
-17 -72z m-71 -284 c-4 -21 -11 -41 -14 -44 -14 -14 -16 8 -5 51 14 56 32 49
19 -7z m-506 27 c9 -24 2 -26 -12 -4 -7 11 -8 20 -3 20 5 0 12 -7 15 -16z
m-24 -90 c0 -31 -4 -44 -14 -44 -8 0 -17 7 -20 16 -8 21 -8 79 1 87 14 15 33
-18 33 -59z m80 27 c-5 -11 -10 -31 -10 -45 0 -23 -16 -44 -26 -34 -2 3 -7 18
-10 35 -6 32 14 63 42 63 11 0 12 -4 4 -19z m-31 -131 c24 0 4 -25 -22 -28
-29 -4 -44 16 -33 44 6 16 8 16 24 0 10 -9 24 -16 31 -16z m-17 -138 c-12 -42
-51 -194 -87 -337 -37 -143 -72 -266 -78 -274 -7 -8 -36 -25 -66 -38 -29 -13
-67 -35 -85 -48 -17 -13 -44 -28 -59 -34 -26 -10 -307 -33 -315 -26 -2 1 28
20 65 40 114 64 185 116 256 189 147 150 246 347 281 557 6 32 11 37 54 50 26
9 49 12 50 7 2 -5 -5 -44 -16 -86z m-1795 -431 l29 -40 -23 -113 c-30 -147
-26 -158 64 -158 42 0 63 4 63 12 0 6 6 4 13 -6 8 -11 23 -17 37 -14 19 2 26
12 35 48 13 49 18 51 73 17 20 -13 57 -31 82 -42 65 -27 70 -35 21 -35 -38 0
-42 -2 -31 -15 11 -13 10 -18 -6 -30 -25 -19 -40 -19 -48 0 -6 17 -39 20 -67
5 -21 -12 -26 -55 -6 -64 8 -3 4 -11 -12 -26 -23 -20 -33 -21 -145 -16 -67 2
-108 2 -91 -1 16 -2 32 -8 35 -12 3 -3 17 -12 33 -18 40 -18 34 -35 -9 -27
-25 5 -39 3 -44 -6 -7 -11 -25 -9 -97 9 -48 12 -89 26 -91 31 -2 6 -19 10 -38
10 -32 0 -45 12 -25 25 6 3 13 26 17 51 3 25 14 67 24 92 15 41 22 48 51 52
30 5 34 10 50 64 10 33 28 101 40 153 13 51 26 93 30 93 4 0 20 -18 36 -39z
m93 18 c0 -5 -4 -9 -10 -9 -5 0 -10 7 -10 16 0 8 5 12 10 9 6 -3 10 -10 10
-16z m106 -235 c-4 -15 -14 -41 -22 -58 l-14 -31 6 40 c7 57 14 75 26 75 6 0
8 -11 4 -26z m383 -250 c11 -10 21 -22 21 -27 0 -4 12 -19 28 -33 15 -15 20
-24 11 -21 -20 7 -39 -11 -32 -29 6 -17 -42 -20 -52 -4 -9 15 -115 13 -115 -2
-1 -7 -7 -26 -16 -43 l-14 -30 4 38 c5 39 4 40 -45 51 -32 7 -47 -18 -26 -43
30 -35 28 -39 -21 -30 -26 5 -54 12 -62 16 -8 3 -24 5 -35 4 -30 -4 -11 10 85
65 47 27 89 54 93 61 4 7 25 22 45 33 44 24 99 21 131 -6z m74 -101 c-7 -2
-19 -2 -25 0 -7 3 -2 5 12 5 14 0 19 -2 13 -5z m704 -59 c30 -19 20 -36 -15
-28 -56 12 -81 26 -75 41 7 18 54 11 90 -13z m-1040 -40 c26 -9 52 -23 58 -31
6 -8 31 -17 55 -18 52 -4 128 -24 135 -36 3 -4 0 -19 -6 -33 -9 -19 -9 -29 0
-39 13 -16 42 -109 36 -115 -7 -7 -31 11 -128 95 -133 114 -139 117 -263 110
-100 -5 -101 -4 -96 17 7 27 26 46 45 46 9 0 17 -6 20 -12 3 -9 12 -6 28 10
28 26 52 28 116 6z m-1 -139 c39 -16 76 -43 200 -146 l80 -67 -7 -63 c-11 -95
-45 -283 -69 -373 -11 -44 -20 -102 -21 -130 0 -76 -7 -104 -133 -584 l-117
-443 20 -104 20 -103 -65 -248 c-35 -136 -64 -249 -64 -252 0 -7 -729 4 -736
11 -5 5 38 172 301 1172 41 154 135 514 210 800 75 286 138 526 140 533 6 18
195 16 241 -3z m1567 8 c-35 -2 -91 -2 -125 0 -35 2 -7 3 62 3 69 0 97 -1 63
-3z m235 0 c-16 -2 -40 -2 -55 0 -16 2 -3 4 27 4 30 0 43 -2 28 -4z m-2233
-45 c14 -6 25 -17 25 -24 0 -13 -68 -174 -77 -184 -3 -3 -4 20 -2 50 2 41 9
62 27 81 20 22 21 27 8 32 -9 4 -16 18 -16 32 0 29 0 29 35 13z m1142 -22 c39
-7 83 -39 70 -52 -3 -3 -38 -1 -78 6 -42 7 -99 10 -136 6 -35 -4 -63 -3 -63 2
0 11 82 52 104 52 9 0 16 5 16 11 0 7 8 6 23 -4 12 -8 41 -18 64 -21z m956 8
c8 -8 -100 -264 -112 -264 -3 0 -18 15 -33 34 l-27 33 26 96 26 96 51 4 c28 2
54 4 57 5 3 1 8 -1 12 -4z m-1233 -34 c16 -9 19 -19 16 -58 -4 -55 -23 -129
-35 -136 -4 -3 -16 11 -25 32 -13 31 -14 47 -6 97 5 33 10 63 10 68 0 10 18 9
40 -3z m611 -9 c21 -17 22 -22 13 -67 -6 -32 -14 -48 -22 -46 -10 2 -11 -4 -7
-19 8 -24 5 -23 -60 24 -22 16 -55 35 -72 42 -46 20 -34 36 45 62 83 27 75 26
103 4z m-1766 -207 c-30 -115 -70 -267 -89 -339 -19 -71 -69 -260 -111 -420
-132 -497 -212 -801 -277 -1047 -35 -131 -67 -236 -73 -235 -45 15 -55 330
-17 512 27 126 116 400 192 590 118 295 304 808 380 1050 19 59 41 108 45 103
3 -2 -20 -99 -50 -214z m179 182 c37 -22 38 -23 15 -31 -13 -4 -28 -7 -32 -6
-4 1 -18 -5 -30 -14 -33 -23 -40 -18 -32 22 12 63 19 66 79 29z m180 -40 c-3
-14 -12 -26 -20 -26 -8 0 -14 -1 -14 -3 0 -1 -18 -72 -40 -157 -22 -85 -40
-162 -40 -170 1 -13 34 64 54 124 4 10 8 17 11 15 4 -5 -36 -159 -54 -201 -18
-48 -41 -29 -41 33 0 18 -4 28 -10 24 -11 -7 -14 -114 -4 -140 5 -13 9 -14 15
-4 25 41 14 -24 -41 -242 -52 -207 -217 -840 -281 -1074 -10 -38 -45 -172 -77
-297 l-57 -228 -136 0 c-75 0 -138 2 -141 5 -4 5 12 70 212 825 62 234 127
481 145 550 169 646 199 734 259 773 24 16 25 16 36 -19 7 -20 10 -49 8 -65
-3 -16 -1 -29 3 -29 17 0 38 45 33 67 -7 27 3 30 22 6 12 -16 13 -15 14 10 0
15 11 49 24 75 13 26 29 68 36 92 12 44 35 80 52 80 4 0 8 -8 9 -17 0 -14 3
-13 11 5 14 28 21 22 12 -12z m1390 -262 c9 -3 16 -13 16 -21 0 -20 -34 -12
-38 10 -4 19 -1 20 22 11z m-66 -331 c-5 -25 -28 -28 -28 -4 0 12 6 21 16 21
9 0 14 -7 12 -17z m7390 -708 c37 -58 48 -116 34 -182 -6 -31 -19 -64 -27 -72
-14 -14 -15 -12 -12 18 5 44 -11 96 -35 118 -19 17 -19 17 -11 -12 12 -44 9
-136 -6 -163 -7 -13 -15 -21 -18 -19 -2 3 1 15 7 27 7 14 11 50 8 91 -3 57 -9
76 -35 113 -20 28 -28 48 -22 52 16 10 81 -48 109 -97 22 -39 25 -42 28 -20 6
39 -7 87 -33 125 -14 20 -25 41 -25 46 0 20 15 9 38 -25z m-313 -886 c-11 -24
-15 -27 -11 -9 3 14 6 34 6 45 0 13 3 16 10 9 7 -7 5 -21 -5 -45z m-7495 -169
c0 -5 -7 -10 -16 -10 -8 0 -12 5 -9 10 3 6 10 10 16 10 5 0 9 -4 9 -10z m5564
-272 c3 -24 7 -80 8 -125 l3 -83 -27 0 c-27 0 -28 2 -28 49 0 27 -6 64 -14 82
-30 74 -30 77 6 99 18 11 36 20 40 20 4 0 9 -19 12 -42z m-2036 -23 c20 -44
15 -53 -35 -59 -127 -15 -163 -18 -163 -12 0 3 10 26 22 51 l22 45 71 0 c67 0
73 -2 83 -25z m1471 -8 l84 -22 25 -68 c14 -37 23 -70 20 -73 -6 -5 -523 34
-545 41 -9 3 -13 25 -13 64 l0 59 -37 10 c-29 8 13 10 172 11 187 0 219 -2
294 -22z m-921 -44 c-15 -2 -42 -2 -60 0 -18 2 -6 4 27 4 33 0 48 -2 33 -4z
m-3425 -320 c-13 -2 -35 -2 -50 0 -16 2 -5 4 22 4 28 0 40 -2 28 -4z m6378
-35 c7 -11 21 -499 15 -506 -9 -8 -451 -1 -460 8 -10 10 18 492 29 511 8 12
407 0 416 -13z m-4221 -33 c0 -8 -4 -15 -10 -15 -5 0 -7 7 -4 15 4 8 8 15 10
15 2 0 4 -7 4 -15z m-72 -30 c-15 -13 -34 -38 -44 -54 -11 -18 -29 -31 -47
-35 -34 -7 -47 5 -47 42 0 19 5 22 38 22 25 0 50 9 72 25 44 32 63 32 28 0z
m-5268 -33 c28 -35 26 -114 -6 -271 -20 -103 -91 -399 -109 -461 -4 -12 9 -19
53 -29 87 -19 100 -34 22 -25 -36 4 -81 8 -100 9 -71 4 -171 18 -175 25 -2 4
18 90 45 191 53 193 94 348 131 487 17 66 26 85 46 96 34 17 69 9 93 -22z m80
14 c0 -2 -11 -6 -25 -8 -14 -3 -25 -1 -25 3 0 5 11 9 25 9 14 0 25 -2 25 -4z
m3119 -50 c38 -18 80 -36 91 -39 15 -4 20 -11 17 -24 -3 -10 -83 -330 -179
-710 -111 -444 -177 -693 -185 -693 -7 0 -38 12 -69 26 -32 14 -84 29 -116 31
-38 4 -58 10 -58 19 0 7 34 147 76 311 42 164 120 471 173 681 120 475 113
464 250 398z m5450 -48 c0 -35 -4 -81 -8 -103 l-8 -40 -17 40 c-10 22 -26 59
-36 82 -11 26 -30 48 -49 58 -17 8 -31 18 -31 20 0 3 34 5 75 5 l75 0 -1 -62z
m-7638 -163 c222 -63 433 -124 469 -135 36 -11 80 -23 98 -26 38 -8 39 9 -17
-224 l-38 -155 -59 0 c-231 2 -1480 28 -1485 31 -7 4 135 541 145 552 5 4 85
6 179 4 l172 -3 50 35 c28 19 57 34 66 35 9 1 198 -51 420 -114z m1396 -171
c-3 -3 -12 -4 -19 -1 -8 3 -5 6 6 6 11 1 17 -2 13 -5z m-47 -24 c0 -5 -8 -10
-17 -10 -15 0 -16 2 -3 10 19 12 20 12 20 0z m7660 -14 c0 -15 -49 -36 -86
-36 -17 0 -24 6 -24 19 0 24 13 29 68 30 30 1 42 -3 42 -13z m-7735 -26 c-3
-5 -12 -10 -18 -10 -7 0 -6 4 3 10 19 12 23 12 15 0z m7842 4 c-3 -3 -12 -4
-19 -1 -8 3 -5 6 6 6 11 1 17 -2 13 -5z m-2108 -58 c5 -12 42 -54 81 -92 39
-38 80 -86 91 -106 22 -43 21 -43 57 -24 47 24 103 28 167 11 59 -16 165 -72
165 -87 0 -11 1 -11 -87 13 -88 24 -135 22 -210 -11 l-53 -22 0 -57 c0 -68
-17 -187 -29 -209 -6 -10 -7 33 -4 108 5 112 3 131 -17 182 -18 49 -56 96 -67
84 -4 -4 14 -163 23 -209 5 -26 4 -28 -14 -18 -26 14 -55 14 -85 0 -22 -10
-25 -19 -36 -133 -6 -67 -16 -140 -22 -162 -19 -74 -93 -254 -103 -251 -27 9
-146 240 -165 319 -13 55 -14 98 -3 98 4 0 18 -30 30 -67 26 -82 113 -258 127
-258 16 0 63 104 80 180 13 53 15 95 10 175 -4 58 -9 113 -11 122 -7 25 33 56
82 64 24 3 44 11 44 18 0 6 -11 43 -25 83 -23 70 -55 215 -55 254 0 27 19 24
29 -5z m2074 -42 c8 -9 -11 -44 -23 -44 -6 0 -10 8 -10 18 0 27 18 41 33 26z
m-69 -36 c-1 -27 -6 -34 -35 -44 -60 -22 -69 -19 -69 25 0 42 6 47 75 50 28 1
30 -2 29 -31z m-2740 -40 c13 -96 93 -325 156 -444 63 -120 190 -298 278 -390
11 -12 32 -44 46 -73 30 -58 55 -66 100 -30 39 30 32 5 -10 -35 -36 -35 -36
-36 -29 -94 4 -36 3 -62 -3 -66 -13 -8 -69 56 -92 103 -9 20 -46 66 -83 103
-105 107 -205 267 -295 468 l-11 25 0 -25 c-3 -113 120 -424 241 -611 31 -48
58 -95 62 -105 3 -11 -1 -44 -9 -74 -17 -63 -31 -254 -21 -294 10 -41 35 -31
61 27 19 39 25 46 24 27 0 -14 -6 -43 -14 -65 -15 -42 -10 -62 9 -31 61 100
108 133 208 142 75 8 70 -5 -12 -31 -89 -28 -136 -60 -159 -108 -12 -24 -21
-48 -21 -54 0 -5 -16 -18 -35 -29 -42 -22 -61 -14 -87 37 -21 39 -24 154 -8
259 26 164 28 147 -33 240 -130 202 -197 359 -274 639 -25 94 -43 213 -43 291
0 76 17 237 26 252 11 17 22 -3 28 -54z m2747 -131 c6 -23 3 -27 -24 -36 -72
-21 -77 -21 -78 5 -1 13 -2 30 -3 37 -1 7 16 15 39 18 54 8 58 7 66 -24z m69
29 c0 -2 -3 -11 -6 -20 -9 -23 -24 -20 -24 4 0 11 7 20 15 20 8 0 15 -2 15 -4z
m-1480 -66 c0 -5 -4 -10 -10 -10 -5 0 -10 5 -10 10 0 6 5 10 10 10 6 0 10 -4
10 -10z m1480 -99 c0 -5 -7 -14 -15 -21 -12 -10 -15 -10 -15 2 0 8 3 18 7 21
9 10 23 9 23 -2z m-70 -10 c0 -5 3 -16 6 -24 4 -10 -7 -17 -40 -26 -63 -16
-66 -15 -66 18 0 23 5 31 23 34 41 8 77 7 77 -2z m-9180 -41 c0 -25 -29 -40
-75 -40 -47 0 -42 21 7 35 20 5 40 13 44 18 13 13 24 7 24 -13z m287 -16 c4
-11 -58 -44 -82 -44 -8 0 -15 -7 -15 -15 0 -8 -9 -15 -20 -15 -12 0 -35 -7
-52 -16 -29 -15 -32 -15 -52 6 l-21 21 25 19 c34 25 58 31 64 14 8 -21 25 -17
38 10 6 14 20 27 32 29 35 8 79 3 83 -9z m173 -64 c-8 -15 -59 -34 -68 -25 -2
2 1 12 7 22 6 13 21 20 40 20 25 0 28 -3 21 -17z m8733 -61 c-15 -12 -98 -28
-106 -20 -5 5 -7 17 -5 27 4 26 87 37 106 15 6 -8 9 -18 5 -22z m57 32 c0 -5
-7 -11 -14 -14 -10 -4 -13 -1 -9 9 6 15 23 19 23 5z m10 -136 c0 -2 -10 -10
-22 -16 -21 -11 -22 -11 -9 4 13 16 31 23 31 12z m-67 -20 c4 -10 -5 -17 -31
-25 -55 -15 -72 -13 -72 9 0 20 17 27 71 30 15 0 29 -5 32 -14z m7 -134 c0
-11 -98 -36 -107 -28 -3 4 -3 13 0 22 5 11 21 15 57 15 27 0 50 -4 50 -9z m0
-120 c0 -9 -47 -21 -81 -21 -29 0 -22 18 9 23 50 8 72 7 72 -2z m-2030 -81 c0
-80 -56 -190 -97 -190 -10 0 -6 10 15 34 30 34 50 104 37 126 -7 12 21 50 37
50 4 0 8 -9 8 -20z m1990 -40 c-14 -4 -34 -8 -45 -9 -16 -1 -17 1 -5 9 8 5 29
9 45 9 29 -1 29 -1 5 -9z m-1685 -137 c-18 -43 -35 -121 -35 -164 0 -40 6 -55
41 -99 22 -28 38 -54 36 -57 -9 -9 -92 34 -116 60 l-24 26 17 65 c9 36 16 71
15 78 -1 27 -52 -101 -84 -212 -39 -134 -50 -166 -63 -174 -4 -3 -36 -9 -69
-15 -84 -13 -153 -51 -224 -122 -60 -60 -60 -60 -84 -42 -30 22 -27 37 8 41
16 2 36 15 48 31 33 45 109 97 184 127 108 42 110 45 165 219 31 97 73 178
115 220 38 38 83 49 70 18z m1920 -65 l-1 -43 -53 -10 -54 -9 8 -304 c6 -292
6 -304 -12 -300 -16 3 -19 19 -24 193 -4 105 -7 232 -8 283 -1 85 -2 92 -21
92 -19 0 -20 -5 -16 -47 3 -27 8 -155 11 -286 l6 -238 -53 3 -53 3 3 120 c7
250 4 439 -7 443 -6 2 -11 10 -11 18 0 8 -6 14 -12 15 -7 1 -3 4 10 7 13 4 22
9 21 12 -1 3 3 15 10 28 11 20 18 23 69 20 52 -3 57 -5 56 -26 -1 -20 3 -22
30 -16 40 8 49 24 29 46 -20 23 -8 36 17 20 11 -7 20 -9 19 -5 -3 17 2 23 19
23 15 0 18 -8 17 -42z m-461 10 c-14 -14 -25 -17 -48 -12 -17 3 -33 8 -36 11
-9 9 20 18 60 19 40 1 40 1 24 -18z m46 -2 c0 -3 -4 -8 -10 -11 -5 -3 -10 -1
-10 4 0 6 5 11 10 11 6 0 10 -2 10 -4z m-7340 -270 c0 -16 -18 -31 -27 -22 -8
8 5 36 17 36 5 0 10 -6 10 -14z m46 -23 c-10 -10 -19 5 -10 18 6 11 8 11 12 0
2 -7 1 -15 -2 -18z m24 -30 c0 -37 -14 -72 -24 -63 -5 5 15 100 21 100 2 0 3
-17 3 -37z m7856 -981 c-7 -21 -36 -39 -36 -22 0 5 5 21 10 36 13 32 36 19 26
-14z m-2653 21 c-7 -2 -21 -2 -30 0 -10 3 -4 5 12 5 17 0 24 -2 18 -5z m1080
-120 c-7 -2 -19 -2 -25 0 -7 3 -2 5 12 5 14 0 19 -2 13 -5z m-6767 -129 c-4
-12 -1 -14 14 -9 11 4 20 2 20 -4 0 -6 -7 -11 -15 -11 -22 0 -41 -37 -55 -108
-14 -66 -27 -89 -27 -44 1 15 -3 43 -7 63 -6 28 -4 37 8 42 11 4 14 1 10 -11
-5 -15 -4 -15 6 0 6 10 10 24 8 30 -1 7 6 25 16 41 20 30 32 36 22 11z m-476
2 c0 -3 -4 -8 -10 -11 -5 -3 -10 -1 -10 4 0 6 5 11 10 11 6 0 10 -2 10 -4z
m-58 -78 c-7 -7 -12 -23 -12 -37 0 -27 -43 -192 -55 -211 -4 -6 -15 -8 -25 -5
-10 3 -22 0 -26 -6 -4 -8 -3 -9 4 -5 8 5 12 -3 12 -23 0 -16 5 -31 10 -33 6
-2 4 -25 -6 -63 -20 -74 -22 -86 -23 -104 -1 -11 -4 -10 -14 4 -8 10 -19 15
-25 11 -16 -10 -15 -53 1 -60 10 -5 10 -7 0 -12 -15 -7 -17 -41 -3 -46 7 -2 6
-21 -2 -55 -15 -63 -38 -80 -38 -28 0 26 -3 33 -15 29 -10 -4 -15 0 -15 11 0
24 20 107 31 127 5 10 9 25 9 33 0 8 6 15 14 15 7 0 19 6 25 14 10 12 8 19 -8
35 -19 19 -19 22 -4 75 9 31 20 56 25 56 5 0 7 4 4 9 -4 5 -2 20 3 33 6 12 10
17 10 11 1 -7 10 -13 21 -13 11 0 20 6 21 13 0 6 2 30 4 52 1 22 1 30 -2 18
-2 -13 -9 -23 -14 -23 -15 0 0 42 21 60 10 8 23 33 30 55 15 47 39 89 48 81 3
-4 0 -12 -6 -18z m8918 -101 c0 -10 -39 -80 -40 -71 -1 32 14 74 26 74 8 0 14
-1 14 -3z m0 -178 c0 -14 -17 -10 -23 5 -4 10 -1 13 9 9 7 -3 14 -9 14 -14z
m-874 -18 c-4 -5 0 -12 6 -14 7 -3 3 -6 -9 -6 -23 -1 -30 9 -16 22 10 10 25 8
19 -2z m-3123 -8 c-7 -2 -21 -2 -30 0 -10 3 -4 5 12 5 17 0 24 -2 18 -5z
m3172 -3 c3 -5 -1 -10 -9 -10 -9 0 -16 5 -16 10 0 6 4 10 9 10 6 0 13 -4 16
-10z m-2515 -71 c113 -6 215 -16 228 -20 23 -9 23 -11 17 -112 -4 -56 -10
-105 -14 -109 -11 -11 -135 14 -162 33 -23 16 -60 21 -253 31 -210 11 -230 11
-276 -6 -27 -10 -53 -15 -57 -13 -5 3 -5 41 -2 84 4 43 8 90 8 105 1 16 7 28
18 30 18 3 175 -4 493 -23z m2627 25 c-3 -3 -12 -4 -19 -1 -8 3 -5 6 6 6 11 1
17 -2 13 -5z m-1819 -33 c6 -16 32 -52 59 -80 48 -49 49 -51 29 -65 -19 -12
-18 -14 19 -26 22 -7 48 -17 58 -22 18 -9 18 -11 2 -28 -10 -11 -33 -25 -53
-31 -41 -14 -50 -6 -73 63 -7 24 -26 53 -41 66 -14 12 -39 43 -54 69 l-27 46
23 19 c31 25 46 23 58 -11z m1879 23 c-3 -3 -12 -4 -19 -1 -8 3 -5 6 6 6 11 1
17 -2 13 -5z m48 -4 c3 -5 -1 -10 -9 -10 -9 0 -16 5 -16 10 0 6 4 10 9 10 6 0
13 -4 16 -10z m576 -31 c-9 -22 -10 -22 -10 -3 -1 11 2 24 6 27 12 12 14 0 4
-24z m-7826 -24 c0 -20 -7 -30 -22 -36 -19 -7 -23 -5 -23 12 0 29 19 61 33 56
7 -2 12 -16 12 -32z m5569 -9 c13 -28 16 -43 9 -59 -9 -19 -12 -15 -31 36 -26
67 -26 70 -9 65 6 -2 20 -21 31 -42z m1733 38 c-3 -3 -12 -4 -19 -1 -8 3 -5 6
6 6 11 1 17 -2 13 -5z m33 -4 c0 -5 -5 -10 -11 -10 -5 0 -7 5 -4 10 3 6 8 10
11 10 2 0 4 -4 4 -10z m-7270 -50 c-6 -12 -14 -19 -17 -17 -2 3 1 15 7 27 6
12 14 19 17 17 2 -3 -1 -15 -7 -27z m5043 -2 c6 -21 2 -36 -7 -27 -10 11 -16
49 -8 49 5 0 12 -10 15 -22z m2725 -33 c-3 -3 -9 2 -12 12 -6 14 -5 15 5 6 7
-7 10 -15 7 -18z m-2813 -35 c3 -6 -1 -7 -9 -4 -18 7 -21 14 -7 14 6 0 13 -4
16 -10z m2042 -15 c0 -8 -4 -12 -9 -9 -5 3 -6 10 -3 15 9 13 12 11 12 -6z
m150 -1 c-3 -3 -12 -4 -19 -1 -8 3 -5 6 6 6 11 1 17 -2 13 -5z m-7142 -25 c11
-17 -1 -21 -15 -4 -8 9 -8 15 -2 15 6 0 14 -5 17 -11z m-75 -14 c0 -8 5 -15
10 -15 6 0 10 -4 10 -9 0 -14 -30 -7 -41 10 -13 20 -11 29 6 29 8 0 15 -7 15
-15z m-843 -1 c30 -8 19 -24 -17 -24 -29 0 -45 12 -33 24 8 7 21 8 50 0z
m6038 -44 c3 -5 -3 -10 -14 -10 -12 0 -21 5 -21 10 0 6 6 10 14 10 8 0 18 -4
21 -10z m1802 -92 c-3 -8 -6 -5 -6 6 -1 11 2 17 5 13 3 -3 4 -12 1 -19z
m-8276 -2 c5 3 9 -6 9 -20 0 -13 5 -26 11 -28 7 -2 6 -17 -3 -46 -10 -34 -17
-42 -37 -42 -17 0 -22 4 -17 16 3 9 6 29 6 45 0 19 5 29 15 29 8 0 15 8 15 18
0 14 -2 15 -10 2 -7 -11 -10 -8 -9 15 0 17 3 24 6 17 2 -6 9 -10 14 -6z m1469
-49 c0 -6 -9 -2 -20 8 -11 10 -20 23 -20 28 0 6 9 2 20 -8 11 -10 20 -23 20
-28z m5699 -13 c39 -15 71 -30 71 -35 0 -14 -57 -39 -106 -46 -36 -5 -48 -11
-55 -30 -7 -20 -12 -22 -28 -13 -25 13 -41 13 -41 0 0 -5 10 -10 23 -10 12 0
29 -5 37 -10 22 -14 -27 -13 -71 1 -66 22 -65 35 9 105 37 35 72 63 79 64 6 0
44 -12 82 -26z m-6237 -54 c-2 -19 -9 -38 -15 -42 -23 -15 -37 -8 -37 17 0 33
21 66 40 62 11 -2 14 -12 12 -37z m115 -22 c-3 -7 -5 -2 -5 12 0 14 2 19 5 13
2 -7 2 -19 0 -25z m-682 2 c14 0 16 -3 8 -11 -13 -13 -73 -2 -73 13 0 6 10 8
23 4 12 -3 31 -6 42 -6z m598 -10 c-5 -19 -23 -29 -23 -12 0 7 20 32 26 32 1
0 0 -9 -3 -20z m47 10 c0 -5 -5 -10 -11 -10 -5 0 -7 5 -4 10 3 6 8 10 11 10 2
0 4 -4 4 -10z m7370 -50 c-8 -5 -19 -10 -25 -10 -5 0 -3 5 5 10 8 5 20 10 25
10 6 0 3 -5 -5 -10z m-8356 -125 c13 -14 28 -25 34 -25 5 0 12 -7 16 -15 3 -8
17 -20 31 -27 20 -9 25 -18 25 -50 0 -21 4 -38 10 -38 8 0 26 -66 22 -82 -1
-5 2 -8 7 -8 4 0 16 -19 25 -43 21 -55 80 -117 135 -141 36 -17 49 -18 84 -8
36 10 44 9 54 -6 7 -9 17 -22 23 -29 15 -18 -40 -53 -85 -53 -20 0 -49 7 -66
15 -33 18 -49 13 -49 -14 0 -18 52 -71 74 -75 6 -1 21 -6 34 -10 13 -4 46 -2
74 5 41 9 62 23 104 65 55 56 86 69 79 34 -5 -26 32 -28 51 -2 12 15 12 15 7
-7 -6 -23 12 -45 29 -35 14 9 9 54 -7 60 -13 5 -13 10 2 35 l17 29 33 -32 c23
-22 36 -28 45 -21 7 5 29 8 48 7 43 -2 43 -5 -8 -114 -16 -35 -21 -40 -21 -22
-1 34 -35 25 -39 -11 -2 -19 1 -27 13 -27 14 0 14 -3 0 -30 -21 -42 -59 -95
-94 -135 -39 -45 -120 -107 -131 -100 -5 3 -12 0 -15 -5 -9 -15 -49 -29 -98
-35 -105 -13 -259 94 -331 227 -32 60 -30 83 9 98 14 5 25 16 25 24 0 9 7 12
20 9 14 -4 20 0 20 10 0 10 6 13 20 10 17 -4 20 0 20 25 0 38 -15 49 -31 23
-7 -10 -18 -17 -26 -14 -7 3 -16 -2 -19 -11 -3 -9 -10 -13 -15 -11 -4 3 -14
-3 -21 -15 -7 -11 -21 -20 -30 -20 -12 0 -18 -8 -18 -22 -1 -28 -45 72 -59
131 -7 33 -6 41 5 41 8 0 14 6 15 13 0 10 2 10 6 0 6 -16 33 -17 33 -2 0 8 4
8 14 0 9 -8 16 -8 20 -2 4 6 14 7 22 4 17 -6 34 12 34 39 0 13 -8 17 -40 15
-22 -1 -40 -6 -40 -11 0 -6 -5 -5 -12 2 -17 17 -28 15 -28 -4 0 -14 -3 -14
-16 -3 -13 10 -17 10 -24 -1 -12 -20 -15 -15 -33 73 -24 111 -24 111 20 102
21 -4 41 -11 44 -17 4 -6 12 -7 18 -4 6 4 11 2 11 -3 0 -16 29 -13 45 3 12 12
12 16 -3 29 -9 8 -23 12 -29 10 -7 -3 -13 0 -13 6 0 6 -9 11 -19 11 -11 0 -23
5 -26 11 -4 6 -13 8 -21 5 -8 -3 -14 1 -14 9 0 21 -30 19 -31 -2 -3 -31 -17
89 -18 149 -1 37 3 58 12 61 6 2 13 -2 15 -10 2 -7 14 -25 26 -38z m956 36 c0
-12 -8 -17 -45 -25 -22 -5 -26 -4 -15 4 12 8 11 10 -7 10 -13 0 -23 5 -23 10
0 6 20 10 45 10 25 0 45 -4 45 -9z m-711 -186 c22 -31 41 -65 41 -76 0 -12 8
-23 18 -26 16 -4 52 -50 52 -67 0 -10 -55 15 -77 36 -12 11 -19 27 -16 37 4
12 2 13 -4 3 -13 -17 -23 -4 -57 71 -25 53 -27 77 -7 77 5 0 27 -25 50 -55z
m167 48 c-10 -11 -36 -12 -36 -2 0 5 10 9 22 9 12 0 18 -3 14 -7z m731 -31
c16 -10 -6 -56 -30 -60 -20 -4 -24 37 -5 56 14 14 19 14 35 4z m68 -49 c-28
-20 -41 -16 -20 7 10 11 22 17 28 13 6 -4 3 -12 -8 -20z m22 -95 c-3 -8 -6 -5
-6 6 -1 11 2 17 5 13 3 -3 4 -12 1 -19z m-20 -19 c2 -17 -1 -18 -12 -9 -8 7
-12 16 -9 21 9 16 20 10 21 -12z m-79 -1 c7 -7 12 -20 12 -31 0 -30 -34 -16
-38 16 -4 29 6 35 26 15z"/>
<path d="M10953 14553 c9 -2 25 -2 35 0 9 3 1 5 -18 5 -19 0 -27 -2 -17 -5z"/>
<path d="M6954 13695 c5 -15 -4 -19 -64 -28 -14 -3 -1 -5 28 -6 28 0 52 3 52
8 0 5 3 16 6 25 4 11 1 16 -11 16 -11 0 -15 -5 -11 -15z"/>
<path d="M7160 13634 c0 -3 7 -12 15 -21 8 -8 13 -19 10 -24 -4 -5 -1 -9 4 -9
6 0 14 0 19 0 4 0 7 4 7 9 0 5 3 12 7 16 14 14 -5 35 -33 35 -16 0 -29 -3 -29
-6z"/>
<path d="M7133 13600 c-13 -5 -23 -11 -23 -14 0 -7 40 6 46 15 6 10 6 10 -23
-1z"/>
<path d="M6867 13594 c-16 -16 9 -24 61 -18 88 10 97 23 16 24 -39 0 -74 -3
-77 -6z"/>
<path d="M6770 13558 c-14 -6 -20 -12 -13 -15 7 -2 23 3 35 11 25 18 15 20
-22 4z"/>
<path d="M7226 13543 c-11 -11 -6 -23 9 -23 8 0 15 4 15 9 0 13 -16 22 -24 14z"/>
<path d="M7364 13415 c10 -8 23 -12 29 -8 11 7 -12 23 -33 23 -12 -1 -11 -4 4
-15z"/>
<path d="M6947 13325 c-10 -14 -24 -25 -32 -25 -8 0 -15 -4 -15 -10 0 -5 8
-10 18 -9 33 2 67 15 67 26 0 6 3 15 7 19 4 4 5 11 2 15 -9 16 -29 9 -47 -16z"/>
<path d="M7205 13322 c14 -14 54 -19 57 -7 2 6 -13 11 -32 13 -23 2 -32 0 -25
-6z"/>
<path d="M7040 13307 c1 -7 11 -25 24 -40 20 -25 24 -26 36 -12 11 13 10 18
-6 33 -26 25 -54 34 -54 19z"/>
<path d="M6266 13239 c4 -41 10 -75 15 -77 7 -3 32 -78 44 -134 4 -23 11 -28
34 -28 37 0 62 -10 55 -21 -3 -5 6 -9 21 -9 34 0 38 16 25 91 -22 119 -99 231
-169 245 l-32 7 7 -74z"/>
<path d="M6750 13253 c-18 -7 -69 -55 -70 -66 0 -15 75 5 97 26 17 15 20 23
12 34 -12 14 -16 14 -39 6z"/>
<path d="M7298 13206 c-10 -7 -18 -18 -18 -25 0 -6 -3 -11 -7 -11 -5 0 -13
-11 -19 -24 -9 -19 -8 -25 7 -35 24 -15 29 -14 29 4 0 17 36 20 46 4 3 -6 26
-20 50 -30 38 -17 43 -23 39 -47 -2 -15 -7 -48 -10 -74 -8 -60 -49 -108 -93
-108 -17 0 -33 6 -36 13 -3 6 -3 2 -1 -9 4 -14 0 -24 -10 -28 -30 -11 -4 -26
44 -26 26 0 52 -5 57 -10 7 -7 23 -1 49 20 21 16 43 30 50 30 25 0 35 72 13
87 -7 4 -14 19 -16 33 -3 24 -3 35 -2 78 1 64 -2 87 -16 114 -13 25 -18 27
-31 17 -13 -11 -18 -10 -29 6 -8 10 -14 22 -14 27 0 13 -63 9 -82 -6z"/>
<path d="M7004 13058 c-10 -16 4 -22 28 -11 l22 10 -22 5 c-12 4 -25 2 -28 -4z"/>
<path d="M7346 12967 c3 -10 9 -15 12 -12 3 3 0 11 -7 18 -10 9 -11 8 -5 -6z"/>
<path d="M7611 12913 c0 -21 3 -56 7 -77 6 -31 9 -36 19 -25 14 18 3 131 -14
137 -9 2 -13 -8 -12 -35z"/>
<path d="M6190 12863 c0 -10 7 -29 16 -41 8 -12 12 -22 8 -22 -4 0 0 -8 9 -18
10 -10 15 -21 12 -24 -3 -3 2 -8 11 -12 15 -6 15 -4 2 16 -8 13 -20 42 -28 66
-15 47 -30 64 -30 35z"/>
<path d="M7500 12825 c0 -5 5 -17 10 -25 5 -8 10 -10 10 -5 0 6 -5 17 -10 25
-5 8 -10 11 -10 5z"/>
<path d="M7030 12800 c0 -5 11 -10 25 -10 14 0 25 5 25 10 0 6 -11 10 -25 10
-14 0 -25 -4 -25 -10z"/>
<path d="M6680 12515 c0 -2 10 -10 23 -16 20 -11 21 -11 8 4 -13 16 -31 23
-31 12z"/>
<path d="M7272 12254 c-7 -8 -8 -14 -3 -14 10 0 25 19 20 25 -2 1 -10 -3 -17
-11z"/>
<path d="M6681 12217 c2 -1 13 -9 24 -17 19 -14 19 -14 6 3 -7 9 -18 17 -24
17 -6 0 -8 -1 -6 -3z"/>
<path d="M6686 12159 c20 -22 34 -24 34 -5 0 7 -11 16 -25 19 -25 4 -25 4 -9
-14z"/>
<path d="M6752 12114 c10 -10 20 -16 22 -13 3 3 -5 11 -17 18 -21 13 -21 12
-5 -5z"/>
<path d="M6930 12110 c20 -13 53 -13 45 0 -3 6 -18 10 -33 10 -21 0 -24 -2
-12 -10z"/>
<path d="M7075 12100 c3 -5 13 -10 21 -10 8 0 12 5 9 10 -3 6 -13 10 -21 10
-8 0 -12 -4 -9 -10z"/>
<path d="M6837 11559 c7 -7 15 -10 18 -7 3 3 -2 9 -12 12 -14 6 -15 5 -6 -5z"/>
<path d="M6141 11054 c0 -11 3 -14 6 -6 3 7 2 16 -1 19 -3 4 -6 -2 -5 -13z"/>
<path d="M6066 10700 c-36 -150 -41 -178 -31 -168 16 16 86 318 74 318 -4 0
-23 -68 -43 -150z"/>
<path d="M6046 10499 c-15 -56 -25 -103 -23 -105 2 -2 13 31 25 74 28 99 35
132 30 132 -3 0 -17 -46 -32 -101z"/>
<path d="M6800 3239 c-14 -24 -6 -49 14 -49 18 0 26 22 19 49 -7 27 -19 27
-33 0z"/>
<path d="M6713 3183 c-7 -3 -13 -18 -13 -35 0 -23 4 -29 16 -24 9 3 18 6 20 6
7 0 4 49 -3 53 -5 2 -14 2 -20 0z"/>
<path d="M6614 3156 c-9 -23 0 -50 17 -54 25 -5 31 46 8 59 -15 7 -21 6 -25
-5z"/>
<path d="M6317 3143 c-4 -3 -7 -15 -7 -25 0 -10 -6 -18 -14 -18 -16 0 -29 -27
-20 -41 3 -5 0 -9 -5 -9 -6 0 -11 8 -11 18 -1 10 -6 5 -14 -13 -7 -16 -11 -36
-8 -42 7 -20 33 -15 39 7 3 11 9 20 14 20 5 0 14 12 19 26 6 14 14 22 20 19
11 -7 25 39 15 54 -7 12 -19 14 -28 4z"/>
<path d="M6528 3096 c-22 -22 -23 -56 -3 -56 19 0 28 20 23 51 -3 22 -4 22
-20 5z"/>
<path d="M6417 3093 c-4 -3 -7 -16 -7 -29 0 -12 -7 -24 -15 -28 -8 -3 -15 -17
-15 -31 0 -20 4 -26 18 -23 12 3 16 12 15 31 -1 21 3 27 18 27 19 0 24 15 13
44 -7 17 -16 20 -27 9z"/>
<path d="M6706 3093 c-8 -8 -8 -48 1 -56 10 -10 33 13 33 33 0 18 -23 34 -34
23z"/>
<path d="M6607 3074 c-4 -4 -7 -18 -7 -31 0 -18 5 -24 18 -21 10 2 17 12 17
27 0 24 -15 37 -28 25z"/>
<path d="M6490 3006 c0 -14 5 -28 11 -32 17 -10 32 12 24 35 -9 29 -35 27 -35
-3z"/>
<path d="M6701 3011 c-17 -11 -5 -51 15 -51 8 0 14 10 14 24 0 29 -10 38 -29
27z"/>
<path d="M6204 2996 c-8 -22 3 -49 19 -43 6 2 12 14 12 27 0 27 -22 39 -31 16z"/>
<path d="M6590 2970 c0 -19 5 -30 14 -30 19 0 29 30 15 46 -18 22 -29 16 -29
-16z"/>
<path d="M6354 2955 c-8 -30 -1 -40 21 -31 10 3 15 15 13 28 -4 31 -26 34 -34
3z"/>
<path d="M6475 2947 c-15 -38 9 -66 29 -35 8 14 7 21 -6 35 -16 15 -18 15 -23
0z"/>
<path d="M6326 2913 c-8 -8 -8 -48 1 -56 10 -10 33 13 33 33 0 18 -23 34 -34
23z"/>
<path d="M6577 2914 c-4 -4 -7 -18 -7 -31 0 -18 5 -24 18 -21 10 2 17 12 17
27 0 24 -15 37 -28 25z"/>
<path d="M6445 2870 c-9 -15 4 -50 20 -50 13 0 28 38 19 52 -7 11 -32 10 -39
-2z"/>
<path d="M10687 15485 c-21 -12 -46 -30 -55 -40 -16 -18 -15 -18 13 0 59 36
100 65 90 64 -6 0 -27 -11 -48 -24z"/>
<path d="M9169 14973 c-13 -17 -13 -17 6 -3 11 8 22 16 24 17 2 2 0 3 -6 3 -6
0 -17 -8 -24 -17z"/>
<path d="M6538 14835 c-6 -14 -16 -25 -22 -26 -6 -1 -20 -2 -31 -2 -11 -1 -21
-6 -23 -11 -3 -11 48 -15 100 -8 30 3 35 7 28 21 -5 9 -11 24 -14 34 -8 24
-25 21 -38 -8z"/>
<path d="M8557 14794 c-5 -5 -1092 -28 -1207 -26 -8 0 -143 -4 -300 -9 -600
-18 -971 -22 -968 -9 2 7 -3 15 -9 17 -7 3 -13 -2 -13 -9 0 -10 -20 -15 -80
-17 -51 -1 -92 -9 -117 -21 -42 -20 -39 -3 -43 -240 -3 -146 7 -195 38 -186 9
3 295 8 634 11 340 3 623 7 630 9 7 3 139 7 293 10 900 17 1352 27 1363 31 7
3 11 9 8 14 -3 5 -59 7 -124 5 -64 -2 -373 -8 -687 -14 -313 -6 -626 -13 -695
-16 -69 -2 -334 -7 -590 -9 -256 -2 -545 -7 -642 -10 -122 -4 -178 -3 -178 4
0 6 -7 11 -16 11 -14 0 -15 11 -9 88 4 48 7 119 8 157 3 117 -6 113 253 119
120 3 370 8 554 12 363 6 389 7 1085 23 922 21 1043 21 1049 5 8 -22 7 -162
-2 -204 -4 -19 -4 -64 -1 -100 3 -36 6 -59 7 -52 1 6 8 12 16 12 8 0 18 5 22
11 4 8 -1 9 -17 5 -13 -3 -18 -3 -11 0 9 4 12 41 12 134 0 71 4 140 10 154 6
17 6 26 0 26 -6 0 -10 8 -10 19 0 37 -27 46 -146 47 -63 0 -115 -1 -117 -2z"/>
<path d="M8490 14680 c-27 -50 20 -85 99 -74 55 7 91 28 91 52 0 33 -22 42
-102 42 -68 0 -79 -3 -88 -20z"/>
<path d="M6186 14625 c-9 -34 7 -59 36 -60 29 0 38 12 38 53 0 30 -2 32 -34
32 -28 0 -35 -4 -40 -25z"/>
<path d="M8683 14333 c9 -2 23 -2 30 0 6 3 -1 5 -18 5 -16 0 -22 -2 -12 -5z"/>
<path d="M8485 14320 c-3 -5 -1 -10 4 -10 6 0 11 5 11 10 0 6 -2 10 -4 10 -3
0 -8 -4 -11 -10z"/>
<path d="M12108 14298 c5 -5 16 -8 23 -6 8 3 3 7 -10 11 -17 4 -21 3 -13 -5z"/>
<path d="M12216 14266 c-22 -6 -41 -17 -44 -25 -5 -14 12 -11 73 13 41 17 19
26 -29 12z"/>
<path d="M8258 13883 c12 -2 32 -2 45 0 12 2 2 4 -23 4 -25 0 -35 -2 -22 -4z"/>
<path d="M8530 13596 c0 -8 4 -17 9 -20 10 -7 23 19 14 28 -11 11 -23 6 -23
-8z"/>
<path d="M8351 11857 c-6 -29 -17 -76 -22 -105 l-11 -53 -22 19 c-40 35 -95
64 -114 58 -28 -9 -22 -33 15 -62 18 -14 33 -32 33 -40 0 -12 11 -14 52 -12
l52 3 23 90 c12 50 23 102 23 117 0 47 -16 39 -29 -15z"/>
<path d="M5022 11608 c-24 -30 -12 -78 20 -78 16 0 18 3 9 14 -12 14 -11 42 2
64 5 7 3 12 -6 12 -8 0 -19 -6 -25 -12z"/>
<path d="M5498 11578 c-15 -15 -15 -17 -1 -22 20 -8 25 -3 21 21 -3 17 -4 17
-20 1z"/>
<path d="M15083 10114 c-8 -21 6 -217 16 -227 10 -10 55 45 70 86 19 50 14
105 -14 132 -27 28 -63 33 -72 9z"/>
<path d="M14595 9740 c-3 -5 3 -27 15 -49 11 -22 20 -47 20 -55 0 -23 17 -28
34 -10 20 20 21 73 0 102 -15 22 -58 30 -69 12z"/>
<path d="M14773 9703 c-15 -10 -23 -26 -23 -43 0 -15 -7 -46 -15 -69 l-14 -41
27 20 c29 21 56 92 50 128 -3 18 -5 19 -25 5z"/>
<path d="M7878 8973 c7 -3 16 -2 19 1 4 3 -2 6 -13 5 -11 0 -14 -3 -6 -6z"/>
<path d="M7940 8971 c0 -18 19 -22 112 -26 51 -2 102 -6 113 -10 17 -5 17 -5
4 4 -44 28 -229 54 -229 32z"/>
<path d="M8302 8823 c10 -25 8 -47 -6 -110 -10 -43 -22 -100 -27 -128 -6 -27
-16 -68 -24 -90 -27 -79 -66 -269 -60 -293 8 -33 19 -18 34 48 7 30 16 66 20
80 5 14 14 50 21 80 18 82 70 274 76 279 2 2 33 -27 69 -64 36 -38 65 -66 65
-62 0 21 -34 67 -84 117 -48 46 -56 60 -56 91 0 22 -8 46 -20 60 l-19 24 11
-32z"/>
</g>
</svg>
