<?xml version="1.0" standalone="no"?>
<!DOCTYPE svg PUBLIC "-//W3C//DTD SVG 20010904//EN"
 "http://www.w3.org/TR/2001/REC-SVG-20010904/DTD/svg10.dtd">
<svg version="1.0" xmlns="http://www.w3.org/2000/svg"
 width="1749.000000pt" height="1863.000000pt" viewBox="0 0 1749.000000 1863.000000"
 preserveAspectRatio="xMidYMid meet">

<g transform="translate(0.000000,1863.000000) scale(0.100000,-0.100000)"
fill="#ff0000" stroke="none">
<path d="M12325 17670 c-122 -25 -241 -94 -334 -196 -268 -293 -231 -779 78
-1011 31 -24 62 -43 70 -43 8 0 11 -6 7 -17 -4 -13 -1 -12 13 5 22 25 105 264
110 315 1 4 24 7 51 7 42 0 50 -3 50 -19 0 -19 -29 -50 -39 -41 -3 3 -7 -6 -9
-20 -2 -14 -14 -65 -28 -115 -26 -98 -30 -130 -13 -120 21 14 60 -6 71 -35 10
-29 12 -30 72 -30 273 0 522 234 582 546 68 356 -139 701 -461 769 -76 16
-156 18 -220 5z m351 -161 c19 -11 34 -25 34 -30 0 -19 40 -8 60 18 l21 26 39
-38 c43 -42 106 -155 136 -245 15 -43 19 -85 19 -195 0 -164 -13 -220 -54
-231 -38 -10 -260 -5 -282 6 -10 6 -26 10 -37 10 -11 0 -36 12 -57 26 l-38 25
-66 -16 c-36 -9 -80 -20 -97 -26 -51 -15 -201 -11 -240 7 -51 24 -69 82 -69
219 1 129 26 226 81 312 39 62 80 90 144 99 25 3 83 19 130 35 74 26 95 29
163 25 56 -4 89 -12 113 -27z m-273 -756 c-7 -2 -19 -2 -25 0 -7 3 -2 5 12 5
14 0 19 -2 13 -5z m-66 -9 c-3 -3 -12 -4 -19 -1 -8 3 -5 6 6 6 11 1 17 -2 13
-5z m357 -11 c4 -4 36 -6 72 -5 56 3 64 1 64 -15 0 -10 11 -23 24 -29 21 -10
25 -9 29 7 3 11 10 19 16 19 14 0 -60 -126 -106 -179 -41 -49 -135 -113 -190
-132 -32 -10 -37 -9 -63 16 l-29 28 56 33 c30 19 57 34 59 34 2 0 14 9 27 21
18 15 23 29 21 55 -3 38 12 47 19 12 2 -13 2 9 -1 47 -2 39 -9 76 -15 83 -10
13 4 17 17 5z m-76 -20 c-27 -2 -69 -2 -95 0 -27 2 -5 3 47 3 52 0 74 -1 48
-3z m-379 -7 c-12 -10 -99 -16 -99 -7 0 7 22 11 52 11 28 0 49 -2 47 -4z
m-187 -87 c-4 -99 -20 -94 -29 9 -5 66 -4 72 13 72 17 0 19 -7 16 -81z m61 74
c-7 -2 -21 -2 -30 0 -10 3 -4 5 12 5 17 0 24 -2 18 -5z m33 -239 c19 -15 19
-16 -1 -8 -11 3 -29 6 -40 6 -16 -1 -17 1 -5 8 20 13 23 13 46 -6z"/>
<path d="M5660 17444 c-129 -25 -246 -90 -334 -184 -68 -74 -140 -216 -161
-318 -47 -229 15 -461 163 -609 74 -75 109 -103 129 -103 7 0 13 -4 13 -10 0
-5 7 -10 15 -10 9 0 24 -19 35 -44 22 -53 24 -55 175 -178 763 -620 695 -559
696 -616 l1 -47 8 40 c5 25 4 50 -4 66 -6 14 -86 86 -177 160 -272 220 -623
506 -651 532 -49 45 -52 81 -23 232 14 75 23 145 20 155 -6 18 -2 20 42 19 35
0 42 -3 28 -8 -11 -5 -24 -6 -29 -3 -5 3 -6 0 -1 -7 4 -8 17 -10 32 -6 18 4
24 2 20 -7 -2 -7 -11 -12 -21 -10 -13 2 -16 -6 -16 -45 0 -63 -17 -181 -31
-215 -8 -20 -7 -32 2 -50 7 -12 12 -26 12 -29 -1 -4 8 -15 20 -25 18 -16 20
-16 8 -1 -7 9 -9 17 -3 17 13 0 33 -25 26 -32 -3 -4 28 -32 68 -64 40 -32 89
-72 109 -89 109 -93 144 -121 164 -135 12 -8 68 -53 125 -100 57 -47 144 -119
194 -160 50 -41 98 -84 107 -94 16 -19 16 -19 21 1 5 17 -28 48 -189 179 -107
87 -201 159 -209 160 -21 3 -245 185 -239 194 3 5 -36 41 -86 81 -77 61 -88
74 -73 80 17 7 17 8 -3 8 -21 1 -43 27 -43 50 0 6 19 11 43 11 77 0 168 30
276 90 19 11 37 18 39 16 2 -2 6 -22 8 -45 6 -46 -5 -57 -103 -97 -70 -28 -58
-31 20 -5 177 61 325 237 378 450 30 119 24 303 -14 409 -34 99 -80 174 -148
243 -65 65 -120 100 -203 129 -58 20 -188 33 -236 24z m258 -145 c27 -5 65
-21 83 -35 36 -26 75 -32 82 -11 7 20 62 -39 97 -105 17 -32 40 -89 51 -126
26 -88 34 -250 17 -322 l-13 -55 -55 0 c-30 -1 -88 -7 -127 -14 -82 -14 -178
-2 -200 26 -11 14 -23 12 -116 -11 -72 -18 -131 -26 -188 -26 -139 0 -168 28
-176 171 -7 125 9 226 52 314 56 116 97 148 205 160 36 4 67 11 70 16 6 9 92
26 142 28 15 0 49 -4 76 -10z m8 -787 c-5 -9 -146 -6 -154 3 -3 3 32 5 77 5
45 0 80 -4 77 -8z m-391 -12 c-3 -5 -42 -10 -86 -10 l-79 0 0 -70 c0 -38 -4
-70 -9 -70 -5 0 -13 33 -18 73 l-8 72 35 6 c61 11 172 10 165 -1z m632 -12
c-3 -8 -6 -5 -6 6 -1 11 2 17 5 13 3 -3 4 -12 1 -19z m-177 -39 c0 -6 -4 -7
-10 -4 -5 3 -10 11 -10 16 0 6 5 7 10 4 6 -3 10 -11 10 -16z m147 -20 c-11
-22 -24 -39 -28 -39 -12 0 -26 24 -31 52 -5 26 -3 27 37 26 l43 0 -21 -39z
m-167 -36 c0 -43 -5 -41 -13 5 -4 18 -2 32 3 32 6 0 10 -16 10 -37z m-475
-143 c8 -13 -5 -13 -25 0 -13 8 -13 10 2 10 9 0 20 -4 23 -10z m191 -155 c9
-8 11 -15 6 -15 -5 0 -15 7 -22 15 -7 8 -9 15 -6 15 4 0 14 -7 22 -15z m79
-62 c31 -29 34 -33 10 -18 -37 23 -72 55 -59 55 5 -1 27 -17 49 -37z"/>
<path d="M12109 16363 c-13 -16 -12 -17 4 -4 9 7 17 15 17 17 0 8 -8 3 -21
-13z"/>
<path d="M12268 16363 c6 -2 18 -2 25 0 6 3 1 5 -13 5 -14 0 -19 -2 -12 -5z"/>
<path d="M5561 16199 c-1 -8 6 -24 15 -35 15 -19 15 -19 6 1 -5 11 -12 27 -15
35 -5 13 -6 13 -6 -1z"/>
<path d="M5763 16163 c9 -2 23 -2 30 0 6 3 -1 5 -18 5 -16 0 -22 -2 -12 -5z"/>
<path d="M11453 15889 c-35 -22 -46 -37 -15 -20 22 13 58 40 52 41 -3 0 -20
-10 -37 -21z"/>
<path d="M11334 15814 c-18 -14 -18 -15 4 -4 12 6 22 13 22 15 0 8 -5 6 -26
-11z"/>
<path d="M8437 15696 c-12 -12 -87 -17 -388 -25 -342 -10 -375 -9 -386 6 -18
24 -160 12 -182 -15 -9 -11 -34 -25 -56 -32 -72 -23 -133 -59 -201 -120 -38
-33 -72 -60 -76 -60 -19 0 -99 -127 -118 -187 -21 -70 -27 -149 -10 -155 6 -2
11 -21 12 -43 0 -28 11 -54 34 -88 19 -26 34 -54 34 -63 0 -10 6 -14 18 -10 9
3 217 8 462 11 245 4 564 11 710 15 146 5 379 9 519 9 139 1 257 3 261 6 10 6
73 -16 83 -29 7 -11 1 -192 -10 -286 -3 -25 -7 -73 -10 -106 -8 -104 5 -100
-324 -108 -459 -11 -1192 -24 -1719 -31 -146 -2 -428 -6 -626 -10 -328 -6
-363 -5 -378 10 -17 18 -17 78 1 345 4 58 6 108 5 113 -1 4 5 7 13 7 8 0 15 6
15 14 0 18 152 29 327 24 72 -2 119 1 115 6 -3 5 2 6 12 3 10 -4 15 -3 11 3
-10 15 5 50 20 50 8 0 19 8 24 18 18 30 12 3 -8 -38 -21 -44 -15 -55 21 -41
17 7 18 10 6 10 -21 1 -23 20 -5 44 8 12 29 19 59 20 26 2 51 6 54 10 15 15
24 6 18 -17 -5 -21 -3 -24 14 -19 30 7 36 34 13 56 -18 18 -24 19 -80 8 -34
-7 -66 -9 -71 -6 -5 3 -7 25 -4 49 6 41 4 44 -36 79 -23 20 -62 45 -86 56 -38
18 -45 26 -50 61 -6 37 -9 41 -45 46 -23 4 -40 13 -42 23 -4 13 -5 13 -6 -3 0
-10 -22 -46 -47 -81 l-46 -63 -136 -21 c-75 -12 -139 -25 -143 -29 -4 -4 -16
-56 -28 -117 -12 -60 -23 -111 -25 -112 -2 -2 -53 0 -115 5 -84 7 -116 13
-131 27 -42 38 -103 8 -120 -59 -7 -25 -43 -36 -240 -76 -259 -53 -631 -90
-897 -90 l-113 0 -29 32 c-58 65 -161 29 -161 -56 0 -71 80 -118 137 -81 23
16 57 18 279 19 139 1 250 -2 246 -5 -9 -9 -130 -29 -169 -29 -38 0 -180 -101
-194 -137 -21 -55 -3 -139 37 -175 23 -20 133 -62 141 -54 4 3 0 6 -8 6 -17 1
-54 49 -44 58 4 4 14 -2 22 -13 15 -19 15 -19 9 7 -6 26 -5 26 67 35 42 5 77
5 84 0 7 -5 55 -10 107 -10 88 -2 118 -8 103 -23 -8 -8 -78 -21 -185 -34 -112
-13 -142 -20 -142 -30 0 -15 33 -16 90 -3 30 6 115 19 189 27 73 9 148 20 165
26 41 13 371 60 424 60 23 0 62 5 86 12 43 11 44 12 29 34 -8 13 -13 31 -10
41 4 17 5 16 12 -2 4 -11 15 -28 23 -38 15 -17 17 -43 13 -210 -1 -61 -3 -70
-22 -74 -29 -8 -39 -42 -39 -139 l0 -84 73 -36 72 -37 113 15 c62 9 115 18
118 21 3 2 7 50 11 107 6 93 8 102 28 110 31 12 35 28 35 134 l0 93 73 11
c348 53 440 62 450 45 3 -5 -1 -39 -9 -78 -18 -96 -17 -153 5 -202 23 -49 85
-119 141 -158 l40 -28 -80 -83 c-44 -46 -96 -109 -116 -141 -79 -122 -133
-273 -149 -418 -4 -33 -11 -64 -15 -70 -10 -15 4 -135 29 -253 23 -111 52
-196 96 -281 33 -66 32 -70 -41 -293 -50 -150 -58 -167 -84 -178 -33 -14 -41
-31 -74 -163 -18 -70 -23 -104 -16 -121 12 -32 -8 -84 -34 -92 -11 -4 -114 -6
-228 -6 -137 0 -210 -3 -215 -10 -4 -7 -1 -8 7 -3 10 6 12 -2 6 -44 -4 -28 -9
-58 -12 -65 -8 -22 -60 -26 -302 -23 -197 3 -222 1 -220 -12 4 -22 422 -51
695 -48 111 1 204 0 207 -3 2 -3 -41 -140 -98 -305 -94 -275 -148 -421 -341
-924 -36 -95 -64 -180 -61 -188 3 -8 2 -12 -2 -9 -17 11 -93 -263 -117 -422
-27 -180 -15 -330 39 -463 18 -43 25 -73 20 -92 l-6 -29 -396 3 c-378 3 -399
2 -436 -16 -22 -11 -48 -31 -58 -45 -21 -29 -168 -568 -168 -616 0 -42 52 -94
135 -135 36 -18 64 -37 62 -43 -2 -6 -46 -169 -98 -362 l-93 -351 -91 -11
c-513 -64 -985 -384 -1348 -917 -119 -176 -268 -451 -318 -588 -12 -33 -11
-39 1 -47 20 -13 77 -12 120 0 67 19 204 31 281 24 l77 -6 -53 -109 c-46 -96
-59 -114 -107 -151 -42 -32 -60 -54 -72 -88 -21 -58 -20 -73 4 -95 26 -23 25
-30 -10 -144 -31 -102 -91 -337 -110 -436 -9 -47 -20 -68 -51 -100 -33 -34
-39 -49 -45 -99 -7 -56 -6 -61 19 -80 l27 -21 -15 -120 c-19 -155 -35 -385
-35 -502 0 -90 0 -92 -30 -113 -28 -20 -30 -26 -30 -83 0 -55 3 -64 31 -93 30
-31 31 -34 40 -170 10 -151 33 -346 54 -464 l14 -75 -29 -26 c-30 -25 -30 -26
-19 -84 9 -50 17 -64 55 -99 41 -37 47 -50 70 -136 22 -85 93 -302 125 -387
11 -27 10 -36 -11 -75 -23 -44 -23 -45 -5 -92 14 -36 32 -58 76 -92 32 -24 64
-44 72 -44 7 0 33 -33 57 -72 24 -40 69 -108 101 -151 l57 -79 -21 -57 -21
-58 25 -30 c61 -75 230 -153 332 -153 16 0 42 -8 58 -17 28 -16 29 -21 24 -63
-3 -25 -8 -55 -11 -68 -4 -21 6 -28 98 -72 106 -50 274 -120 289 -120 5 0 9
11 9 24 0 40 12 86 23 86 6 0 7 -22 3 -59 l-7 -59 58 -22 c142 -53 475 -132
613 -145 237 -22 310 -28 435 -32 210 -7 522 22 733 67 52 12 52 12 52 50 0
41 14 61 24 34 3 -9 6 -27 6 -40 0 -13 4 -24 8 -24 15 0 187 51 295 87 l107
36 0 59 c0 43 4 60 15 64 8 4 13 10 10 14 -3 5 0 12 6 15 6 4 13 -2 16 -14 4
-17 13 -21 42 -21 96 1 260 60 330 120 23 19 23 22 11 85 l-12 65 64 68 c35
37 79 87 98 110 19 24 42 42 53 42 12 0 49 17 83 37 46 28 70 50 87 82 l25 44
-20 47 -20 48 80 163 c44 90 88 186 98 213 14 37 31 59 71 90 43 33 56 51 70
93 16 52 16 52 -8 84 l-25 32 33 121 c19 67 43 162 55 212 l21 92 131 -1 c143
-1 164 4 221 54 69 61 113 189 133 397 5 51 12 96 16 99 3 3 493 -11 1088 -31
596 -20 1124 -37 1173 -38 58 0 263 21 573 61 265 33 489 61 496 61 24 0 29
-51 8 -79 -16 -22 -17 -32 -8 -68 6 -24 26 -58 47 -80 27 -29 45 -65 73 -148
21 -60 54 -148 73 -194 36 -81 36 -84 21 -124 -21 -60 -3 -101 67 -150 29 -20
58 -37 63 -37 5 0 44 -44 87 -97 l77 -97 -12 -55 c-12 -55 -12 -55 16 -78 52
-41 128 -77 219 -103 87 -25 90 -27 93 -57 3 -28 10 -34 74 -63 39 -17 121
-48 182 -67 61 -20 125 -42 141 -49 39 -16 302 -70 436 -89 157 -22 377 -30
434 -16 36 9 50 9 55 1 8 -12 112 -7 205 11 28 5 79 11 115 14 76 6 194 28
303 57 69 18 77 23 77 44 0 13 5 24 10 24 6 0 10 -7 10 -15 0 -8 3 -15 8 -15
23 0 203 55 269 83 l78 33 -3 65 -4 66 50 31 c28 19 62 32 81 32 43 0 144 52
174 91 23 30 24 34 11 81 l-13 49 53 82 c30 45 65 106 80 135 19 37 40 61 76
85 66 42 89 96 66 150 -14 35 -13 40 21 134 19 54 52 157 72 228 30 103 44
136 68 161 39 39 53 106 28 134 -16 17 -15 27 9 167 14 81 33 213 41 293 14
119 20 148 36 160 27 21 35 169 12 214 -12 24 -14 48 -9 120 4 50 7 101 6 114
0 13 5 20 10 17 6 -3 7 1 4 9 -3 9 -1 16 5 16 7 0 12 15 12 33 0 17 2 72 5
121 5 69 10 92 26 108 14 14 18 30 16 61 -3 36 -8 44 -33 55 -25 12 -75 83
-75 108 0 3 62 2 138 -2 136 -6 138 -6 165 17 54 48 53 179 -3 529 -113 696
-352 1246 -691 1592 -101 103 -105 109 -87 124 42 39 11 80 -79 105 l-58 17
48 12 c77 20 134 82 97 105 -17 11 -11 23 15 29 24 6 24 7 19 104 -2 53 -9
250 -14 437 -11 356 -11 355 -57 355 -14 0 -23 6 -23 15 0 18 -31 35 -64 35
-14 0 -27 3 -29 8 -3 4 -8 77 -12 163 l-7 157 30 7 c35 7 48 43 37 95 -8 37
-20 38 -33 3 -8 -22 -10 -10 -7 52 6 107 -13 256 -33 273 -9 6 -30 12 -47 12
-29 0 -31 2 -34 42 -3 57 -20 86 -21 35 0 -21 -7 -54 -15 -74 -17 -41 -31 -40
-15 1 24 64 5 156 -46 223 l-27 36 22 19 c33 26 68 22 101 -10 33 -34 48 -92
31 -128 -6 -14 -11 -46 -11 -71 0 -38 2 -43 14 -34 15 12 36 85 36 123 0 40
-19 94 -49 139 -17 24 -28 45 -25 48 8 9 44 -33 65 -76 l22 -45 25 26 26 26
-22 42 c-12 24 -29 53 -38 66 -13 17 -14 22 -3 22 31 0 90 -125 89 -189 -1
-14 -7 -43 -14 -63 l-13 -37 26 20 c74 58 61 186 -27 259 -20 16 -33 32 -30
36 11 10 65 -34 90 -74 23 -37 23 -37 26 -11 2 15 -6 53 -17 85 -11 32 -18 60
-16 62 10 10 25 -13 41 -60 18 -55 15 -168 -6 -223 l-11 -28 25 17 c17 10 47
16 89 16 47 0 68 4 78 16 17 20 13 203 -6 314 -8 43 -11 87 -8 99 13 52 102
26 136 -39 21 -41 17 -92 -14 -152 -26 -51 -48 -67 273 200 178 148 261 224
273 248 39 82 13 195 -61 266 -49 47 -108 68 -193 69 -121 2 -124 4 -137 84
-21 132 -26 135 -242 135 -87 0 -193 3 -235 6 -98 9 -100 23 -12 88 36 26 76
62 90 80 36 47 74 135 81 189 4 26 10 47 15 47 22 0 49 42 49 75 l0 35 -1027
0 c-1001 0 -1029 -1 -1060 -20 -50 -30 -66 -62 -61 -120 6 -61 29 -97 74 -116
19 -8 34 -20 34 -27 0 -26 49 -115 94 -170 l46 -57 -1159 -2 c-839 -2 -1163
-6 -1171 -14 -6 -6 -20 -47 -31 -90 -65 -260 -154 -454 -260 -569 l-42 -45
-159 0 c-174 0 -204 -7 -249 -56 -15 -16 -99 -159 -186 -319 -215 -390 -216
-394 -263 -525 -39 -108 -41 -121 -37 -200 4 -100 38 -204 102 -323 l42 -78
84 -30 c51 -17 105 -29 137 -29 28 0 52 -3 52 -7 0 -15 -34 -98 -43 -104 -5
-4 -52 -10 -104 -14 -87 -6 -171 -22 -130 -24 23 -1 22 -21 -1 -21 -10 0 -86
-52 -170 -115 -84 -63 -160 -115 -170 -115 -13 0 -14 -2 -4 -9 11 -6 -2 -131
-67 -647 -45 -351 -88 -700 -97 -774 -20 -161 -22 -171 -34 -150 -18 32 -829
1406 -838 1419 -6 10 -14 -14 -27 -77 -14 -69 -23 -92 -34 -92 -9 1 -47 35
-85 76 -69 75 -69 76 -54 102 9 15 24 56 33 92 9 36 20 79 25 95 5 17 17 59
25 95 36 147 68 266 75 279 6 11 9 10 14 -6 3 -11 16 -25 29 -32 12 -7 40 -34
61 -59 29 -35 37 -41 31 -22 -8 26 -64 97 -109 139 -17 16 -26 35 -26 55 0 17
-9 46 -20 64 -25 41 -36 42 -15 1 14 -25 14 -39 5 -87 -6 -31 -16 -70 -21 -87
-36 -116 -103 -417 -101 -452 2 -24 0 -43 -3 -43 -3 0 -25 20 -48 44 -42 44
-124 90 -182 101 -16 3 -64 8 -105 12 l-75 8 50 5 c121 13 -2458 42 -3054 34
-424 -6 -450 -9 -452 -57 -1 -18 -2 -19 -6 -4 -5 20 23 57 43 57 7 0 17 22 23
50 6 28 18 67 26 86 8 20 15 44 15 54 0 9 9 48 20 86 12 38 26 87 32 109 5 22
16 58 24 80 7 22 15 52 18 68 14 78 45 92 190 83 177 -11 2802 -17 2786 -7 -8
6 -62 11 -120 11 -58 0 -111 4 -119 9 -13 9 11 108 298 1226 152 591 221 859
222 864 0 4 5 -5 11 -19 l11 -25 9 35 c12 42 54 100 73 100 23 0 35 -59 35
-168 0 -71 3 -103 10 -96 16 16 60 221 66 315 7 82 6 87 -17 102 -13 10 -31
17 -40 17 -9 0 -24 9 -34 20 -10 11 -25 20 -33 20 -10 0 -12 7 -7 28 3 15 9
30 13 34 10 10 302 -4 302 -14 0 -6 -22 -96 -49 -201 -28 -106 -86 -336 -131
-512 -45 -176 -103 -405 -130 -510 -27 -104 -101 -397 -165 -650 -64 -253
-123 -482 -131 -509 -7 -27 -13 -51 -11 -52 2 -2 55 -6 118 -9 62 -3 141 -7
174 -9 33 -2 53 -2 43 1 -9 2 -28 27 -43 56 l-27 52 60 235 c34 129 97 377
141 550 44 173 123 484 175 691 103 403 115 488 80 547 -15 26 -13 33 54 187
l68 160 50 7 c27 4 87 11 134 15 l85 8 9 63 c5 34 6 65 3 69 -4 3 -43 14 -87
24 -69 15 -80 15 -80 2 0 -9 8 -13 23 -11 18 2 23 -2 25 -30 3 -26 -1 -34 -20
-41 -31 -12 -40 -4 -27 22 7 16 3 14 -17 -8 l-27 -30 -171 -3 c-94 -2 -182 -4
-196 -5 -21 -2 -25 3 -28 31 -2 18 2 40 9 48 20 24 -6 34 -90 34 -71 0 -73 1
-67 23 4 12 10 39 13 60 4 23 15 45 31 57 21 17 22 20 6 20 -14 0 -16 2 -6 9
11 7 10 10 -3 15 -9 3 -28 6 -41 6 -13 0 -24 4 -24 9 0 4 -24 7 -52 4 -29 -2
-111 -8 -183 -13 -184 -14 -497 -21 -458 -11 17 4 91 11 165 15 154 8 217 20
273 55 22 13 41 24 42 23 8 -5 63 12 63 19 0 5 12 9 28 9 30 1 77 29 51 31 -8
1 14 5 48 9 50 6 67 12 93 38 22 23 41 32 64 32 40 0 49 17 100 195 21 72 44
144 52 162 8 17 14 38 14 46 0 9 4 18 9 22 5 3 12 19 16 35 4 17 12 30 20 30
17 0 50 131 35 140 -7 5 -7 22 1 59 8 40 8 55 0 60 -9 6 -8 34 4 109 8 56 15
130 15 164 0 59 27 190 46 219 4 8 9 32 10 54 2 50 45 165 81 219 15 23 28 43
29 46 8 35 18 41 63 36 38 -5 41 -4 17 4 -16 5 -60 12 -98 16 -49 5 -66 10
-59 17 25 25 9 35 -71 47 -105 15 -163 34 -191 63 -25 26 -115 67 -146 67 -27
0 -26 12 2 69 23 49 40 71 54 71 4 0 18 8 30 18 21 16 51 112 68 215 6 35 8
37 43 37 20 0 42 -4 47 -8 13 -9 13 -92 0 -112 -5 -8 -10 -18 -11 -22 -1 -5
-2 -9 -3 -10 -2 -2 -4 -14 -7 -27 -2 -14 -9 -30 -15 -37 -7 -8 -7 -14 1 -19 6
-4 9 -13 7 -19 -4 -9 3 -11 19 -8 13 2 24 0 24 -6 0 -6 10 -20 22 -32 24 -22
21 -24 -15 -11 -21 8 -26 6 -41 -25 -9 -19 -16 -37 -16 -39 0 -9 85 -5 99 4 8
5 -4 7 -33 4 -43 -5 -62 6 -36 22 6 3 10 1 10 -5 0 -7 5 -8 13 -3 6 4 26 8 42
8 20 0 29 5 27 13 -2 9 2 11 10 6 7 -5 31 -11 53 -14 43 -6 41 -2 31 -80 -3
-21 0 -37 7 -42 9 -6 9 -8 0 -8 -7 0 -13 -4 -13 -9 0 -5 28 -11 63 -13 81 -6
123 12 130 56 3 17 7 41 10 52 7 26 -21 34 -119 34 -34 0 -66 4 -69 10 -3 5
-3 25 0 43 l6 33 107 11 c129 14 235 41 350 88 47 19 87 33 89 31 5 -4 -49
-197 -74 -266 -9 -25 -24 -56 -34 -70 -9 -14 -20 -45 -24 -69 -4 -24 -14 -60
-22 -80 -9 -20 -15 -63 -15 -95 l0 -59 -26 34 c-15 18 -27 38 -27 43 0 6 -13
13 -30 17 -16 3 -34 7 -40 9 -27 7 -34 -1 -29 -29 3 -15 1 -62 -6 -102 -7 -41
-12 -90 -11 -109 1 -19 -5 -87 -14 -150 -13 -104 -49 -252 -250 -1032 -44
-171 -51 -209 -40 -218 11 -9 16 -4 24 27 5 21 31 119 56 218 39 149 54 190
86 239 21 32 39 63 39 70 0 6 11 27 24 46 12 19 29 53 36 75 7 22 23 64 36 93
13 29 24 57 24 62 0 6 11 41 24 79 13 37 27 88 31 112 4 24 13 56 21 70 7 14
16 49 20 77 3 29 10 52 14 52 19 0 -105 -690 -175 -970 -34 -137 -129 -449
-162 -537 -4 -9 4 -13 25 -13 24 0 31 5 36 25 4 14 4 31 0 37 -4 6 -3 8 4 4
13 -8 57 119 46 135 -5 8 -3 9 6 4 10 -6 12 -3 8 13 -4 12 -3 20 1 18 9 -6 62
184 55 195 -3 5 -1 9 4 9 12 0 33 100 27 130 -5 22 -4 22 4 5 9 -19 10 -18 12
5 3 34 5 42 14 64 4 10 9 38 9 61 1 26 4 38 9 32 5 -7 6 -2 3 12 -3 14 -1 30
3 35 14 18 29 105 25 139 -4 24 -2 28 5 17 9 -12 11 -10 11 12 0 14 3 34 7 44
4 12 3 15 -5 10 -7 -4 -12 -2 -12 3 0 6 5 11 11 11 5 0 7 5 4 10 -3 6 -2 10 3
10 5 0 12 19 15 43 8 60 82 521 117 727 30 173 70 321 96 350 7 9 21 34 31 56
38 86 174 226 268 277 66 36 196 79 290 96 98 17 361 24 465 12 165 -19 161
-17 226 -134 31 -56 58 -103 59 -104 1 -2 109 -14 240 -28 184 -19 241 -22
246 -13 4 7 22 51 38 98 28 76 39 93 108 164 l77 79 49 -12 c26 -6 76 -11 110
-11 52 -1 412 -38 527 -55 19 -3 109 -12 200 -21 91 -8 182 -18 203 -21 29 -4
37 -2 37 11 0 12 -7 14 -29 10 -25 -5 -32 -2 -45 24 -23 45 -20 59 15 71 40
14 79 14 79 1 0 -5 -5 -10 -11 -10 -5 0 -7 -5 -3 -11 5 -9 -1 -10 -22 -5 -22
6 -26 5 -17 -5 17 -17 63 -3 63 20 0 14 9 18 45 19 40 2 45 -1 51 -23 9 -35
28 -49 44 -30 11 13 10 14 -4 9 -25 -10 -30 22 -11 71 12 32 22 45 36 45 13 0
19 7 19 23 -1 21 -1 21 -15 4 -13 -18 -14 -18 -25 2 -12 24 -6 41 15 41 27 0
3 30 -44 57 -25 14 -62 36 -81 48 -27 18 -56 25 -134 30 -54 4 -112 11 -129
16 -17 5 -92 11 -166 15 -75 3 -138 8 -140 10 -2 2 8 17 23 34 14 17 26 43 26
56 0 74 -75 123 -139 90 -17 -10 -37 -27 -42 -40 -10 -22 -16 -23 -167 -28
-87 -3 -193 -2 -236 1 l-79 6 -14 46 c-20 70 -59 87 -194 87 -67 0 -123 5
-158 16 -30 9 -72 16 -93 16 -21 0 -38 4 -38 8 0 4 10 36 21 71 19 56 21 73
13 154 -9 90 -10 92 -39 101 -16 6 -32 11 -34 13 -2 1 2 16 8 34 6 18 9 34 7
37 -3 2 -10 -14 -17 -37 -6 -22 -38 -72 -70 -111 -57 -71 -81 -124 -119 -272
-7 -27 -19 -49 -26 -49 -8 -1 -20 -2 -26 -3 -7 -1 -15 12 -18 29 -3 20 -14 34
-33 43 -19 9 -26 19 -22 31 8 25 -47 106 -86 126 -36 18 -428 66 -524 63 -36
-1 -41 -2 -17 -5 18 -2 30 -8 28 -12 -3 -4 86 -16 197 -26 216 -20 310 -39
142 -30 -55 4 -125 10 -155 15 -30 5 -100 11 -155 12 l-99 3 -35 -94 -34 -93
-50 6 c-28 3 -53 9 -56 13 -3 5 -22 9 -41 11 -19 1 -49 5 -67 8 -26 4 -34 1
-43 -18 -10 -21 -10 -21 3 -5 21 26 41 23 26 -5 -10 -19 -9 -20 7 -13 11 4 33
10 50 12 29 5 31 3 29 -26 -4 -76 3 -70 -80 -65 -73 4 -75 3 -75 -19 0 -12 11
-34 25 -49 24 -26 24 -28 9 -70 -8 -24 -21 -64 -28 -90 -11 -44 -20 -53 -126
-134 -135 -101 -124 -112 -113 109 5 81 5 160 0 175 -4 16 -1 54 8 94 20 91
19 180 -5 272 -27 107 -74 189 -150 267 -102 103 -201 148 -338 155 -42 2 -78
8 -80 14 -6 16 -158 13 -175 -4z m13 -383 c0 -21 -14 -15 -26 11 -11 23 -10
24 7 13 11 -7 19 -17 19 -24z m-1096 1 c9 -3 16 -12 16 -20 0 -20 -13 -17 -28
6 -13 22 -12 23 12 14z m3011 -154 c3 -6 -1 -7 -9 -4 -18 7 -21 14 -7 14 6 0
13 -4 16 -10z m-3792 -140 c-3 -12 -8 -19 -11 -16 -5 6 5 36 12 36 2 0 2 -9
-1 -20z m181 -35 c-6 -16 -24 -21 -24 -7 0 11 11 22 21 22 5 0 6 -7 3 -15z
m2801 -77 c15 -11 -7 -10 -24 1 -7 5 -10 14 -7 20 4 6 2 11 -4 11 -6 0 -8 5
-4 12 5 8 11 4 18 -13 6 -13 15 -27 21 -31z m-35 -14 c0 -1 -12 -39 -26 -83
-19 -60 -30 -81 -43 -81 -10 0 -20 3 -23 6 -5 4 18 82 46 161 4 10 46 7 46 -3z
m1700 2 c0 -3 -4 -8 -10 -11 -5 -3 -10 -1 -10 4 0 6 5 11 10 11 6 0 10 -2 10
-4z m-1592 -36 c57 -9 60 -16 15 -30 -21 -7 -60 -24 -86 -37 -27 -13 -51 -22
-54 -19 -3 2 3 28 12 56 16 48 19 51 44 44 14 -4 45 -10 69 -14z m793 -9 c21
-17 22 -21 10 -47 -13 -28 -14 -28 -21 -7 -11 26 -46 39 -65 23 -12 -10 -15
-9 -15 3 0 49 47 64 91 28z m1367 -68 c-10 -2 -26 -2 -35 0 -10 3 -2 5 17 5
19 0 27 -2 18 -5z m-554 -18 c8 -8 30 -15 48 -15 51 0 62 -12 53 -56 -4 -22
-9 -51 -10 -66 -1 -15 -3 -30 -6 -32 -2 -3 -41 0 -87 6 -79 10 -82 12 -83 37
0 15 -3 20 -6 11 -9 -24 -35 -50 -50 -50 -9 0 -13 13 -13 40 0 33 4 42 23 50
17 7 18 9 5 9 -20 1 -21 5 -12 50 6 30 8 31 65 31 38 0 63 -5 73 -15z m-5570
-41 c10 -4 16 -18 16 -36 0 -27 -1 -28 -16 -14 -8 9 -31 16 -50 16 -32 0 -45
16 -27 33 8 9 56 9 77 1z m6659 -21 c-7 -2 -19 -2 -25 0 -7 3 -2 5 12 5 14 0
19 -2 13 -5z m148 -33 c28 -15 23 -30 -9 -30 -27 0 -52 15 -52 32 0 11 38 10
61 -2z m-264 -16 c73 -8 136 -13 140 -12 5 2 47 -10 95 -26 l88 -30 25 24 c27
26 32 21 13 -13 -6 -12 -16 -42 -23 -66 l-11 -44 -104 2 c-109 2 -496 37 -511
47 -10 6 -2 73 12 112 8 21 14 23 76 21 38 -1 128 -8 200 -15z m-1240 -20 l28
-25 -53 4 c-59 5 -67 9 -59 32 10 23 53 18 84 -11z m-5377 -18 c0 -38 -16 -57
-26 -32 -8 21 3 66 16 66 6 0 10 -15 10 -34z m-40 -26 c0 -31 -4 -40 -17 -41
-17 -1 -17 -2 0 -6 10 -3 17 -14 17 -27 0 -20 -7 -24 -46 -30 -53 -7 -64 -3
-64 25 0 13 7 19 23 20 l22 2 -22 4 c-17 3 -23 11 -23 31 0 46 17 58 83 61 25
1 27 -2 27 -39z m4683 18 l107 -11 32 -64 c17 -35 28 -66 24 -70 -3 -4 -32 -2
-64 3 -112 20 -501 5 -564 -21 -9 -3 -43 -12 -75 -20 -75 -17 -179 -60 -223
-94 -19 -14 -51 -37 -70 -50 -19 -13 -49 -40 -67 -60 -17 -20 -33 -34 -36 -31
-2 3 5 32 15 65 20 60 21 61 157 162 162 121 203 144 296 172 140 42 222 46
468 19z m-4639 -64 c10 -27 7 -44 -9 -44 -8 0 -15 3 -15 8 0 4 -3 17 -6 30 -7
26 20 32 30 6z m-996 -19 c-6 -14 -9 -27 -7 -30 3 -2 76 7 163 20 87 14 160
25 162 25 2 0 4 -7 4 -15 0 -19 -88 -62 -142 -71 -36 -6 -38 -8 -38 -44 l0
-38 -77 -11 c-43 -6 -79 -16 -81 -21 -2 -5 -12 -4 -23 3 -15 10 -19 23 -19 74
0 39 5 65 13 70 7 4 18 20 24 36 7 15 17 27 23 27 6 0 5 -9 -2 -25z m6557 15
c5 -8 11 -7 21 1 24 19 32 0 36 -86 l3 -80 -25 3 c-14 1 -33 13 -42 25 -20 25
-38 100 -26 105 4 2 8 12 8 23 0 20 15 26 25 9z m-6642 -80 c-5 -19 -23 -29
-23 -12 0 7 20 32 26 32 1 0 0 -9 -3 -20z m6810 3 c-7 -2 -21 -2 -30 0 -10 3
-4 5 12 5 17 0 24 -2 18 -5z m-5741 -50 c19 -22 32 -63 21 -64 -66 -9 -75 -8
-99 16 -42 42 -32 56 47 64 9 0 23 -7 31 -16z m1865 -65 c-22 -10 -46 -17 -53
-14 -13 5 -22 -14 -49 -104 -10 -30 -29 -73 -43 -95 -15 -22 -27 -42 -28 -43
-2 -2 -11 1 -21 7 -16 9 -16 10 -1 11 19 0 24 13 32 85 6 45 23 134 31 161 2
6 37 10 88 10 l85 0 -41 -18z m461 -18 c21 -13 32 -26 28 -35 -2 -7 4 -25 16
-40 l20 -26 -25 6 c-22 6 -26 4 -24 -15 1 -20 40 -47 70 -49 4 0 15 -8 24 -17
11 -11 26 -14 45 -10 35 7 125 -19 153 -45 16 -14 19 -28 17 -68 -4 -48 -5
-51 -32 -51 -27 0 -91 22 -215 74 -66 28 -101 32 -107 14 -3 -8 -30 -1 -84 22
-66 28 -94 34 -175 38 l-96 4 18 69 c21 81 33 105 59 119 30 16 95 12 152 -10
l53 -20 25 29 c30 36 36 36 78 11z m-3388 0 c0 -12 -28 -25 -36 -17 -9 9 6 27
22 27 8 0 14 -5 14 -10z m2266 -8 c6 -4 21 -26 32 -48 20 -39 47 -70 100 -111
l24 -19 -66 -132 c-36 -72 -69 -132 -72 -132 -19 0 -134 94 -158 128 -42 61
-48 103 -30 207 9 50 21 96 26 103 11 13 125 17 144 4z m282 -220 c19 -24 15
-70 -7 -82 -11 -5 -41 -10 -68 -10 -34 0 -44 -3 -33 -10 13 -8 12 -11 -5 -24
-24 -19 -41 -21 -28 -3 5 6 9 19 8 27 -1 8 12 41 29 72 28 53 32 56 60 51 17
-3 37 -13 44 -21z m1506 12 c16 -6 23 -34 8 -34 -10 0 -32 22 -32 32 0 10 3
10 24 2z m-1349 -24 c-3 -5 3 -10 14 -10 25 0 28 -27 4 -34 -43 -12 -93 -17
-93 -9 0 5 7 18 15 29 8 12 11 24 8 28 -3 3 8 6 26 6 19 0 30 -4 26 -10z m545
-156 l25 -15 -25 7 c-14 3 -29 10 -34 15 -16 14 6 10 34 -7z m165 -19 c22 -8
45 -15 52 -15 19 0 162 -69 219 -105 57 -37 95 -97 135 -214 25 -71 43 -218
35 -276 -7 -42 -10 -46 -32 -43 -21 3 -29 15 -57 98 -18 53 -50 126 -70 163
-67 119 -200 269 -317 357 -25 18 -49 37 -54 42 -16 13 46 8 89 -7z m-687 -85
c2 0 0 -6 -5 -12 -4 -7 -8 -17 -8 -23 0 -5 -20 -13 -45 -16 -45 -6 -21 -13 30
-9 27 2 52 28 45 48 -7 18 24 27 46 14 10 -7 28 -12 39 -12 31 0 24 -15 -16
-29 -30 -11 -33 -15 -22 -29 10 -12 10 -14 1 -8 -7 4 -13 2 -13 -3 0 -14 2
-14 34 2 14 8 22 18 18 22 -4 5 -1 5 6 1 7 -4 26 0 43 8 23 12 36 13 51 5 11
-6 22 -8 25 -5 6 6 33 -19 33 -31 0 -5 10 -9 21 -10 24 -2 86 -42 116 -76 11
-12 28 -27 38 -33 15 -8 19 -24 20 -80 1 -38 7 -80 12 -94 l11 -25 16 37 c9
21 16 44 16 53 0 24 12 18 64 -35 32 -33 43 -50 32 -50 -20 0 -20 3 4 -110 23
-109 32 -125 28 -51 -4 69 11 75 40 16 37 -76 64 -226 64 -350 0 -113 -29
-291 -60 -370 -19 -49 -89 -158 -128 -201 -50 -54 -160 -131 -212 -148 -28
-10 -56 -24 -62 -32 -7 -7 -23 -14 -37 -14 -13 0 -34 -5 -45 -11 -16 -8 -23
-8 -30 2 -7 11 -11 11 -14 2 -4 -10 -10 -10 -25 0 -16 10 -21 9 -28 -1 -10
-16 -83 -28 -108 -17 -10 4 -43 9 -73 12 -33 2 -59 9 -66 18 -6 8 -16 15 -23
15 -6 0 -14 7 -17 15 -3 8 -14 17 -24 20 -11 3 -22 15 -25 26 -4 11 -9 18 -12
15 -3 -3 -14 -1 -25 5 -42 23 -25 0 27 -36 56 -38 73 -62 33 -46 -35 14 -58
21 -62 18 -2 -1 -14 10 -26 26 -12 15 -27 27 -33 27 -15 0 -64 45 -91 82 -11
15 -23 25 -28 22 -4 -3 -8 0 -8 7 0 7 15 25 33 40 25 22 29 30 19 37 -9 6 -13
24 -11 48 l4 39 -40 -3 c-81 -7 -111 -39 -84 -88 7 -13 9 -27 6 -30 -4 -4 -11
4 -16 17 -27 72 -42 100 -55 105 -9 3 -12 12 -9 22 7 19 53 84 66 93 19 14 37
64 37 103 0 23 4 46 9 51 5 6 13 46 16 90 6 72 5 82 -13 103 -25 29 -38 23
-45 -20 -6 -41 1 -58 19 -51 10 4 14 -3 14 -26 0 -24 -4 -31 -19 -31 -11 0
-33 -13 -49 -30 -26 -25 -34 -28 -68 -23 -35 6 -38 5 -26 -9 8 -10 10 -26 6
-43 -5 -18 -2 -30 7 -36 24 -15 46 -10 52 12 3 12 10 18 15 15 12 -7 4 -46
-10 -46 -5 0 -7 -3 -4 -8 7 -11 -21 -72 -34 -72 -5 0 -10 7 -10 15 0 8 -4 15
-10 15 -5 0 -14 18 -20 40 -8 29 -16 40 -30 40 -11 0 -20 -2 -20 -4 0 -17 74
-173 86 -179 15 -9 19 -37 5 -37 -16 0 -70 91 -100 169 -26 69 -47 159 -66
279 -4 25 -3 48 4 55 5 7 18 60 27 117 10 58 23 112 30 120 6 8 14 46 18 84 4
38 14 83 23 100 57 112 206 276 250 276 12 0 23 5 23 10 0 6 7 10 15 10 8 0
15 4 15 9 0 14 58 40 104 48 23 3 55 12 71 19 24 10 151 12 223 4z m1312 6 c0
-2 -7 -7 -16 -10 -8 -3 -12 -2 -9 4 6 10 25 14 25 6z m-118 -120 c48 -25 80
-36 110 -36 72 0 73 -11 6 -273 -32 -126 -58 -230 -58 -233 0 -2 -7 -4 -15 -4
-12 0 -15 13 -15 58 -2 209 -49 356 -155 486 -25 31 -45 60 -45 65 0 13 97
-22 172 -63z m558 -75 c0 -11 -4 -21 -9 -23 -5 -1 -22 -50 -36 -108 -15 -58
-30 -108 -34 -113 -12 -13 17 234 29 249 18 21 50 18 50 -5z m-2400 -81 c0 -5
-4 -10 -10 -10 -5 0 -10 5 -10 10 0 6 5 10 10 10 6 0 10 -4 10 -10z m2403 -52
c-3 -18 -11 -47 -18 -64 -7 -17 -16 -51 -20 -75 -3 -24 -15 -70 -26 -102 -10
-31 -19 -68 -19 -81 0 -26 -29 -100 -30 -76 0 26 105 430 112 430 4 0 5 -15 1
-32z m-23 -282 c0 -3 -4 -8 -10 -11 -5 -3 -10 -1 -10 4 0 6 5 11 10 11 6 0 10
-2 10 -4z m-567 -46 c3 -11 3 -20 1 -20 -2 0 -8 9 -14 20 -6 11 -7 20 -2 20 6
0 12 -9 15 -20z m-39 -5 c-4 -8 -1 -22 6 -29 16 -21 9 -91 -10 -91 -10 0 -16
13 -18 41 -3 37 11 94 22 94 3 0 3 -7 0 -15z m88 -86 c-5 -30 -13 -45 -25 -47
-14 -3 -17 4 -17 42 0 39 3 45 23 48 12 2 23 3 24 3 2 -1 -1 -21 -5 -46z m-52
-89 c6 -11 16 -17 25 -14 8 4 15 1 15 -5 0 -7 -10 -16 -22 -20 -29 -11 -58 12
-51 40 7 24 19 24 33 -1z m457 -2 c-3 -8 -6 -5 -6 6 -1 11 2 17 5 13 3 -3 4
-12 1 -19z m-517 -402 c-63 -249 -94 -352 -107 -362 -10 -8 -42 -26 -70 -39
-29 -13 -68 -36 -87 -50 -25 -19 -54 -29 -103 -35 -95 -12 -253 -19 -253 -11
0 4 30 22 68 40 97 48 177 108 262 197 151 158 226 310 274 555 4 20 16 29 53
41 27 8 49 14 50 13 1 0 -38 -158 -87 -349z m-1727 -172 l29 -35 -22 -114
c-13 -66 -19 -122 -15 -132 5 -10 7 -21 7 -25 -1 -5 27 -8 63 -8 59 0 67 2 75
23 8 21 9 20 10 -8 2 -29 2 -29 15 10 8 22 14 52 14 68 1 25 10 34 24 21 3 -3
-3 -31 -14 -61 -23 -68 -23 -63 1 -63 14 0 22 11 31 43 16 59 17 60 49 37 16
-12 60 -35 97 -53 l68 -32 -38 -3 c-31 -3 -36 -6 -27 -17 8 -10 4 -18 -19 -34
-29 -21 -30 -21 -36 -1 -7 23 -53 28 -73 8 -15 -15 -16 -50 -1 -65 7 -7 2 -15
-17 -28 -23 -15 -40 -16 -115 -10 -73 5 -88 4 -84 -7 3 -7 15 -18 27 -23 12
-6 24 -16 26 -24 3 -10 -3 -11 -28 -6 -19 4 -35 3 -39 -3 -11 -17 -191 19
-191 38 0 6 -19 10 -42 10 -38 0 -40 1 -26 18 9 9 21 47 28 83 17 92 29 113
69 119 l34 5 40 153 c22 83 43 152 46 152 3 0 19 -16 34 -36z m2238 -277 c-10
-9 -11 -8 -5 6 3 10 9 15 12 12 3 -3 0 -11 -7 -18z m-1653 -195 c12 -8 22 -20
22 -28 0 -7 16 -26 35 -41 19 -15 35 -30 35 -33 0 -4 -15 -4 -34 -2 -25 3 -35
0 -38 -12 -3 -14 -6 -14 -33 0 -18 9 -48 14 -79 12 l-50 -3 -12 -48 c-17 -68
-24 -69 -18 -4 l5 55 -35 4 c-23 3 -37 -1 -41 -9 -5 -14 13 -53 30 -65 6 -4 0
-8 -13 -8 -13 0 -21 3 -19 8 3 4 -17 8 -43 9 -26 2 -58 7 -71 11 -21 8 -15 14
66 61 48 29 96 53 106 54 10 1 16 4 13 8 -4 8 39 42 66 52 22 8 81 -4 108 -21z
m764 -153 c59 -30 37 -46 -36 -25 -41 12 -54 20 -50 31 8 21 38 19 86 -6z
m-1072 -35 c36 -9 73 -16 83 -16 9 0 17 -5 17 -12 0 -18 27 -40 34 -28 3 6 32
2 68 -8 99 -28 97 -27 85 -60 -8 -21 -8 -35 0 -52 18 -36 36 -99 30 -105 -5
-5 -135 97 -186 147 -52 50 -101 64 -206 57 l-95 -5 6 26 c10 40 21 50 50 44
17 -3 23 -9 20 -19 -4 -9 -1 -13 6 -10 7 2 13 16 13 30 -1 15 2 27 5 27 3 0
34 -8 70 -16z m527 -66 c-3 -8 -6 -5 -6 6 -1 11 2 17 5 13 3 -3 4 -12 1 -19z
m1323 -68 c19 -6 12 -8 -30 -8 -39 -1 -49 2 -35 8 24 10 33 10 65 0z m-1777
-34 c59 -35 186 -136 224 -178 21 -22 22 -29 14 -88 -20 -142 -43 -269 -63
-338 -11 -41 -24 -120 -29 -175 -6 -79 -34 -200 -124 -544 -63 -243 -115 -452
-115 -465 0 -13 7 -68 16 -123 l15 -100 -63 -240 -63 -240 -363 1 c-200 1
-366 4 -369 8 -3 3 8 59 25 123 17 65 164 627 328 1248 163 622 298 1133 301
1138 2 4 50 7 107 7 99 0 104 -1 159 -34z m1545 27 c-38 -2 -98 -2 -135 0 -38
2 -7 3 67 3 74 0 105 -1 68 -3z m-1999 -50 l22 -18 -38 -92 c-21 -51 -42 -93
-46 -93 -5 0 -5 26 -1 57 5 40 13 62 28 75 14 12 17 20 10 25 -6 5 -13 20 -16
36 -6 32 9 36 41 10z m1081 -4 c0 -6 10 -9 23 -8 12 1 30 -1 40 -5 9 -3 23 -8
31 -10 8 -3 20 -15 26 -27 12 -21 11 -21 -42 -13 -29 5 -95 8 -145 8 -51 -1
-91 2 -88 6 9 15 67 40 92 40 12 0 23 5 23 10 0 6 9 10 20 10 11 0 20 -5 20
-11z m1010 -10 c0 -16 -101 -249 -111 -254 -4 -3 -19 10 -33 28 -25 33 -25 33
-10 92 38 149 28 134 87 138 28 2 55 4 60 5 4 1 7 -3 7 -9z m-1229 -29 c20 0
2 -168 -22 -194 -4 -4 -15 6 -24 24 -12 24 -15 45 -11 79 13 90 17 103 33 97
8 -3 19 -6 24 -6z m610 -11 c16 -16 20 -28 14 -53 -3 -17 -8 -38 -10 -46 -1
-8 -8 -14 -15 -12 -8 2 -11 -4 -7 -18 3 -11 3 -20 1 -20 -2 0 -33 20 -70 45
-36 25 -72 45 -80 45 -9 0 -14 7 -12 17 2 11 27 25 73 40 87 27 81 27 106 2z
m-1735 -67 c-15 -56 -206 -779 -452 -1709 -68 -260 -124 -475 -124 -478 0 -3
-4 -4 -9 0 -25 15 -43 156 -39 293 8 227 61 420 247 895 118 301 200 526 307
844 44 128 81 227 83 222 2 -6 -4 -36 -13 -67z m149 42 c22 -14 23 -16 7 -33
-9 -9 -20 -13 -23 -8 -3 4 -23 -2 -44 -14 l-38 -23 7 25 c3 13 9 37 13 52 5
24 9 28 30 22 14 -3 36 -13 48 -21z m181 -20 c-3 -9 -6 -22 -6 -31 0 -9 -6
-13 -14 -10 -8 3 -16 -2 -19 -11 -60 -211 -97 -385 -61 -287 8 22 19 44 24 49
6 6 10 20 10 32 0 13 5 26 11 30 7 4 9 0 6 -12 -3 -11 -13 -47 -22 -81 -23
-94 -54 -161 -65 -143 -6 8 -10 29 -10 47 0 17 -4 34 -9 37 -13 9 -17 -32 -10
-109 3 -38 7 -63 7 -54 2 15 32 49 32 36 0 -18 -97 -399 -217 -852 -74 -280
-161 -613 -194 -740 -33 -126 -63 -238 -67 -249 -7 -17 -20 -18 -142 -17 -74
1 -136 3 -137 5 -2 2 47 192 107 422 61 230 134 505 161 609 28 105 61 231 74
280 13 50 53 203 89 340 36 138 73 275 82 305 24 81 81 186 109 198 21 10 24
8 34 -32 5 -23 8 -52 4 -64 -7 -30 11 -28 32 4 13 20 14 28 5 34 -14 8 -5 30
11 30 6 0 7 -4 4 -10 -3 -5 -2 -10 4 -10 5 0 12 -17 14 -37 2 -26 4 -19 5 23
2 56 15 103 42 144 5 8 14 34 20 57 15 61 53 94 63 56 4 -14 5 -12 6 5 0 12 6
22 12 22 6 0 8 -7 5 -16z m1395 -284 c15 0 10 -20 -7 -27 -9 -3 -20 0 -25 8
-13 21 -11 32 7 25 9 -3 20 -6 25 -6z m-75 -326 c-3 -9 -6 -20 -6 -25 0 -5 -4
-9 -10 -9 -5 0 -10 11 -10 25 0 16 6 25 16 25 11 0 14 -5 10 -16z m-89 -236
c-3 -8 -6 -5 -6 6 -1 11 2 17 5 13 3 -3 4 -12 1 -19z m7472 -465 c12 -14 29
-51 37 -81 14 -46 14 -64 5 -107 -7 -29 -18 -61 -26 -71 -13 -17 -14 -15 -15
24 0 47 -19 100 -42 120 -13 11 -14 6 -2 -40 15 -55 11 -105 -13 -150 -21 -42
-23 -34 -5 22 20 62 8 136 -32 199 -30 47 -31 51 -11 51 21 0 90 -71 114 -117
l20 -38 1 30 c0 44 -17 98 -45 139 -14 20 -25 39 -25 41 0 14 21 2 39 -22z
m-9692 -695 c-3 -8 -6 -5 -6 6 -1 11 2 17 5 13 3 -3 4 -12 1 -19z m9389 -204
c-7 -26 -26 -33 -26 -9 0 8 5 15 11 15 5 0 7 5 4 10 -4 6 -3 19 1 28 6 16 7
16 11 -1 3 -10 2 -29 -1 -43z m-7506 -164 c0 -5 -5 -10 -11 -10 -5 0 -7 5 -4
10 3 6 8 10 11 10 2 0 4 -4 4 -10z m5570 -287 c0 -32 3 -88 7 -125 l6 -68 -29
0 c-28 0 -29 2 -26 40 3 26 -4 63 -19 102 l-23 61 30 23 c45 37 54 32 54 -33z
m-2032 -20 c6 -20 10 -38 9 -40 -7 -6 -200 -24 -205 -18 -3 3 4 26 16 50 l22
45 73 0 74 0 11 -37z m1459 5 l91 -22 26 -69 c14 -39 24 -72 22 -74 -2 -3
-118 5 -258 16 -139 12 -264 21 -276 21 -20 0 -22 5 -22 64 l0 64 -37 10 c-29
8 9 10 162 11 174 1 212 -2 292 -21z m-909 -45 c-15 -2 -42 -2 -60 0 -18 2 -6
4 27 4 33 0 48 -2 33 -4z m2949 -347 c1 -1 5 -119 9 -261 l7 -260 -229 3
c-126 2 -232 6 -235 10 -3 4 2 120 12 257 10 138 18 254 18 258 1 6 410 -1
418 -7z m-4231 -65 c-15 -15 -16 -13 -4 19 9 26 13 30 16 16 2 -10 -3 -26 -12
-35z m-80 -27 c-19 -25 -36 -49 -38 -54 -2 -5 -17 -12 -35 -16 -25 -5 -33 -2
-43 16 -18 33 -6 50 37 50 25 0 48 8 68 25 46 37 50 30 11 -21z m-5252 -4 c45
-44 30 -170 -64 -549 -28 -111 -50 -204 -50 -206 0 -3 9 -5 20 -5 12 0 25 10
31 23 9 21 9 21 5 -4 -5 -23 -1 -26 40 -37 62 -17 47 -30 -23 -22 -32 4 -106
14 -165 21 -60 7 -108 17 -108 21 0 9 200 762 203 764 44 28 79 26 111 -6z
m86 4 c0 -2 -12 -4 -27 -4 -21 0 -24 3 -14 9 13 8 41 5 41 -5z m3088 -38 c26
-13 66 -29 90 -36 28 -9 42 -19 42 -30 0 -9 -46 -196 -101 -416 -56 -219 -105
-415 -110 -434 -4 -19 -21 -89 -38 -155 -18 -66 -36 -138 -41 -160 -5 -22 -18
-75 -29 -119 -12 -43 -21 -87 -21 -98 0 -30 -26 -32 -85 -3 -31 14 -79 28
-108 31 -29 3 -57 7 -64 9 -8 3 2 56 33 177 25 95 103 404 175 687 72 283 135
523 140 532 10 20 37 38 57 39 7 0 34 -11 60 -24z m5478 -42 c-3 -26 -6 -71
-6 -100 0 -30 -3 -54 -7 -54 -5 0 -21 35 -38 77 -23 59 -37 80 -62 96 -18 10
-33 21 -33 23 0 2 34 4 76 4 l77 0 -7 -46z m-7921 -99 c50 -14 97 -28 105 -30
8 -3 49 -14 90 -25 41 -12 111 -32 155 -45 110 -33 474 -137 506 -144 l25 -6
-42 -179 c-24 -99 -45 -184 -48 -191 -3 -8 -23 -9 -73 -4 -37 4 -383 13 -768
19 -385 6 -701 13 -702 14 -1 1 30 125 70 276 60 223 77 275 93 280 10 4 90 5
176 3 116 -3 163 -1 180 8 13 7 28 12 33 10 6 -1 7 1 2 5 -4 4 5 16 20 26 32
22 46 20 178 -17z m2050 -45 c-28 -12 -37 -12 -30 0 3 6 16 10 28 9 21 0 21
-1 2 -9z m-125 -54 c0 -2 -8 -10 -17 -17 -16 -13 -17 -12 -4 4 13 16 21 21 21
13z m-290 -170 c0 -2 -7 -7 -16 -10 -8 -3 -12 -2 -9 4 6 10 25 14 25 6z m7655
-16 c7 -12 -53 -40 -85 -40 -19 0 -28 28 -13 43 10 11 91 8 98 -3z m-7705 -9
c0 -5 -7 -12 -16 -15 -14 -5 -15 -4 -4 9 14 17 20 19 20 6z m7817 -17 c-3 -3
-12 -4 -19 -1 -8 3 -5 6 6 6 11 1 17 -2 13 -5z m-2113 -58 c3 -14 42 -57 86
-97 44 -40 80 -78 80 -84 0 -6 7 -20 15 -32 l14 -21 58 20 c51 17 66 18 118 8
64 -13 135 -45 175 -80 l25 -21 -25 5 c-14 2 -52 12 -85 21 -72 20 -133 16
-197 -15 -46 -21 -48 -24 -48 -64 0 -59 -19 -207 -30 -225 -4 -9 -7 44 -7 124
2 134 1 142 -25 190 -14 28 -36 56 -49 64 -22 13 -22 12 -15 -25 4 -22 11 -68
17 -103 5 -35 12 -74 15 -87 6 -24 -9 -34 -21 -14 -8 14 -58 13 -90 -2 -23
-10 -25 -16 -25 -83 0 -133 -29 -257 -99 -419 -25 -57 -33 -54 -82 32 -18 31
-40 71 -50 88 -35 63 -84 240 -69 249 4 2 20 -30 35 -73 27 -78 114 -252 126
-252 11 0 35 42 57 101 35 95 43 164 33 288 -5 63 -7 119 -5 126 6 14 70 35
107 35 l26 0 -25 73 c-29 83 -63 229 -64 270 0 34 16 36 24 3z m2074 -58 c-5
-32 -28 -35 -28 -4 0 17 5 26 16 26 10 0 14 -7 12 -22z m-68 -22 c0 -31 -3
-34 -44 -45 -25 -6 -47 -11 -50 -11 -3 0 -6 18 -6 39 0 43 7 48 68 50 30 1 32
-1 32 -33z m-2740 -23 c0 -35 31 -164 49 -208 5 -11 17 -42 26 -70 28 -81 119
-256 174 -339 29 -42 86 -116 127 -164 42 -48 88 -111 102 -139 30 -60 58 -69
99 -31 17 16 23 18 23 7 0 -9 -13 -28 -30 -44 -28 -26 -30 -34 -30 -97 0 -38
-4 -68 -10 -68 -12 0 -68 74 -86 115 -7 17 -45 64 -84 105 -114 118 -202 260
-298 480 -19 45 -14 -7 13 -117 48 -197 153 -429 258 -566 31 -41 36 -78 17
-137 -17 -53 -26 -295 -11 -304 17 -11 41 12 62 59 22 49 24 26 4 -40 -17 -58
-13 -68 11 -28 53 85 109 120 209 130 72 7 66 -6 -15 -32 -113 -36 -159 -73
-176 -139 -7 -31 -59 -68 -88 -64 -11 2 -29 18 -39 36 -30 51 -32 134 -7 285
l22 135 -26 44 c-15 23 -45 72 -68 108 -117 186 -237 511 -269 730 -13 94 -7
328 10 373 14 37 31 26 31 -20z m2740 -138 c0 -14 1 -28 3 -32 1 -4 -20 -12
-46 -19 -53 -13 -62 -8 -55 38 2 18 11 24 43 29 22 3 43 7 48 8 4 0 7 -10 7
-24z m70 10 c0 -8 -8 -19 -19 -24 -16 -9 -17 -7 -13 14 5 27 32 35 32 10z
m-1484 -62 c-10 -10 -19 5 -10 18 6 11 8 11 12 0 2 -7 1 -15 -2 -18z m1494
-97 c0 -8 -6 -16 -14 -19 -17 -7 -30 20 -13 27 21 8 27 6 27 -8z m-70 -21 c0
-19 -7 -26 -37 -34 -56 -16 -63 -14 -63 18 0 32 10 38 68 40 28 1 32 -2 32
-24z m-9198 -46 c-23 -20 -43 -29 -67 -29 -19 0 -35 4 -35 9 0 15 30 41 48 41
9 1 28 7 42 15 42 23 50 -1 12 -36z m286 0 c2 -10 -9 -21 -30 -30 -18 -8 -36
-13 -39 -12 -4 1 -5 -7 -2 -18 5 -17 1 -19 -28 -17 -29 3 -34 -1 -37 -19 -4
-24 -22 -32 -22 -10 0 8 -3 7 -10 -3 -7 -12 -13 -9 -34 13 -32 34 -32 43 -3
58 12 6 32 20 44 31 12 11 26 17 32 14 5 -4 12 -3 15 2 3 5 29 8 58 8 40 -1
53 -5 56 -17z m102 11 c0 -5 -2 -10 -4 -10 -3 0 -8 5 -11 10 -3 6 -1 10 4 10
6 0 11 -4 11 -10z m88 -69 c-2 -8 -18 -18 -36 -22 -26 -5 -32 -3 -32 11 0 23
5 27 40 27 22 0 30 -5 28 -16z m8722 -45 c0 -20 -7 -25 -44 -35 -59 -15 -58
-15 -54 17 3 23 9 28 43 33 22 3 43 7 48 8 4 0 7 -10 7 -23z m70 15 c0 -5 -7
-11 -15 -15 -9 -3 -15 0 -15 9 0 8 7 15 15 15 8 0 15 -4 15 -9z m-9063 -33
c-3 -8 -6 -5 -6 6 -1 11 2 17 5 13 3 -3 4 -12 1 -19z m9063 -108 c0 -5 -5 -10
-11 -10 -5 0 -7 5 -4 10 3 6 8 10 11 10 2 0 4 -4 4 -10z m-60 -14 c0 -19 -9
-24 -58 -32 -38 -6 -42 -5 -42 14 0 21 16 28 73 31 17 1 27 -4 27 -13z m0
-135 c0 -10 -13 -15 -67 -26 -25 -5 -33 -3 -33 8 0 7 3 17 7 20 10 11 93 8 93
-2z m0 -120 c0 -11 -35 -21 -72 -21 -39 0 -35 18 5 23 60 7 67 7 67 -2z
m-2020 -79 c0 -10 -7 -45 -15 -77 -12 -46 -24 -68 -52 -93 -46 -40 -54 -35
-17 13 20 27 29 51 32 93 2 36 10 62 20 70 22 17 32 15 32 -6z m1990 -42 c-36
-12 -62 -12 -55 0 3 6 23 10 43 9 33 -1 34 -2 12 -9z m-1697 -158 c-8 -20 -18
-71 -20 -114 l-6 -77 42 -53 c24 -29 38 -54 32 -56 -15 -5 -112 50 -125 70 -9
15 0 89 20 156 3 9 -7 -4 -21 -31 -14 -26 -43 -107 -64 -180 -21 -73 -43 -142
-49 -153 -8 -16 -27 -24 -77 -32 -92 -15 -150 -46 -223 -119 l-64 -63 -30 21
c-31 23 -25 39 15 39 11 0 38 22 62 48 46 51 105 87 196 121 31 12 64 30 74
40 9 11 29 62 44 113 48 163 101 260 164 298 41 25 49 17 30 -28z m1466 -38
c-13 -15 -64 -11 -83 7 -10 9 -7 10 46 13 15 1 31 5 35 10 13 13 15 -14 2 -30z
m466 -4 c0 -35 -4 -41 -29 -50 -16 -5 -39 -10 -51 -10 -29 0 -37 -37 -30 -139
2 -42 7 -165 10 -274 6 -187 5 -198 -12 -195 -16 3 -19 18 -24 113 -4 61 -7
178 -8 260 -1 163 -6 195 -28 195 -12 0 -13 -42 -7 -285 l7 -285 -52 0 -53 0
4 128 c2 70 5 132 7 137 9 26 0 306 -9 300 -5 -3 -10 3 -10 14 0 10 -6 22 -12
24 -7 3 -3 6 9 6 16 1 22 8 25 29 3 26 6 27 66 30 61 3 62 3 62 -24 0 -24 3
-26 28 -19 33 8 52 26 35 32 -18 7 -16 43 2 43 8 0 15 -4 15 -10 0 -5 4 -10
10 -10 5 0 7 7 4 15 -5 11 1 15 18 15 21 0 24 -4 23 -40z m-425 -1 c0 -5 -4
-9 -10 -9 -5 0 -10 7 -10 16 0 8 5 12 10 9 6 -3 10 -10 10 -16z m-7332 -266
c-2 -10 -11 -19 -20 -21 -12 -2 -15 2 -11 17 7 25 36 28 31 4z m46 -8 c-6 -16
-24 -21 -24 -7 0 11 11 22 21 22 5 0 6 -7 3 -15z m21 -57 c-4 -24 -11 -47 -17
-53 -10 -10 -5 46 8 78 11 31 16 18 9 -25z m406 -131 c-10 -9 -11 -8 -5 6 3
10 9 15 12 12 3 -3 0 -11 -7 -18z m7451 -828 c-3 -25 -25 -45 -30 -28 -2 5 -1
21 2 35 8 31 32 26 28 -7z m-2659 14 c-7 -2 -19 -2 -25 0 -7 3 -2 5 12 5 14 0
19 -2 13 -5z m2718 -30 c-12 -20 -14 -14 -5 12 4 9 9 14 11 11 3 -2 0 -13 -6
-23z m-8401 -215 c0 -19 2 -20 10 -8 8 13 10 13 10 -2 0 -9 -7 -21 -16 -26 -9
-5 -17 -18 -18 -28 -3 -28 -27 -107 -36 -119 -4 -5 -10 -19 -13 -30 -3 -11 -3
4 0 33 4 32 2 52 -5 52 -5 0 -9 11 -8 25 0 14 7 25 15 25 9 0 12 9 9 30 -4 29
5 40 17 20 14 -22 26 -9 20 20 -4 19 -3 30 4 30 6 0 11 -10 11 -22z m8620 0
c0 -13 -23 -5 -28 10 -2 7 2 10 12 6 9 -3 16 -11 16 -16z m-9090 -2 c0 -2 -7
-7 -16 -10 -8 -3 -12 -2 -9 4 6 10 25 14 25 6z m-66 -88 c-5 -28 -45 -189 -60
-240 -3 -10 -11 -15 -20 -11 -17 6 -20 -37 -3 -54 7 -7 6 -22 -5 -49 -8 -21
-20 -64 -27 -94 -9 -36 -15 -47 -17 -32 -4 24 -10 26 -31 13 -17 -11 4 -55 22
-45 7 4 4 -2 -6 -13 -14 -16 -16 -26 -7 -47 11 -31 -14 -127 -32 -123 -6 1
-14 -10 -19 -25 -5 -22 -4 -28 8 -28 8 0 13 -3 11 -7 -2 -5 -10 -25 -18 -45
-9 -25 -20 -38 -32 -38 -28 0 -25 70 5 95 19 17 20 20 5 23 -10 2 -18 8 -18
14 0 5 7 7 15 4 21 -8 36 33 21 56 -7 13 -12 14 -18 5 -11 -17 -10 12 3 94 10
60 14 67 27 57 13 -11 14 -9 8 17 -5 22 -4 26 4 15 6 -10 10 -11 10 -2 0 6 3
11 8 11 28 -5 32 2 17 30 -8 16 -19 31 -25 33 -10 3 -8 12 27 116 12 35 17 41
29 31 12 -10 13 -9 8 5 -5 12 -2 15 10 10 22 -8 40 37 20 49 -8 4 -18 5 -24 2
-5 -3 -3 9 5 27 7 18 20 32 28 32 9 -1 13 5 10 16 -4 15 52 130 63 130 2 0 1
-15 -2 -32z m8915 -95 c0 -5 -7 -24 -14 -43 -13 -33 -14 -34 -14 -8 -1 32 8
58 20 58 5 0 9 -3 8 -7z m5 -174 c-6 -11 -24 -2 -24 11 0 5 7 7 15 4 8 -4 12
-10 9 -15z m-914 -9 c0 -5 -5 -10 -11 -10 -5 0 -7 5 -4 10 3 6 8 10 11 10 2 0
4 -4 4 -10z m-3074 -19 c-3 -5 -15 -7 -26 -4 -28 7 -25 13 6 13 14 0 23 -4 20
-9z m3114 5 c0 -2 -7 -6 -15 -10 -8 -3 -15 -1 -15 4 0 6 7 10 15 10 8 0 15 -2
15 -4z m34 -11 c-6 -16 -24 -21 -24 -7 0 11 11 22 21 22 5 0 6 -7 3 -15z m131
-24 c-3 -6 3 -15 12 -21 15 -9 14 -10 -7 -4 -14 3 -29 11 -35 17 -7 7 -6 8 3
3 6 -4 12 -2 12 3 0 6 5 11 11 11 5 0 8 -4 4 -9z m-2730 -37 c170 -9 320 -20
332 -25 23 -8 23 -11 17 -111 -4 -57 -9 -106 -13 -109 -11 -12 -133 11 -166
31 -26 16 -62 21 -206 30 -237 14 -297 14 -311 3 -24 -19 -65 -23 -77 -9 -8
10 -9 16 -1 21 5 3 10 43 10 91 0 94 7 103 73 97 18 -1 171 -10 342 -19z
m2855 10 c0 -2 -7 -4 -15 -4 -8 0 -15 4 -15 10 0 5 7 7 15 4 8 -4 15 -8 15
-10z m-1940 -33 c11 -22 37 -57 59 -78 36 -34 38 -39 25 -54 -14 -16 -11 -18
36 -34 62 -20 63 -41 6 -69 -49 -24 -64 -15 -85 46 -9 25 -33 64 -53 86 -36
40 -68 92 -68 110 0 8 36 30 52 31 4 1 17 -17 28 -38z m2502 27 c-15 -15 -16
-73 0 -101 10 -20 10 -21 -5 -8 -29 23 -19 121 12 121 3 0 0 -5 -7 -12z m-492
-30 c0 -6 -6 -5 -15 2 -8 7 -15 14 -15 16 0 2 7 1 15 -2 8 -4 15 -11 15 -16z
m-7335 1 c12 -19 -4 -54 -31 -66 -26 -12 -26 -12 -20 19 10 48 36 73 51 47z
m5554 -3 c18 -22 29 -69 21 -91 -7 -18 -10 -16 -23 16 -33 74 -31 115 2 75z
m-5479 -23 c-1 -15 -30 -46 -37 -40 -3 4 2 16 12 27 19 21 25 24 25 13z m5036
-50 c-11 -11 -26 10 -26 35 l1 27 15 -28 c9 -16 13 -31 10 -34z m-96 -43 c8
-5 11 -10 5 -10 -5 0 -17 5 -25 10 -8 5 -10 10 -5 10 6 0 17 -5 25 -10z
m-4950 -45 c20 -24 6 -28 -15 -5 -10 11 -13 20 -8 20 6 0 16 -7 23 -15z m-72
-16 c7 -12 11 -23 9 -26 -9 -9 -47 17 -47 32 0 22 23 18 38 -6z m-834 1 c11 0
16 -3 13 -7 -10 -9 -87 -13 -87 -4 0 15 15 22 35 17 11 -3 29 -6 39 -6z m6031
-40 c4 -6 -5 -10 -20 -10 -15 0 -24 4 -20 10 3 6 12 10 20 10 8 0 17 -4 20
-10z m2075 -70 c0 -5 -5 -10 -11 -10 -5 0 -7 5 -4 10 3 6 8 10 11 10 2 0 4 -4
4 -10z m273 -40 c-3 -12 -8 -19 -11 -16 -5 6 5 36 12 36 2 0 2 -9 -1 -20z
m-7363 -25 c0 -8 -2 -15 -4 -15 -2 0 -6 7 -10 15 -3 8 -1 15 4 15 6 0 10 -7
10 -15z m5702 -20 c40 -14 74 -25 76 -25 1 0 2 -4 2 -8 0 -15 -55 -40 -103
-47 -39 -6 -50 -12 -58 -32 -7 -20 -12 -22 -28 -13 -25 13 -41 13 -41 -1 0 -6
6 -9 13 -6 7 3 24 -1 38 -9 l24 -13 -33 -1 c-37 0 -96 22 -107 40 -4 7 19 36
61 76 38 35 72 64 75 64 4 0 40 -11 81 -25z m-6229 -36 c-2 -23 -8 -48 -14
-57 -8 -13 -9 -11 -5 13 l6 30 -15 -28 c-16 -27 -35 -29 -35 -3 0 23 29 70 47
78 10 3 18 7 19 7 0 1 -1 -17 -3 -40z m76 -31 c-9 -35 -29 -61 -29 -40 0 14
28 72 35 72 2 0 -1 -14 -6 -32z m-652 -8 c15 0 24 -3 21 -6 -8 -8 -69 -14 -80
-8 -14 9 3 26 19 20 8 -3 26 -6 40 -6z m603 -10 c0 -11 -7 -20 -15 -20 -18 0
-19 12 -3 28 16 16 18 15 18 -8z m77 -2 c-3 -8 -6 -5 -6 6 -1 11 2 17 5 13 3
-3 4 -12 1 -19z m7386 -28 c-3 -11 -9 -17 -15 -14 -5 3 -4 12 3 20 16 19 18
18 12 -6z m227 -24 c0 -2 -7 -7 -16 -10 -8 -3 -12 -2 -9 4 6 10 25 14 25 6z
m152 -28 c-7 -7 -12 -8 -12 -2 0 14 12 26 19 19 2 -3 -1 -11 -7 -17z m-8811
-27 c6 10 9 8 9 -9 0 -25 77 -107 111 -117 14 -5 19 -13 16 -26 -3 -10 -2 -19
2 -19 3 0 11 -21 17 -46 10 -44 10 -45 -12 -40 -13 4 -24 1 -27 -7 -3 -6 -6
-2 -6 11 -1 23 -15 29 -26 11 -5 -6 -13 -2 -22 11 -12 16 -18 19 -23 10 -6
-10 -12 -7 -21 8 l-14 22 -12 -23 c-11 -19 -12 -14 -13 44 0 36 -3 95 -6 130
-4 52 -3 60 7 45 9 -15 13 -16 20 -5z m8652 -21 c3 -11 1 -20 -4 -20 -5 0 -9
2 -9 4 0 2 -3 11 -6 20 -3 9 -2 16 4 16 5 0 12 -9 15 -20z m-7676 -12 c-2 -12
-10 -24 -18 -26 -11 -3 -11 -1 1 7 12 9 11 11 -10 12 -14 1 -30 2 -37 2 -6 0
-14 6 -17 13 -4 11 5 14 39 14 41 0 45 -2 42 -22z m553 2 c0 -5 -5 -10 -11
-10 -5 0 -7 5 -4 10 3 6 8 10 11 10 2 0 4 -4 4 -10z m7190 -35 c0 -5 -5 -3
-10 5 -5 8 -10 20 -10 25 0 6 5 3 10 -5 5 -8 10 -19 10 -25z m-253 -32 c-3
-10 -5 -4 -5 12 0 17 2 24 5 18 2 -7 2 -21 0 -30z m76 -40 c-7 -2 -19 -2 -25
0 -7 3 -2 5 12 5 14 0 19 -2 13 -5z m-8285 -35 c2 -4 19 -31 38 -58 19 -27 34
-56 34 -65 0 -8 6 -15 13 -15 7 0 20 -15 29 -33 l16 -34 -25 5 c-13 2 -44 24
-69 48 -40 40 -49 54 -45 77 0 4 -3 7 -8 7 -9 0 -41 61 -41 79 0 13 53 3 58
-11z m177 12 c-28 -12 -37 -12 -30 0 3 6 16 10 28 9 21 0 21 -1 2 -9z m741
-34 c8 -20 -12 -53 -36 -59 -23 -6 -26 9 -8 48 12 27 35 33 44 11z m58 -48
c-10 -18 -19 -28 -21 -21 -5 15 15 53 28 53 5 0 2 -15 -7 -32z m-791 15 c-7
-2 -21 -2 -30 0 -10 3 -4 5 12 5 17 0 24 -2 18 -5z m-388 -49 c8 3 15 1 15 -4
0 -6 8 -10 19 -10 10 0 24 -7 31 -15 9 -11 15 -12 25 -2 7 6 10 18 8 24 -3 7
-1 13 4 13 5 0 22 -26 38 -57 35 -68 41 -84 25 -63 -10 13 -11 13 -7 0 2 -8
10 -15 18 -15 8 0 15 -10 17 -23 2 -12 8 -20 13 -16 13 8 40 -16 32 -29 -3 -6
-1 -7 5 -3 6 4 25 0 41 -9 35 -18 74 -19 103 -4 17 9 25 6 48 -19 l27 -30 -37
-21 c-44 -24 -96 -27 -136 -7 -15 8 -31 13 -36 10 -18 -11 -6 -45 23 -66 25
-19 28 -24 15 -33 -24 -18 -25 -65 0 -65 12 0 15 8 12 33 -3 34 0 36 45 23 40
-12 109 10 155 50 22 18 42 31 46 29 3 -3 4 -2 1 1 -10 14 17 44 40 44 18 0
25 -5 25 -19 0 -33 18 -33 36 -1 10 16 22 30 26 30 4 0 8 6 8 13 0 33 22 35
49 4 20 -22 32 -28 42 -21 8 5 31 9 52 10 46 0 47 -9 11 -93 -25 -59 -49 -84
-42 -46 2 10 -5 19 -15 21 -15 3 -18 -2 -15 -30 2 -19 8 -32 15 -31 23 5 -6
-45 -82 -143 -36 -46 -85 -94 -96 -94 -4 0 -24 -11 -44 -24 -77 -53 -190 -53
-281 0 -67 38 -160 148 -204 238 -78 165 -94 219 -66 229 10 4 13 13 9 24 -5
15 -4 15 10 -2 12 -16 18 -17 30 -7 12 10 16 9 22 -5 6 -17 7 -17 17 1 8 14
12 15 18 6 12 -19 30 -2 30 27 0 22 -3 24 -27 18 -24 -6 -25 -5 -12 12 9 11 4
10 -16 -5 -17 -14 -31 -19 -33 -13 -3 8 -10 7 -25 -1 -12 -6 -23 -11 -24 -10
-11 7 -23 -1 -23 -15 0 -29 -10 -8 -20 43 -5 27 -11 59 -14 70 -2 12 -7 38
-10 59 -6 33 -5 36 9 25 9 -8 15 -9 14 -4 -5 26 3 37 12 15 6 -15 15 -21 24
-17z m1215 -21 c0 -21 -7 -47 -15 -58 -14 -18 -16 -18 -32 -2 -11 11 -13 17
-5 18 11 1 19 3 37 8 2 0 0 13 -6 28 -7 20 -6 28 3 35 18 11 18 12 18 -29z
m-98 -68 c6 -14 8 -28 4 -32 -11 -12 -41 12 -44 36 -5 30 26 27 40 -4z"/>
<path d="M11233 14663 c9 -2 25 -2 35 0 9 3 1 5 -18 5 -19 0 -27 -2 -17 -5z"/>
<path d="M11968 14593 c6 -2 18 -2 25 0 6 3 1 5 -13 5 -14 0 -19 -2 -12 -5z"/>
<path d="M12308 14563 c7 -3 16 -2 19 1 4 3 -2 6 -13 5 -11 0 -14 -3 -6 -6z"/>
<path d="M12408 14563 c7 -3 16 -2 19 1 4 3 -2 6 -13 5 -11 0 -14 -3 -6 -6z"/>
<path d="M7178 13813 c7 -3 16 -2 19 1 4 3 -2 6 -13 5 -11 0 -14 -3 -6 -6z"/>
<path d="M7462 13718 c13 -18 24 -35 25 -37 1 -1 7 0 13 4 7 4 4 13 -10 25
-25 22 -26 34 -1 20 30 -15 39 -11 11 5 -14 8 -33 14 -43 15 -16 0 -15 -3 5
-32z"/>
<path d="M7153 13698 c2 -7 13 -13 25 -12 82 2 102 5 102 14 0 6 -29 10 -66
10 -48 0 -65 -3 -61 -12z"/>
<path d="M7068 13663 c7 -3 16 -2 19 1 4 3 -2 6 -13 5 -11 0 -14 -3 -6 -6z"/>
<path d="M7675 13560 c3 -5 8 -10 11 -10 2 0 4 5 4 10 0 6 -5 10 -11 10 -5 0
-7 -4 -4 -10z"/>
<path d="M7624 13536 c22 -18 56 -21 56 -6 0 6 -9 10 -19 10 -11 0 -28 3 -38
6 -16 5 -16 4 1 -10z"/>
<path d="M7222 13429 c-19 -17 -32 -33 -29 -35 2 -3 22 -2 43 2 34 5 39 9 41
35 3 37 -13 37 -55 -2z"/>
<path d="M7495 13432 c14 -15 40 -19 43 -7 1 6 -10 11 -25 13 -19 2 -25 0 -18
-6z"/>
<path d="M7326 13415 c3 -8 9 -15 14 -15 4 0 11 -10 17 -22 6 -15 12 -18 17
-10 4 7 2 12 -6 12 -10 0 -10 2 -1 8 9 6 4 13 -17 25 -25 15 -29 16 -24 2z"/>
<path d="M6546 13393 c4 -16 8 -50 7 -76 0 -35 3 -47 12 -43 15 5 24 -18 31
-84 8 -66 19 -80 60 -80 22 0 37 -6 40 -15 9 -22 51 -19 59 4 8 26 -19 141
-46 193 -37 73 -104 128 -156 128 -12 0 -13 -6 -7 -27z"/>
<path d="M7027 13359 c-28 -16 -66 -58 -58 -63 20 -13 82 9 108 37 15 16 23
27 16 23 -6 -3 -14 -2 -18 4 -8 13 -25 12 -48 -1z"/>
<path d="M7565 13284 c-22 -25 -41 -46 -42 -48 -1 -1 13 -9 31 -17 31 -14 33
-14 28 3 -6 24 30 25 49 1 8 -9 28 -22 45 -29 28 -12 31 -17 33 -63 1 -27 -3
-52 -9 -56 -5 -3 -10 -16 -10 -27 0 -47 -107 -103 -124 -65 -3 6 -3 2 -1 -10
3 -12 1 -24 -5 -28 -20 -12 2 -25 44 -25 23 0 47 -5 54 -12 8 -8 20 -4 49 18
21 16 47 34 58 39 29 15 34 75 6 82 -23 6 -28 19 -8 26 9 3 9 7 0 17 -8 9 -10
33 -6 76 6 68 -9 124 -33 124 -8 0 -14 -4 -14 -10 0 -5 -7 -10 -15 -10 -8 0
-15 8 -15 18 0 25 -20 42 -49 42 -18 -1 -39 -15 -66 -46z"/>
<path d="M7290 13166 c0 -9 6 -16 13 -16 16 0 46 20 30 20 -6 0 -18 3 -27 6
-11 4 -16 1 -16 -10z"/>
<path d="M7630 13080 c0 -11 4 -20 9 -20 5 0 7 9 4 20 -3 11 -7 20 -9 20 -2 0
-4 -9 -4 -20z"/>
<path d="M7900 12992 c0 -74 2 -83 18 -80 9 2 17 11 16 21 0 9 -1 36 -2 60 -1
24 -9 52 -17 63 -13 17 -14 11 -15 -64z"/>
<path d="M6470 12972 c0 -4 4 -12 9 -17 5 -6 14 -26 20 -45 6 -19 20 -41 30
-47 19 -12 19 -11 5 15 -7 15 -20 44 -28 65 -13 32 -36 51 -36 29z"/>
<path d="M7790 12923 c0 -13 5 -23 10 -23 13 0 13 11 0 30 -8 12 -10 11 -10
-7z"/>
<path d="M7320 12910 c0 -5 11 -10 25 -10 14 0 25 5 25 10 0 6 -11 10 -25 10
-14 0 -25 -4 -25 -10z"/>
<path d="M7846 12704 c-4 -9 -4 -19 -1 -22 2 -3 7 3 11 12 4 9 4 19 1 22 -2 3
-7 -3 -11 -12z"/>
<path d="M7560 12360 c-9 -6 -10 -10 -3 -10 6 0 15 5 18 10 8 12 4 12 -15 0z"/>
<path d="M7220 12220 c8 -5 22 -10 30 -10 13 0 13 1 0 10 -8 5 -22 10 -30 10
-13 0 -13 -1 0 -10z"/>
<path d="M7352 12211 c6 -10 18 -17 25 -14 11 4 10 8 -4 19 -26 19 -35 17 -21
-5z"/>
<path d="M6598 11943 c7 -3 16 -2 19 1 4 3 -2 6 -13 5 -11 0 -14 -3 -6 -6z"/>
<path d="M7190 11859 c0 -5 5 -7 10 -4 6 3 10 8 10 11 0 2 -4 4 -10 4 -5 0
-10 -5 -10 -11z"/>
<path d="M6461 11083 c-1 -6 -4 -20 -7 -30 -5 -17 -5 -17 6 0 6 10 9 23 6 30
-3 9 -5 9 -5 0z"/>
<path d="M6356 10820 c-20 -85 -39 -163 -42 -172 -3 -10 -2 -18 3 -18 11 0 87
313 81 331 -3 8 -21 -56 -42 -141z"/>
<path d="M6391 10814 c0 -11 3 -14 6 -6 3 7 2 16 -1 19 -3 4 -6 -2 -5 -13z"/>
<path d="M6330 10595 c-18 -69 -31 -128 -28 -130 2 -2 19 52 37 121 18 69 31
127 29 130 -3 2 -20 -52 -38 -121z"/>
<path d="M6251 10284 c0 -11 3 -14 6 -6 3 7 2 16 -1 19 -3 4 -6 -2 -5 -13z"/>
<path d="M6441 4794 c0 -11 3 -14 6 -6 3 7 2 16 -1 19 -3 4 -6 -2 -5 -13z"/>
<path d="M6346 4585 c-9 -26 -7 -32 5 -12 6 10 9 21 6 23 -2 3 -7 -2 -11 -11z"/>
<path d="M6994 3355 c-4 -8 -3 -23 1 -32 6 -17 7 -17 20 0 14 19 10 47 -6 47
-5 0 -12 -7 -15 -15z"/>
<path d="M7084 3345 c-7 -18 2 -45 15 -45 5 0 11 7 15 15 7 18 -2 45 -15 45
-5 0 -12 -7 -15 -15z"/>
<path d="M6510 3323 c0 -21 -3 -24 -9 -13 -6 8 -7 19 -3 25 3 5 -2 4 -11 -4
-18 -15 -23 -61 -7 -61 6 0 22 7 35 16 28 18 35 64 10 64 -10 0 -15 -10 -15
-27z"/>
<path d="M6432 3275 c2 -14 8 -26 13 -26 6 0 11 12 13 26 2 18 -1 25 -13 25
-12 0 -15 -7 -13 -25z"/>
<path d="M6987 3271 c-6 -24 7 -46 22 -37 16 10 14 56 -3 56 -7 0 -16 -9 -19
-19z"/>
<path d="M6956 3263 c-6 -14 -5 -15 5 -6 7 7 10 15 7 18 -3 3 -9 -2 -12 -12z"/>
<path d="M6392 3245 c2 -14 8 -26 13 -26 6 0 11 12 13 26 2 18 -1 25 -13 25
-12 0 -15 -7 -13 -25z"/>
<path d="M6900 3246 c0 -27 17 -43 31 -29 12 12 -1 53 -17 53 -8 0 -14 -10
-14 -24z"/>
<path d="M6805 3198 c-4 -15 -4 -32 0 -38 3 -5 -1 -13 -9 -16 -19 -7 -23 -68
-3 -62 6 3 13 17 15 33 2 15 10 38 18 50 12 18 12 24 0 41 -14 18 -15 18 -21
-8z"/>
<path d="M6551 3180 c-12 -17 -21 -40 -19 -51 4 -29 23 -19 23 13 0 21 3 24
13 15 15 -12 34 8 29 32 -4 26 -23 22 -46 -9z"/>
<path d="M6697 3195 c-9 -21 2 -45 20 -45 10 0 13 9 11 27 -3 30 -23 41 -31
18z"/>
<path d="M6985 3195 c-3 -8 -7 -21 -9 -29 -7 -20 4 -27 25 -15 23 12 26 59 4
59 -9 0 -18 -7 -20 -15z"/>
<path d="M6892 3166 c2 -15 8 -26 13 -26 15 0 12 43 -3 48 -10 3 -13 -4 -10
-22z"/>
<path d="M6669 3133 c-1 -10 -1 -21 -1 -25 1 -3 -5 -12 -13 -18 -21 -17 -20
-60 1 -60 12 0 15 7 12 30 -4 30 6 42 15 18 2 -7 8 -1 12 14 8 31 1 58 -15 58
-5 0 -11 -8 -11 -17z"/>
<path d="M6984 3116 c-8 -22 3 -49 19 -43 6 2 12 14 12 27 0 27 -22 39 -31 16z"/>
<path d="M6484 3104 c3 -9 6 -22 6 -30 0 -17 27 -19 33 -1 7 23 -5 47 -25 47
-14 0 -18 -5 -14 -16z"/>
<path d="M6887 3114 c-9 -10 -9 -64 1 -64 23 1 30 16 18 43 -6 16 -14 25 -19
21z"/>
<path d="M6757 3052 c-7 -27 9 -50 24 -35 13 13 9 45 -7 50 -6 2 -14 -5 -17
-15z"/>
<path d="M6864 3015 c-8 -20 3 -48 17 -43 6 2 10 7 10 11 -1 4 -1 16 -1 27 0
23 -18 27 -26 5z"/>
<path d="M6606 3004 c-7 -19 12 -47 25 -38 5 3 9 16 9 30 0 27 -24 33 -34 8z"/>
<path d="M6734 2974 c-7 -29 2 -45 21 -37 20 7 20 60 0 60 -9 0 -18 -11 -21
-23z"/>
<path d="M10978 15599 c-38 -23 -68 -46 -68 -51 0 -7 5 -7 13 -1 6 5 38 26 70
48 50 33 64 45 55 45 -2 0 -33 -19 -70 -41z"/>
<path d="M10790 15509 c-7 -11 -10 -23 -7 -25 2 -2 9 7 15 21 14 30 7 33 -8 4z"/>
<path d="M9398 15053 c7 -3 16 -2 19 1 4 3 -2 6 -13 5 -11 0 -14 -3 -6 -6z"/>
<path d="M6825 14941 c-5 -25 -10 -29 -33 -26 -15 2 -36 1 -47 -2 -35 -11 29
-22 89 -16 l52 5 -15 34 c-19 42 -37 44 -46 5z"/>
<path d="M8138 14903 c7 -3 16 -2 19 1 4 3 -2 6 -13 5 -11 0 -14 -3 -6 -6z"/>
<path d="M8198 14903 c6 -2 18 -2 25 0 6 3 1 5 -13 5 -14 0 -19 -2 -12 -5z"/>
<path d="M8730 14899 c-85 -4 -339 -10 -565 -13 -225 -3 -581 -9 -790 -12
-209 -3 -386 -8 -394 -10 -8 -3 -166 -7 -350 -9 -185 -3 -364 -7 -399 -10 -71
-7 -115 -23 -108 -41 2 -6 1 -15 -4 -20 -14 -15 -17 -357 -3 -361 7 -2 11 -10
9 -16 -1 -7 -1 -9 1 -4 8 14 23 7 23 -10 0 -13 3 -14 8 -6 11 18 234 25 1162
38 195 3 450 7 565 10 116 4 424 10 685 14 389 7 480 11 502 23 15 8 26 17 24
19 -5 6 11 325 18 347 4 11 -2 28 -15 43 -19 22 -28 24 -117 24 -54 0 -167 -3
-252 -6z m353 -47 c10 -10 14 -21 11 -25 -4 -3 -8 -39 -9 -79 -1 -40 -6 -113
-10 -161 -7 -77 -11 -90 -29 -97 -12 -4 -307 -13 -656 -19 -349 -7 -808 -16
-1020 -21 -539 -13 -1213 -16 -1227 -7 -10 6 -13 47 -12 150 1 95 4 134 10
117 6 -18 7 -11 4 26 -5 48 -4 52 22 64 20 10 81 14 213 16 369 4 878 14 1030
19 307 10 553 16 1035 21 270 3 492 8 494 10 2 2 32 4 66 4 47 0 66 -4 78 -18z"/>
<path d="M8793 14803 c-7 -2 -13 -11 -13 -19 0 -8 -4 -14 -10 -14 -21 0 -9
-21 23 -40 25 -16 41 -19 77 -13 25 4 53 7 62 7 9 0 15 4 12 7 -2 4 0 10 6 14
16 10 12 52 -6 59 -18 7 -133 7 -151 -1z"/>
<path d="M6150 14769 c0 -5 5 -7 10 -4 6 3 10 8 10 11 0 2 -4 4 -10 4 -5 0
-10 -5 -10 -11z"/>
<path d="M6465 14728 c-5 -21 -4 -33 4 -36 6 -2 9 -7 7 -11 -2 -3 13 -7 34 -7
25 -1 41 4 44 13 4 9 1 11 -5 7 -9 -5 -10 4 -5 30 l7 36 -40 0 c-36 0 -40 -3
-46 -32z"/>
<path d="M6928 14453 c12 -2 30 -2 40 0 9 3 -1 5 -23 4 -22 0 -30 -2 -17 -4z"/>
<path d="M6243 14873 c9 -2 23 -2 30 0 6 3 -1 5 -18 5 -16 0 -22 -2 -12 -5z"/>
<path d="M6738 14873 c7 -3 16 -2 19 1 4 3 -2 6 -13 5 -11 0 -14 -3 -6 -6z"/>
<path d="M12501 14376 c-57 -20 -49 -37 8 -19 27 9 48 20 45 25 -6 10 -11 10
-53 -6z"/>
<path d="M8603 13993 c15 -2 37 -2 50 0 12 2 0 4 -28 4 -27 0 -38 -2 -22 -4z"/>
<path d="M8821 13698 c17 -34 19 -34 19 -5 0 18 -5 27 -15 27 -13 0 -14 -4 -4
-22z"/>
<path d="M8637 11957 c-9 -34 -20 -81 -23 -105 l-7 -43 -21 20 c-29 26 -103
64 -117 59 -25 -8 -16 -39 17 -64 19 -15 34 -33 34 -40 0 -10 13 -13 52 -11
l52 3 23 90 c12 49 23 101 23 116 0 49 -15 37 -33 -25z"/>
<path d="M5312 11719 c-26 -23 -28 -45 -6 -66 11 -12 18 -13 27 -4 7 7 7 11 1
11 -15 0 -11 43 5 56 9 7 10 13 4 17 -5 4 -20 -3 -31 -14z"/>
<path d="M5801 11698 c-1 -11 -6 -15 -16 -12 -19 8 -19 -3 0 -22 13 -14 16
-14 21 0 3 8 4 23 1 33 -4 16 -5 16 -6 1z"/>
<path d="M15367 10218 c-9 -34 15 -229 27 -225 6 2 25 25 41 52 39 64 42 131
6 169 -31 32 -67 34 -74 4z"/>
<path d="M14883 9854 c-8 -4 -4 -19 13 -51 13 -25 24 -55 24 -65 0 -26 21 -18
38 13 29 56 -21 125 -75 103z"/>
<path d="M15058 9813 c-8 -10 -20 -40 -25 -68 -6 -27 -14 -59 -18 -70 -5 -14
2 -11 23 12 38 40 69 143 44 143 -5 0 -16 -8 -24 -17z"/>
<path d="M8230 9076 c0 -17 4 -17 154 -21 l60 -2 -40 14 c-21 8 -69 17 -106
20 -59 5 -68 4 -68 -11z"/>
<path d="M8451 9046 c10 -9 69 -36 69 -32 0 6 -55 36 -66 36 -4 0 -5 -2 -3 -4z"/>
<path d="M8530 9006 c0 -2 8 -10 18 -17 15 -13 16 -12 3 4 -13 16 -21 21 -21
13z"/>
</g>
</svg>
