<?xml version="1.0" standalone="no"?>
<!DOCTYPE svg PUBLIC "-//W3C//DTD SVG 20010904//EN"
 "http://www.w3.org/TR/2001/REC-SVG-20010904/DTD/svg10.dtd">
<svg version="1.0" xmlns="http://www.w3.org/2000/svg"
 width="1749.000000pt" height="1840.000000pt" viewBox="0 0 1749.000000 1840.000000"
 preserveAspectRatio="xMidYMid meet">

<g transform="translate(0.000000,1840.000000) scale(0.100000,-0.100000)"
fill="#000000" stroke="none">
<path d="M12016 17554 c-226 -55 -414 -255 -472 -501 -21 -89 -21 -239 0 -328
36 -149 137 -303 252 -380 32 -22 62 -44 65 -48 3 -4 11 -1 18 6 14 18 101
274 101 299 0 15 9 18 50 18 47 0 50 -2 50 -25 0 -17 -5 -25 -18 -25 -14 0
-23 -23 -46 -117 -16 -65 -30 -122 -30 -128 -1 -5 13 -11 30 -13 22 -2 35 -11
43 -28 14 -32 15 -32 -11 -38 -13 -2 27 -3 87 -2 83 2 125 8 170 24 263 96
440 386 422 692 -23 402 -356 680 -711 594z m326 -141 c24 -9 57 -26 74 -39
l31 -23 29 30 28 29 44 -42 c58 -57 126 -197 148 -308 18 -90 15 -197 -7 -285
-18 -72 -35 -78 -187 -72 -168 7 -206 16 -254 55 -15 13 -23 13 -60 -1 -58
-21 -93 -27 -228 -34 -113 -6 -116 -5 -146 20 -41 35 -54 85 -54 214 0 91 4
124 26 189 47 146 96 199 202 220 37 7 99 24 137 38 82 30 156 33 217 9z m196
-814 c39 -6 72 -12 72 -14 0 -16 -81 -139 -114 -174 -46 -49 -123 -102 -177
-121 -35 -12 -38 -12 -63 13 -14 14 -26 28 -26 31 0 2 26 19 58 36 94 54 107
67 103 106 -1 21 2 34 10 34 8 0 10 14 5 48 -7 56 -3 63 33 57 14 -3 59 -9 99
-16z m-205 4 c-23 -2 -64 -2 -90 0 -26 2 -7 3 42 3 50 0 71 -1 48 -3z m-408
-13 c-16 -4 -61 -8 -98 -9 l-68 -1 7 -69 c4 -46 3 -71 -5 -75 -15 -10 -20 8
-24 86 l-3 67 60 4 c34 2 84 3 111 4 42 1 45 -1 20 -7z"/>
<path d="M12400 16479 c0 -5 5 -7 10 -4 6 3 10 8 10 11 0 2 -4 4 -10 4 -5 0
-10 -5 -10 -11z"/>
<path d="M5346 17328 c-161 -30 -321 -159 -405 -325 -73 -146 -96 -345 -57
-493 43 -160 148 -307 278 -387 44 -27 63 -46 77 -78 15 -35 84 -95 440 -385
334 -272 423 -350 430 -374 l9 -31 1 33 c1 22 -7 40 -21 55 -13 12 -201 167
-418 343 -217 177 -404 331 -414 343 -29 32 -31 103 -7 228 12 60 21 122 21
136 0 25 3 27 43 26 38 -1 39 -2 12 -8 -21 -4 -26 -9 -17 -15 7 -4 25 -5 39
-1 23 5 25 4 14 -9 -8 -9 -19 -16 -26 -16 -8 0 -14 -32 -18 -104 -3 -57 -13
-120 -21 -140 -8 -20 -12 -44 -9 -53 5 -12 3 -14 -8 -8 -8 5 -3 -3 10 -18 14
-15 29 -23 39 -20 9 4 13 2 9 -4 -4 -6 3 -19 15 -29 12 -11 18 -13 13 -5 -5 9
-3 12 6 9 8 -3 13 -10 12 -16 -2 -6 164 -146 367 -312 203 -166 373 -308 378
-317 8 -13 10 -12 15 6 4 17 -26 46 -183 173 -104 84 -193 153 -198 153 -16 0
-262 197 -257 205 3 4 -36 41 -86 81 -83 67 -89 74 -67 80 23 7 23 7 1 8 -20
1 -43 27 -43 49 0 5 30 12 68 15 81 7 160 33 226 75 27 17 53 29 57 26 5 -3 9
-23 9 -44 0 -45 -13 -56 -107 -97 -45 -18 -50 -22 -23 -17 52 9 149 58 200
100 158 131 242 317 243 539 0 132 -17 207 -74 324 -110 223 -341 344 -573
299z m367 -170 c47 -32 57 -35 67 -23 20 24 38 17 71 -27 42 -58 86 -154 104
-231 17 -73 18 -233 2 -297 l-12 -45 -48 3 c-27 2 -63 -2 -81 -8 -19 -6 -72
-11 -119 -11 -74 -1 -90 2 -118 22 -31 22 -33 22 -83 6 -110 -34 -285 -48
-339 -28 -15 6 -34 29 -48 58 -20 41 -23 63 -23 158 -1 128 24 225 78 309 53
82 86 103 179 113 26 3 73 14 105 24 40 13 80 18 133 16 69 -2 81 -5 132 -39z
m-65 -753 c-7 -7 -158 -8 -165 -1 -4 3 33 6 82 6 49 0 86 -2 83 -5z m-403 -15
c-3 -5 -42 -10 -86 -10 l-80 0 7 -70 c5 -61 4 -70 -10 -70 -16 0 -20 25 -19
108 1 17 -4 33 -11 34 -23 3 81 15 142 16 40 1 61 -2 57 -8z m613 -55 c-27
-54 -45 -64 -59 -28 -14 36 -8 45 37 59 21 6 40 12 41 13 2 1 -7 -19 -19 -44z
m-169 -72 c1 -22 -16 -14 -22 9 -8 28 4 47 14 22 4 -10 8 -25 8 -31z m-368
-220 c13 -16 12 -17 -3 -4 -10 7 -18 15 -18 17 0 8 8 3 21 -13z m164 -128 c17
-14 21 -21 10 -16 -11 6 -38 27 -60 46 -45 41 -2 15 50 -30z"/>
<path d="M5473 16053 c9 -2 23 -2 30 0 6 3 -1 5 -18 5 -16 0 -22 -2 -12 -5z"/>
<path d="M11150 15770 c-9 -6 -10 -10 -3 -10 6 0 15 5 18 10 8 12 4 12 -15 0z"/>
<path d="M11064 15714 c-18 -14 -18 -15 4 -4 12 6 22 13 22 15 0 8 -5 6 -26
-11z"/>
<path d="M8154 15586 c-16 -12 -98 -17 -394 -25 -340 -9 -374 -9 -385 6 -18
24 -162 12 -184 -15 -9 -10 -43 -29 -76 -42 -85 -34 -128 -62 -227 -152 -100
-91 -139 -156 -159 -268 -11 -63 -10 -72 5 -89 10 -11 16 -32 14 -53 -1 -25 8
-48 38 -91 l39 -58 380 6 c209 3 432 8 495 10 63 2 259 7 435 10 176 3 401 8
500 11 174 6 181 5 208 -16 l27 -22 -6 -136 c-3 -76 -8 -146 -9 -157 -2 -11
-4 -46 -4 -77 -1 -49 -5 -62 -28 -87 l-28 -30 -270 -6 c-555 -12 -710 -15
-1090 -20 -214 -3 -421 -8 -460 -10 -38 -2 -318 -7 -622 -11 l-551 -7 -9 34
c-9 36 2 360 15 418 14 66 30 70 285 73 125 1 221 6 213 10 -20 11 -8 48 15
48 16 0 18 -5 13 -25 -4 -15 -2 -25 5 -25 6 0 11 8 11 19 0 29 27 44 76 44 24
0 44 4 44 9 0 4 7 8 15 8 12 0 13 -4 5 -19 -14 -27 -13 -30 9 -24 28 7 34 33
15 54 -21 24 -52 25 -50 3 0 -9 -5 -19 -12 -21 -8 -3 -10 1 -6 12 6 14 0 16
-42 13 l-48 -3 3 46 c2 42 -1 48 -39 83 -23 21 -61 46 -85 56 -38 16 -44 23
-50 59 -6 34 -11 42 -33 47 -15 3 -32 7 -38 9 -8 2 -97 -105 -108 -131 -1 -1
-61 -11 -135 -22 -74 -12 -139 -26 -145 -32 -6 -6 -20 -59 -31 -118 l-20 -107
-105 4 c-102 3 -119 7 -168 35 -28 16 -62 10 -62 -10 0 -8 -6 -17 -14 -20 -8
-3 -17 -17 -20 -30 -8 -30 -21 -35 -167 -68 -274 -61 -544 -93 -880 -103 -216
-6 -217 -6 -224 16 -7 23 -53 51 -84 51 -12 0 -35 -13 -53 -29 -45 -40 -45
-92 0 -132 37 -33 60 -36 105 -12 27 14 70 16 279 17 136 1 243 -3 239 -7 -4
-4 -52 -14 -106 -20 -86 -11 -99 -15 -100 -32 -2 -11 -6 -28 -10 -39 -7 -16
-4 -18 21 -13 16 3 79 13 139 22 61 9 122 18 138 21 20 4 27 2 27 -10 0 -18
-66 -54 -130 -71 -42 -10 -45 -14 -48 -47 -3 -37 -3 -37 -60 -43 -31 -4 -69
-13 -83 -20 -21 -10 -29 -9 -44 1 -14 11 -17 24 -13 74 2 34 9 65 15 68 11 8
36 52 31 57 -6 6 -108 -76 -124 -100 -23 -36 -20 -107 8 -156 18 -33 34 -45
73 -60 87 -33 88 -33 60 -5 -14 14 -25 33 -25 42 0 16 2 16 15 -2 14 -19 14
-19 15 2 0 19 9 23 72 32 53 8 74 8 79 0 4 -7 45 -11 103 -12 59 -1 100 -6
107 -13 9 -9 7 -13 -12 -17 -21 -5 -304 -46 -315 -46 -2 0 -4 -4 -4 -9 0 -16
38 -19 87 -6 27 7 113 20 192 29 79 9 148 19 153 22 15 9 388 64 438 64 25 0
64 6 87 13 38 11 40 14 27 32 -8 10 -14 14 -14 8 0 -6 -17 -13 -37 -16 -30 -5
-42 -2 -60 15 -35 33 -30 55 14 63 33 6 40 4 60 -22 13 -15 23 -22 23 -15 0
22 14 13 39 -25 22 -34 24 -46 22 -150 -1 -63 -4 -120 -7 -127 -3 -8 -16 -17
-30 -20 -22 -6 -24 -11 -24 -74 0 -37 -3 -84 -6 -104 l-6 -37 73 -37 74 -37
113 15 c62 9 116 19 119 22 4 3 9 50 12 104 6 93 7 97 34 110 26 13 27 16 29
103 1 49 2 97 2 107 1 13 16 20 71 29 154 26 284 44 369 50 l89 6 -7 -49 c-18
-131 -19 -194 -2 -238 18 -46 73 -110 140 -162 l38 -30 -69 -69 c-151 -152
-250 -357 -269 -555 -4 -36 -12 -74 -19 -85 -8 -13 -9 -28 -3 -44 4 -13 8 -40
7 -60 -2 -86 65 -320 126 -440 l27 -54 -63 -194 c-56 -173 -66 -196 -91 -209
-15 -8 -32 -22 -37 -32 -20 -38 -53 -190 -55 -255 -3 -103 5 -100 -253 -99
l-218 0 0 -64 c-1 -35 -4 -67 -9 -71 -4 -4 -122 -7 -262 -7 -227 0 -254 -1
-252 -15 5 -23 241 -40 600 -44 159 -2 291 -6 294 -10 12 -12 -191 -593 -379
-1083 -186 -485 -234 -658 -244 -884 -6 -149 7 -240 50 -347 14 -36 21 -67 17
-83 l-6 -25 -400 -1 -401 0 -46 -27 c-55 -33 -55 -33 -141 -357 -80 -304 -78
-297 -66 -305 6 -4 8 -10 5 -15 -10 -17 46 -68 115 -104 38 -20 70 -42 70 -47
0 -9 -140 -542 -175 -665 l-15 -52 -67 -7 c-317 -32 -643 -178 -924 -413 -282
-237 -552 -612 -735 -1025 -40 -90 -45 -110 -33 -118 21 -13 80 -11 156 7 62
15 307 23 319 11 2 -2 -19 -52 -47 -110 -45 -95 -57 -112 -107 -151 -48 -36
-60 -53 -74 -96 -17 -53 -17 -53 8 -86 l25 -32 -35 -114 c-39 -126 -100 -369
-112 -444 -5 -39 -15 -56 -45 -84 -31 -29 -39 -46 -48 -94 -11 -58 -10 -61 15
-87 l26 -28 -17 -163 c-9 -90 -20 -247 -24 -350 -7 -186 -7 -188 -34 -216 -24
-25 -27 -36 -27 -93 0 -59 3 -68 29 -93 27 -25 29 -34 35 -129 10 -149 24
-274 47 -434 l21 -142 -27 -23 c-25 -22 -26 -27 -19 -78 6 -47 13 -61 52 -100
41 -41 48 -55 83 -175 20 -72 58 -188 84 -259 l46 -128 -26 -40 -26 -40 18
-45 c20 -49 88 -117 140 -139 21 -9 42 -32 63 -69 17 -30 61 -96 97 -146 l64
-90 -19 -58 -20 -59 29 -35 c49 -60 152 -114 254 -132 92 -17 161 -44 158 -61
-1 -5 -5 -37 -8 -70 l-7 -60 128 -58 c111 -51 247 -106 258 -106 2 0 7 25 11
55 6 51 16 67 29 47 3 -5 2 -32 -3 -60 l-8 -52 121 -39 c190 -62 411 -112 556
-126 30 -3 109 -11 175 -17 250 -25 604 -13 850 28 189 32 184 30 187 77 4 52
22 55 26 4 2 -20 7 -37 11 -37 17 0 289 80 344 101 l57 22 0 57 c0 42 4 59 15
64 8 3 15 12 15 21 0 22 18 19 25 -5 7 -23 30 -25 123 -9 72 13 191 64 236
103 l30 25 -13 66 -12 67 68 71 c38 40 81 89 97 109 19 26 36 38 52 38 40 0
146 74 172 119 l22 40 -20 50 -20 51 73 147 c41 82 84 177 98 212 20 53 33 71
76 103 44 33 56 49 70 94 17 54 16 54 -6 85 -17 22 -21 39 -17 58 4 14 28 109
54 210 l48 184 129 1 c115 1 136 4 177 24 95 47 146 165 175 399 l17 133 80
-1 c45 0 563 -17 1151 -38 l1070 -38 515 64 c283 35 520 61 527 59 18 -7 16
-56 -3 -77 -26 -29 -2 -112 41 -145 28 -21 40 -44 71 -137 20 -62 54 -152 76
-202 38 -89 38 -90 23 -129 -15 -37 -15 -43 1 -78 17 -38 100 -108 128 -108 8
0 31 -23 51 -51 20 -28 54 -70 75 -93 l40 -43 -12 -57 c-12 -54 -11 -57 12
-80 40 -39 151 -92 234 -112 73 -17 76 -19 76 -46 0 -37 23 -51 186 -110 241
-88 401 -128 646 -163 156 -22 376 -30 433 -16 36 9 50 9 55 1 8 -12 110 -7
205 10 28 5 79 12 115 15 102 9 180 23 343 66 30 8 37 14 37 34 0 14 5 25 10
25 6 0 10 -7 10 -16 0 -12 7 -14 33 -9 76 17 202 57 262 84 l64 29 -5 64 -5
63 49 32 c30 21 61 33 82 33 44 0 151 55 176 91 18 26 19 35 11 83 -10 54 -10
55 35 123 24 37 61 98 81 134 28 50 49 73 85 96 37 23 51 39 62 72 12 37 11
46 -3 75 -15 33 -15 37 14 113 17 43 50 145 73 227 36 122 49 154 74 177 37
35 53 111 27 139 -14 16 -14 29 9 161 14 79 33 211 42 294 15 124 21 153 38
166 27 22 35 177 11 212 -22 31 -19 138 5 228 11 41 23 125 27 187 4 79 10
112 18 112 17 0 25 23 25 68 0 44 -8 57 -37 66 -24 8 -63 63 -63 90 0 15 12
16 124 10 173 -10 198 3 213 111 13 97 -49 518 -117 792 -71 288 -146 496
-261 725 -114 225 -205 354 -363 515 -98 101 -99 103 -81 123 15 16 17 26 9
48 -7 22 -21 31 -73 48 -67 21 -69 27 -13 39 61 13 116 79 82 100 -14 9 -12
25 3 25 36 1 36 4 22 447 -7 238 -16 437 -20 442 -3 6 -18 11 -33 11 -19 0
-30 7 -37 23 -7 16 -20 23 -48 25 -21 2 -40 9 -42 15 -2 7 -6 80 -10 163 l-6
151 29 6 c19 4 31 14 36 29 14 53 -3 120 -23 90 -12 -20 -23 27 -15 67 8 38
-14 221 -28 239 -6 6 -27 12 -47 12 l-37 0 -3 48 c-3 59 -21 82 -21 27 -1 -22
-7 -53 -14 -70 -13 -28 -13 -26 -8 32 7 85 -3 125 -44 178 l-35 46 23 19 c30
25 59 25 90 0 35 -27 52 -72 43 -117 -19 -112 -4 -169 23 -83 26 85 5 188 -51
249 -21 22 -21 23 -2 19 12 -2 31 -25 49 -60 l29 -57 28 20 c28 20 28 21 14
55 -8 19 -24 49 -36 65 -23 33 -16 56 8 24 39 -53 57 -102 57 -160 1 -33 -3
-71 -7 -83 -8 -22 -7 -23 12 -12 46 24 67 141 35 190 -10 14 -33 42 -52 62
-20 21 -33 40 -30 43 8 9 65 -42 85 -75 9 -16 20 -27 24 -25 9 6 -8 92 -26
128 -8 17 -12 33 -9 36 9 9 33 -30 45 -74 13 -45 5 -184 -11 -215 -12 -23 2
-27 20 -5 9 11 32 15 81 15 96 0 99 5 89 185 -5 77 -12 166 -16 197 -6 54 -6
58 18 69 53 24 128 -48 128 -122 0 -19 -11 -56 -23 -82 -13 -25 -19 -43 -13
-40 46 28 535 447 547 470 57 98 10 246 -97 309 -40 23 -63 29 -156 35 -60 5
-113 11 -118 14 -6 4 -10 23 -10 43 -1 65 -18 116 -47 139 -26 22 -37 23 -188
23 -229 0 -325 9 -324 29 0 9 35 43 77 76 63 49 84 73 114 130 21 39 40 92 44
118 5 32 13 51 26 58 24 13 50 72 42 93 -6 14 -113 16 -1031 16 -1023 0 -1026
0 -1059 -21 -44 -27 -54 -47 -54 -106 0 -62 16 -91 68 -126 23 -16 42 -35 42
-43 0 -26 47 -108 89 -156 23 -25 41 -49 41 -52 0 -3 -522 -7 -1159 -8 -638
-2 -1163 -6 -1167 -10 -4 -4 -22 -64 -40 -134 -62 -230 -148 -414 -249 -531
l-37 -43 -164 0 c-185 0 -216 -7 -256 -61 -24 -32 -124 -210 -320 -569 -58
-107 -98 -195 -128 -284 -39 -118 -42 -134 -36 -195 4 -36 18 -99 32 -141 31
-96 115 -260 133 -260 7 0 45 -11 83 -25 41 -15 91 -25 123 -25 l54 0 -16 -47
c-8 -27 -22 -53 -29 -59 -8 -6 -53 -14 -102 -18 -48 -4 -103 -10 -122 -13 -34
-6 -34 -6 -10 -16 l25 -10 -27 -6 c-15 -3 -90 -54 -167 -113 -77 -59 -152
-110 -167 -114 -22 -6 -24 -8 -10 -16 10 -6 14 -17 11 -31 -3 -12 -34 -256
-70 -542 -93 -748 -125 -988 -130 -994 -3 -2 -9 0 -14 5 -5 5 -195 324 -421
709 -227 385 -414 702 -416 704 -7 7 -12 -3 -18 -34 -14 -72 -33 -140 -40
-138 -16 4 -25 12 -94 89 -52 59 -68 83 -58 87 8 3 20 16 26 27 10 19 9 21 -7
16 -13 -4 -23 3 -35 23 -33 59 -159 114 -298 130 -66 7 -69 9 -26 10 27 0 47
3 45 6 -5 4 -447 11 -1644 25 -858 10 -1831 5 -1871 -10 -16 -6 -32 -17 -36
-23 -6 -9 -8 -9 -8 1 0 7 10 17 23 23 25 11 52 62 42 79 -3 5 -2 10 2 10 5 0
13 19 19 43 6 23 21 83 34 132 12 50 36 133 51 185 16 52 29 104 29 116 0 43
35 59 129 59 47 -1 561 -4 1141 -8 580 -4 1154 -7 1275 -6 121 1 272 0 335 -1
63 -1 112 2 108 5 -8 8 -48 12 -158 14 -47 1 -91 5 -98 9 -10 7 42 222 233
968 316 1232 285 1117 300 1104 10 -8 16 -3 24 22 12 35 54 88 69 88 19 0 33
-56 39 -155 6 -102 14 -124 26 -68 4 16 13 60 21 98 8 39 20 110 26 159 11 86
10 90 -11 112 -12 13 -33 24 -46 24 -13 0 -23 4 -23 9 0 5 -13 15 -28 22 -26
13 -28 17 -20 48 l9 34 67 -7 c37 -3 106 -6 154 -6 l86 0 -93 -367 c-405
-1594 -526 -2076 -522 -2080 8 -8 307 -16 307 -9 0 4 -11 27 -25 51 l-26 43
237 929 c254 993 261 1025 222 1099 -17 30 -16 32 47 180 35 82 68 155 72 162
5 8 52 16 133 23 69 6 128 14 132 17 4 4 10 35 14 69 l6 61 -38 12 c-65 18
-134 24 -134 11 0 -6 11 -11 24 -11 17 0 25 -7 28 -25 5 -26 -3 -37 -36 -49
-16 -5 -17 -2 -12 21 6 26 5 27 -8 9 -9 -10 -17 -24 -19 -29 -2 -7 -70 -12
-183 -14 -98 -1 -189 -5 -200 -8 -35 -8 -49 60 -19 85 25 21 -1 30 -88 30 -70
0 -78 2 -73 18 3 9 10 39 17 65 6 27 21 54 32 62 21 15 21 15 2 16 -11 0 -14
3 -7 6 21 8 3 23 -29 23 -17 0 -38 4 -47 9 -10 5 -84 3 -177 -5 -211 -17 -536
-27 -510 -16 11 5 83 12 160 15 155 7 238 21 274 49 13 10 32 18 42 18 11 0
19 5 19 10 0 6 14 10 30 10 17 0 30 5 30 10 0 6 11 10 25 10 14 0 33 8 44 19
10 10 39 20 64 23 33 4 57 15 82 37 25 21 46 31 69 31 37 0 30 -16 96 209 22
74 44 139 48 145 4 6 16 36 26 66 11 30 27 63 37 72 21 21 41 107 33 146 -3
16 -1 45 4 65 8 28 7 39 -3 44 -10 7 -10 23 1 90 7 46 15 124 17 175 5 92 30
214 48 232 5 6 9 27 9 48 0 45 54 194 81 223 10 12 24 36 30 54 11 32 12 32
63 27 38 -4 44 -3 23 3 -15 5 -61 12 -102 16 -65 6 -72 9 -59 22 21 21 10 31
-44 38 -97 14 -178 38 -212 64 -67 52 -173 89 -196 70 -9 -7 -49 4 -131 36
-150 59 -202 73 -212 56 -6 -9 -28 -4 -87 20 -63 26 -97 33 -171 37 l-92 4 4
27 c8 53 37 133 56 152 25 25 102 25 171 -1 l52 -19 24 29 c14 17 31 30 38 30
19 0 75 -50 68 -61 -3 -6 2 -21 11 -35 16 -25 16 -26 -3 -20 -16 5 -19 2 -19
-19 0 -14 5 -25 11 -25 6 0 28 -9 49 -20 20 -11 49 -20 64 -20 40 -1 155 -34
147 -43 -4 -4 3 -7 15 -7 20 0 21 -3 15 -50 -9 -65 6 -64 37 2 13 29 33 57 44
62 47 25 63 55 85 153 12 54 23 104 26 111 5 17 66 15 90 -3 15 -11 16 -15 4
-15 -10 -1 -9 -4 5 -10 l20 -9 -20 0 c-16 -1 -17 -3 -5 -11 11 -7 12 -12 3
-21 -6 -6 -9 -18 -6 -25 3 -9 -1 -14 -12 -14 -9 0 -13 -5 -10 -10 4 -6 2 -16
-3 -23 -5 -7 -8 -21 -6 -32 1 -11 -2 -23 -9 -27 -14 -9 11 -61 27 -55 6 3 20
-7 30 -21 l19 -25 -26 7 c-15 3 -26 3 -25 -1 1 -5 -6 -21 -16 -36 -10 -15 -16
-30 -13 -33 9 -10 99 -6 109 4 6 6 -6 8 -36 5 -28 -4 -46 -2 -46 5 0 14 40 23
69 15 13 -3 26 -1 30 6 6 9 20 9 59 0 29 -6 52 -14 52 -19 0 -12 -23 -28 -50
-33 l-25 -4 26 -2 c23 -1 25 -4 23 -45 l-2 -43 65 -6 c54 -4 72 -1 99 15 25
14 33 25 30 41 -2 12 3 34 10 48 13 26 12 27 -24 33 -20 3 -62 6 -92 6 -73 0
-84 8 -73 51 l9 34 110 12 c127 15 224 40 347 89 49 20 90 34 92 32 8 -7 -86
-304 -104 -328 -22 -31 -71 -213 -71 -265 l0 -38 -21 19 c-12 10 -25 29 -29
40 -5 13 -20 23 -37 26 -15 3 -36 9 -45 13 -16 6 -18 1 -18 -46 0 -30 -4 -88
-9 -129 -6 -41 -15 -129 -21 -195 -9 -85 -29 -188 -71 -350 -179 -697 -230
-908 -225 -922 4 -10 10 -12 15 -7 4 5 32 105 62 223 36 144 60 223 74 240 27
32 109 190 131 251 9 25 25 72 36 105 11 33 28 80 38 105 10 25 21 63 25 85 3
22 15 66 26 97 10 32 19 71 19 88 0 16 5 30 10 30 11 0 12 5 -31 -275 -61
-399 -144 -760 -244 -1065 -30 -92 -55 -169 -55 -173 0 -4 11 -7 25 -7 23 0
28 11 75 158 61 186 143 498 135 511 -3 5 -1 11 3 13 15 5 96 447 163 883 29
190 80 456 97 505 26 74 94 193 145 256 45 55 139 144 152 144 5 0 29 13 54
28 51 32 179 74 286 93 105 20 482 17 564 -4 34 -8 64 -17 66 -19 1 -2 28 -49
60 -105 31 -57 58 -103 58 -103 1 0 108 -11 237 -25 129 -14 237 -22 240 -17
4 4 22 48 40 97 22 60 44 103 69 129 28 30 33 40 21 44 -30 11 -69 60 -76 96
-8 44 12 92 31 76 7 -6 16 -5 23 2 19 19 31 -3 37 -67 8 -98 11 -102 50 -65
33 32 34 32 85 21 28 -6 79 -11 113 -12 34 0 159 -11 277 -25 118 -13 283 -31
365 -39 83 -8 182 -19 221 -25 74 -11 148 -4 109 11 -11 4 -31 5 -46 2 -20 -4
-28 1 -37 22 -14 30 -16 62 -4 69 5 3 28 8 51 12 36 6 42 4 39 -9 -2 -9 2 -16
7 -16 6 -1 10 5 10 12 0 7 16 13 41 15 38 3 42 0 54 -28 16 -38 24 -44 40 -25
11 13 10 14 -4 9 -9 -3 -18 0 -21 8 -9 23 20 92 43 103 24 11 31 38 8 29 -8
-3 -19 4 -26 16 -10 19 -9 22 10 27 33 9 19 24 -70 79 -82 51 -86 52 -184 59
-55 4 -110 11 -123 16 -13 5 -88 11 -166 15 -78 3 -144 8 -146 10 -2 2 8 17
23 34 48 58 24 138 -48 156 -36 9 -84 -13 -101 -46 -14 -27 -14 -27 -152 -32
-171 -7 -334 1 -338 16 -22 84 -27 92 -68 108 -29 12 -71 17 -137 17 -55 0
-120 6 -155 15 -32 9 -74 16 -92 16 -17 0 -34 4 -37 9 -3 5 3 35 15 67 15 46
19 80 18 151 l-3 92 -39 16 c-22 9 -40 15 -42 13 -1 -2 -27 -35 -58 -74 -57
-72 -87 -139 -117 -262 -9 -41 -18 -55 -37 -63 -32 -12 -46 -3 -40 28 4 20 -2
27 -28 40 -21 10 -31 21 -28 32 6 25 -52 108 -89 127 -23 12 -101 25 -253 40
-194 21 -357 30 -285 17 14 -3 27 -8 30 -12 3 -4 88 -15 190 -25 199 -18 245
-25 236 -33 -3 -3 -111 5 -240 17 -190 19 -238 21 -250 11 -9 -7 -28 -51 -43
-97 -27 -82 -28 -84 -59 -84 -18 0 -45 5 -61 11 -15 7 -41 13 -58 15 -16 2
-46 6 -65 8 -29 5 -38 1 -49 -17 -13 -21 -13 -22 6 -4 26 23 36 22 28 -5 -6
-18 -4 -20 11 -13 30 12 70 19 62 10 -4 -4 -2 -13 6 -19 10 -8 11 -20 5 -43
l-9 -31 -75 5 c-71 6 -75 5 -75 -15 0 -26 55 -88 64 -73 8 13 46 15 46 3 0 -4
28 -14 63 -21 34 -7 73 -16 85 -18 19 -5 4 -14 -69 -44 -51 -21 -95 -36 -97
-34 -2 2 3 24 11 49 9 26 12 46 8 46 -4 0 -17 -31 -30 -70 -22 -70 -44 -90
-59 -52 -5 13 -8 11 -12 -13 -4 -24 -28 -47 -123 -119 -64 -49 -120 -87 -123
-84 -2 3 0 83 5 179 6 107 6 179 0 190 -6 12 -4 39 6 81 47 201 -12 405 -160
554 -103 104 -223 154 -372 154 -24 0 -43 5 -43 10 0 16 -142 12 -166 -4z m6
-366 c11 -7 12 -12 3 -21 -8 -8 -14 -6 -22 10 -12 22 -5 27 19 11z m-1079 -43
c-9 -9 -14 -8 -21 3 -16 24 -11 31 11 19 16 -8 18 -14 10 -22z m2172 -359 c11
-17 13 -28 6 -28 -6 0 -13 9 -16 20 -3 11 -10 20 -15 20 -5 0 -6 5 -3 11 4 6
8 9 9 7 1 -2 10 -15 19 -30z m1684 -34 c-3 -3 -12 -4 -19 -1 -8 3 -5 6 6 6 11
1 17 -2 13 -5z m-809 -40 c23 -16 29 -48 11 -59 -6 -4 -18 3 -26 15 -12 17
-22 21 -45 16 -16 -3 -27 -2 -25 2 2 4 7 15 10 25 8 21 45 22 75 1z m1380 -71
c-10 -2 -26 -2 -35 0 -10 3 -2 5 17 5 19 0 27 -2 18 -5z m-562 -17 c11 -8 38
-18 60 -21 53 -10 54 -11 42 -48 -5 -17 -9 -46 -9 -64 1 -17 -2 -34 -6 -36 -5
-3 -45 0 -91 6 -78 10 -82 12 -83 36 -1 21 -3 22 -6 6 -5 -27 -42 -50 -55 -37
-16 16 0 82 19 82 15 0 15 1 1 13 -12 9 -13 19 -6 45 8 31 10 32 61 32 29 0
62 -6 73 -14z m-5565 -46 c18 -10 26 -40 13 -53 -4 -3 -13 0 -21 8 -8 8 -30
15 -49 15 -32 0 -45 16 -27 33 10 11 62 8 84 -3z m6656 -16 c-3 -3 -12 -4 -19
-1 -8 3 -5 6 6 6 11 1 17 -2 13 -5z m158 -44 c18 -20 17 -20 -17 -20 -20 0
-41 6 -47 13 -25 31 36 38 64 7z m-291 -5 c81 -9 152 -15 159 -13 6 1 49 -11
95 -26 l83 -28 24 22 c13 13 25 17 29 11 4 -5 2 -12 -3 -16 -6 -3 -18 -30 -27
-60 l-18 -55 -101 0 c-55 0 -188 9 -295 20 -107 11 -200 20 -208 20 -12 0 -13
11 -7 57 4 31 9 62 12 70 7 17 73 17 257 -2z m-1226 -14 c29 -24 28 -31 -5
-31 -48 0 -73 11 -73 31 0 26 49 26 78 0z m-5370 -23 c-4 -46 -28 -49 -28 -4
0 26 4 36 16 36 11 0 14 -8 12 -32z m-48 -28 c0 -31 -4 -40 -17 -41 -14 0 -13
-2 5 -9 21 -9 30 -34 15 -43 -5 -3 -29 -8 -55 -11 -46 -7 -48 -6 -48 18 0 15
7 26 18 29 12 3 10 5 -7 6 -19 1 -22 5 -17 24 3 12 6 28 6 35 0 15 35 31 73
31 25 1 27 -2 27 -39z m4630 24 c85 -9 158 -19 162 -22 8 -8 68 -122 68 -129
0 -3 -24 -2 -52 2 -92 13 -350 15 -433 5 -133 -18 -265 -51 -349 -87 -91 -39
-196 -111 -233 -159 -42 -55 -55 -44 -31 26 20 59 23 63 146 157 162 123 200
146 292 177 140 47 217 52 430 30z m-4580 -84 c0 -20 -5 -30 -15 -30 -10 0
-15 10 -15 30 0 20 5 30 15 30 10 0 15 -10 15 -30z m-1083 -70 c1 -12 -4 -20
-13 -20 -12 0 -12 4 -4 20 6 11 12 20 13 20 2 0 3 -9 4 -20z m6784 2 c-18 -2
-37 0 -42 5 -5 5 11 6 34 3 41 -4 41 -5 8 -8z m-3394 -88 c-3 -3 -12 -4 -19
-1 -8 3 -5 6 6 6 11 1 17 -2 13 -5z m-454 -26 c-26 -10 -53 -16 -60 -14 -8 3
-21 -26 -38 -82 -27 -89 -70 -166 -87 -156 -5 4 -5 10 0 17 6 7 13 32 17 57 4
25 9 52 10 60 1 8 6 40 10 70 4 30 9 58 11 61 2 3 44 6 94 6 l92 0 -49 -19z
m-2933 -17 c0 -14 -18 -23 -31 -15 -8 4 -7 9 2 15 18 11 29 11 29 0z m2265 -7
c12 -3 28 -23 38 -49 18 -41 52 -79 105 -115 l22 -15 -65 -127 c-36 -70 -70
-130 -75 -133 -24 -15 -169 116 -190 171 -21 55 2 246 32 265 15 10 102 12
133 3z m271 -208 c24 -7 41 -73 24 -90 -6 -6 -42 -12 -81 -14 l-71 -4 28 48
c38 68 45 75 63 70 9 -2 26 -7 37 -10z m1534 -6 c8 -5 11 -10 5 -10 -5 0 -3
-5 5 -10 12 -8 11 -10 -5 -10 -21 0 -45 17 -45 32 0 11 22 10 40 -2z m-1360
-20 c-12 -8 -11 -10 8 -10 26 0 30 -26 5 -34 -39 -11 -93 -18 -93 -11 0 4 8
20 17 36 13 22 25 29 48 29 23 0 27 -3 15 -10z m-275 -110 c-10 -11 -22 -20
-27 -20 -5 0 -4 9 2 20 6 11 18 20 27 20 14 0 14 -2 -2 -20z m815 -40 c13 -9
13 -10 0 -10 -8 0 -22 5 -30 10 -13 9 -13 10 0 10 8 0 22 -5 30 -10z m186 -30
c72 -20 119 -40 214 -91 86 -48 98 -60 139 -142 58 -117 77 -215 72 -374 -1
-40 -3 -43 -30 -43 -27 0 -30 4 -50 69 -27 90 -99 231 -155 305 -64 84 -200
220 -257 257 -27 17 -49 33 -49 35 0 9 45 3 116 -16z m-642 -82 c-3 -4 9 -8
25 -8 39 0 40 -12 1 -27 -21 -8 -30 -18 -30 -34 0 -22 1 -22 20 -4 11 10 32
20 46 21 14 2 32 8 39 14 11 9 24 8 55 -6 45 -20 48 -41 5 -36 -22 3 -27 0
-22 -11 4 -11 -3 -19 -21 -26 -25 -10 -24 -10 8 -5 19 4 36 10 38 14 2 4 12 6
23 3 13 -4 19 -1 17 8 -2 9 4 13 17 11 30 -6 115 -63 115 -79 0 -7 6 -13 14
-13 23 0 46 -29 46 -57 0 -18 -4 -24 -15 -19 -19 7 -19 -8 0 -24 8 -7 12 -16
9 -22 -3 -5 1 -23 9 -41 8 -18 17 -39 20 -47 4 -12 6 -11 6 3 1 9 5 25 10 35
5 9 13 27 18 40 8 22 10 21 58 -28 34 -35 44 -50 32 -50 -18 0 -17 -21 4 -78
5 -13 9 -35 10 -50 l1 -27 10 28 c5 15 13 27 18 27 12 0 56 -97 64 -140 4 -19
13 -62 21 -95 28 -126 9 -351 -44 -513 -24 -74 -109 -201 -164 -246 -21 -17
-59 -48 -83 -68 -25 -21 -61 -42 -82 -47 -20 -6 -47 -18 -59 -26 -13 -9 -48
-23 -78 -31 -64 -16 -76 -17 -57 -5 9 5 -1 8 -27 8 -22 0 -38 -3 -35 -8 7 -12
-62 -22 -93 -13 -29 8 -40 9 -105 12 -20 1 -44 9 -53 18 -9 9 -25 14 -35 11
-11 -3 -22 -2 -25 3 -3 4 -20 11 -38 14 -19 3 -44 17 -57 31 -13 14 -29 25
-35 25 -7 0 -37 28 -69 62 -40 44 -53 64 -44 70 7 4 15 8 18 8 14 0 30 42 21
54 -5 6 -9 27 -8 46 2 35 2 35 -37 32 -78 -7 -110 -37 -87 -81 14 -25 14 -31
1 -31 -5 0 -10 8 -10 17 0 9 -13 40 -30 70 -16 29 -30 54 -30 57 0 2 20 30 45
62 43 55 64 105 64 149 0 11 4 40 10 65 17 77 14 144 -9 165 -25 23 -29 19
-39 -42 -7 -46 -6 -49 13 -49 15 1 21 -5 21 -19 0 -13 -7 -20 -20 -20 -11 0
-33 -14 -50 -31 -24 -26 -36 -31 -60 -27 -30 4 -30 4 -29 -38 2 -53 27 -68 62
-36 26 24 27 21 6 -43 -22 -66 -37 -78 -58 -44 -10 14 -19 35 -21 47 -4 20
-21 37 -39 37 -4 0 -5 -11 -2 -25 7 -29 60 -142 78 -167 21 -30 -1 -32 -24 -3
-52 67 -97 193 -133 372 -12 62 -14 87 -5 102 6 12 20 69 30 127 11 59 24 112
30 119 5 7 13 40 16 74 7 58 24 86 24 38 0 -13 3 -27 7 -31 4 -4 6 -24 4 -45
-2 -27 2 -40 13 -44 9 -4 16 -14 16 -23 0 -10 4 -31 10 -48 5 -17 12 -43 15
-58 5 -25 10 -28 46 -28 26 0 42 -5 45 -15 8 -20 43 -19 51 1 3 8 1 40 -6 70
-26 130 -102 239 -176 251 -19 3 -35 10 -35 16 0 5 20 42 46 81 53 85 182 216
212 216 12 0 26 8 31 18 7 12 10 13 11 3 0 -9 9 -4 24 12 13 14 43 31 67 37
24 6 62 17 84 23 44 13 306 18 299 5z m1030 -63 c27 -8 72 -29 99 -47 34 -22
65 -33 102 -36 86 -7 87 -10 18 -278 -43 -169 -63 -230 -74 -232 -14 -2 -17
15 -22 120 -7 155 -37 256 -107 360 -26 41 -58 82 -69 92 -42 38 -25 44 53 21z
m640 -111 c16 -6 23 -34 8 -34 -5 0 -17 -35 -27 -77 -10 -43 -24 -94 -31 -113
-11 -31 -13 -32 -13 -10 -1 47 19 202 30 221 11 21 11 21 33 13z m-2379 -94
c-3 -5 -11 -10 -16 -10 -6 0 -7 5 -4 10 3 6 11 10 16 10 6 0 7 -4 4 -10z
m2385 -124 c-11 -26 -20 -61 -20 -77 0 -29 -39 -134 -46 -126 -4 4 62 271 73
297 5 10 8 5 10 -16 2 -16 -5 -52 -17 -78z m-64 -253 c-10 -57 -16 -73 -27
-73 -7 0 -8 13 -4 33 17 75 43 109 31 40z m-512 1 c5 -14 4 -15 -9 -4 -17 14
-19 20 -6 20 5 0 12 -7 15 -16z m-24 -90 c0 -31 -4 -44 -14 -44 -23 0 -35 56
-20 94 12 30 34 -3 34 -50z m74 4 c-11 -73 -41 -79 -42 -9 -1 38 4 44 41 50 4
0 4 -18 1 -41z m-25 -108 c24 0 4 -25 -22 -28 -29 -4 -44 16 -33 44 6 16 8 16
24 0 10 -9 24 -16 31 -16z m1 -57 c0 -24 -174 -680 -183 -692 -7 -8 -36 -25
-66 -38 -30 -14 -73 -38 -96 -54 -32 -23 -59 -32 -111 -39 -106 -13 -258 -20
-248 -11 5 5 41 25 79 46 276 150 466 420 519 736 5 30 12 38 39 47 40 12 67
14 67 5z m-1816 -507 c31 -42 31 -43 6 -175 -15 -74 -17 -107 -10 -116 8 -10
6 -14 -7 -18 -10 -2 17 -6 61 -8 74 -4 79 -3 87 19 11 30 17 28 11 -4 -4 -24
-2 -25 29 -22 30 3 34 7 44 48 7 25 17 44 22 43 6 -1 33 -15 59 -31 27 -15 65
-34 84 -42 55 -21 58 -30 11 -30 -38 0 -42 -2 -30 -16 10 -13 10 -17 -2 -25
-41 -28 -47 -29 -52 -9 -6 22 -36 26 -68 10 -21 -12 -26 -55 -6 -64 8 -3 4
-11 -12 -26 -23 -20 -33 -21 -145 -16 -67 2 -108 2 -91 -1 16 -2 32 -8 35 -12
3 -3 18 -12 33 -19 33 -14 26 -35 -9 -26 -13 3 -30 1 -38 -5 -19 -16 -196 19
-196 39 0 6 -16 10 -35 10 -33 0 -46 12 -26 25 6 3 13 26 17 51 3 25 14 67 23
92 15 42 21 48 51 52 l35 5 40 152 c22 84 43 153 46 153 4 0 18 -15 33 -34z
m202 -222 c-4 -15 -14 -41 -22 -58 l-14 -31 6 40 c7 57 14 75 26 75 6 0 8 -11
4 -26z m387 -257 c12 -13 33 -38 47 -54 l26 -30 -29 -17 c-32 -18 -63 -21 -72
-6 -3 6 -30 10 -59 10 l-52 0 -17 -47 -17 -48 5 48 5 47 -39 0 c-21 0 -41 -3
-44 -7 -4 -3 3 -22 15 -41 l21 -34 -34 6 c-91 18 -129 29 -124 36 2 4 45 31
95 59 49 29 96 58 103 65 49 50 132 56 170 13z m772 -153 c49 -32 7 -40 -67
-12 -18 6 -25 15 -21 25 7 18 50 12 88 -13z m-1065 -33 c19 -5 48 -12 63 -15
15 -4 25 -11 22 -16 -7 -11 25 -29 42 -23 14 5 134 -24 145 -35 4 -4 4 -22 -1
-39 -5 -17 -6 -35 -1 -39 6 -8 40 -100 40 -111 0 -16 -98 57 -201 152 -52 47
-96 59 -205 52 l-92 -5 12 36 c14 41 36 51 59 28 13 -13 17 -13 32 4 20 22 34
24 85 11z m86 -183 c38 -26 102 -75 142 -109 70 -59 72 -63 72 -106 0 -57 -34
-248 -66 -374 -13 -53 -24 -120 -25 -150 0 -79 -6 -104 -133 -586 l-116 -441
19 -106 19 -105 -64 -248 c-35 -136 -64 -250 -64 -252 0 -6 -730 6 -736 12 -4
4 632 2450 651 2505 4 11 31 13 119 10 l114 -3 68 -47z m1507 45 c-34 -2 -93
-2 -130 0 -37 2 -9 3 62 3 72 0 102 -1 68 -3z m244 1 c-3 -3 -12 -4 -19 -1 -8
3 -5 6 6 6 11 1 17 -2 13 -5z m-2242 -46 c14 -6 25 -16 25 -23 0 -11 -68 -175
-77 -185 -2 -2 -3 20 -2 50 1 42 7 61 26 81 20 22 22 27 9 32 -9 4 -16 18 -16
32 0 29 0 29 35 13z m1085 -3 c7 -9 20 -15 29 -14 40 5 116 -39 98 -57 -3 -3
-38 -1 -78 6 -43 7 -100 10 -141 5 -76 -7 -81 0 -21 28 21 11 49 25 63 32 33
18 35 17 50 0z m1004 -53 c-53 -128 -97 -222 -104 -222 -4 0 -19 15 -33 33
l-26 34 26 96 26 96 56 3 c31 2 59 2 63 0 4 -2 1 -20 -8 -40z m-1230 8 c23 -8
24 -13 20 -61 -6 -73 -23 -131 -37 -126 -29 9 -39 56 -27 128 7 38 13 69 15
69 2 0 15 -4 29 -10z m631 -21 c12 -19 -5 -99 -21 -99 -11 0 -13 -6 -9 -21 8
-24 3 -22 -50 17 -16 12 -49 31 -72 43 -45 22 -49 45 -10 54 12 3 45 12 72 20
49 14 76 10 90 -14z m-1741 -41 c-8 -35 -112 -430 -230 -878 -118 -448 -245
-929 -282 -1068 -37 -140 -71 -251 -77 -249 -5 2 -18 35 -28 73 -15 57 -17 94
-13 209 8 228 59 416 228 850 136 348 201 525 298 810 96 283 107 315 114 315
2 0 -2 -28 -10 -62z m140 28 c37 -22 38 -23 15 -29 -13 -4 -25 -6 -27 -7 -1 0
-15 -6 -32 -15 -44 -23 -50 -20 -39 18 6 17 12 38 15 45 5 18 24 15 68 -12z
m180 -40 c-3 -14 -12 -26 -20 -26 -8 0 -14 -2 -14 -4 0 -3 -15 -62 -34 -133
-19 -70 -37 -144 -41 -163 -6 -33 -5 -32 18 14 14 26 28 59 32 73 3 14 8 24
10 21 6 -5 -31 -146 -50 -191 -23 -55 -45 -43 -45 24 0 18 -4 28 -10 24 -13
-8 -13 -142 -1 -149 5 -4 11 0 14 6 2 7 7 10 11 7 8 -8 -89 -398 -244 -979
-60 -228 -136 -517 -168 -642 l-57 -228 -143 0 c-132 0 -143 1 -138 18 3 9
122 458 265 998 271 1026 293 1097 355 1137 l25 17 11 -42 c7 -23 10 -52 7
-65 -5 -29 7 -30 27 -1 9 12 13 31 10 45 -7 27 3 30 22 6 12 -16 13 -15 14 13
0 17 11 52 25 77 13 25 29 66 35 89 12 42 35 78 52 78 4 0 8 -8 9 -17 0 -14 3
-13 11 5 14 28 21 22 12 -12z m1390 -262 c9 -3 16 -13 16 -21 0 -20 -34 -12
-38 10 -4 19 -1 20 22 11z m-64 -326 c0 -7 -4 -19 -9 -26 -7 -11 -10 -10 -15
3 -10 26 -7 35 9 35 8 0 15 -6 15 -12z m7393 -727 c34 -62 43 -127 27 -186
-15 -53 -47 -88 -38 -42 7 39 -10 102 -34 124 -19 17 -19 17 -11 -12 12 -44 9
-136 -6 -163 -7 -13 -15 -21 -18 -19 -2 3 0 14 6 25 28 53 1 195 -45 233 -14
11 -10 29 6 29 18 0 82 -64 103 -104 l22 -41 3 39 c2 27 -5 55 -25 94 -37 75
-36 72 -25 72 5 0 21 -22 35 -49z m-318 -872 c-11 -26 -14 -28 -10 -9 2 14 5
34 5 45 0 13 3 16 11 8 7 -7 6 -20 -6 -44z m-7495 -169 c0 -5 -7 -10 -16 -10
-8 0 -12 5 -9 10 3 6 10 10 16 10 5 0 9 -4 9 -10z m5564 -272 c3 -24 7 -80 8
-125 l3 -83 -27 0 c-27 0 -28 2 -28 49 0 27 -6 64 -14 82 -30 74 -30 77 6 99
18 11 36 20 40 20 4 0 9 -19 12 -42z m-2031 -35 c8 -21 14 -39 13 -40 -4 -4
-209 -24 -213 -20 -2 3 6 25 19 51 l22 46 72 0 72 0 15 -37z m1471 4 l79 -22
25 -68 c14 -37 23 -70 20 -73 -6 -5 -523 34 -545 41 -9 3 -13 25 -13 64 l0 59
-37 10 c-29 7 15 10 177 10 190 0 224 -2 294 -21z m-921 -44 c-18 -2 -48 -2
-65 0 -18 2 -4 4 32 4 36 0 50 -2 33 -4z m2948 -355 c7 -11 21 -499 15 -506
-9 -9 -451 -1 -460 8 -10 10 18 492 29 511 8 12 407 0 416 -13z m-4221 -33 c0
-8 -4 -15 -10 -15 -5 0 -7 7 -4 15 4 8 8 15 10 15 2 0 4 -7 4 -15z m-72 -28
c-13 -12 -33 -37 -43 -54 -32 -54 -95 -52 -95 3 0 21 5 24 38 24 25 0 50 9 72
25 42 31 61 33 28 2z m-5270 -33 c30 -34 29 -110 -4 -273 -20 -103 -91 -399
-109 -461 -4 -12 9 -19 53 -29 88 -19 100 -34 22 -25 -36 4 -83 8 -105 9 -67
3 -165 18 -170 24 -2 4 41 173 95 376 55 204 100 373 100 377 0 14 55 37 75
32 11 -3 30 -17 43 -30z m76 17 c3 -5 -5 -11 -19 -13 -28 -6 -35 8 -7 15 9 3
18 5 19 6 1 0 4 -3 7 -8z m3125 -55 c38 -18 80 -36 92 -39 12 -3 20 -12 17
-19 -2 -7 -83 -327 -179 -711 -162 -651 -175 -698 -194 -694 -11 3 -47 17 -80
31 -36 15 -79 26 -107 26 -39 0 -48 3 -47 18 0 9 78 322 173 696 180 707 186
726 236 726 10 0 50 -15 89 -34z m5450 -48 c0 -35 -4 -81 -8 -103 l-8 -40 -16
35 c-8 19 -24 56 -36 82 -13 31 -30 52 -50 63 -17 8 -31 18 -31 20 0 3 34 5
75 5 l75 0 -1 -62z m-7544 -190 c275 -78 501 -143 503 -144 2 -1 -16 -84 -40
-185 l-44 -184 -60 1 c-243 2 -1480 27 -1485 30 -10 6 137 546 152 555 8 5 88
6 179 3 l165 -6 50 36 c27 20 57 36 65 36 8 0 240 -64 515 -142z m8915 -182
c0 -15 -49 -36 -86 -36 -17 0 -24 6 -24 19 0 24 13 29 68 30 30 1 42 -3 42
-13z m107 -22 c-3 -3 -12 -4 -19 -1 -8 3 -5 6 6 6 11 1 17 -2 13 -5z m-7890
-20 c-3 -3 -12 -4 -19 -1 -8 3 -5 6 6 6 11 1 17 -2 13 -5z m5793 -51 c12 -21
49 -62 82 -92 32 -29 67 -70 78 -91 l19 -38 66 20 c64 20 69 20 133 4 63 -16
172 -71 172 -88 0 -11 1 -11 -87 13 -88 24 -135 22 -210 -11 l-53 -22 0 -54
c0 -67 -19 -206 -30 -217 -4 -5 -6 47 -3 115 5 109 3 129 -17 180 -14 38 -32
65 -52 80 -30 21 -31 21 -24 2 4 -10 11 -53 16 -94 5 -41 12 -91 16 -110 5
-29 4 -33 -7 -22 -16 15 -60 16 -92 1 -23 -10 -25 -19 -32 -98 -4 -47 -13
-120 -21 -161 -21 -110 -94 -297 -113 -286 -12 8 -97 156 -120 209 -37 87 -64
216 -42 203 4 -3 22 -45 40 -93 35 -96 101 -225 116 -227 17 -2 63 102 81 181
14 63 15 93 6 191 -5 66 -6 124 -1 133 10 20 60 39 99 39 l28 0 -28 88 c-29
89 -60 225 -60 262 0 31 16 24 40 -17z m2058 -45 c-4 -27 -28 -36 -28 -10 0
20 8 32 22 32 5 0 8 -10 6 -22z m-66 -19 c5 -33 -8 -43 -74 -56 -27 -5 -28 -4
-28 35 0 43 6 47 71 51 23 1 27 -4 31 -30z m-2738 -41 c8 -57 21 -104 69 -243
62 -179 178 -374 314 -530 39 -45 83 -105 97 -134 30 -58 55 -66 100 -30 39
31 32 2 -10 -36 l-36 -33 7 -66 c5 -43 4 -66 -3 -66 -14 0 -69 64 -91 108 -10
20 -48 67 -83 104 -103 106 -218 286 -286 446 -13 28 -24 52 -26 52 -9 0 28
-161 55 -244 40 -120 127 -300 193 -400 29 -45 56 -90 60 -101 3 -11 -1 -45
-9 -75 -17 -63 -31 -254 -21 -294 10 -41 35 -31 61 27 19 39 25 46 24 27 0
-14 -6 -43 -14 -65 -15 -42 -10 -62 9 -31 61 100 108 133 208 142 75 8 70 -5
-12 -31 -89 -28 -136 -60 -159 -108 -12 -24 -21 -48 -21 -54 0 -5 -16 -18 -35
-29 -42 -22 -59 -15 -90 36 -24 42 -24 161 -1 290 9 47 16 95 16 107 0 12 -25
61 -56 108 -109 168 -181 328 -243 540 -50 171 -71 283 -71 384 0 83 15 236
25 251 12 19 22 0 29 -52z m2741 -133 c0 -26 -5 -31 -44 -42 -51 -15 -63 -7
-59 37 3 21 10 26 43 31 55 8 60 6 60 -26z m75 27 c0 -10 -21 -32 -31 -32 -4
0 -5 9 -2 20 5 19 33 29 33 12z m-1485 -63 c-10 -15 -25 -10 -19 6 4 8 10 12
15 9 5 -3 7 -10 4 -15z m1485 -103 c0 -8 -7 -16 -15 -20 -15 -5 -21 14 -8 27
11 12 23 8 23 -7z m-70 -5 c0 -5 2 -16 5 -23 4 -10 -6 -18 -33 -26 -61 -19
-72 -16 -72 17 0 23 5 31 23 34 41 8 77 7 77 -2z m-9180 -41 c0 -25 -29 -40
-75 -40 -47 0 -42 21 7 35 20 5 40 13 44 18 13 13 24 7 24 -13z m287 -16 c3
-10 -62 -44 -85 -44 -7 0 -12 -7 -12 -15 0 -8 -9 -15 -20 -15 -12 0 -35 -7
-51 -16 -28 -14 -32 -14 -50 2 -25 22 -24 30 4 48 35 22 68 30 65 15 -6 -25
29 -21 36 5 4 15 15 26 29 29 36 7 80 3 84 -9z m172 -65 c-5 -11 -16 -19 -24
-19 -7 0 -20 -3 -29 -6 -10 -4 -16 -1 -16 8 0 22 16 33 49 34 26 1 29 -1 20
-17z m8731 -49 c0 -14 -12 -21 -47 -29 -51 -10 -67 -4 -61 25 2 14 15 20 48
24 54 7 60 5 60 -20z m70 25 c0 -2 -9 -9 -20 -15 -16 -9 -18 -8 -14 5 5 13 34
22 34 10z m0 -140 c0 -2 -10 -9 -22 -15 -22 -11 -22 -10 -4 4 21 17 26 19 26
11z m-67 -20 c4 -10 -5 -17 -31 -25 -55 -15 -72 -13 -72 9 0 14 8 21 28 24 55
8 70 7 75 -8z m7 -134 c0 -11 -17 -17 -72 -27 -30 -5 -38 -3 -38 8 0 8 3 18 7
21 10 11 103 8 103 -2z m0 -120 c0 -9 -47 -21 -81 -21 -29 0 -22 18 9 23 50 8
72 7 72 -2z m-2030 -81 c0 -51 -24 -124 -52 -156 -39 -44 -71 -47 -34 -4 28
34 51 103 41 127 -5 16 20 53 37 53 4 0 8 -9 8 -20z m1990 -40 c-36 -12 -62
-12 -55 0 3 6 23 10 43 9 33 -1 34 -2 12 -9z m-1685 -137 c-18 -43 -35 -121
-35 -164 0 -40 6 -55 41 -99 22 -28 38 -54 35 -57 -10 -11 -112 47 -125 70
-10 19 -10 35 4 86 42 164 -22 31 -74 -152 -34 -118 -46 -153 -59 -161 -4 -3
-36 -9 -69 -15 -84 -13 -154 -51 -223 -122 l-60 -60 -24 18 c-31 22 -28 37 7
41 16 2 36 16 50 34 33 45 102 92 188 127 42 17 86 42 98 55 12 12 32 61 45
107 44 156 83 233 145 286 32 28 67 31 56 6z m1926 -37 c-7 -8 -11 -27 -9 -43
3 -27 0 -28 -51 -38 l-54 -9 8 -304 c6 -292 6 -304 -12 -300 -16 3 -19 20 -24
203 -4 110 -7 237 -8 283 -1 76 -3 82 -22 82 -19 0 -20 -4 -15 -67 3 -38 8
-166 11 -286 l6 -218 -53 3 -53 3 3 120 c7 277 5 425 -7 439 -7 8 -10 20 -6
26 3 5 -2 10 -12 11 -12 1 -10 3 7 8 15 4 27 16 30 31 5 23 10 25 65 25 55 0
60 -2 63 -23 3 -16 8 -22 19 -18 8 3 21 6 29 6 8 0 14 9 14 20 0 11 -4 20 -10
20 -5 0 -10 7 -10 15 0 8 7 15 15 15 8 0 15 -4 15 -10 0 -5 5 -10 10 -10 6 0
9 3 9 8 -3 17 3 22 27 22 22 0 24 -3 15 -14z m-467 -18 c-14 -14 -25 -17 -48
-12 -17 3 -33 8 -36 11 -9 9 20 18 60 19 40 1 40 1 24 -18z m46 -2 c0 -3 -4
-8 -10 -11 -5 -3 -10 -1 -10 4 0 6 5 11 10 11 6 0 10 -2 10 -4z m-7340 -270
c0 -16 -18 -31 -27 -22 -8 8 5 36 17 36 5 0 10 -6 10 -14z m45 -15 c-3 -6 -11
-11 -17 -11 -6 0 -6 6 2 15 14 17 26 13 15 -4z m15 -85 c-17 -45 -22 -24 -8
30 10 39 14 44 16 23 2 -14 -2 -38 -8 -53z m7865 -935 c-3 -12 -13 -21 -21
-21 -17 0 -17 1 -4 36 13 33 36 19 25 -15z m-2662 22 c-7 -2 -19 -2 -25 0 -7
3 -2 5 12 5 14 0 19 -2 13 -5z m2718 -36 c-10 -9 -11 -8 -5 6 3 10 9 15 12 12
3 -3 0 -11 -7 -18z m-1628 -84 c-7 -2 -19 -2 -25 0 -7 3 -2 5 12 5 14 0 19 -2
13 -5z m-6752 -126 c8 -13 4 -25 -14 -46 -13 -16 -29 -55 -37 -90 -7 -33 -17
-61 -22 -61 -6 0 -8 6 -5 14 3 8 1 30 -5 50 -9 30 -9 39 5 54 10 10 17 26 17
34 0 9 7 18 15 22 18 7 20 47 3 66 -7 8 -2 6 10 -5 13 -11 28 -28 33 -38z
m8599 2 c0 -6 -4 -7 -10 -4 -5 3 -10 11 -10 16 0 6 5 7 10 4 6 -3 10 -11 10
-16z m-9090 -9 c-20 -13 -33 -13 -25 0 3 6 14 10 23 10 15 0 15 -2 2 -10z
m-61 -77 c-4 -16 -20 -79 -35 -140 -22 -95 -29 -113 -45 -113 -21 0 -27 -38
-10 -55 6 -6 2 -42 -12 -98 -18 -73 -24 -84 -33 -70 -9 14 -15 15 -24 7 -17
-17 -8 -49 14 -47 16 1 15 -1 -3 -18 -17 -16 -19 -24 -10 -40 15 -30 -8 -126
-32 -132 -20 -5 -26 -43 -9 -49 17 -5 -22 -89 -40 -85 -17 3 -17 1 -6 83 7 54
10 61 27 57 15 -4 19 0 19 20 0 14 -7 30 -16 35 -16 9 -16 16 0 104 16 85 19
94 39 94 27 -1 36 33 12 50 -16 12 -15 19 11 98 19 57 31 83 38 76 17 -17 33
-11 40 13 4 14 0 26 -11 35 -15 11 -13 20 33 107 48 93 71 122 53 68z m8903
-135 c-9 -24 -18 -36 -20 -27 -4 21 15 69 27 69 5 0 2 -19 -7 -42z m16 -136
c2 -7 -2 -10 -12 -6 -9 3 -16 11 -16 16 0 13 23 5 28 -10z m-3995 -29 c-7 -2
-19 -2 -25 0 -7 3 -2 5 12 5 14 0 19 -2 13 -5z m866 -89 l43 -6 -7 -106 c-4
-59 -10 -110 -13 -113 -13 -13 -134 11 -162 31 -25 18 -55 22 -257 32 -208 11
-233 10 -271 -5 -49 -20 -76 -13 -68 17 2 11 8 58 12 103 5 63 10 83 22 85 20
4 642 -29 701 -38z m595 10 c4 -14 30 -50 59 -80 51 -52 52 -55 33 -68 -19
-12 -18 -14 19 -26 22 -7 48 -17 58 -22 18 -9 18 -11 2 -28 -10 -11 -33 -25
-53 -31 -41 -14 -50 -6 -73 63 -7 24 -26 54 -42 67 -15 13 -39 44 -54 69 l-27
45 23 18 c32 26 48 24 55 -7z m2516 11 c-7 -9 -15 -13 -17 -11 -7 7 7 26 19
26 6 0 6 -6 -2 -15z m-7835 -50 c0 -20 -7 -30 -22 -36 -19 -7 -23 -5 -23 12 0
29 19 61 33 56 7 -2 12 -16 12 -32z m5560 12 c20 -31 30 -83 17 -91 -8 -5 -52
87 -52 109 0 14 21 2 35 -18z m-5497 -36 c-7 -12 -16 -21 -21 -21 -4 0 0 11 9
25 20 30 31 26 12 -4z m5047 -8 c4 -14 2 -23 -4 -23 -6 0 -11 3 -11 8 0 4 -3
18 -6 32 -8 31 11 16 21 -17z m2723 -28 c-3 -3 -9 2 -12 12 -6 14 -5 15 5 6 7
-7 10 -15 7 -18z m-2793 -53 c-3 -3 -11 0 -18 7 -9 10 -8 11 6 5 10 -3 15 -9
12 -12z m-4974 -29 c13 -16 12 -17 -3 -4 -10 7 -18 15 -18 17 0 8 8 3 21 -13z
m-75 -10 c17 -23 17 -33 0 -33 -8 0 -17 7 -20 16 -14 36 -2 46 20 17z m-839 1
c34 -9 19 -21 -21 -16 -20 2 -33 8 -30 13 6 10 20 11 51 3z m6038 -44 c4 -6
-5 -10 -20 -10 -15 0 -24 4 -20 10 3 6 12 10 20 10 8 0 17 -4 20 -10z m-5007
-146 c-4 -3 -12 5 -18 18 -12 22 -12 22 6 6 10 -10 15 -20 12 -24z m5698 -10
c41 -15 74 -30 74 -35 0 -14 -52 -37 -103 -44 -39 -6 -50 -12 -58 -32 -7 -20
-12 -22 -28 -13 -25 13 -41 13 -41 0 0 -5 10 -10 23 -10 12 0 29 -5 37 -10 22
-14 -27 -13 -71 1 -67 23 -66 36 8 106 38 34 72 63 76 63 5 0 42 -12 83 -26z
m-6233 -27 c3 -7 2 -26 0 -43 -6 -29 -6 -29 16 -10 11 11 21 15 21 10 -1 -21
-17 -31 -52 -31 -33 0 -38 3 -38 24 0 45 40 83 53 50z m77 -52 c-15 -39 -23
-25 -8 16 6 18 13 29 15 23 2 -6 -1 -24 -7 -39z m-650 6 c17 -5 21 -9 12 -15
-15 -9 -72 2 -72 15 0 10 23 10 60 0z m-360 -132 c0 -12 106 -119 119 -119 4
0 15 -32 24 -71 30 -124 100 -240 167 -274 34 -18 83 -22 128 -11 21 5 32 4
32 -3 0 -6 9 -20 20 -31 20 -20 20 -20 -20 -40 -46 -24 -94 -26 -134 -5 -32
17 -46 12 -46 -16 0 -26 71 -76 120 -84 55 -9 135 28 179 84 35 44 66 53 74
21 8 -32 26 -23 59 30 17 28 34 50 37 50 3 0 15 -14 26 -30 19 -28 45 -41 45
-22 0 5 20 9 45 9 25 0 45 -2 45 -4 0 -3 -14 -39 -32 -80 -27 -67 -32 -74 -40
-54 -10 29 -33 22 -33 -10 0 -17 5 -24 17 -23 16 2 16 -1 3 -25 -30 -56 -77
-118 -130 -172 -185 -187 -398 -140 -558 123 -36 59 -37 63 -18 66 12 2 21 10
21 17 0 9 6 12 15 9 8 -4 17 1 21 10 3 9 15 16 25 16 10 0 19 6 19 14 0 8 8
13 18 12 12 -1 18 7 20 27 2 19 -1 27 -13 27 -8 0 -18 -6 -21 -14 -3 -8 -12
-12 -20 -9 -10 4 -17 -2 -21 -15 -3 -12 -10 -18 -19 -15 -8 3 -17 -2 -20 -11
-3 -9 -14 -16 -24 -16 -12 0 -20 -9 -22 -22 -2 -16 -14 6 -36 65 -37 100 -38
107 -17 107 8 0 15 6 15 13 0 9 3 8 9 -2 5 -8 14 -10 22 -5 8 4 32 8 54 9 36
0 40 3 40 25 0 22 -5 25 -33 25 -19 1 -35 -2 -37 -5 -2 -3 -21 -5 -42 -4 -21
1 -43 -3 -49 -8 -9 -6 -17 19 -30 87 -10 52 -15 98 -11 102 4 3 17 2 30 -4 26
-13 59 -26 69 -27 3 -1 10 -4 14 -8 13 -13 32 -9 38 8 8 21 -11 45 -30 37 -8
-3 -14 0 -14 6 0 6 -9 11 -20 11 -11 0 -20 5 -20 11 0 6 -9 9 -19 6 -12 -3
-22 1 -25 10 -5 12 -10 13 -20 4 -11 -9 -14 -2 -20 35 -3 26 -6 75 -6 110 0
50 3 64 15 64 8 0 15 -5 15 -11z m1035 -7 c-3 -3 -11 0 -18 7 -9 10 -8 11 6 5
10 -3 15 -9 12 -12z m-58 -4 c-5 -15 -66 -13 -81 2 -7 7 7 10 38 10 34 0 46
-4 43 -12z m-729 -148 c2 -5 16 -27 33 -49 16 -23 29 -52 29 -66 0 -18 5 -25
20 -25 12 0 26 -12 35 -31 20 -39 15 -45 -23 -25 -51 26 -109 105 -143 192 -9
25 -8 26 18 19 16 -3 29 -10 31 -15z m185 13 c-7 -2 -19 -2 -25 0 -7 3 -2 5
12 5 14 0 19 -2 13 -5z m735 -47 c5 -22 -15 -46 -38 -46 -14 0 -17 6 -13 23
12 46 44 61 51 23z m62 -41 c-7 -8 -17 -12 -22 -9 -5 3 -1 15 9 26 20 22 32 6
13 -17z m-783 19 c-3 -3 -12 -4 -19 -1 -8 3 -5 6 6 6 11 1 17 -2 13 -5z m719
-139 c7 -30 1 -40 -21 -32 -20 8 -20 57 0 57 8 0 17 -11 21 -25z m69 14 c11
-17 -1 -21 -15 -4 -8 9 -8 15 -2 15 6 0 14 -5 17 -11z"/>
<path d="M10898 14563 c7 -3 16 -2 19 1 4 3 -2 6 -13 5 -11 0 -14 -3 -6 -6z"/>
<path d="M10953 14553 c9 -2 25 -2 35 0 9 3 1 5 -18 5 -19 0 -27 -2 -17 -5z"/>
<path d="M11678 14483 c6 -2 18 -2 25 0 6 3 1 5 -13 5 -14 0 -19 -2 -12 -5z"/>
<path d="M6945 13700 c-3 -5 -1 -10 6 -10 26 0 -4 -14 -44 -21 l-42 -6 53 -2
c28 0 52 3 52 8 0 5 3 16 6 25 7 18 -21 23 -31 6z"/>
<path d="M6867 13593 c-16 -16 9 -22 66 -16 92 9 99 20 15 21 -41 1 -78 -1
-81 -5z"/>
<path d="M7192 13589 c2 -7 10 -15 17 -17 8 -3 12 1 9 9 -2 7 -10 15 -17 17
-8 3 -12 -1 -9 -9z"/>
<path d="M6770 13554 l-25 -15 25 7 c14 3 29 10 35 15 15 14 -7 10 -35 -7z"/>
<path d="M7226 13543 c-11 -11 -6 -23 9 -23 8 0 15 4 15 9 0 13 -16 22 -24 14z"/>
<path d="M7344 13422 c9 -14 58 -22 53 -8 -2 6 -16 12 -31 14 -16 2 -26 -1
-22 -6z"/>
<path d="M6947 13325 c-10 -14 -24 -25 -32 -25 -8 0 -15 -5 -15 -11 0 -7 14
-8 43 -4 50 9 44 5 49 35 4 34 -22 37 -45 5z"/>
<path d="M7210 13321 c0 -10 47 -21 54 -13 3 3 3 9 0 13 -7 12 -54 12 -54 0z"/>
<path d="M7040 13313 c0 -4 11 -25 24 -47 22 -35 25 -36 31 -17 4 13 1 28 -6
37 -16 19 -49 37 -49 27z"/>
<path d="M6715 13229 c-45 -40 -45 -52 3 -43 47 8 86 42 71 61 -17 20 -35 16
-74 -18z"/>
<path d="M7312 13218 c-7 -7 -12 -20 -12 -31 0 -10 -4 -16 -9 -12 -10 5 -51
-32 -51 -47 0 -4 10 -12 21 -19 18 -9 24 -8 31 5 12 22 24 20 61 -8 18 -13 41
-26 52 -28 18 -3 20 -10 16 -58 -4 -67 -13 -91 -47 -130 -29 -32 -81 -43 -71
-16 4 10 1 13 -9 9 -7 -3 -14 -13 -14 -23 0 -11 -5 -22 -10 -25 -21 -13 3 -25
49 -25 26 0 52 -5 57 -10 7 -7 23 -1 49 20 21 16 44 30 51 30 18 0 34 61 21
78 -5 6 -16 12 -23 12 -12 0 -11 6 3 27 10 15 12 24 5 19 -15 -9 -27 18 -16
36 11 16 5 117 -8 141 -7 14 -16 17 -36 12 -24 -5 -29 -1 -39 25 -12 32 -48
41 -71 18z"/>
<path d="M7591 13154 c0 -11 3 -14 6 -6 3 7 2 16 -1 19 -3 4 -6 -2 -5 -13z"/>
<path d="M7000 13056 c0 -18 35 -22 45 -6 3 6 2 10 -4 10 -5 0 -16 3 -25 6
-11 4 -16 1 -16 -10z"/>
<path d="M7346 12967 c3 -10 9 -15 12 -12 3 3 0 11 -7 18 -10 9 -11 8 -5 -6z"/>
<path d="M7610 12911 c0 -59 11 -101 26 -101 11 0 13 12 8 58 -7 70 -11 82
-24 82 -5 0 -10 -17 -10 -39z"/>
<path d="M6187 12873 c-4 -6 0 -19 8 -29 8 -10 15 -27 15 -36 0 -9 11 -30 25
-45 l25 -28 -20 40 c-11 21 -20 46 -20 55 0 23 -25 55 -33 43z"/>
<path d="M7500 12813 c0 -13 5 -23 10 -23 13 0 13 11 0 30 -8 12 -10 11 -10
-7z"/>
<path d="M7030 12800 c0 -5 11 -10 25 -10 14 0 25 5 25 10 0 6 -11 10 -25 10
-14 0 -25 -4 -25 -10z"/>
<path d="M7556 12585 c-3 -8 -1 -15 4 -15 6 0 10 7 10 15 0 8 -2 15 -4 15 -2
0 -6 -7 -10 -15z"/>
<path d="M6694 12505 c11 -8 22 -12 25 -9 6 6 -19 24 -34 24 -5 -1 -1 -7 9
-15z"/>
<path d="M6686 12160 c12 -12 27 -21 33 -19 16 6 -1 25 -29 34 l-25 7 21 -22z"/>
<path d="M6740 12121 c0 -10 30 -24 37 -17 3 2 -5 9 -16 16 -12 6 -21 7 -21 1z"/>
<path d="M6930 12110 c8 -5 24 -10 35 -10 17 0 17 2 5 10 -8 5 -24 10 -35 10
-17 0 -17 -2 -5 -10z"/>
<path d="M7064 12106 c11 -9 27 -16 35 -16 21 0 2 16 -29 24 -24 7 -24 6 -6
-8z"/>
<path d="M6141 11054 c0 -11 3 -14 6 -6 3 7 2 16 -1 19 -3 4 -6 -2 -5 -13z"/>
<path d="M6066 10698 c-21 -87 -36 -163 -33 -170 2 -7 11 16 19 52 9 36 26
102 38 148 12 45 20 92 18 105 -2 12 -21 -49 -42 -135z"/>
<path d="M6046 10499 c-15 -55 -25 -103 -23 -106 6 -5 29 72 47 151 19 88 4
58 -24 -45z"/>
<path d="M6712 3258 c-19 -19 -14 -48 8 -48 15 0 20 7 20 24 0 30 -12 40 -28
24z"/>
<path d="M6795 3229 c-8 -23 7 -45 24 -35 6 4 11 18 11 32 0 30 -26 32 -35 3z"/>
<path d="M6702 3153 c4 -36 33 -39 33 -3 0 16 -6 26 -18 28 -15 3 -18 -2 -15
-25z"/>
<path d="M6614 3146 c-8 -22 3 -49 19 -43 6 2 12 14 12 27 0 27 -22 39 -31 16z"/>
<path d="M6316 3143 c-3 -4 -6 -14 -6 -24 0 -9 -9 -19 -21 -22 -15 -4 -20 -12
-17 -29 4 -29 32 -30 36 -2 2 12 12 24 23 27 22 6 26 42 5 50 -8 3 -17 3 -20
0z"/>
<path d="M6417 3094 c-4 -4 -7 -18 -7 -31 0 -18 5 -24 18 -21 10 2 17 12 17
27 0 24 -15 37 -28 25z"/>
<path d="M6514 3085 c-9 -23 3 -45 21 -39 20 8 20 54 0 54 -9 0 -18 -7 -21
-15z"/>
<path d="M6707 3093 c-4 -3 -7 -17 -7 -30 0 -28 26 -31 35 -3 9 30 -10 52 -28
33z"/>
<path d="M6607 3074 c-4 -4 -7 -18 -7 -31 0 -18 5 -24 18 -21 10 2 17 12 17
27 0 24 -15 37 -28 25z"/>
<path d="M6247 3054 c-4 -4 -7 -18 -7 -31 0 -26 27 -32 37 -7 6 17 -19 49 -30
38z"/>
<path d="M6387 3034 c-4 -4 -7 -18 -7 -31 0 -18 5 -24 18 -21 10 2 17 12 17
27 0 24 -15 37 -28 25z"/>
<path d="M6494 3016 c-8 -22 3 -49 19 -43 6 2 12 14 12 27 0 27 -22 39 -31 16z"/>
<path d="M6204 2996 c-8 -22 3 -49 19 -43 6 2 12 14 12 27 0 27 -22 39 -31 16z"/>
<path d="M6694 2995 c-7 -18 3 -35 22 -35 8 0 14 10 14 25 0 27 -27 35 -36 10z"/>
<path d="M6590 2970 c0 -19 5 -30 14 -30 17 0 28 24 20 45 -11 27 -34 17 -34
-15z"/>
<path d="M6356 2973 c-3 -4 -6 -17 -6 -30 0 -31 34 -28 38 3 3 21 -20 39 -32
27z"/>
<path d="M6477 2953 c-13 -12 -7 -53 7 -53 17 0 28 24 20 45 -7 16 -17 19 -27
8z"/>
<path d="M6575 2900 c-8 -27 10 -49 26 -33 13 13 8 45 -8 50 -6 2 -14 -6 -18
-17z"/>
<path d="M6320 2885 c0 -20 4 -26 18 -23 9 2 17 12 17 23 0 11 -8 21 -17 23
-14 3 -18 -3 -18 -23z"/>
<path d="M6446 2864 c-7 -19 1 -34 19 -34 15 0 24 19 18 38 -6 17 -30 15 -37
-4z"/>
<path d="M10711 15500 c-35 -21 -71 -46 -80 -56 -14 -16 -13 -16 14 1 88 54
148 97 133 95 -2 -1 -32 -18 -67 -40z"/>
<path d="M6537 14833 c-10 -25 -17 -29 -44 -26 -17 2 -34 -1 -38 -7 -4 -7 43
-9 147 -8 128 1 139 3 68 7 -79 6 -85 8 -90 30 -8 36 -28 37 -43 4z"/>
<path d="M8758 14796 c-1 -2 -151 -6 -333 -10 -181 -4 -636 -13 -1010 -21
-374 -8 -831 -17 -1015 -20 -531 -9 -549 -11 -564 -51 -3 -9 -9 -75 -11 -148
-3 -72 -8 -148 -10 -168 -3 -25 1 -44 13 -58 17 -21 24 -21 222 -20 113 1 277
3 365 5 88 2 297 6 465 10 168 3 400 8 515 10 116 3 356 7 535 10 624 10 825
16 847 27 29 14 33 37 43 218 8 166 3 196 -37 211 -11 4 -23 6 -25 5z m39 -53
c11 -23 -9 -349 -22 -362 -6 -5 -188 -12 -430 -15 -231 -4 -463 -8 -515 -11
-52 -3 -270 -7 -485 -10 -214 -3 -453 -7 -530 -10 -77 -3 -318 -7 -536 -11
-325 -5 -400 -4 -418 7 -22 14 -22 16 -15 174 6 145 9 161 28 176 26 21 120
26 616 34 468 7 805 14 965 20 72 3 326 8 565 11 239 4 436 8 438 9 1 1 76 3
167 4 149 2 165 0 172 -16z"/>
<path d="M8502 14688 c-20 -20 -15 -66 7 -73 25 -8 109 -4 138 6 26 10 39 45
23 64 -16 19 -150 21 -168 3z"/>
<path d="M6192 14638 c-22 -22 -15 -57 13 -64 33 -8 57 12 53 45 -2 19 -10 27
-28 29 -14 2 -31 -3 -38 -10z"/>
<path d="M12100 14299 c0 -5 9 -9 20 -9 11 0 20 2 20 4 0 2 -9 6 -20 9 -11 3
-20 1 -20 -4z"/>
<path d="M12216 14266 c-22 -6 -41 -17 -44 -25 -5 -14 13 -11 71 14 41 17 21
25 -27 11z"/>
<path d="M8258 13883 c7 -3 16 -2 19 1 4 3 -2 6 -13 5 -11 0 -14 -3 -6 -6z"/>
<path d="M8303 13883 c9 -2 23 -2 30 0 6 3 -1 5 -18 5 -16 0 -22 -2 -12 -5z"/>
<path d="M8530 13596 c0 -8 4 -17 9 -20 10 -7 23 19 14 28 -11 11 -23 6 -23
-8z"/>
<path d="M8341 11809 c-13 -54 -25 -99 -26 -99 -2 0 -27 16 -56 35 -65 42 -89
45 -89 10 0 -18 9 -31 30 -43 16 -9 30 -25 30 -35 0 -15 7 -18 52 -15 l52 3
23 90 c24 94 28 140 15 149 -4 2 -18 -40 -31 -95z"/>
<path d="M5026 11611 c-27 -30 -17 -81 16 -81 17 0 18 3 8 15 -9 11 -9 22 -2
45 13 35 1 47 -22 21z"/>
<path d="M5503 11581 c-9 -14 -9 -22 -2 -27 15 -9 21 1 17 26 -3 21 -3 21 -15
1z"/>
<path d="M15083 10114 c-8 -21 6 -217 16 -227 10 -10 55 45 70 86 19 50 14
105 -14 132 -27 28 -63 33 -72 9z"/>
<path d="M14595 9741 c-3 -5 3 -29 14 -53 11 -24 22 -51 26 -62 5 -18 6 -18
25 -1 40 36 15 125 -35 125 -13 0 -26 -4 -30 -9z"/>
<path d="M14773 9703 c-16 -10 -23 -26 -23 -47 -1 -17 -7 -48 -14 -68 l-13
-36 26 19 c28 20 55 91 49 127 -3 18 -5 19 -25 5z"/>
<path d="M7903 8972 c20 -2 35 -7 32 -13 -4 -5 17 -10 47 -11 145 -5 170 -5
157 2 -29 16 -126 29 -199 28 -41 -1 -58 -3 -37 -6z"/>
<path d="M8290 8843 c0 -6 5 -15 11 -18 17 -11 -5 -143 -46 -285 -6 -21 -38
-150 -60 -242 -14 -58 -16 -82 -8 -100 14 -29 10 -39 73 212 28 113 56 224 62
247 l12 41 54 -56 c30 -31 60 -66 68 -77 11 -15 14 -16 14 -4 0 21 -47 83 -99
134 -33 32 -41 46 -41 76 0 33 -39 103 -40 72z"/>
<path d="M7888 8323 c7 -3 16 -2 19 1 4 3 -2 6 -13 5 -11 0 -14 -3 -6 -6z"/>
</g>
</svg>
