<?xml version="1.0" encoding="UTF-8"?>
<svg version="1.1" xmlns="http://www.w3.org/2000/svg" width="70" height="72">
<path d="M0 0 C5.74476625 3.25629263 9.83202794 7.71075408 13.0625 13.4375 C15.22922447 22.32107032 15.15848525 30.1004926 10.5 38.1875 C7.18970536 43.06531652 3.24999942 46.68895378 -2 49.375 C-10.40370371 50.96060447 -17.5752713 50.85056772 -25.12109375 46.55078125 C-30.44001415 42.78676806 -34.90972358 37.48496641 -36.3125 31 C-37.30345296 21.97131746 -36.77310535 14.46878766 -31.3125 7 C-23.16217647 -2.11829545 -11.30828613 -5.10251935 0 0 Z M-28.8359375 9.12890625 C-33.83905957 15.46884136 -34.21440123 22.22498941 -33.3125 30 C-31.27633068 37.55559684 -25.43257956 42.57020949 -18.875 46.4375 C-12.05891179 47.93371449 -5.42856743 47.52514681 0.6875 44 C5.61847044 40.17578044 8.9911084 36.08705223 10.6875 30 C11.50509845 22.60073404 11.34809281 16.05356329 6.6875 10 C1.33781636 4.25193567 -3.25420759 1.32728165 -11.1875 0.6875 C-18.61865613 0.9422825 -23.85163821 3.65528077 -28.8359375 9.12890625 Z " fill="#FFFFFF" transform="translate(46.3125,12)"/>
<path d="M0 0 C3.25669165 3.08065427 6.10679924 5.89806503 8 10 C7.6875 12.3125 7.6875 12.3125 7 14 C4.8125 14 4.8125 14 2 13 C-0.15493155 10.57292504 -1.94305127 8.07943441 -3 5 C-2.24646543 2.95053158 -1.54311415 1.54311415 0 0 Z " fill="#FFFFFF" transform="translate(58,11)"/>
<path d="M0 0 C1.33895632 1.66215268 2.67130142 3.32963607 4 5 C4.8971875 6.0209375 4.8971875 6.0209375 5.8125 7.0625 C7 9 7 9 6.6875 11.25 C6.460625 11.8275 6.23375 12.405 6 13 C4.68 13.33 3.36 13.66 2 14 C0.96679519 12.40377344 -0.05122429 10.79770894 -1.0625 9.1875 C-1.63097656 8.29417969 -2.19945312 7.40085937 -2.78515625 6.48046875 C-4 4 -4 4 -3 1 C-2.01 0.67 -1.02 0.34 0 0 Z " fill="#FFFFFF" transform="translate(8,46)"/>
<path d="M0 0 C1.65 0.33 3.3 0.66 5 1 C3.63855967 6.19822672 1.53269829 9.09543873 -2 13 C-3.32 12.34 -4.64 11.68 -6 11 C-5.39305845 7.84669446 -4.3583335 5.81111133 -2.4375 3.25 C-1.98246094 2.63640625 -1.52742188 2.0228125 -1.05859375 1.390625 C-0.70925781 0.93171875 -0.35992187 0.4728125 0 0 Z " fill="#FFFFFF" transform="translate(61,47)"/>
<path d="M0 0 C1.32 0.33 2.64 0.66 4 1 C4 5.13978192 3.67617664 5.98573504 1.5 9.25 C1.0359375 9.95640625 0.571875 10.6628125 0.09375 11.390625 C-0.2671875 11.92171875 -0.628125 12.4528125 -1 13 C-2.65 12.67 -4.3 12.34 -6 12 C-4.68139111 7.38486888 -2.78644563 3.90102388 0 0 Z " fill="#FFFFFF" transform="translate(10,12)"/>
<path d="M0 0 C0 4.95 0 9.9 0 15 C-2.97 14.505 -2.97 14.505 -6 14 C-5.67 9.71 -5.34 5.42 -5 1 C-1 0 -1 0 0 0 Z " fill="#FFFFFF" transform="translate(68,28)"/>
<path d="M0 0 C2.475 0.495 2.475 0.495 5 1 C5 5.29 5 9.58 5 14 C3.35 14.33 1.7 14.66 0 15 C0 10.05 0 5.1 0 0 Z " fill="#FFFFFF" transform="translate(2,28)"/>
</svg>
